<svg width="696" height="718" viewBox="0 0 522 538.5" xmlns="http://www.w3.org/2000/svg" xmlns:xlink="http://www.w3.org/1999/xlink">
<g id="graph0" class="graph" transform="translate(35.48235683882449,537.1156812339332) scale(0.34607969151670953)">
<title>regexp</title>
<polygon fill="white" stroke="none" points="-4,4 -4,-1552 1307.27,-1552 1307.27,4 -4,4"/>
<!-- showall -->
<g id="node1" class="node">
<title>showall</title>
<polygon fill="none" stroke="black" stroke-width="2" points="478.78,-36 419.22,-36 419.22,0 478.78,0 478.78,-36"/>
<text text-anchor="middle" x="449" y="-13.8" font-family="Helvetica,Arial,sans-serif" font-size="14.00">showall</text>
</g>
<!-- show -->
<g id="node2" class="node">
<title>show</title>
<polygon fill="none" stroke="black" stroke-width="2" points="551,-36 497,-36 497,0 551,0 551,-36"/>
<text text-anchor="middle" x="524" y="-13.8" font-family="Helvetica,Arial,sans-serif" font-size="14.00">show</text>
</g>
<!-- commonsetup -->
<g id="node3" class="node">
<title>commonsetup</title>
<path fill="none" stroke="black" d="M487.55,-1548C487.55,-1548 408.45,-1548 408.45,-1548 402.45,-1548 396.45,-1542 396.45,-1536 396.45,-1536 396.45,-1524 396.45,-1524 396.45,-1518 402.45,-1512 408.45,-1512 408.45,-1512 487.55,-1512 487.55,-1512 493.55,-1512 499.55,-1518 499.55,-1524 499.55,-1524 499.55,-1536 499.55,-1536 499.55,-1542 493.55,-1548 487.55,-1548"/>
<text text-anchor="middle" x="448" y="-1525.8" font-family="Helvetica,Arial,sans-serif" font-size="14.00">f:commonsetup</text>
</g>
<!-- taxdownload -->
<g id="node4" class="node">
<title>taxdownload</title>
<path fill="none" stroke="black" d="M749.6,-1476C749.6,-1476 674.4,-1476 674.4,-1476 668.4,-1476 662.4,-1470 662.4,-1464 662.4,-1464 662.4,-1452 662.4,-1452 662.4,-1446 668.4,-1440 674.4,-1440 674.4,-1440 749.6,-1440 749.6,-1440 755.6,-1440 761.6,-1446 761.6,-1452 761.6,-1452 761.6,-1464 761.6,-1464 761.6,-1470 755.6,-1476 749.6,-1476"/>
<text text-anchor="middle" x="712" y="-1453.8" font-family="Helvetica,Arial,sans-serif" font-size="14.00">d:taxdownload</text>
</g>
<!-- taxdownload&#45;&gt;commonsetup -->
<g id="edge1" class="edge">
<title>taxdownload-&gt;commonsetup</title>
<path fill="none" stroke="black" d="M662.03,-1472.25C619.22,-1483.6 557.34,-1500.01 511.11,-1512.27"/>
<polygon fill="black" stroke="black" points="510.25,-1508.87 501.48,-1514.82 512.04,-1515.64 510.25,-1508.87"/>
</g>
<!-- taxtree -->
<g id="node5" class="node">
<title>taxtree</title>
<path fill="none" stroke="black" d="M861.49,-1332C861.49,-1332 820.51,-1332 820.51,-1332 814.51,-1332 808.51,-1326 808.51,-1320 808.51,-1320 808.51,-1308 808.51,-1308 808.51,-1302 814.51,-1296 820.51,-1296 820.51,-1296 861.49,-1296 861.49,-1296 867.49,-1296 873.49,-1302 873.49,-1308 873.49,-1308 873.49,-1320 873.49,-1320 873.49,-1326 867.49,-1332 861.49,-1332"/>
<text text-anchor="middle" x="841" y="-1309.8" font-family="Helvetica,Arial,sans-serif" font-size="14.00">o:taxtree</text>
</g>
<!-- taxtree&#45;&gt;taxdownload -->
<g id="edge2" class="edge">
<title>taxtree-&gt;taxdownload</title>
<path fill="none" stroke="black" d="M825.18,-1332.41C802.62,-1357.24 761.07,-1402.99 735.07,-1431.6"/>
<polygon fill="black" stroke="black" points="732.7,-1429.01 728.56,-1438.77 737.88,-1433.72 732.7,-1429.01"/>
</g>
<!-- taxnodes -->
<g id="node6" class="node">
<title>taxnodes</title>
<path fill="none" stroke="black" d="M924.33,-1260C924.33,-1260 871.67,-1260 871.67,-1260 865.67,-1260 859.67,-1254 859.67,-1248 859.67,-1248 859.67,-1236 859.67,-1236 859.67,-1230 865.67,-1224 871.67,-1224 871.67,-1224 924.33,-1224 924.33,-1224 930.33,-1224 936.33,-1230 936.33,-1236 936.33,-1236 936.33,-1248 936.33,-1248 936.33,-1254 930.33,-1260 924.33,-1260"/>
<text text-anchor="middle" x="898" y="-1237.8" font-family="Helvetica,Arial,sans-serif" font-size="14.00">o:taxnodes</text>
</g>
<!-- taxnodes&#45;&gt;taxtree -->
<g id="edge3" class="edge">
<title>taxnodes-&gt;taxtree</title>
<path fill="none" stroke="black" stroke-dasharray="1,5" d="M883.91,-1260.3C877.35,-1268.36 869.41,-1278.11 862.16,-1287.02"/>
<polygon fill="black" stroke="black" points="859.48,-1284.76 855.88,-1294.72 864.91,-1289.18 859.48,-1284.76"/>
</g>
<!-- refseqrelease -->
<g id="node7" class="node">
<title>refseqrelease</title>
<path fill="none" stroke="black" d="M252.97,-1476C252.97,-1476 177.03,-1476 177.03,-1476 171.03,-1476 165.03,-1470 165.03,-1464 165.03,-1464 165.03,-1452 165.03,-1452 165.03,-1446 171.03,-1440 177.03,-1440 177.03,-1440 252.97,-1440 252.97,-1440 258.97,-1440 264.97,-1446 264.97,-1452 264.97,-1452 264.97,-1464 264.97,-1464 264.97,-1470 258.97,-1476 252.97,-1476"/>
<text text-anchor="middle" x="215" y="-1453.8" font-family="Helvetica,Arial,sans-serif" font-size="14.00">d:refseqrelease</text>
</g>
<!-- refseqrelease&#45;&gt;commonsetup -->
<g id="edge4" class="edge">
<title>refseqrelease-&gt;commonsetup</title>
<path fill="none" stroke="black" d="M265.27,-1474.1C300.46,-1484.67 347.72,-1498.87 385.36,-1510.18"/>
<polygon fill="black" stroke="black" points="384.17,-1513.48 394.76,-1513 386.19,-1506.77 384.17,-1513.48"/>
</g>
<!-- refseqcat -->
<g id="node8" class="node">
<title>refseqcat</title>
<path fill="none" stroke="black" d="M227.7,-1404C227.7,-1404 174.3,-1404 174.3,-1404 168.3,-1404 162.3,-1398 162.3,-1392 162.3,-1392 162.3,-1380 162.3,-1380 162.3,-1374 168.3,-1368 174.3,-1368 174.3,-1368 227.7,-1368 227.7,-1368 233.7,-1368 239.7,-1374 239.7,-1380 239.7,-1380 239.7,-1392 239.7,-1392 239.7,-1398 233.7,-1404 227.7,-1404"/>
<text text-anchor="middle" x="201" y="-1381.8" font-family="Helvetica,Arial,sans-serif" font-size="14.00">d:refseqcat</text>
</g>
<!-- refseqcat&#45;&gt;commonsetup -->
<g id="edge5" class="edge">
<title>refseqcat-&gt;commonsetup</title>
<path fill="none" stroke="black" d="M231.29,-1404.41C275.76,-1429.98 358.78,-1477.71 408.15,-1506.09"/>
<polygon fill="black" stroke="black" points="406.13,-1508.96 416.54,-1510.91 409.61,-1502.9 406.13,-1508.96"/>
</g>
<!-- refseqcat&#45;&gt;refseqrelease -->
<g id="edge6" class="edge">
<title>refseqcat-&gt;refseqrelease</title>
<path fill="none" stroke="black" d="M204.46,-1404.3C205.94,-1411.68 207.7,-1420.48 209.35,-1428.75"/>
<polygon fill="black" stroke="black" points="205.89,-1429.29 211.28,-1438.41 212.75,-1427.92 205.89,-1429.29"/>
</g>
<!-- checksummap -->
<g id="node9" class="node">
<title>checksummap</title>
<path fill="none" stroke="black" d="M160.49,-1116C160.49,-1116 77.51,-1116 77.51,-1116 71.51,-1116 65.51,-1110 65.51,-1104 65.51,-1104 65.51,-1092 65.51,-1092 65.51,-1086 71.51,-1080 77.51,-1080 77.51,-1080 160.49,-1080 160.49,-1080 166.49,-1080 172.49,-1086 172.49,-1092 172.49,-1092 172.49,-1104 172.49,-1104 172.49,-1110 166.49,-1116 160.49,-1116"/>
<text text-anchor="middle" x="119" y="-1093.8" font-family="Helvetica,Arial,sans-serif" font-size="14.00">o:checksummap</text>
</g>
<!-- checksummap&#45;&gt;refseqcat -->
<g id="edge7" class="edge">
<title>checksummap-&gt;refseqcat</title>
<path fill="none" stroke="black" d="M120.82,-1116.21C124.26,-1145.99 132.75,-1208.83 148,-1260 158.32,-1294.63 175.29,-1332.62 187.24,-1357.52"/>
<polygon fill="black" stroke="black" points="183.99,-1358.84 191.52,-1366.3 190.28,-1355.77 183.99,-1358.84"/>
</g>
<!-- clear -->
<g id="node10" class="node">
<title>clear</title>
<polygon fill="none" stroke="black" stroke-width="2" points="951,-36 897,-36 897,0 951,0 951,-36"/>
<text text-anchor="middle" x="924" y="-13.8" font-family="Helvetica,Arial,sans-serif" font-size="14.00">f:clear</text>
</g>
<!-- categories -->
<g id="node11" class="node">
<title>categories</title>
<path fill="none" stroke="black" d="M400.82,-1404C400.82,-1404 341.18,-1404 341.18,-1404 335.18,-1404 329.18,-1398 329.18,-1392 329.18,-1392 329.18,-1380 329.18,-1380 329.18,-1374 335.18,-1368 341.18,-1368 341.18,-1368 400.82,-1368 400.82,-1368 406.82,-1368 412.82,-1374 412.82,-1380 412.82,-1380 412.82,-1392 412.82,-1392 412.82,-1398 406.82,-1404 400.82,-1404"/>
<text text-anchor="middle" x="371" y="-1381.8" font-family="Helvetica,Arial,sans-serif" font-size="14.00">o:categories</text>
</g>
<!-- refseqfna -->
<g id="node12" class="node">
<title>refseqfna</title>
<path fill="none" stroke="black" d="M198.48,-972C198.48,-972 143.52,-972 143.52,-972 137.52,-972 131.52,-966 131.52,-960 131.52,-960 131.52,-948 131.52,-948 131.52,-942 137.52,-936 143.52,-936 143.52,-936 198.48,-936 198.48,-936 204.48,-936 210.48,-942 210.48,-948 210.48,-948 210.48,-960 210.48,-960 210.48,-966 204.48,-972 198.48,-972"/>
<text text-anchor="middle" x="171" y="-949.8" font-family="Helvetica,Arial,sans-serif" font-size="14.00">d:refseqfna</text>
</g>
<!-- refseqfna&#45;&gt;refseqcat -->
<g id="edge9" class="edge">
<title>refseqfna-&gt;refseqcat</title>
<path fill="none" stroke="black" d="M136.75,-972.47C97.34,-995.29 38,-1039.24 38,-1097 38,-1097 38,-1097 38,-1243 38,-1303.89 103.46,-1344.63 151.41,-1366.31"/>
<polygon fill="black" stroke="black" points="150,-1369.51 160.57,-1370.3 152.8,-1363.09 150,-1369.51"/>
</g>
<!-- refseqfna&#45;&gt;checksummap -->
<g id="edge10" class="edge">
<title>refseqfna-&gt;checksummap</title>
<path fill="none" stroke="black" stroke-dasharray="1,5" d="M164.62,-972.41C155.77,-996.6 139.64,-1040.64 129.13,-1069.35"/>
<polygon fill="black" stroke="black" points="125.94,-1067.87 125.79,-1078.47 132.51,-1070.28 125.94,-1067.87"/>
</g>
<!-- refseqfna&#45;&gt;categories -->
<g id="edge8" class="edge">
<title>refseqfna-&gt;categories</title>
<path fill="none" stroke="black" stroke-dasharray="1,5" d="M172.72,-972.37C175.03,-996.49 179.08,-1041.51 181,-1080 181.35,-1086.99 181.73,-1326.45 186,-1332 202.08,-1352.9 268.66,-1368.17 317.36,-1376.82"/>
<polygon fill="black" stroke="black" points="316.75,-1380.26 327.2,-1378.51 317.94,-1373.37 316.75,-1380.26"/>
</g>
<!-- accmapsize -->
<g id="node13" class="node">
<title>accmapsize</title>
<path fill="none" stroke="black" d="M311.7,-1332C311.7,-1332 244.3,-1332 244.3,-1332 238.3,-1332 232.3,-1326 232.3,-1320 232.3,-1320 232.3,-1308 232.3,-1308 232.3,-1302 238.3,-1296 244.3,-1296 244.3,-1296 311.7,-1296 311.7,-1296 317.7,-1296 323.7,-1302 323.7,-1308 323.7,-1308 323.7,-1320 323.7,-1320 323.7,-1326 317.7,-1332 311.7,-1332"/>
<text text-anchor="middle" x="278" y="-1309.8" font-family="Helvetica,Arial,sans-serif" font-size="14.00">o:accmapsize</text>
</g>
<!-- accmapsize&#45;&gt;refseqcat -->
<g id="edge12" class="edge">
<title>accmapsize-&gt;refseqcat</title>
<path fill="none" stroke="black" d="M258.97,-1332.3C249.8,-1340.63 238.65,-1350.78 228.57,-1359.93"/>
<polygon fill="black" stroke="black" points="226.25,-1357.32 221.2,-1366.63 230.96,-1362.5 226.25,-1357.32"/>
</g>
<!-- accmapsize&#45;&gt;categories -->
<g id="edge11" class="edge">
<title>accmapsize-&gt;categories</title>
<path fill="none" stroke="black" stroke-dasharray="1,5" d="M300.99,-1332.3C312.39,-1340.89 326.35,-1351.39 338.8,-1360.76"/>
<polygon fill="black" stroke="black" points="336.65,-1363.53 346.74,-1366.74 340.86,-1357.93 336.65,-1363.53"/>
</g>
<!-- accmap -->
<g id="node14" class="node">
<title>accmap</title>
<path fill="none" stroke="black" d="M318.82,-1260C318.82,-1260 273.18,-1260 273.18,-1260 267.18,-1260 261.18,-1254 261.18,-1248 261.18,-1248 261.18,-1236 261.18,-1236 261.18,-1230 267.18,-1224 273.18,-1224 273.18,-1224 318.82,-1224 318.82,-1224 324.82,-1224 330.82,-1230 330.82,-1236 330.82,-1236 330.82,-1248 330.82,-1248 330.82,-1254 324.82,-1260 318.82,-1260"/>
<text text-anchor="middle" x="296" y="-1237.8" font-family="Helvetica,Arial,sans-serif" font-size="14.00">o:accmap</text>
</g>
<!-- accmap&#45;&gt;refseqcat -->
<g id="edge14" class="edge">
<title>accmap-&gt;refseqcat</title>
<path fill="none" stroke="black" d="M262.37,-1260.39C248.27,-1269.27 232.88,-1281.32 223,-1296 210.97,-1313.87 205.51,-1337.72 203.04,-1356.24"/>
<polygon fill="black" stroke="black" points="199.58,-1355.69 201.97,-1366.01 206.53,-1356.45 199.58,-1355.69"/>
</g>
<!-- accmap&#45;&gt;categories -->
<g id="edge13" class="edge">
<title>accmap-&gt;categories</title>
<path fill="none" stroke="black" stroke-dasharray="1,5" d="M309.27,-1260.08C316.78,-1270.19 326.03,-1283.44 333,-1296 343.95,-1315.74 353.87,-1339.27 360.83,-1357.18"/>
<polygon fill="black" stroke="black" points="357.5,-1358.26 364.32,-1366.36 364.04,-1355.77 357.5,-1358.26"/>
</g>
<!-- accmap&#45;&gt;accmapsize -->
<g id="edge15" class="edge">
<title>accmap-&gt;accmapsize</title>
<path fill="none" stroke="black" stroke-dasharray="1,5" d="M291.55,-1260.3C289.65,-1267.68 287.39,-1276.48 285.26,-1284.75"/>
<polygon fill="black" stroke="black" points="281.88,-1283.87 282.78,-1294.43 288.66,-1285.62 281.88,-1283.87"/>
</g>
<!-- taxfromgenbank -->
<g id="node15" class="node">
<title>taxfromgenbank</title>
<path fill="none" stroke="black" d="M600.32,-1188C600.32,-1188 505.68,-1188 505.68,-1188 499.68,-1188 493.68,-1182 493.68,-1176 493.68,-1176 493.68,-1164 493.68,-1164 493.68,-1158 499.68,-1152 505.68,-1152 505.68,-1152 600.32,-1152 600.32,-1152 606.32,-1152 612.32,-1158 612.32,-1164 612.32,-1164 612.32,-1176 612.32,-1176 612.32,-1182 606.32,-1188 600.32,-1188"/>
<text text-anchor="middle" x="553" y="-1165.8" font-family="Helvetica,Arial,sans-serif" font-size="14.00">o:taxfromgenbank</text>
</g>
<!-- taxfromgenbank&#45;&gt;taxnodes -->
<g id="edge17" class="edge">
<title>taxfromgenbank-&gt;taxnodes</title>
<path fill="none" stroke="black" stroke-dasharray="1,5" d="M612.7,-1183.11C679.33,-1196.63 785.95,-1218.27 848.25,-1230.91"/>
<polygon fill="black" stroke="black" points="847.36,-1234.3 857.86,-1232.86 848.76,-1227.44 847.36,-1234.3"/>
</g>
<!-- taxfromgenbank&#45;&gt;categories -->
<g id="edge16" class="edge">
<title>taxfromgenbank-&gt;categories</title>
<path fill="none" stroke="black" stroke-dasharray="1,5" d="M549.24,-1188.49C541.51,-1220.69 521,-1289.89 480,-1332 464.58,-1347.84 443.46,-1359.6 423.92,-1367.97"/>
<polygon fill="black" stroke="black" points="422.63,-1364.71 414.67,-1371.71 425.26,-1371.2 422.63,-1364.71"/>
</g>
<!-- taxfromgenbank&#45;&gt;accmap -->
<g id="edge18" class="edge">
<title>taxfromgenbank-&gt;accmap</title>
<path fill="none" stroke="black" stroke-dasharray="1,5" d="M493.39,-1187.24C447.35,-1199.78 384.55,-1216.88 342.25,-1228.4"/>
<polygon fill="black" stroke="black" points="341.35,-1225.02 332.62,-1231.02 343.19,-1231.77 341.35,-1225.02"/>
</g>
<!-- assemblydownload -->
<g id="node16" class="node">
<title>assemblydownload</title>
<path fill="none" stroke="black" d="M605.1,-1476C605.1,-1476 494.9,-1476 494.9,-1476 488.9,-1476 482.9,-1470 482.9,-1464 482.9,-1464 482.9,-1452 482.9,-1452 482.9,-1446 488.9,-1440 494.9,-1440 494.9,-1440 605.1,-1440 605.1,-1440 611.1,-1440 617.1,-1446 617.1,-1452 617.1,-1452 617.1,-1464 617.1,-1464 617.1,-1470 611.1,-1476 605.1,-1476"/>
<text text-anchor="middle" x="550" y="-1453.8" font-family="Helvetica,Arial,sans-serif" font-size="14.00">d:assemblydownload</text>
</g>
<!-- assemblydownload&#45;&gt;commonsetup -->
<g id="edge19" class="edge">
<title>assemblydownload-&gt;commonsetup</title>
<path fill="none" stroke="black" d="M524.52,-1476.48C511.77,-1485.24 496.15,-1495.96 482.35,-1505.42"/>
<polygon fill="black" stroke="black" points="480.66,-1502.34 474.4,-1510.88 484.62,-1508.11 480.66,-1502.34"/>
</g>
<!-- fastasgenbank -->
<g id="node17" class="node">
<title>fastasgenbank</title>
<path fill="none" stroke="black" d="M681.1,-1116C681.1,-1116 598.9,-1116 598.9,-1116 592.9,-1116 586.9,-1110 586.9,-1104 586.9,-1104 586.9,-1092 586.9,-1092 586.9,-1086 592.9,-1080 598.9,-1080 598.9,-1080 681.1,-1080 681.1,-1080 687.1,-1080 693.1,-1086 693.1,-1092 693.1,-1092 693.1,-1104 693.1,-1104 693.1,-1110 687.1,-1116 681.1,-1116"/>
<text text-anchor="middle" x="640" y="-1093.8" font-family="Helvetica,Arial,sans-serif" font-size="14.00">o:fastasgenbank</text>
</g>
<!-- fastasgenbank&#45;&gt;taxtree -->
<g id="edge20" class="edge">
<title>fastasgenbank-&gt;taxtree</title>
<path fill="none" stroke="black" stroke-dasharray="1,5" d="M655.5,-1116.07C682.4,-1145.63 739.61,-1208.17 789,-1260 797.76,-1269.19 807.48,-1279.16 816.12,-1287.94"/>
<polygon fill="black" stroke="black" points="813.43,-1290.2 822.95,-1294.86 818.41,-1285.28 813.43,-1290.2"/>
</g>
<!-- fastasgenbank&#45;&gt;taxfromgenbank -->
<g id="edge21" class="edge">
<title>fastasgenbank-&gt;taxfromgenbank</title>
<path fill="none" stroke="black" stroke-dasharray="1,5" d="M618.49,-1116.3C607.93,-1124.8 595.02,-1135.19 583.47,-1144.49"/>
<polygon fill="black" stroke="black" points="581.34,-1141.71 575.74,-1150.7 585.72,-1147.16 581.34,-1141.71"/>
</g>
<!-- fastasgenbank&#45;&gt;assemblydownload -->
<g id="edge22" class="edge">
<title>fastasgenbank-&gt;assemblydownload</title>
<path fill="none" stroke="black" stroke-dasharray="1,5" d="M640,-1116.49C640,-1143.29 640,-1196.13 640,-1241 640,-1241 640,-1241 640,-1315 640,-1361.62 604.97,-1405.34 578.62,-1431.63"/>
<polygon fill="black" stroke="black" points="576.28,-1429.02 571.51,-1438.49 581.14,-1434.06 576.28,-1429.02"/>
</g>
<!-- fastasgenbankdl -->
<g id="node18" class="node">
<title>fastasgenbankdl</title>
<path fill="none" stroke="black" d="M762.54,-1044C762.54,-1044 669.46,-1044 669.46,-1044 663.46,-1044 657.46,-1038 657.46,-1032 657.46,-1032 657.46,-1020 657.46,-1020 657.46,-1014 663.46,-1008 669.46,-1008 669.46,-1008 762.54,-1008 762.54,-1008 768.54,-1008 774.54,-1014 774.54,-1020 774.54,-1020 774.54,-1032 774.54,-1032 774.54,-1038 768.54,-1044 762.54,-1044"/>
<text text-anchor="middle" x="716" y="-1021.8" font-family="Helvetica,Arial,sans-serif" font-size="14.00">d:fastasgenbankdl</text>
</g>
<!-- fastasgenbankdl&#45;&gt;fastasgenbank -->
<g id="edge23" class="edge">
<title>fastasgenbankdl-&gt;fastasgenbank</title>
<path fill="none" stroke="black" stroke-dasharray="1,5" d="M697.21,-1044.3C688.17,-1052.63 677.16,-1062.78 667.22,-1071.93"/>
<polygon fill="black" stroke="black" points="664.93,-1069.28 659.95,-1078.63 669.67,-1074.43 664.93,-1069.28"/>
</g>
<!-- adddownloads -->
<g id="node19" class="node">
<title>adddownloads</title>
<path fill="none" stroke="black" d="M627.88,-1044C627.88,-1044 544.12,-1044 544.12,-1044 538.12,-1044 532.12,-1038 532.12,-1032 532.12,-1032 532.12,-1020 532.12,-1020 532.12,-1014 538.12,-1008 544.12,-1008 544.12,-1008 627.88,-1008 627.88,-1008 633.88,-1008 639.88,-1014 639.88,-1020 639.88,-1020 639.88,-1032 639.88,-1032 639.88,-1038 633.88,-1044 627.88,-1044"/>
<text text-anchor="middle" x="586" y="-1021.8" font-family="Helvetica,Arial,sans-serif" font-size="14.00">d:adddownloads</text>
</g>
<!-- addfastas -->
<g id="node20" class="node">
<title>addfastas</title>
<path fill="none" stroke="black" d="M613.49,-972C613.49,-972 558.51,-972 558.51,-972 552.51,-972 546.51,-966 546.51,-960 546.51,-960 546.51,-948 546.51,-948 546.51,-942 552.51,-936 558.51,-936 558.51,-936 613.49,-936 613.49,-936 619.49,-936 625.49,-942 625.49,-948 625.49,-948 625.49,-960 625.49,-960 625.49,-966 619.49,-972 613.49,-972"/>
<text text-anchor="middle" x="586" y="-949.8" font-family="Helvetica,Arial,sans-serif" font-size="14.00">o:addfastas</text>
</g>
<!-- addfastas&#45;&gt;taxtree -->
<g id="edge25" class="edge">
<title>addfastas-&gt;taxtree</title>
<path fill="none" stroke="black" stroke-dasharray="1,5" d="M625.6,-960.64C676.93,-968.76 762.43,-985.3 784,-1008 811.86,-1037.32 803,-1056.55 803,-1097 803,-1097 803,-1097 803,-1171 803,-1211.82 817.84,-1257.07 828.97,-1285.28"/>
<polygon fill="black" stroke="black" points="825.72,-1286.57 832.74,-1294.51 832.2,-1283.92 825.72,-1286.57"/>
</g>
<!-- addfastas&#45;&gt;fastasgenbank -->
<g id="edge26" class="edge">
<title>addfastas-&gt;fastasgenbank</title>
<path fill="none" stroke="black" stroke-dasharray="1,5" d="M555.37,-972.43C542.89,-981.32 529.82,-993.36 523,-1008 516.25,-1022.51 514.33,-1030.55 523,-1044 535.04,-1062.67 555.43,-1074.84 575.85,-1082.73"/>
<polygon fill="black" stroke="black" points="574.46,-1085.96 585.06,-1085.98 576.79,-1079.35 574.46,-1085.96"/>
</g>
<!-- addfastas&#45;&gt;fastasgenbankdl -->
<g id="edge27" class="edge">
<title>addfastas-&gt;fastasgenbankdl</title>
<path fill="none" stroke="black" d="M618.47,-972.48C635.27,-981.53 655.98,-992.68 673.98,-1002.38"/>
<polygon fill="black" stroke="black" points="672.15,-1005.36 682.61,-1007.02 675.47,-999.2 672.15,-1005.36"/>
</g>
<!-- addfastas&#45;&gt;adddownloads -->
<g id="edge24" class="edge">
<title>addfastas-&gt;adddownloads</title>
<path fill="none" stroke="black" d="M586,-972.3C586,-979.59 586,-988.27 586,-996.46"/>
<polygon fill="black" stroke="black" points="582.5,-996.38 586,-1006.38 589.5,-996.38 582.5,-996.38"/>
</g>
<!-- fillsize -->
<g id="node21" class="node">
<title>fillsize</title>
<path fill="none" stroke="black" d="M470.49,-900C470.49,-900 429.51,-900 429.51,-900 423.51,-900 417.51,-894 417.51,-888 417.51,-888 417.51,-876 417.51,-876 417.51,-870 423.51,-864 429.51,-864 429.51,-864 470.49,-864 470.49,-864 476.49,-864 482.49,-870 482.49,-876 482.49,-876 482.49,-888 482.49,-888 482.49,-894 476.49,-900 470.49,-900"/>
<text text-anchor="middle" x="450" y="-877.8" font-family="Helvetica,Arial,sans-serif" font-size="14.00">o:fillsize</text>
</g>
<!-- fillsize&#45;&gt;taxnodes -->
<g id="edge30" class="edge">
<title>fillsize-&gt;taxnodes</title>
<path fill="none" stroke="black" stroke-dasharray="1,5" d="M482.66,-887.66C576.64,-901.97 841,-948.99 841,-1025 841,-1025 841,-1025 841,-1099 841,-1139.97 848.66,-1150.43 865,-1188 868.83,-1196.81 873.96,-1205.87 879.03,-1213.95"/>
<polygon fill="black" stroke="black" points="876.1,-1215.85 884.5,-1222.3 881.95,-1212.02 876.1,-1215.85"/>
</g>
<!-- fillsize&#45;&gt;categories -->
<g id="edge29" class="edge">
<title>fillsize-&gt;categories</title>
<path fill="none" stroke="black" stroke-dasharray="1,5" d="M445.55,-900.35C439.12,-926.98 428,-979.6 428,-1025 428,-1025 428,-1025 428,-1243 428,-1283.97 420.34,-1294.43 404,-1332 400.17,-1340.81 395.04,-1349.87 389.97,-1357.95"/>
<polygon fill="black" stroke="black" points="387.05,-1356.02 384.5,-1366.3 392.9,-1359.85 387.05,-1356.02"/>
</g>
<!-- fillsize&#45;&gt;refseqfna -->
<g id="edge31" class="edge">
<title>fillsize-&gt;refseqfna</title>
<path fill="none" stroke="black" d="M417.17,-891.24C368.96,-903.33 278.59,-926.01 221.78,-940.26"/>
<polygon fill="black" stroke="black" points="221.2,-936.8 212.35,-942.62 222.9,-943.59 221.2,-936.8"/>
</g>
<!-- fillsize&#45;&gt;accmap -->
<g id="edge28" class="edge">
<title>fillsize-&gt;accmap</title>
<path fill="none" stroke="black" stroke-dasharray="1,5" d="M427.27,-900.49C398.32,-924.93 352,-972.28 352,-1025 352,-1025 352,-1025 352,-1099 352,-1139.97 344.08,-1150.32 328,-1188 324.26,-1196.76 319.28,-1205.8 314.36,-1213.89"/>
<polygon fill="black" stroke="black" points="311.47,-1211.92 309.07,-1222.24 317.38,-1215.66 311.47,-1211.92"/>
</g>
<!-- fillsize&#45;&gt;addfastas -->
<g id="edge32" class="edge">
<title>fillsize-&gt;addfastas</title>
<path fill="none" stroke="black" stroke-dasharray="1,5" d="M482.92,-899.95C500.78,-909.14 523.08,-920.62 542.37,-930.54"/>
<polygon fill="black" stroke="black" points="540.6,-933.57 551.09,-935.03 543.8,-927.34 540.6,-933.57"/>
</g>
<!-- tempindex -->
<g id="node22" class="node">
<title>tempindex</title>
<path fill="none" stroke="black" d="M469.99,-828C469.99,-828 408.01,-828 408.01,-828 402.01,-828 396.01,-822 396.01,-816 396.01,-816 396.01,-804 396.01,-804 396.01,-798 402.01,-792 408.01,-792 408.01,-792 469.99,-792 469.99,-792 475.99,-792 481.99,-798 481.99,-804 481.99,-804 481.99,-816 481.99,-816 481.99,-822 475.99,-828 469.99,-828"/>
<text text-anchor="middle" x="439" y="-805.8" font-family="Helvetica,Arial,sans-serif" font-size="14.00">o:tempindex</text>
</g>
<!-- tempindex&#45;&gt;taxnodes -->
<g id="edge36" class="edge">
<title>tempindex-&gt;taxnodes</title>
<path fill="none" stroke="black" stroke-dasharray="1,5" d="M482.39,-812.25C593.4,-818 879,-849.8 879,-1025 879,-1025 879,-1025 879,-1099 879,-1138.61 886.35,-1183.89 891.91,-1212.46"/>
<polygon fill="black" stroke="black" points="888.45,-1213.02 893.86,-1222.13 895.31,-1211.63 888.45,-1213.02"/>
</g>
<!-- tempindex&#45;&gt;categories -->
<g id="edge35" class="edge">
<title>tempindex-&gt;categories</title>
<path fill="none" stroke="black" stroke-dasharray="1,5" d="M427.31,-828.49C421.07,-838.51 413.73,-851.54 409,-864 394.65,-901.82 390,-912.55 390,-953 390,-953 390,-953 390,-1243 390,-1282.61 382.65,-1327.89 377.09,-1356.46"/>
<polygon fill="black" stroke="black" points="373.69,-1355.63 375.14,-1366.13 380.55,-1357.02 373.69,-1355.63"/>
</g>
<!-- tempindex&#45;&gt;refseqfna -->
<g id="edge37" class="edge">
<title>tempindex-&gt;refseqfna</title>
<path fill="none" stroke="black" d="M405.76,-828.37C386.05,-838.69 360.58,-852.06 338,-864 295.63,-886.41 247.31,-912.18 213.58,-930.21"/>
<polygon fill="black" stroke="black" points="212.11,-927.03 204.94,-934.83 215.41,-933.2 212.11,-927.03"/>
</g>
<!-- tempindex&#45;&gt;accmap -->
<g id="edge33" class="edge">
<title>tempindex-&gt;accmap</title>
<path fill="none" stroke="black" stroke-dasharray="1,5" d="M412.67,-828.39C400.18,-837.73 385.88,-850.15 376,-864 331.48,-926.43 314,-948.32 314,-1025 314,-1025 314,-1025 314,-1099 314,-1138.57 307.03,-1183.86 301.77,-1212.44"/>
<polygon fill="black" stroke="black" points="298.36,-1211.64 299.93,-1222.11 305.24,-1212.95 298.36,-1211.64"/>
</g>
<!-- tempindex&#45;&gt;addfastas -->
<g id="edge38" class="edge">
<title>tempindex-&gt;addfastas</title>
<path fill="none" stroke="black" stroke-dasharray="1,5" d="M457.03,-828.41C482.84,-853.35 530.49,-899.38 560.09,-927.97"/>
<polygon fill="black" stroke="black" points="557.57,-930.41 567.2,-934.84 562.44,-925.37 557.57,-930.41"/>
</g>
<!-- tempindex&#45;&gt;fillsize -->
<g id="edge34" class="edge">
<title>tempindex-&gt;fillsize</title>
<path fill="none" stroke="black" stroke-dasharray="1,5" d="M441.72,-828.3C442.88,-835.68 444.26,-844.48 445.56,-852.75"/>
<polygon fill="black" stroke="black" points="442.07,-853.07 447.08,-862.4 448.98,-851.98 442.07,-853.07"/>
</g>
<!-- filldb -->
<g id="node23" class="node">
<title>filldb</title>
<path fill="none" stroke="black" d="M570.61,-756C570.61,-756 537.39,-756 537.39,-756 531.39,-756 525.39,-750 525.39,-744 525.39,-744 525.39,-732 525.39,-732 525.39,-726 531.39,-720 537.39,-720 537.39,-720 570.61,-720 570.61,-720 576.61,-720 582.61,-726 582.61,-732 582.61,-732 582.61,-744 582.61,-744 582.61,-750 576.61,-756 570.61,-756"/>
<text text-anchor="middle" x="554" y="-733.8" font-family="Helvetica,Arial,sans-serif" font-size="14.00">o:filldb</text>
</g>
<!-- filldb&#45;&gt;taxtree -->
<g id="edge39" class="edge">
<title>filldb-&gt;taxtree</title>
<path fill="none" stroke="black" stroke-dasharray="1,5" d="M582.84,-742.83C674.78,-755.84 955,-801.98 955,-881 955,-881 955,-881 955,-955 955,-1090.63 1017.75,-1145.53 945,-1260 931.52,-1281.22 906.68,-1294.31 884.66,-1302.18"/>
<polygon fill="black" stroke="black" points="883.66,-1298.83 875.25,-1305.26 885.84,-1305.48 883.66,-1298.83"/>
</g>
<!-- filldb&#45;&gt;taxnodes -->
<g id="edge43" class="edge">
<title>filldb-&gt;taxnodes</title>
<path fill="none" stroke="black" stroke-dasharray="1,5" d="M583.09,-746.54C669.23,-770.79 917,-855.31 917,-1025 917,-1025 917,-1025 917,-1099 917,-1138.61 909.65,-1183.89 904.09,-1212.46"/>
<polygon fill="black" stroke="black" points="900.69,-1211.63 902.14,-1222.13 907.55,-1213.02 900.69,-1211.63"/>
</g>
<!-- filldb&#45;&gt;categories -->
<g id="edge42" class="edge">
<title>filldb-&gt;categories</title>
<path fill="none" stroke="black" stroke-dasharray="1,5" d="M546.65,-756.14C525.5,-807.06 466,-962.27 466,-1097 466,-1097 466,-1097 466,-1243 466,-1290.58 428.7,-1334.28 400.85,-1360.29"/>
<polygon fill="black" stroke="black" points="398.76,-1357.46 393.68,-1366.76 403.45,-1362.66 398.76,-1357.46"/>
</g>
<!-- filldb&#45;&gt;refseqfna -->
<g id="edge44" class="edge">
<title>filldb-&gt;refseqfna</title>
<path fill="none" stroke="black" d="M525.2,-741.13C460.14,-746.44 304.2,-762 262,-792 216.19,-824.56 190.48,-887.87 178.8,-924.66"/>
<polygon fill="black" stroke="black" points="175.48,-923.56 175.93,-934.15 182.18,-925.59 175.48,-923.56"/>
</g>
<!-- filldb&#45;&gt;accmap -->
<g id="edge40" class="edge">
<title>filldb-&gt;accmap</title>
<path fill="none" stroke="black" stroke-dasharray="1,5" d="M525.04,-740.45C453.83,-745.73 276,-770.03 276,-881 276,-881 276,-881 276,-1099 276,-1138.65 283.74,-1183.92 289.59,-1212.47"/>
<polygon fill="black" stroke="black" points="286.14,-1213.08 291.64,-1222.14 292.99,-1211.63 286.14,-1213.08"/>
</g>
<!-- filldb&#45;&gt;addfastas -->
<g id="edge45" class="edge">
<title>filldb-&gt;addfastas</title>
<path fill="none" stroke="black" stroke-dasharray="1,5" d="M556.56,-756.15C562.05,-792.86 574.99,-879.34 581.73,-924.47"/>
<polygon fill="black" stroke="black" points="578.26,-924.9 583.2,-934.27 585.18,-923.86 578.26,-924.9"/>
</g>
<!-- filldb&#45;&gt;tempindex -->
<g id="edge41" class="edge">
<title>filldb-&gt;tempindex</title>
<path fill="none" stroke="black" stroke-dasharray="1,5" d="M525.28,-756.48C510.62,-765.4 492.61,-776.37 476.84,-785.97"/>
<polygon fill="black" stroke="black" points="475.37,-782.76 468.65,-790.95 479.01,-788.74 475.37,-782.76"/>
</g>
<!-- tempdb -->
<g id="node24" class="node">
<title>tempdb</title>
<path fill="none" stroke="black" d="M636.27,-684C636.27,-684 593.73,-684 593.73,-684 587.73,-684 581.73,-678 581.73,-672 581.73,-672 581.73,-660 581.73,-660 581.73,-654 587.73,-648 593.73,-648 593.73,-648 636.27,-648 636.27,-648 642.27,-648 648.27,-654 648.27,-660 648.27,-660 648.27,-672 648.27,-672 648.27,-678 642.27,-684 636.27,-684"/>
<text text-anchor="middle" x="615" y="-661.8" font-family="Helvetica,Arial,sans-serif" font-size="14.00">f:tempdb</text>
</g>
<!-- tempdb&#45;&gt;filldb -->
<g id="edge46" class="edge">
<title>tempdb-&gt;filldb</title>
<path fill="none" stroke="black" stroke-dasharray="1,5" d="M599.92,-684.3C592.83,-692.44 584.23,-702.31 576.4,-711.3"/>
<polygon fill="black" stroke="black" points="573.83,-708.92 569.9,-718.75 579.11,-713.51 573.83,-708.92"/>
</g>
<!-- loadtempdb -->
<g id="node25" class="node">
<title>loadtempdb</title>
<path fill="none" stroke="black" d="M619.49,-612C619.49,-612 550.51,-612 550.51,-612 544.51,-612 538.51,-606 538.51,-600 538.51,-600 538.51,-588 538.51,-588 538.51,-582 544.51,-576 550.51,-576 550.51,-576 619.49,-576 619.49,-576 625.49,-576 631.49,-582 631.49,-588 631.49,-588 631.49,-600 631.49,-600 631.49,-606 625.49,-612 619.49,-612"/>
<text text-anchor="middle" x="585" y="-589.8" font-family="Helvetica,Arial,sans-serif" font-size="14.00">o:loadtempdb</text>
</g>
<!-- loadtempdb&#45;&gt;filldb -->
<g id="edge48" class="edge">
<title>loadtempdb-&gt;filldb</title>
<path fill="none" stroke="black" stroke-dasharray="1,5" d="M581.06,-612.17C578.69,-622.54 575.63,-636.02 573,-648 568.56,-668.19 563.7,-690.98 560,-708.45"/>
<polygon fill="black" stroke="black" points="556.6,-707.6 557.96,-718.11 563.45,-709.05 556.6,-707.6"/>
</g>
<!-- loadtempdb&#45;&gt;tempdb -->
<g id="edge47" class="edge">
<title>loadtempdb-&gt;tempdb</title>
<path fill="none" stroke="black" d="M592.42,-612.3C595.65,-619.85 599.52,-628.88 603.14,-637.32"/>
<polygon fill="black" stroke="black" points="599.92,-638.69 607.07,-646.5 606.35,-635.93 599.92,-638.69"/>
</g>
<!-- tempdbinfo -->
<g id="node26" class="node">
<title>tempdbinfo</title>
<path fill="none" stroke="black" d="M630.55,-540C630.55,-540 565.45,-540 565.45,-540 559.45,-540 553.45,-534 553.45,-528 553.45,-528 553.45,-516 553.45,-516 553.45,-510 559.45,-504 565.45,-504 565.45,-504 630.55,-504 630.55,-504 636.55,-504 642.55,-510 642.55,-516 642.55,-516 642.55,-528 642.55,-528 642.55,-534 636.55,-540 630.55,-540"/>
<text text-anchor="middle" x="598" y="-517.8" font-family="Helvetica,Arial,sans-serif" font-size="14.00">f:tempdbinfo</text>
</g>
<!-- tempdbinfo&#45;&gt;loadtempdb -->
<g id="edge49" class="edge">
<title>tempdbinfo-&gt;loadtempdb</title>
<path fill="none" stroke="black" stroke-dasharray="1,5" d="M594.79,-540.3C593.42,-547.68 591.78,-556.48 590.25,-564.75"/>
<polygon fill="black" stroke="black" points="586.84,-563.94 588.45,-574.41 593.72,-565.21 586.84,-563.94"/>
</g>
<!-- updatedb -->
<g id="node27" class="node">
<title>updatedb</title>
<path fill="none" stroke="black" d="M558.1,-468C558.1,-468 503.9,-468 503.9,-468 497.9,-468 491.9,-462 491.9,-456 491.9,-456 491.9,-444 491.9,-444 491.9,-438 497.9,-432 503.9,-432 503.9,-432 558.1,-432 558.1,-432 564.1,-432 570.1,-438 570.1,-444 570.1,-444 570.1,-456 570.1,-456 570.1,-462 564.1,-468 558.1,-468"/>
<text text-anchor="middle" x="531" y="-445.8" font-family="Helvetica,Arial,sans-serif" font-size="14.00">o:updatedb</text>
</g>
<!-- updatedb&#45;&gt;taxtree -->
<g id="edge51" class="edge">
<title>updatedb-&gt;taxtree</title>
<path fill="none" stroke="black" stroke-dasharray="1,5" d="M570.38,-458.83C585.83,-461.82 603.72,-465.18 620,-468 722.82,-485.79 755.45,-464.43 852,-504 997.43,-563.61 1031,-651.82 1031,-809 1031,-809 1031,-809 1031,-883 1031,-983.93 1107,-996.07 1107,-1097 1107,-1097 1107,-1097 1107,-1171 1107,-1270.46 960.48,-1300.5 884.93,-1309.38"/>
<polygon fill="black" stroke="black" points="884.95,-1305.86 875.39,-1310.43 885.71,-1312.82 884.95,-1305.86"/>
</g>
<!-- updatedb&#45;&gt;taxnodes -->
<g id="edge55" class="edge">
<title>updatedb-&gt;taxnodes</title>
<path fill="none" stroke="black" stroke-dasharray="1,5" d="M570.43,-458.51C637.31,-471.33 767.72,-496.78 788,-504 853.17,-527.21 883.96,-521.06 926,-576 1010.33,-686.23 993,-742.21 993,-881 993,-881 993,-881 993,-955 993,-1054.44 940.64,-1163.86 913.66,-1213.64"/>
<polygon fill="black" stroke="black" points="910.66,-1211.83 908.9,-1222.28 916.79,-1215.21 910.66,-1211.83"/>
</g>
<!-- updatedb&#45;&gt;categories -->
<g id="edge54" class="edge">
<title>updatedb-&gt;categories</title>
<path fill="none" stroke="black" stroke-dasharray="1,5" d="M491.48,-452.41C411.51,-457.58 238,-481.64 238,-593 238,-593 238,-593 238,-1027 238,-1162.72 144.87,-1221.03 223,-1332 244.22,-1362.14 284.25,-1375.23 317.33,-1380.87"/>
<polygon fill="black" stroke="black" points="316.8,-1384.33 327.21,-1382.35 317.84,-1377.41 316.8,-1384.33"/>
</g>
<!-- updatedb&#45;&gt;refseqfna -->
<g id="edge56" class="edge">
<title>updatedb-&gt;refseqfna</title>
<path fill="none" stroke="black" d="M491.51,-452.94C384.43,-458.55 94.35,-476.19 62,-504 30.93,-530.7 38,-552.03 38,-593 38,-593 38,-593 38,-811 38,-864.25 88.43,-905.76 127.19,-929.8"/>
<polygon fill="black" stroke="black" points="125.07,-932.62 135.45,-934.76 128.67,-926.61 125.07,-932.62"/>
</g>
<!-- updatedb&#45;&gt;accmap -->
<g id="edge52" class="edge">
<title>updatedb-&gt;accmap</title>
<path fill="none" stroke="black" stroke-dasharray="1,5" d="M491.42,-454.77C380.72,-466.41 76,-506.32 76,-593 76,-593 76,-593 76,-667 76,-767.93 0,-780.07 0,-881 0,-881 0,-881 0,-1027 0,-1148.86 166.79,-1208.35 249.97,-1230.45"/>
<polygon fill="black" stroke="black" points="248.86,-1233.78 259.42,-1232.88 250.61,-1227 248.86,-1233.78"/>
</g>
<!-- updatedb&#45;&gt;addfastas -->
<g id="edge57" class="edge">
<title>updatedb-&gt;addfastas</title>
<path fill="none" stroke="black" stroke-dasharray="1,5" d="M570.49,-461.21C668.87,-487.19 917,-556.36 917,-593 917,-593 917,-593 917,-811 917,-931.23 730.28,-950.96 637.32,-953.33"/>
<polygon fill="black" stroke="black" points="637.37,-949.83 627.44,-953.52 637.5,-956.83 637.37,-949.83"/>
</g>
<!-- updatedb&#45;&gt;loadtempdb -->
<g id="edge53" class="edge">
<title>updatedb-&gt;loadtempdb</title>
<path fill="none" stroke="black" stroke-dasharray="1,5" d="M530.96,-468.43C531.5,-486.9 534.05,-516.57 544,-540 548.1,-549.65 554.39,-559.07 560.82,-567.23"/>
<polygon fill="black" stroke="black" points="557.96,-569.26 567.07,-574.69 563.33,-564.77 557.96,-569.26"/>
</g>
<!-- updatedb&#45;&gt;tempdbinfo -->
<g id="edge50" class="edge">
<title>updatedb-&gt;tempdbinfo</title>
<path fill="none" stroke="black" d="M547.56,-468.3C555.43,-476.53 564.99,-486.52 573.67,-495.58"/>
<polygon fill="black" stroke="black" points="571.14,-498 580.58,-502.8 576.2,-493.16 571.14,-498"/>
</g>
<!-- db -->
<g id="node28" class="node">
<title>db</title>
<polygon fill="none" stroke="black" stroke-width="2" points="619,-396 565,-396 565,-360 619,-360 619,-396"/>
<text text-anchor="middle" x="592" y="-373.8" font-family="Helvetica,Arial,sans-serif" font-size="14.00">f:db</text>
</g>
<!-- db&#45;&gt;tempdb -->
<g id="edge58" class="edge">
<title>db-&gt;tempdb</title>
<path fill="none" stroke="black" d="M603.41,-396.29C618.05,-419.59 642.65,-462.92 652,-504 662.72,-551.09 654.41,-565.9 640,-612 637.33,-620.55 633.54,-629.48 629.72,-637.52"/>
<polygon fill="black" stroke="black" points="626.59,-635.96 625.26,-646.47 632.85,-639.08 626.59,-635.96"/>
</g>
<!-- db&#45;&gt;tempdbinfo -->
<g id="edge59" class="edge">
<title>db-&gt;tempdbinfo</title>
<path fill="none" stroke="black" d="M592.74,-396.41C593.75,-420.39 595.59,-463.86 596.8,-492.58"/>
<polygon fill="black" stroke="black" points="593.29,-492.53 597.21,-502.38 600.29,-492.24 593.29,-492.53"/>
</g>
<!-- db&#45;&gt;updatedb -->
<g id="edge60" class="edge">
<title>db-&gt;updatedb</title>
<path fill="none" stroke="black" stroke-dasharray="1,5" d="M576.92,-396.3C569.83,-404.44 561.23,-414.31 553.4,-423.3"/>
<polygon fill="black" stroke="black" points="550.83,-420.92 546.9,-430.75 556.11,-425.51 550.83,-420.92"/>
</g>
<!-- loaddb -->
<g id="node29" class="node">
<title>loaddb</title>
<path fill="none" stroke="black" d="M551.5,-324C551.5,-324 510.5,-324 510.5,-324 504.5,-324 498.5,-318 498.5,-312 498.5,-312 498.5,-300 498.5,-300 498.5,-294 504.5,-288 510.5,-288 510.5,-288 551.5,-288 551.5,-288 557.5,-288 563.5,-294 563.5,-300 563.5,-300 563.5,-312 563.5,-312 563.5,-318 557.5,-324 551.5,-324"/>
<text text-anchor="middle" x="531" y="-301.8" font-family="Helvetica,Arial,sans-serif" font-size="14.00">o:loaddb</text>
</g>
<!-- loaddb&#45;&gt;updatedb -->
<g id="edge61" class="edge">
<title>loaddb-&gt;updatedb</title>
<path fill="none" stroke="black" stroke-dasharray="1,5" d="M531,-324.41C531,-348.39 531,-391.86 531,-420.58"/>
<polygon fill="black" stroke="black" points="527.5,-420.38 531,-430.38 534.5,-420.38 527.5,-420.38"/>
</g>
<!-- loaddb&#45;&gt;db -->
<g id="edge62" class="edge">
<title>loaddb-&gt;db</title>
<path fill="none" stroke="black" d="M546.08,-324.3C553.17,-332.44 561.77,-342.31 569.6,-351.3"/>
<polygon fill="black" stroke="black" points="566.89,-353.51 576.1,-358.75 572.17,-348.92 566.89,-353.51"/>
</g>
<!-- fillindex -->
<g id="node30" class="node">
<title>fillindex</title>
<path fill="none" stroke="black" d="M556.16,-252C556.16,-252 505.84,-252 505.84,-252 499.84,-252 493.84,-246 493.84,-240 493.84,-240 493.84,-228 493.84,-228 493.84,-222 499.84,-216 505.84,-216 505.84,-216 556.16,-216 556.16,-216 562.16,-216 568.16,-222 568.16,-228 568.16,-228 568.16,-240 568.16,-240 568.16,-246 562.16,-252 556.16,-252"/>
<text text-anchor="middle" x="531" y="-229.8" font-family="Helvetica,Arial,sans-serif" font-size="14.00">o:fillindex</text>
</g>
<!-- fillindex&#45;&gt;loaddb -->
<g id="edge63" class="edge">
<title>fillindex-&gt;loaddb</title>
<path fill="none" stroke="black" stroke-dasharray="1,5" d="M531,-252.3C531,-259.59 531,-268.27 531,-276.46"/>
<polygon fill="black" stroke="black" points="527.5,-276.38 531,-286.38 534.5,-276.38 527.5,-276.38"/>
</g>
<!-- index -->
<g id="node31" class="node">
<title>index</title>
<polygon fill="none" stroke="black" stroke-width="2" points="524.83,-180 469.17,-180 469.17,-144 524.83,-144 524.83,-180"/>
<text text-anchor="middle" x="497" y="-157.8" font-family="Helvetica,Arial,sans-serif" font-size="14.00">f:index</text>
</g>
<!-- index&#45;&gt;fillindex -->
<g id="edge64" class="edge">
<title>index-&gt;fillindex</title>
<path fill="none" stroke="black" stroke-dasharray="1,5" d="M505.4,-180.3C509.11,-187.93 513.56,-197.08 517.69,-205.6"/>
<polygon fill="black" stroke="black" points="514.51,-207.07 522.03,-214.53 520.81,-204.01 514.51,-207.07"/>
</g>
<!-- loadindex -->
<g id="node32" class="node">
<title>loadindex</title>
<path fill="none" stroke="black" d="M556.05,-108C556.05,-108 497.95,-108 497.95,-108 491.95,-108 485.95,-102 485.95,-96 485.95,-96 485.95,-84 485.95,-84 485.95,-78 491.95,-72 497.95,-72 497.95,-72 556.05,-72 556.05,-72 562.05,-72 568.05,-78 568.05,-84 568.05,-84 568.05,-96 568.05,-96 568.05,-102 562.05,-108 556.05,-108"/>
<text text-anchor="middle" x="527" y="-85.8" font-family="Helvetica,Arial,sans-serif" font-size="14.00">o:loadindex</text>
</g>
<!-- loadindex&#45;&gt;fillindex -->
<g id="edge65" class="edge">
<title>loadindex-&gt;fillindex</title>
<path fill="none" stroke="black" stroke-dasharray="1,5" d="M529.84,-108.13C531.42,-118.48 533.21,-131.96 534,-144 535.32,-164.08 534.52,-186.76 533.42,-204.19"/>
<polygon fill="black" stroke="black" points="529.93,-203.86 532.71,-214.08 536.92,-204.35 529.93,-203.86"/>
</g>
<!-- loadindex&#45;&gt;index -->
<g id="edge66" class="edge">
<title>loadindex-&gt;index</title>
<path fill="none" stroke="black" d="M519.58,-108.3C516.35,-115.85 512.48,-124.88 508.86,-133.32"/>
<polygon fill="black" stroke="black" points="505.65,-131.93 504.93,-142.5 512.08,-134.69 505.65,-131.93"/>
</g>
<!-- dbinfo -->
<g id="node33" class="node">
<title>dbinfo</title>
<polygon fill="none" stroke="black" stroke-width="2" points="475.55,-252 414.45,-252 414.45,-216 475.55,-216 475.55,-252"/>
<text text-anchor="middle" x="445" y="-229.8" font-family="Helvetica,Arial,sans-serif" font-size="14.00">f:dbinfo</text>
</g>
<!-- dbinfo&#45;&gt;loaddb -->
<g id="edge67" class="edge">
<title>dbinfo-&gt;loaddb</title>
<path fill="none" stroke="black" stroke-dasharray="1,5" d="M466.26,-252.3C476.7,-260.8 489.46,-271.19 500.88,-280.49"/>
<polygon fill="black" stroke="black" points="498.55,-283.1 508.51,-286.7 502.97,-277.67 498.55,-283.1"/>
</g>
<!-- genall -->
<g id="node34" class="node">
<title>genall</title>
<polygon fill="none" stroke="black" stroke-width="2" points="468,-108 414,-108 414,-72 468,-72 468,-108"/>
<text text-anchor="middle" x="441" y="-85.8" font-family="Helvetica,Arial,sans-serif" font-size="14.00">genall</text>
</g>
<!-- genall&#45;&gt;index -->
<g id="edge69" class="edge">
<title>genall-&gt;index</title>
<path fill="none" stroke="black" d="M454.84,-108.3C461.29,-116.36 469.08,-126.11 476.21,-135.02"/>
<polygon fill="black" stroke="black" points="473.39,-137.09 482.37,-142.71 478.86,-132.72 473.39,-137.09"/>
</g>
<!-- genall&#45;&gt;dbinfo -->
<g id="edge68" class="edge">
<title>genall-&gt;dbinfo</title>
<path fill="none" stroke="black" d="M441.49,-108.41C442.17,-132.39 443.39,-175.86 444.2,-204.58"/>
<polygon fill="black" stroke="black" points="440.7,-204.48 444.48,-214.38 447.69,-204.28 440.7,-204.48"/>
</g>
<!-- db2fastqtaxids -->
<g id="node35" class="node">
<title>db2fastqtaxids</title>
<path fill="none" stroke="black" d="M384.27,-252C384.27,-252 299.73,-252 299.73,-252 293.73,-252 287.73,-246 287.73,-240 287.73,-240 287.73,-228 287.73,-228 287.73,-222 293.73,-216 299.73,-216 299.73,-216 384.27,-216 384.27,-216 390.27,-216 396.27,-222 396.27,-228 396.27,-228 396.27,-240 396.27,-240 396.27,-246 390.27,-252 384.27,-252"/>
<text text-anchor="middle" x="342" y="-229.8" font-family="Helvetica,Arial,sans-serif" font-size="14.00">o:db2fastqtaxids</text>
</g>
<!-- db2fastqtaxids&#45;&gt;loaddb -->
<g id="edge70" class="edge">
<title>db2fastqtaxids-&gt;loaddb</title>
<path fill="none" stroke="black" stroke-dasharray="1,5" d="M389.21,-252.48C419.26,-263.61 457.91,-277.93 487.27,-288.8"/>
<polygon fill="black" stroke="black" points="486.02,-292.07 496.61,-292.26 488.45,-285.51 486.02,-292.07"/>
</g>
<!-- db2fastq -->
<g id="node36" class="node">
<title>db2fastq</title>
<polygon fill="none" stroke="black" stroke-width="2" points="337.38,-180 264.62,-180 264.62,-144 337.38,-144 337.38,-180"/>
<text text-anchor="middle" x="301" y="-157.8" font-family="Helvetica,Arial,sans-serif" font-size="14.00">f:db2fastq</text>
</g>
<!-- db2fastq&#45;&gt;loaddb -->
<g id="edge72" class="edge">
<title>db2fastq-&gt;loaddb</title>
<path fill="none" stroke="black" stroke-dasharray="1,5" d="M288.8,-180.31C276.72,-199.78 262.25,-231.36 279,-252 304.71,-283.68 421.88,-297.13 487.01,-302.24"/>
<polygon fill="black" stroke="black" points="486.4,-305.7 496.64,-302.96 486.93,-298.72 486.4,-305.7"/>
</g>
<!-- db2fastq&#45;&gt;db2fastqtaxids -->
<g id="edge71" class="edge">
<title>db2fastq-&gt;db2fastqtaxids</title>
<path fill="none" stroke="black" stroke-dasharray="1,5" d="M311.13,-180.3C315.7,-188.1 321.2,-197.49 326.29,-206.17"/>
<polygon fill="black" stroke="black" points="323.14,-207.73 331.22,-214.59 329.18,-204.19 323.14,-207.73"/>
</g>
<!-- fastqmap -->
<g id="node37" class="node">
<title>fastqmap</title>
<path fill="none" stroke="black" d="M1029.1,-468C1029.1,-468 974.9,-468 974.9,-468 968.9,-468 962.9,-462 962.9,-456 962.9,-456 962.9,-444 962.9,-444 962.9,-438 968.9,-432 974.9,-432 974.9,-432 1029.1,-432 1029.1,-432 1035.1,-432 1041.1,-438 1041.1,-444 1041.1,-444 1041.1,-456 1041.1,-456 1041.1,-462 1035.1,-468 1029.1,-468"/>
<text text-anchor="middle" x="1002" y="-445.8" font-family="Helvetica,Arial,sans-serif" font-size="14.00">o:fastqmap</text>
</g>
<!-- fastqmaptransform -->
<g id="node38" class="node">
<title>fastqmaptransform</title>
<path fill="none" stroke="black" d="M881.32,-396C881.32,-396 772.68,-396 772.68,-396 766.68,-396 760.68,-390 760.68,-384 760.68,-384 760.68,-372 760.68,-372 760.68,-366 766.68,-360 772.68,-360 772.68,-360 881.32,-360 881.32,-360 887.32,-360 893.32,-366 893.32,-372 893.32,-372 893.32,-384 893.32,-384 893.32,-390 887.32,-396 881.32,-396"/>
<text text-anchor="middle" x="827" y="-373.8" font-family="Helvetica,Arial,sans-serif" font-size="14.00">o:fastqmaptransform</text>
</g>
<!-- fastqmaptransform&#45;&gt;fastqmap -->
<g id="edge73" class="edge">
<title>fastqmaptransform-&gt;fastqmap</title>
<path fill="none" stroke="black" stroke-dasharray="1,5" d="M870.71,-396.48C895.33,-406.33 926.2,-418.68 951.81,-428.92"/>
<polygon fill="black" stroke="black" points="950.44,-432.15 961.03,-432.61 953.04,-425.65 950.44,-432.15"/>
</g>
<!-- fastqdownload -->
<g id="node39" class="node">
<title>fastqdownload</title>
<path fill="none" stroke="black" d="M952.66,-324C952.66,-324 867.34,-324 867.34,-324 861.34,-324 855.34,-318 855.34,-312 855.34,-312 855.34,-300 855.34,-300 855.34,-294 861.34,-288 867.34,-288 867.34,-288 952.66,-288 952.66,-288 958.66,-288 964.66,-294 964.66,-300 964.66,-300 964.66,-312 964.66,-312 964.66,-318 958.66,-324 952.66,-324"/>
<text text-anchor="middle" x="910" y="-301.8" font-family="Helvetica,Arial,sans-serif" font-size="14.00">d:fastqdownload</text>
</g>
<!-- fastqdownload&#45;&gt;fastqmap -->
<g id="edge74" class="edge">
<title>fastqdownload-&gt;fastqmap</title>
<path fill="none" stroke="black" stroke-dasharray="1,5" d="M921.28,-324.41C937.16,-348.92 966.24,-393.81 984.82,-422.48"/>
<polygon fill="black" stroke="black" points="981.72,-424.13 990.09,-430.62 987.59,-420.32 981.72,-424.13"/>
</g>
<!-- fastqdownload&#45;&gt;fastqmaptransform -->
<g id="edge75" class="edge">
<title>fastqdownload-&gt;fastqmaptransform</title>
<path fill="none" stroke="black" stroke-dasharray="1,5" d="M889.48,-324.3C879.41,-332.8 867.09,-343.19 856.07,-352.49"/>
<polygon fill="black" stroke="black" points="854.11,-349.55 848.73,-358.68 858.63,-354.91 854.11,-349.55"/>
</g>
<!-- filter -->
<g id="node40" class="node">
<title>filter</title>
<polygon fill="none" stroke="black" stroke-width="2" points="623,-36 569,-36 569,0 623,0 623,-36"/>
<text text-anchor="middle" x="596" y="-13.8" font-family="Helvetica,Arial,sans-serif" font-size="14.00">f:filter</text>
</g>
<!-- filter&#45;&gt;loadindex -->
<g id="edge77" class="edge">
<title>filter-&gt;loadindex</title>
<path fill="none" stroke="black" stroke-dasharray="1,5" d="M578.94,-36.3C570.76,-44.61 560.79,-54.72 551.78,-63.86"/>
<polygon fill="black" stroke="black" points="549.45,-61.24 544.92,-70.82 554.44,-66.15 549.45,-61.24"/>
</g>
<!-- filter&#45;&gt;fastqmaptransform -->
<g id="edge78" class="edge">
<title>filter-&gt;fastqmaptransform</title>
<path fill="none" stroke="black" stroke-dasharray="1,5" d="M596,-36.49C596,-63.29 596,-116.13 596,-161 596,-161 596,-161 596,-235 596,-308.58 682.11,-345.24 749.18,-362.64"/>
<polygon fill="black" stroke="black" points="748.17,-366 758.72,-365.01 749.85,-359.2 748.17,-366"/>
</g>
<!-- filter&#45;&gt;fastqdownload -->
<g id="edge76" class="edge">
<title>filter-&gt;fastqdownload</title>
<path fill="none" stroke="black" d="M623.33,-23.94C677.54,-35.18 799.02,-67.84 864,-144 896.32,-181.88 905.98,-241.16 908.84,-276.23"/>
<polygon fill="black" stroke="black" points="905.34,-276.3 909.49,-286.04 912.32,-275.83 905.34,-276.3"/>
</g>
<!-- matchres -->
<g id="node41" class="node">
<title>matchres</title>
<path fill="none" stroke="black" d="M831.71,-252C831.71,-252 778.29,-252 778.29,-252 772.29,-252 766.29,-246 766.29,-240 766.29,-240 766.29,-228 766.29,-228 766.29,-222 772.29,-216 778.29,-216 778.29,-216 831.71,-216 831.71,-216 837.71,-216 843.71,-222 843.71,-228 843.71,-228 843.71,-240 843.71,-240 843.71,-246 837.71,-252 831.71,-252"/>
<text text-anchor="middle" x="805" y="-229.8" font-family="Helvetica,Arial,sans-serif" font-size="14.00">o:matchres</text>
</g>
<!-- matchres&#45;&gt;loaddb -->
<g id="edge81" class="edge">
<title>matchres-&gt;loaddb</title>
<path fill="none" stroke="black" stroke-dasharray="1,5" d="M766.03,-244.95C715.52,-257.86 627.66,-280.31 574.86,-293.8"/>
<polygon fill="black" stroke="black" points="574.12,-290.37 565.29,-296.24 575.85,-297.15 574.12,-290.37"/>
</g>
<!-- matchres&#45;&gt;fastqmaptransform -->
<g id="edge80" class="edge">
<title>matchres-&gt;fastqmaptransform</title>
<path fill="none" stroke="black" stroke-dasharray="1,5" d="M805.68,-252.17C806.6,-270.18 808.65,-299.25 813,-324 814.44,-332.19 816.53,-340.96 818.65,-348.96"/>
<polygon fill="black" stroke="black" points="815.26,-349.83 821.31,-358.52 822,-347.95 815.26,-349.83"/>
</g>
<!-- matchres&#45;&gt;fastqdownload -->
<g id="edge79" class="edge">
<title>matchres-&gt;fastqdownload</title>
<path fill="none" stroke="black" d="M831.23,-252.48C844.35,-261.24 860.43,-271.96 874.64,-281.42"/>
<polygon fill="black" stroke="black" points="872.59,-284.27 882.85,-286.9 876.47,-278.44 872.59,-284.27"/>
</g>
<!-- match -->
<g id="node42" class="node">
<title>match</title>
<polygon fill="none" stroke="black" stroke-width="2" points="855.38,-180 796.62,-180 796.62,-144 855.38,-144 855.38,-180"/>
<text text-anchor="middle" x="826" y="-157.8" font-family="Helvetica,Arial,sans-serif" font-size="14.00">f:match</text>
</g>
<!-- match&#45;&gt;fastqmaptransform -->
<g id="edge82" class="edge">
<title>match-&gt;fastqmaptransform</title>
<path fill="none" stroke="black" stroke-dasharray="1,5" d="M837.47,-180.33C843.37,-190.31 849.96,-203.35 853,-216 856.73,-231.56 854.64,-236.08 853,-252 852.5,-256.82 840.57,-313.3 833.05,-348.67"/>
<polygon fill="black" stroke="black" points="829.66,-347.76 831,-358.27 836.51,-349.22 829.66,-347.76"/>
</g>
<!-- match&#45;&gt;matchres -->
<g id="edge83" class="edge">
<title>match-&gt;matchres</title>
<path fill="none" stroke="black" stroke-dasharray="1,5" d="M820.81,-180.3C818.57,-187.76 815.9,-196.68 813.39,-205.03"/>
<polygon fill="black" stroke="black" points="810.09,-203.86 810.57,-214.45 816.79,-205.87 810.09,-203.86"/>
</g>
<!-- matchreslr -->
<g id="node43" class="node">
<title>matchreslr</title>
<path fill="none" stroke="black" d="M697.99,-252C697.99,-252 636.01,-252 636.01,-252 630.01,-252 624.01,-246 624.01,-240 624.01,-240 624.01,-228 624.01,-228 624.01,-222 630.01,-216 636.01,-216 636.01,-216 697.99,-216 697.99,-216 703.99,-216 709.99,-222 709.99,-228 709.99,-228 709.99,-240 709.99,-240 709.99,-246 703.99,-252 697.99,-252"/>
<text text-anchor="middle" x="667" y="-229.8" font-family="Helvetica,Arial,sans-serif" font-size="14.00">o:matchreslr</text>
</g>
<!-- matchreslr&#45;&gt;loaddb -->
<g id="edge86" class="edge">
<title>matchreslr-&gt;loaddb</title>
<path fill="none" stroke="black" stroke-dasharray="1,5" d="M633.03,-252.48C615.03,-261.75 592.73,-273.23 573.58,-283.09"/>
<polygon fill="black" stroke="black" points="572.23,-279.84 564.94,-287.53 575.44,-286.06 572.23,-279.84"/>
</g>
<!-- matchreslr&#45;&gt;fastqmaptransform -->
<g id="edge85" class="edge">
<title>matchreslr-&gt;fastqmaptransform</title>
<path fill="none" stroke="black" stroke-dasharray="1,5" d="M674.66,-252.31C683.98,-271.79 701.33,-303.38 724,-324 737.61,-336.38 754.65,-346.69 770.93,-354.81"/>
<polygon fill="black" stroke="black" points="769.04,-357.79 779.57,-358.94 772.05,-351.47 769.04,-357.79"/>
</g>
<!-- matchreslr&#45;&gt;fastqdownload -->
<g id="edge84" class="edge">
<title>matchreslr-&gt;fastqdownload</title>
<path fill="none" stroke="black" d="M710.44,-247.51C747.62,-258.22 801.69,-273.8 844.18,-286.04"/>
<polygon fill="black" stroke="black" points="842.96,-289.33 853.54,-288.74 844.9,-282.6 842.96,-289.33"/>
</g>
<!-- matchlr -->
<g id="node44" class="node">
<title>matchlr</title>
<polygon fill="none" stroke="black" stroke-width="2" points="750.66,-180 683.34,-180 683.34,-144 750.66,-144 750.66,-180"/>
<text text-anchor="middle" x="717" y="-157.8" font-family="Helvetica,Arial,sans-serif" font-size="14.00">f:matchlr</text>
</g>
<!-- matchlr&#45;&gt;fastqmaptransform -->
<g id="edge87" class="edge">
<title>matchlr-&gt;fastqmaptransform</title>
<path fill="none" stroke="black" stroke-dasharray="1,5" d="M724.23,-180.27C731.92,-198.36 744.66,-227.49 757,-252 774.32,-286.41 796.31,-324.93 810.97,-350"/>
<polygon fill="black" stroke="black" points="807.92,-351.72 816,-358.56 813.95,-348.17 807.92,-351.72"/>
</g>
<!-- matchlr&#45;&gt;matchreslr -->
<g id="edge88" class="edge">
<title>matchlr-&gt;matchreslr</title>
<path fill="none" stroke="black" stroke-dasharray="1,5" d="M704.64,-180.3C698.95,-188.27 692.07,-197.9 685.76,-206.74"/>
<polygon fill="black" stroke="black" points="683.06,-204.49 680.1,-214.66 688.76,-208.56 683.06,-204.49"/>
</g>
<!-- fastamap -->
<g id="node45" class="node">
<title>fastamap</title>
<path fill="none" stroke="black" d="M1268.71,-252C1268.71,-252 1215.29,-252 1215.29,-252 1209.29,-252 1203.29,-246 1203.29,-240 1203.29,-240 1203.29,-228 1203.29,-228 1203.29,-222 1209.29,-216 1215.29,-216 1215.29,-216 1268.71,-216 1268.71,-216 1274.71,-216 1280.71,-222 1280.71,-228 1280.71,-228 1280.71,-240 1280.71,-240 1280.71,-246 1274.71,-252 1268.71,-252"/>
<text text-anchor="middle" x="1242" y="-229.8" font-family="Helvetica,Arial,sans-serif" font-size="14.00">o:fastamap</text>
</g>
<!-- fastamaptransform -->
<g id="node46" class="node">
<title>fastamaptransform</title>
<path fill="none" stroke="black" d="M1220.92,-180C1220.92,-180 1113.08,-180 1113.08,-180 1107.08,-180 1101.08,-174 1101.08,-168 1101.08,-168 1101.08,-156 1101.08,-156 1101.08,-150 1107.08,-144 1113.08,-144 1113.08,-144 1220.92,-144 1220.92,-144 1226.92,-144 1232.92,-150 1232.92,-156 1232.92,-156 1232.92,-168 1232.92,-168 1232.92,-174 1226.92,-180 1220.92,-180"/>
<text text-anchor="middle" x="1167" y="-157.8" font-family="Helvetica,Arial,sans-serif" font-size="14.00">o:fastamaptransform</text>
</g>
<!-- fastamaptransform&#45;&gt;fastamap -->
<g id="edge89" class="edge">
<title>fastamaptransform-&gt;fastamap</title>
<path fill="none" stroke="black" stroke-dasharray="1,5" d="M1185.54,-180.3C1194.46,-188.63 1205.33,-198.78 1215.14,-207.93"/>
<polygon fill="black" stroke="black" points="1212.61,-210.36 1222.31,-214.62 1217.39,-205.24 1212.61,-210.36"/>
</g>
<!-- fastadownload -->
<g id="node47" class="node">
<title>fastadownload</title>
<path fill="none" stroke="black" d="M1291.27,-108C1291.27,-108 1206.73,-108 1206.73,-108 1200.73,-108 1194.73,-102 1194.73,-96 1194.73,-96 1194.73,-84 1194.73,-84 1194.73,-78 1200.73,-72 1206.73,-72 1206.73,-72 1291.27,-72 1291.27,-72 1297.27,-72 1303.27,-78 1303.27,-84 1303.27,-84 1303.27,-96 1303.27,-96 1303.27,-102 1297.27,-108 1291.27,-108"/>
<text text-anchor="middle" x="1249" y="-85.8" font-family="Helvetica,Arial,sans-serif" font-size="14.00">d:fastadownload</text>
</g>
<!-- fastadownload&#45;&gt;fastamap -->
<g id="edge90" class="edge">
<title>fastadownload-&gt;fastamap</title>
<path fill="none" stroke="black" stroke-dasharray="1,5" d="M1248.14,-108.41C1246.96,-132.39 1244.82,-175.86 1243.4,-204.58"/>
<polygon fill="black" stroke="black" points="1239.91,-204.22 1242.92,-214.38 1246.91,-204.56 1239.91,-204.22"/>
</g>
<!-- fastadownload&#45;&gt;fastamaptransform -->
<g id="edge91" class="edge">
<title>fastadownload-&gt;fastamaptransform</title>
<path fill="none" stroke="black" stroke-dasharray="1,5" d="M1228.73,-108.3C1218.87,-116.72 1206.85,-126.98 1196.04,-136.21"/>
<polygon fill="black" stroke="black" points="1193.81,-133.52 1188.47,-142.67 1198.35,-138.84 1193.81,-133.52"/>
</g>
<!-- fasta2fastq -->
<g id="node48" class="node">
<title>fasta2fastq</title>
<path fill="none" stroke="black" d="M1238.6,-36C1238.6,-36 1177.4,-36 1177.4,-36 1171.4,-36 1165.4,-30 1165.4,-24 1165.4,-24 1165.4,-12 1165.4,-12 1165.4,-6 1171.4,0 1177.4,0 1177.4,0 1238.6,0 1238.6,0 1244.6,0 1250.6,-6 1250.6,-12 1250.6,-12 1250.6,-24 1250.6,-24 1250.6,-30 1244.6,-36 1238.6,-36"/>
<text text-anchor="middle" x="1208" y="-13.8" font-family="Helvetica,Arial,sans-serif" font-size="14.00">f:fasta2fastq</text>
</g>
<!-- fasta2fastq&#45;&gt;fastamaptransform -->
<g id="edge93" class="edge">
<title>fasta2fastq-&gt;fastamaptransform</title>
<path fill="none" stroke="black" stroke-dasharray="1,5" d="M1199.84,-36.37C1195.29,-46.57 1189.79,-59.82 1186,-72 1179.82,-91.86 1174.97,-114.82 1171.72,-132.45"/>
<polygon fill="black" stroke="black" points="1168.29,-131.75 1169.99,-142.21 1175.18,-132.97 1168.29,-131.75"/>
</g>
<!-- fasta2fastq&#45;&gt;fastadownload -->
<g id="edge92" class="edge">
<title>fasta2fastq-&gt;fastadownload</title>
<path fill="none" stroke="black" d="M1218.13,-36.3C1222.7,-44.1 1228.2,-53.49 1233.29,-62.17"/>
<polygon fill="black" stroke="black" points="1230.14,-63.73 1238.22,-70.59 1236.18,-60.19 1230.14,-63.73"/>
</g>
<!-- krakencount -->
<g id="node49" class="node">
<title>krakencount</title>
<path fill="none" stroke="black" d="M1098.04,-252C1098.04,-252 1025.96,-252 1025.96,-252 1019.96,-252 1013.96,-246 1013.96,-240 1013.96,-240 1013.96,-228 1013.96,-228 1013.96,-222 1019.96,-216 1025.96,-216 1025.96,-216 1098.04,-216 1098.04,-216 1104.04,-216 1110.04,-222 1110.04,-228 1110.04,-228 1110.04,-240 1110.04,-240 1110.04,-246 1104.04,-252 1098.04,-252"/>
<text text-anchor="middle" x="1062" y="-229.8" font-family="Helvetica,Arial,sans-serif" font-size="14.00">o:krakencount</text>
</g>
<!-- krakencount&#45;&gt;taxnodes -->
<g id="edge95" class="edge">
<title>krakencount-&gt;taxnodes</title>
<path fill="none" stroke="black" stroke-dasharray="1,5" d="M1063.42,-252.48C1065.46,-279.26 1069,-332.08 1069,-377 1069,-377 1069,-377 1069,-883 1069,-955.84 988.94,-1127.1 949,-1188 942.61,-1197.75 934.29,-1207.28 926.23,-1215.52"/>
<polygon fill="black" stroke="black" points="923.78,-1213.02 919.1,-1222.52 928.69,-1218.01 923.78,-1213.02"/>
</g>
<!-- krakencount&#45;&gt;fastqmaptransform -->
<g id="edge96" class="edge">
<title>krakencount-&gt;fastqmaptransform</title>
<path fill="none" stroke="black" stroke-dasharray="1,5" d="M1055.72,-252.4C1047.56,-272.56 1031.4,-305.38 1007,-324 977.44,-346.56 938.45,-359.54 904.32,-366.99"/>
<polygon fill="black" stroke="black" points="904.01,-363.48 894.91,-368.92 905.41,-370.34 904.01,-363.48"/>
</g>
<!-- krakencount&#45;&gt;fastqdownload -->
<g id="edge94" class="edge">
<title>krakencount-&gt;fastqdownload</title>
<path fill="none" stroke="black" d="M1024.04,-252.48C1004.1,-261.66 979.46,-273.01 958.2,-282.8"/>
<polygon fill="black" stroke="black" points="956.74,-279.62 949.12,-286.99 959.67,-285.98 956.74,-279.62"/>
</g>
<!-- krakenres -->
<g id="node50" class="node">
<title>krakenres</title>
<path fill="none" stroke="black" d="M1070.48,-180C1070.48,-180 1015.52,-180 1015.52,-180 1009.52,-180 1003.52,-174 1003.52,-168 1003.52,-168 1003.52,-156 1003.52,-156 1003.52,-150 1009.52,-144 1015.52,-144 1015.52,-144 1070.48,-144 1070.48,-144 1076.48,-144 1082.48,-150 1082.48,-156 1082.48,-156 1082.48,-168 1082.48,-168 1082.48,-174 1076.48,-180 1070.48,-180"/>
<text text-anchor="middle" x="1043" y="-157.8" font-family="Helvetica,Arial,sans-serif" font-size="14.00">f:krakenres</text>
</g>
<!-- krakenres&#45;&gt;taxnodes -->
<g id="edge98" class="edge">
<title>krakenres-&gt;taxnodes</title>
<path fill="none" stroke="black" stroke-dasharray="1,5" d="M1082.18,-180.45C1096.45,-188.98 1111.04,-200.74 1119,-216 1126.4,-230.19 1119.17,-236 1119,-252 1116.33,-499.6 1107,-561.39 1107,-809 1107,-809 1107,-809 1107,-883 1107,-1031.06 1071.3,-1077.28 973,-1188 963.14,-1199.1 950.54,-1209.14 938.48,-1217.42"/>
<polygon fill="black" stroke="black" points="936.69,-1214.41 930.26,-1222.83 940.54,-1220.25 936.69,-1214.41"/>
</g>
<!-- krakenres&#45;&gt;fastqmaptransform -->
<g id="edge100" class="edge">
<title>krakenres-&gt;fastqmaptransform</title>
<path fill="none" stroke="black" stroke-dasharray="1,5" d="M1028.36,-180.19C1020.52,-190.12 1011.22,-203.16 1005,-216 983.24,-260.95 1008.12,-287.53 974,-324 955.76,-343.5 929.81,-355.84 904.78,-363.64"/>
<polygon fill="black" stroke="black" points="903.85,-360.27 895.21,-366.4 905.79,-366.99 903.85,-360.27"/>
</g>
<!-- krakenres&#45;&gt;fastqdownload -->
<g id="edge97" class="edge">
<title>krakenres-&gt;fastqdownload</title>
<path fill="none" stroke="black" d="M1015.73,-180.28C1001.79,-189.85 985.05,-202.51 972,-216 953.77,-234.84 937.03,-259.51 925.55,-278.1"/>
<polygon fill="black" stroke="black" points="922.7,-276.06 920.52,-286.43 928.69,-279.67 922.7,-276.06"/>
</g>
<!-- krakenres&#45;&gt;krakencount -->
<g id="edge99" class="edge">
<title>krakenres-&gt;krakencount</title>
<path fill="none" stroke="black" stroke-dasharray="1,5" d="M1047.7,-180.3C1049.72,-187.76 1052.14,-196.68 1054.41,-205.03"/>
<polygon fill="black" stroke="black" points="1050.96,-205.7 1056.96,-214.43 1057.72,-203.87 1050.96,-205.7"/>
</g>
</g>
</svg>