<svg width="750" height="684" viewBox="0 0 562.5 513" xmlns="http://www.w3.org/2000/svg" xmlns:xlink="http://www.w3.org/1999/xlink">
<g id="graph0" class="graph" transform="translate(146.6567384381527,511.681233933162) scale(0.3296915167095116)">
<title>regexp</title>
<polygon fill="white" stroke="none" points="-4,4 -4,-1552 820.48,-1552 820.48,4 -4,4"/>
<!-- showall -->
<g id="node1" class="node">
<title>showall</title>
<polygon fill="none" stroke="black" stroke-width="2" points="379.26,-36 319.71,-36 319.71,0 379.26,0 379.26,-36"/>
<text text-anchor="middle" x="349.48" y="-13.8" font-family="Helvetica,Arial,sans-serif" font-size="14.00">showall</text>
</g>
<!-- show -->
<g id="node2" class="node">
<title>show</title>
<polygon fill="none" stroke="black" stroke-width="2" points="451.48,-36 397.48,-36 397.48,0 451.48,0 451.48,-36"/>
<text text-anchor="middle" x="424.48" y="-13.8" font-family="Helvetica,Arial,sans-serif" font-size="14.00">show</text>
</g>
<!-- commonsetup -->
<g id="node3" class="node">
<title>commonsetup</title>
<path fill="none" stroke="black" d="M537.03,-1548C537.03,-1548 457.93,-1548 457.93,-1548 451.93,-1548 445.93,-1542 445.93,-1536 445.93,-1536 445.93,-1524 445.93,-1524 445.93,-1518 451.93,-1512 457.93,-1512 457.93,-1512 537.03,-1512 537.03,-1512 543.03,-1512 549.03,-1518 549.03,-1524 549.03,-1524 549.03,-1536 549.03,-1536 549.03,-1542 543.03,-1548 537.03,-1548"/>
<text text-anchor="middle" x="497.48" y="-1525.8" font-family="Helvetica,Arial,sans-serif" font-size="14.00">f:commonsetup</text>
</g>
<!-- taxdownload -->
<g id="node4" class="node">
<title>taxdownload</title>
<path fill="none" stroke="black" d="M322.09,-1476C322.09,-1476 246.88,-1476 246.88,-1476 240.88,-1476 234.88,-1470 234.88,-1464 234.88,-1464 234.88,-1452 234.88,-1452 234.88,-1446 240.88,-1440 246.88,-1440 246.88,-1440 322.09,-1440 322.09,-1440 328.09,-1440 334.09,-1446 334.09,-1452 334.09,-1452 334.09,-1464 334.09,-1464 334.09,-1470 328.09,-1476 322.09,-1476"/>
<text text-anchor="middle" x="284.48" y="-1453.8" font-family="Helvetica,Arial,sans-serif" font-size="14.00">d:taxdownload</text>
</g>
<!-- taxdownload&#45;&gt;commonsetup -->
<g id="edge1" class="edge">
<title>taxdownload-&gt;commonsetup</title>
<path fill="none" stroke="black" d="M334.42,-1475.41C364.47,-1485.29 402.98,-1497.94 435.03,-1508.48"/>
<polygon fill="black" stroke="black" points="433.6,-1511.69 444.19,-1511.49 435.79,-1505.04 433.6,-1511.69"/>
</g>
<!-- taxtree -->
<g id="node5" class="node">
<title>taxtree</title>
<path fill="none" stroke="black" d="M260.97,-1332C260.97,-1332 220,-1332 220,-1332 214,-1332 208,-1326 208,-1320 208,-1320 208,-1308 208,-1308 208,-1302 214,-1296 220,-1296 220,-1296 260.97,-1296 260.97,-1296 266.97,-1296 272.97,-1302 272.97,-1308 272.97,-1308 272.97,-1320 272.97,-1320 272.97,-1326 266.97,-1332 260.97,-1332"/>
<text text-anchor="middle" x="240.48" y="-1309.8" font-family="Helvetica,Arial,sans-serif" font-size="14.00">o:taxtree</text>
</g>
<!-- taxtree&#45;&gt;taxdownload -->
<g id="edge2" class="edge">
<title>taxtree-&gt;taxdownload</title>
<path fill="none" stroke="black" d="M245.88,-1332.41C253.34,-1356.5 266.9,-1400.25 275.8,-1428.97"/>
<polygon fill="black" stroke="black" points="272.43,-1429.93 278.73,-1438.44 279.12,-1427.86 272.43,-1429.93"/>
</g>
<!-- taxnodes -->
<g id="node6" class="node">
<title>taxnodes</title>
<path fill="none" stroke="black" d="M266.81,-1260C266.81,-1260 214.16,-1260 214.16,-1260 208.16,-1260 202.16,-1254 202.16,-1248 202.16,-1248 202.16,-1236 202.16,-1236 202.16,-1230 208.16,-1224 214.16,-1224 214.16,-1224 266.81,-1224 266.81,-1224 272.81,-1224 278.81,-1230 278.81,-1236 278.81,-1236 278.81,-1248 278.81,-1248 278.81,-1254 272.81,-1260 266.81,-1260"/>
<text text-anchor="middle" x="240.48" y="-1237.8" font-family="Helvetica,Arial,sans-serif" font-size="14.00">o:taxnodes</text>
</g>
<!-- taxnodes&#45;&gt;taxtree -->
<g id="edge3" class="edge">
<title>taxnodes-&gt;taxtree</title>
<path fill="none" stroke="black" stroke-dasharray="1,5" d="M240.48,-1260.3C240.48,-1267.59 240.48,-1276.27 240.48,-1284.46"/>
<polygon fill="black" stroke="black" points="236.98,-1284.38 240.48,-1294.38 243.98,-1284.38 236.98,-1284.38"/>
</g>
<!-- refseqrelease -->
<g id="node7" class="node">
<title>refseqrelease</title>
<path fill="none" stroke="black" d="M603.46,-1476C603.46,-1476 527.51,-1476 527.51,-1476 521.51,-1476 515.51,-1470 515.51,-1464 515.51,-1464 515.51,-1452 515.51,-1452 515.51,-1446 521.51,-1440 527.51,-1440 527.51,-1440 603.46,-1440 603.46,-1440 609.46,-1440 615.46,-1446 615.46,-1452 615.46,-1452 615.46,-1464 615.46,-1464 615.46,-1470 609.46,-1476 603.46,-1476"/>
<text text-anchor="middle" x="565.48" y="-1453.8" font-family="Helvetica,Arial,sans-serif" font-size="14.00">d:refseqrelease</text>
</g>
<!-- refseqrelease&#45;&gt;commonsetup -->
<g id="edge4" class="edge">
<title>refseqrelease-&gt;commonsetup</title>
<path fill="none" stroke="black" d="M548.67,-1476.3C540.6,-1484.61 530.78,-1494.72 521.91,-1503.86"/>
<polygon fill="black" stroke="black" points="519.61,-1501.2 515.15,-1510.81 524.63,-1506.08 519.61,-1501.2"/>
</g>
<!-- refseqcat -->
<g id="node8" class="node">
<title>refseqcat</title>
<path fill="none" stroke="black" d="M603.19,-1404C603.19,-1404 549.78,-1404 549.78,-1404 543.78,-1404 537.78,-1398 537.78,-1392 537.78,-1392 537.78,-1380 537.78,-1380 537.78,-1374 543.78,-1368 549.78,-1368 549.78,-1368 603.19,-1368 603.19,-1368 609.19,-1368 615.19,-1374 615.19,-1380 615.19,-1380 615.19,-1392 615.19,-1392 615.19,-1398 609.19,-1404 603.19,-1404"/>
<text text-anchor="middle" x="576.48" y="-1381.8" font-family="Helvetica,Arial,sans-serif" font-size="14.00">d:refseqcat</text>
</g>
<!-- refseqcat&#45;&gt;commonsetup -->
<g id="edge5" class="edge">
<title>refseqcat-&gt;commonsetup</title>
<path fill="none" stroke="black" d="M597.17,-1404.27C616.55,-1422.62 640.35,-1452.19 624.48,-1476 609.95,-1497.81 584.55,-1510.66 560.27,-1518.23"/>
<polygon fill="black" stroke="black" points="559.36,-1514.84 550.69,-1520.93 561.27,-1521.58 559.36,-1514.84"/>
</g>
<!-- refseqcat&#45;&gt;refseqrelease -->
<g id="edge6" class="edge">
<title>refseqcat-&gt;refseqrelease</title>
<path fill="none" stroke="black" d="M573.76,-1404.3C572.6,-1411.68 571.22,-1420.48 569.92,-1428.75"/>
<polygon fill="black" stroke="black" points="566.5,-1427.98 568.41,-1438.4 573.42,-1429.07 566.5,-1427.98"/>
</g>
<!-- checksummap -->
<g id="node9" class="node">
<title>checksummap</title>
<path fill="none" stroke="black" d="M607.97,-1116C607.97,-1116 525,-1116 525,-1116 519,-1116 513,-1110 513,-1104 513,-1104 513,-1092 513,-1092 513,-1086 519,-1080 525,-1080 525,-1080 607.97,-1080 607.97,-1080 613.97,-1080 619.97,-1086 619.97,-1092 619.97,-1092 619.97,-1104 619.97,-1104 619.97,-1110 613.97,-1116 607.97,-1116"/>
<text text-anchor="middle" x="566.48" y="-1093.8" font-family="Helvetica,Arial,sans-serif" font-size="14.00">o:checksummap</text>
</g>
<!-- checksummap&#45;&gt;refseqcat -->
<g id="edge7" class="edge">
<title>checksummap-&gt;refseqcat</title>
<path fill="none" stroke="black" d="M528.7,-1116.44C514.67,-1125.02 500.28,-1136.82 492.48,-1152 485.17,-1166.23 491.93,-1172.01 492.48,-1188 494.71,-1252.12 471.2,-1275.99 502.48,-1332 508.98,-1343.63 519.22,-1353.35 530.04,-1361.15"/>
<polygon fill="black" stroke="black" points="528.09,-1364.06 538.35,-1366.68 531.96,-1358.23 528.09,-1364.06"/>
</g>
<!-- clear -->
<g id="node10" class="node">
<title>clear</title>
<polygon fill="none" stroke="black" stroke-width="2" points="595.48,-36 541.48,-36 541.48,0 595.48,0 595.48,-36"/>
<text text-anchor="middle" x="568.48" y="-13.8" font-family="Helvetica,Arial,sans-serif" font-size="14.00">f:clear</text>
</g>
<!-- categories -->
<g id="node11" class="node">
<title>categories</title>
<path fill="none" stroke="black" d="M770.3,-1404C770.3,-1404 710.67,-1404 710.67,-1404 704.67,-1404 698.67,-1398 698.67,-1392 698.67,-1392 698.67,-1380 698.67,-1380 698.67,-1374 704.67,-1368 710.67,-1368 710.67,-1368 770.3,-1368 770.3,-1368 776.3,-1368 782.3,-1374 782.3,-1380 782.3,-1380 782.3,-1392 782.3,-1392 782.3,-1398 776.3,-1404 770.3,-1404"/>
<text text-anchor="middle" x="740.48" y="-1381.8" font-family="Helvetica,Arial,sans-serif" font-size="14.00">o:categories</text>
</g>
<!-- refseqfna -->
<g id="node12" class="node">
<title>refseqfna</title>
<path fill="none" stroke="black" d="M661.97,-972C661.97,-972 607,-972 607,-972 601,-972 595,-966 595,-960 595,-960 595,-948 595,-948 595,-942 601,-936 607,-936 607,-936 661.97,-936 661.97,-936 667.97,-936 673.97,-942 673.97,-948 673.97,-948 673.97,-960 673.97,-960 673.97,-966 667.97,-972 661.97,-972"/>
<text text-anchor="middle" x="634.48" y="-949.8" font-family="Helvetica,Arial,sans-serif" font-size="14.00">d:refseqfna</text>
</g>
<!-- refseqfna&#45;&gt;refseqcat -->
<g id="edge9" class="edge">
<title>refseqfna-&gt;refseqcat</title>
<path fill="none" stroke="black" d="M635.92,-972.45C638.72,-1011.48 643.42,-1108.67 628.48,-1188 619.04,-1238.15 601.9,-1246.5 589.48,-1296 584.48,-1315.94 581.19,-1338.9 579.17,-1356.51"/>
<polygon fill="black" stroke="black" points="575.71,-1355.92 578.13,-1366.23 582.67,-1356.66 575.71,-1355.92"/>
</g>
<!-- refseqfna&#45;&gt;checksummap -->
<g id="edge10" class="edge">
<title>refseqfna-&gt;checksummap</title>
<path fill="none" stroke="black" stroke-dasharray="1,5" d="M626.14,-972.41C614.51,-996.71 593.29,-1041.03 579.54,-1069.73"/>
<polygon fill="black" stroke="black" points="576.49,-1067.99 575.33,-1078.52 582.81,-1071.02 576.49,-1067.99"/>
</g>
<!-- refseqfna&#45;&gt;categories -->
<g id="edge8" class="edge">
<title>refseqfna-&gt;categories</title>
<path fill="none" stroke="black" stroke-dasharray="1,5" d="M642.02,-972.3C663.06,-1021.63 722.12,-1167.77 741.48,-1296 744.5,-1316.01 744.17,-1338.85 743.13,-1356.38"/>
<polygon fill="black" stroke="black" points="739.64,-1356.09 742.41,-1366.32 746.62,-1356.59 739.64,-1356.09"/>
</g>
<!-- accmapsize -->
<g id="node13" class="node">
<title>accmapsize</title>
<path fill="none" stroke="black" d="M700.18,-1332C700.18,-1332 632.78,-1332 632.78,-1332 626.78,-1332 620.78,-1326 620.78,-1320 620.78,-1320 620.78,-1308 620.78,-1308 620.78,-1302 626.78,-1296 632.78,-1296 632.78,-1296 700.18,-1296 700.18,-1296 706.18,-1296 712.18,-1302 712.18,-1308 712.18,-1308 712.18,-1320 712.18,-1320 712.18,-1326 706.18,-1332 700.18,-1332"/>
<text text-anchor="middle" x="666.48" y="-1309.8" font-family="Helvetica,Arial,sans-serif" font-size="14.00">o:accmapsize</text>
</g>
<!-- accmapsize&#45;&gt;refseqcat -->
<g id="edge12" class="edge">
<title>accmapsize-&gt;refseqcat</title>
<path fill="none" stroke="black" d="M644.24,-1332.3C633.2,-1340.89 619.69,-1351.39 607.65,-1360.76"/>
<polygon fill="black" stroke="black" points="605.73,-1357.82 599.98,-1366.72 610.02,-1363.35 605.73,-1357.82"/>
</g>
<!-- accmapsize&#45;&gt;categories -->
<g id="edge11" class="edge">
<title>accmapsize-&gt;categories</title>
<path fill="none" stroke="black" stroke-dasharray="1,5" d="M684.78,-1332.3C693.58,-1340.63 704.3,-1350.78 713.98,-1359.93"/>
<polygon fill="black" stroke="black" points="711.38,-1362.28 721.05,-1366.61 716.19,-1357.2 711.38,-1362.28"/>
</g>
<!-- accmap -->
<g id="node14" class="node">
<title>accmap</title>
<path fill="none" stroke="black" d="M689.3,-1260C689.3,-1260 643.67,-1260 643.67,-1260 637.67,-1260 631.67,-1254 631.67,-1248 631.67,-1248 631.67,-1236 631.67,-1236 631.67,-1230 637.67,-1224 643.67,-1224 643.67,-1224 689.3,-1224 689.3,-1224 695.3,-1224 701.3,-1230 701.3,-1236 701.3,-1236 701.3,-1248 701.3,-1248 701.3,-1254 695.3,-1260 689.3,-1260"/>
<text text-anchor="middle" x="666.48" y="-1237.8" font-family="Helvetica,Arial,sans-serif" font-size="14.00">o:accmap</text>
</g>
<!-- accmap&#45;&gt;refseqcat -->
<g id="edge14" class="edge">
<title>accmap-&gt;refseqcat</title>
<path fill="none" stroke="black" d="M644.44,-1260.31C633.39,-1269.88 620.47,-1282.55 611.48,-1296 599.01,-1314.66 589.95,-1338.43 584.18,-1356.71"/>
<polygon fill="black" stroke="black" points="580.88,-1355.52 581.37,-1366.1 587.59,-1357.52 580.88,-1355.52"/>
</g>
<!-- accmap&#45;&gt;categories -->
<g id="edge13" class="edge">
<title>accmap-&gt;categories</title>
<path fill="none" stroke="black" stroke-dasharray="1,5" d="M690.29,-1260.44C701.4,-1269.78 713.82,-1282.21 721.48,-1296 731.76,-1314.49 736.48,-1337.99 738.65,-1356.19"/>
<polygon fill="black" stroke="black" points="735.16,-1356.44 739.61,-1366.05 742.12,-1355.75 735.16,-1356.44"/>
</g>
<!-- accmap&#45;&gt;accmapsize -->
<g id="edge15" class="edge">
<title>accmap-&gt;accmapsize</title>
<path fill="none" stroke="black" stroke-dasharray="1,5" d="M666.48,-1260.3C666.48,-1267.59 666.48,-1276.27 666.48,-1284.46"/>
<polygon fill="black" stroke="black" points="662.98,-1284.38 666.48,-1294.38 669.98,-1284.38 662.98,-1284.38"/>
</g>
<!-- taxfromgenbank -->
<g id="node15" class="node">
<title>taxfromgenbank</title>
<path fill="none" stroke="black" d="M607.8,-1188C607.8,-1188 513.17,-1188 513.17,-1188 507.17,-1188 501.17,-1182 501.17,-1176 501.17,-1176 501.17,-1164 501.17,-1164 501.17,-1158 507.17,-1152 513.17,-1152 513.17,-1152 607.8,-1152 607.8,-1152 613.8,-1152 619.8,-1158 619.8,-1164 619.8,-1164 619.8,-1176 619.8,-1176 619.8,-1182 613.8,-1188 607.8,-1188"/>
<text text-anchor="middle" x="560.48" y="-1165.8" font-family="Helvetica,Arial,sans-serif" font-size="14.00">o:taxfromgenbank</text>
</g>
<!-- taxfromgenbank&#45;&gt;taxnodes -->
<g id="edge17" class="edge">
<title>taxfromgenbank-&gt;taxnodes</title>
<path fill="none" stroke="black" stroke-dasharray="1,5" d="M500.67,-1184.08C439.91,-1197.37 346.91,-1217.72 290.1,-1230.15"/>
<polygon fill="black" stroke="black" points="289.4,-1226.72 280.38,-1232.27 290.9,-1233.55 289.4,-1226.72"/>
</g>
<!-- taxfromgenbank&#45;&gt;categories -->
<g id="edge16" class="edge">
<title>taxfromgenbank-&gt;categories</title>
<path fill="none" stroke="black" stroke-dasharray="1,5" d="M561.3,-1188.39C563.74,-1220.73 573.36,-1290.58 611.48,-1332 631.35,-1353.59 661.32,-1366.62 687.37,-1374.35"/>
<polygon fill="black" stroke="black" points="686.22,-1377.66 696.79,-1376.95 688.08,-1370.92 686.22,-1377.66"/>
</g>
<!-- taxfromgenbank&#45;&gt;accmap -->
<g id="edge18" class="edge">
<title>taxfromgenbank-&gt;accmap</title>
<path fill="none" stroke="black" stroke-dasharray="1,5" d="M586.96,-1188.48C600.21,-1197.24 616.45,-1207.96 630.78,-1217.42"/>
<polygon fill="black" stroke="black" points="628.81,-1220.32 639.08,-1222.91 632.67,-1214.47 628.81,-1220.32"/>
</g>
<!-- assemblydownload -->
<g id="node16" class="node">
<title>assemblydownload</title>
<path fill="none" stroke="black" d="M485.59,-1476C485.59,-1476 375.38,-1476 375.38,-1476 369.38,-1476 363.38,-1470 363.38,-1464 363.38,-1464 363.38,-1452 363.38,-1452 363.38,-1446 369.38,-1440 375.38,-1440 375.38,-1440 485.59,-1440 485.59,-1440 491.59,-1440 497.59,-1446 497.59,-1452 497.59,-1452 497.59,-1464 497.59,-1464 497.59,-1470 491.59,-1476 485.59,-1476"/>
<text text-anchor="middle" x="430.48" y="-1453.8" font-family="Helvetica,Arial,sans-serif" font-size="14.00">d:assemblydownload</text>
</g>
<!-- assemblydownload&#45;&gt;commonsetup -->
<g id="edge19" class="edge">
<title>assemblydownload-&gt;commonsetup</title>
<path fill="none" stroke="black" d="M447.04,-1476.3C454.91,-1484.53 464.48,-1494.52 473.15,-1503.58"/>
<polygon fill="black" stroke="black" points="470.62,-1506 480.07,-1510.8 475.68,-1501.16 470.62,-1506"/>
</g>
<!-- fastasgenbank -->
<g id="node17" class="node">
<title>fastasgenbank</title>
<path fill="none" stroke="black" d="M481.58,-1116C481.58,-1116 399.39,-1116 399.39,-1116 393.39,-1116 387.39,-1110 387.39,-1104 387.39,-1104 387.39,-1092 387.39,-1092 387.39,-1086 393.39,-1080 399.39,-1080 399.39,-1080 481.58,-1080 481.58,-1080 487.58,-1080 493.58,-1086 493.58,-1092 493.58,-1092 493.58,-1104 493.58,-1104 493.58,-1110 487.58,-1116 481.58,-1116"/>
<text text-anchor="middle" x="440.48" y="-1093.8" font-family="Helvetica,Arial,sans-serif" font-size="14.00">o:fastasgenbank</text>
</g>
<!-- fastasgenbank&#45;&gt;taxtree -->
<g id="edge20" class="edge">
<title>fastasgenbank-&gt;taxtree</title>
<path fill="none" stroke="black" stroke-dasharray="1,5" d="M428.71,-1116.41C415.93,-1134.86 394.53,-1164.53 373.48,-1188 340.08,-1225.26 297.28,-1264.11 269.39,-1288.42"/>
<polygon fill="black" stroke="black" points="267.3,-1285.6 262.03,-1294.79 271.88,-1290.89 267.3,-1285.6"/>
</g>
<!-- fastasgenbank&#45;&gt;taxfromgenbank -->
<g id="edge21" class="edge">
<title>fastasgenbank-&gt;taxfromgenbank</title>
<path fill="none" stroke="black" stroke-dasharray="1,5" d="M470.45,-1116.48C485.75,-1125.4 504.54,-1136.37 521,-1145.97"/>
<polygon fill="black" stroke="black" points="519.18,-1148.96 529.59,-1150.98 522.71,-1142.91 519.18,-1148.96"/>
</g>
<!-- fastasgenbank&#45;&gt;assemblydownload -->
<g id="edge22" class="edge">
<title>fastasgenbank-&gt;assemblydownload</title>
<path fill="none" stroke="black" d="M439.47,-1116.48C438.01,-1143.27 435.48,-1196.1 435.48,-1241 435.48,-1241 435.48,-1241 435.48,-1315 435.48,-1354.28 433.55,-1399.64 432.09,-1428.32"/>
<polygon fill="black" stroke="black" points="428.61,-1427.84 431.57,-1438.01 435.6,-1428.21 428.61,-1427.84"/>
</g>
<!-- fastasgenbankdl -->
<g id="node18" class="node">
<title>fastasgenbankdl</title>
<path fill="none" stroke="black" d="M489.02,-1044C489.02,-1044 395.94,-1044 395.94,-1044 389.94,-1044 383.94,-1038 383.94,-1032 383.94,-1032 383.94,-1020 383.94,-1020 383.94,-1014 389.94,-1008 395.94,-1008 395.94,-1008 489.02,-1008 489.02,-1008 495.02,-1008 501.02,-1014 501.02,-1020 501.02,-1020 501.02,-1032 501.02,-1032 501.02,-1038 495.02,-1044 489.02,-1044"/>
<text text-anchor="middle" x="442.48" y="-1021.8" font-family="Helvetica,Arial,sans-serif" font-size="14.00">d:fastasgenbankdl</text>
</g>
<!-- fastasgenbankdl&#45;&gt;fastasgenbank -->
<g id="edge23" class="edge">
<title>fastasgenbankdl-&gt;fastasgenbank</title>
<path fill="none" stroke="black" stroke-dasharray="1,5" d="M441.99,-1044.3C441.78,-1051.59 441.53,-1060.27 441.3,-1068.46"/>
<polygon fill="black" stroke="black" points="437.8,-1068.29 441.01,-1078.38 444.8,-1068.49 437.8,-1068.29"/>
</g>
<!-- adddownloads -->
<g id="node19" class="node">
<title>adddownloads</title>
<path fill="none" stroke="black" d="M315.37,-1044C315.37,-1044 231.6,-1044 231.6,-1044 225.6,-1044 219.6,-1038 219.6,-1032 219.6,-1032 219.6,-1020 219.6,-1020 219.6,-1014 225.6,-1008 231.6,-1008 231.6,-1008 315.37,-1008 315.37,-1008 321.37,-1008 327.37,-1014 327.37,-1020 327.37,-1020 327.37,-1032 327.37,-1032 327.37,-1038 321.37,-1044 315.37,-1044"/>
<text text-anchor="middle" x="273.48" y="-1021.8" font-family="Helvetica,Arial,sans-serif" font-size="14.00">d:adddownloads</text>
</g>
<!-- addfastas -->
<g id="node20" class="node">
<title>addfastas</title>
<path fill="none" stroke="black" d="M384.97,-972C384.97,-972 329.99,-972 329.99,-972 323.99,-972 317.99,-966 317.99,-960 317.99,-960 317.99,-948 317.99,-948 317.99,-942 323.99,-936 329.99,-936 329.99,-936 384.97,-936 384.97,-936 390.97,-936 396.97,-942 396.97,-948 396.97,-948 396.97,-960 396.97,-960 396.97,-966 390.97,-972 384.97,-972"/>
<text text-anchor="middle" x="357.48" y="-949.8" font-family="Helvetica,Arial,sans-serif" font-size="14.00">o:addfastas</text>
</g>
<!-- addfastas&#45;&gt;taxtree -->
<g id="edge25" class="edge">
<title>addfastas-&gt;taxtree</title>
<path fill="none" stroke="black" stroke-dasharray="1,5" d="M317.5,-962.04C285.79,-969.25 241.76,-983.04 210.48,-1008 173.77,-1037.3 153.48,-1050.03 153.48,-1097 153.48,-1097 153.48,-1097 153.48,-1171 153.48,-1217.44 187.73,-1261.5 213.25,-1287.89"/>
<polygon fill="black" stroke="black" points="210.56,-1290.15 220.1,-1294.75 215.51,-1285.2 210.56,-1290.15"/>
</g>
<!-- addfastas&#45;&gt;fastasgenbank -->
<g id="edge26" class="edge">
<title>addfastas-&gt;fastasgenbank</title>
<path fill="none" stroke="black" stroke-dasharray="1,5" d="M357.33,-972.31C357.91,-991.21 361.11,-1021.76 374.48,-1044 381.15,-1055.09 391.04,-1064.82 401.15,-1072.81"/>
<polygon fill="black" stroke="black" points="399.06,-1075.63 409.18,-1078.76 403.22,-1070 399.06,-1075.63"/>
</g>
<!-- addfastas&#45;&gt;fastasgenbankdl -->
<g id="edge27" class="edge">
<title>addfastas-&gt;fastasgenbankdl</title>
<path fill="none" stroke="black" d="M378.49,-972.3C388.81,-980.8 401.42,-991.19 412.72,-1000.49"/>
<polygon fill="black" stroke="black" points="410.31,-1003.04 420.25,-1006.69 414.76,-997.63 410.31,-1003.04"/>
</g>
<!-- addfastas&#45;&gt;adddownloads -->
<g id="edge24" class="edge">
<title>addfastas-&gt;adddownloads</title>
<path fill="none" stroke="black" d="M336.72,-972.3C326.52,-980.8 314.06,-991.19 302.9,-1000.49"/>
<polygon fill="black" stroke="black" points="300.9,-997.59 295.46,-1006.68 305.38,-1002.97 300.9,-997.59"/>
</g>
<!-- fillsize -->
<g id="node21" class="node">
<title>fillsize</title>
<path fill="none" stroke="black" d="M489.98,-900C489.98,-900 448.99,-900 448.99,-900 442.99,-900 436.99,-894 436.99,-888 436.99,-888 436.99,-876 436.99,-876 436.99,-870 442.99,-864 448.99,-864 448.99,-864 489.98,-864 489.98,-864 495.98,-864 501.98,-870 501.98,-876 501.98,-876 501.98,-888 501.98,-888 501.98,-894 495.98,-900 489.98,-900"/>
<text text-anchor="middle" x="469.48" y="-877.8" font-family="Helvetica,Arial,sans-serif" font-size="14.00">o:fillsize</text>
</g>
<!-- fillsize&#45;&gt;taxnodes -->
<g id="edge28" class="edge">
<title>fillsize-&gt;taxnodes</title>
<path fill="none" stroke="black" stroke-dasharray="1,5" d="M482.58,-900.32C505,-932.23 545.13,-1000.98 510.48,-1044 463.4,-1102.46 407.27,-1037.38 345.48,-1080 297.19,-1113.31 265.71,-1176.81 250.72,-1213.31"/>
<polygon fill="black" stroke="black" points="247.59,-1211.72 247.16,-1222.31 254.09,-1214.3 247.59,-1211.72"/>
</g>
<!-- fillsize&#45;&gt;refseqfna -->
<g id="edge29" class="edge">
<title>fillsize-&gt;refseqfna</title>
<path fill="none" stroke="black" stroke-dasharray="1,5" d="M502.08,-896.83C525.55,-906.78 557.64,-920.4 584.35,-931.73"/>
<polygon fill="black" stroke="black" points="582.7,-934.83 593.27,-935.52 585.44,-928.39 582.7,-934.83"/>
</g>
<!-- fillsize&#45;&gt;addfastas -->
<g id="edge30" class="edge">
<title>fillsize-&gt;addfastas</title>
<path fill="none" stroke="black" stroke-dasharray="1,5" d="M441.51,-900.48C427.37,-909.32 410.02,-920.16 394.77,-929.7"/>
<polygon fill="black" stroke="black" points="393.01,-926.67 386.38,-934.94 396.72,-932.61 393.01,-926.67"/>
</g>
<!-- tempindex -->
<g id="node22" class="node">
<title>tempindex</title>
<path fill="none" stroke="black" d="M500.48,-828C500.48,-828 438.49,-828 438.49,-828 432.49,-828 426.49,-822 426.49,-816 426.49,-816 426.49,-804 426.49,-804 426.49,-798 432.49,-792 438.49,-792 438.49,-792 500.48,-792 500.48,-792 506.48,-792 512.48,-798 512.48,-804 512.48,-804 512.48,-816 512.48,-816 512.48,-822 506.48,-828 500.48,-828"/>
<text text-anchor="middle" x="469.48" y="-805.8" font-family="Helvetica,Arial,sans-serif" font-size="14.00">o:tempindex</text>
</g>
<!-- tempindex&#45;&gt;taxnodes -->
<g id="edge32" class="edge">
<title>tempindex-&gt;taxnodes</title>
<path fill="none" stroke="black" stroke-dasharray="1,5" d="M426.05,-813.68C347.86,-821.1 191.48,-848.94 191.48,-953 191.48,-953 191.48,-953 191.48,-1099 191.48,-1140.86 210.74,-1186.04 225.11,-1213.93"/>
<polygon fill="black" stroke="black" points="221.83,-1215.21 229.62,-1222.4 228.01,-1211.92 221.83,-1215.21"/>
</g>
<!-- tempindex&#45;&gt;refseqfna -->
<g id="edge33" class="edge">
<title>tempindex-&gt;refseqfna</title>
<path fill="none" stroke="black" stroke-dasharray="1,5" d="M489.72,-828.41C518.86,-853.5 572.81,-899.92 605.98,-928.47"/>
<polygon fill="black" stroke="black" points="603.33,-930.81 613.2,-934.68 607.9,-925.5 603.33,-930.81"/>
</g>
<!-- tempindex&#45;&gt;addfastas -->
<g id="edge34" class="edge">
<title>tempindex-&gt;addfastas</title>
<path fill="none" stroke="black" stroke-dasharray="1,5" d="M455.75,-828.41C436.33,-853.03 400.71,-898.2 378.1,-926.86"/>
<polygon fill="black" stroke="black" points="375.36,-924.68 371.92,-934.7 380.86,-929.02 375.36,-924.68"/>
</g>
<!-- tempindex&#45;&gt;fillsize -->
<g id="edge31" class="edge">
<title>tempindex-&gt;fillsize</title>
<path fill="none" stroke="black" stroke-dasharray="1,5" d="M469.48,-828.3C469.48,-835.59 469.48,-844.27 469.48,-852.46"/>
<polygon fill="black" stroke="black" points="465.98,-852.38 469.48,-862.38 472.98,-852.38 465.98,-852.38"/>
</g>
<!-- filldb -->
<g id="node23" class="node">
<title>filldb</title>
<path fill="none" stroke="black" d="M512.09,-756C512.09,-756 478.87,-756 478.87,-756 472.87,-756 466.87,-750 466.87,-744 466.87,-744 466.87,-732 466.87,-732 466.87,-726 472.87,-720 478.87,-720 478.87,-720 512.09,-720 512.09,-720 518.09,-720 524.09,-726 524.09,-732 524.09,-732 524.09,-744 524.09,-744 524.09,-750 518.09,-756 512.09,-756"/>
<text text-anchor="middle" x="495.48" y="-733.8" font-family="Helvetica,Arial,sans-serif" font-size="14.00">o:filldb</text>
</g>
<!-- filldb&#45;&gt;taxnodes -->
<g id="edge36" class="edge">
<title>filldb-&gt;taxnodes</title>
<path fill="none" stroke="black" stroke-dasharray="1,5" d="M511.11,-756.38C532.28,-781.81 567.48,-831.52 567.48,-881 567.48,-881 567.48,-881 567.48,-955 567.48,-997.67 563.88,-1016.23 531.48,-1044 478.45,-1089.47 438.16,-1043.69 378.48,-1080 376.61,-1081.14 301.2,-1169.63 262.66,-1214.92"/>
<polygon fill="black" stroke="black" points="260.06,-1212.58 256.24,-1222.46 265.39,-1217.12 260.06,-1212.58"/>
</g>
<!-- filldb&#45;&gt;refseqfna -->
<g id="edge37" class="edge">
<title>filldb-&gt;refseqfna</title>
<path fill="none" stroke="black" stroke-dasharray="1,5" d="M524.3,-750.48C543.01,-759.29 566.6,-773.14 581.48,-792 612.64,-831.46 625.81,-889.96 631.13,-924.51"/>
<polygon fill="black" stroke="black" points="627.63,-924.75 632.49,-934.17 634.56,-923.78 627.63,-924.75"/>
</g>
<!-- filldb&#45;&gt;addfastas -->
<g id="edge38" class="edge">
<title>filldb-&gt;addfastas</title>
<path fill="none" stroke="black" stroke-dasharray="1,5" d="M466.57,-752.92C450.22,-762.06 430.52,-775.38 417.48,-792 386.02,-832.09 369.83,-890.38 362.54,-924.72"/>
<polygon fill="black" stroke="black" points="359.15,-923.82 360.62,-934.32 366.01,-925.2 359.15,-923.82"/>
</g>
<!-- filldb&#45;&gt;tempindex -->
<g id="edge35" class="edge">
<title>filldb-&gt;tempindex</title>
<path fill="none" stroke="black" stroke-dasharray="1,5" d="M489.06,-756.3C486.25,-763.85 482.9,-772.88 479.76,-781.32"/>
<polygon fill="black" stroke="black" points="476.56,-779.88 476.36,-790.48 483.13,-782.32 476.56,-779.88"/>
</g>
<!-- tempdb -->
<g id="node24" class="node">
<title>tempdb</title>
<path fill="none" stroke="black" d="M496.76,-684C496.76,-684 454.21,-684 454.21,-684 448.21,-684 442.21,-678 442.21,-672 442.21,-672 442.21,-660 442.21,-660 442.21,-654 448.21,-648 454.21,-648 454.21,-648 496.76,-648 496.76,-648 502.76,-648 508.76,-654 508.76,-660 508.76,-660 508.76,-672 508.76,-672 508.76,-678 502.76,-684 496.76,-684"/>
<text text-anchor="middle" x="475.48" y="-661.8" font-family="Helvetica,Arial,sans-serif" font-size="14.00">f:tempdb</text>
</g>
<!-- tempdb&#45;&gt;filldb -->
<g id="edge39" class="edge">
<title>tempdb-&gt;filldb</title>
<path fill="none" stroke="black" stroke-dasharray="1,5" d="M480.43,-684.3C482.56,-691.76 485.11,-700.68 487.49,-709.03"/>
<polygon fill="black" stroke="black" points="484.07,-709.79 490.18,-718.44 490.8,-707.86 484.07,-709.79"/>
</g>
<!-- loadtempdb -->
<g id="node25" class="node">
<title>loadtempdb</title>
<path fill="none" stroke="black" d="M563.98,-612C563.98,-612 494.99,-612 494.99,-612 488.99,-612 482.99,-606 482.99,-600 482.99,-600 482.99,-588 482.99,-588 482.99,-582 488.99,-576 494.99,-576 494.99,-576 563.98,-576 563.98,-576 569.98,-576 575.98,-582 575.98,-588 575.98,-588 575.98,-600 575.98,-600 575.98,-606 569.98,-612 563.98,-612"/>
<text text-anchor="middle" x="529.48" y="-589.8" font-family="Helvetica,Arial,sans-serif" font-size="14.00">o:loadtempdb</text>
</g>
<!-- loadtempdb&#45;&gt;filldb -->
<g id="edge41" class="edge">
<title>loadtempdb-&gt;filldb</title>
<path fill="none" stroke="black" stroke-dasharray="1,5" d="M528.48,-612.32C527.12,-630.45 524.07,-659.62 517.48,-684 515.2,-692.46 511.88,-701.37 508.52,-709.42"/>
<polygon fill="black" stroke="black" points="505.41,-707.78 504.6,-718.35 511.82,-710.6 505.41,-707.78"/>
</g>
<!-- loadtempdb&#45;&gt;tempdb -->
<g id="edge40" class="edge">
<title>loadtempdb-&gt;tempdb</title>
<path fill="none" stroke="black" d="M516.13,-612.3C509.92,-620.36 502.4,-630.11 495.53,-639.02"/>
<polygon fill="black" stroke="black" points="492.94,-636.64 489.6,-646.7 498.48,-640.92 492.94,-636.64"/>
</g>
<!-- tempdbinfo -->
<g id="node26" class="node">
<title>tempdbinfo</title>
<path fill="none" stroke="black" d="M521.03,-540C521.03,-540 455.93,-540 455.93,-540 449.93,-540 443.93,-534 443.93,-528 443.93,-528 443.93,-516 443.93,-516 443.93,-510 449.93,-504 455.93,-504 455.93,-504 521.03,-504 521.03,-504 527.03,-504 533.03,-510 533.03,-516 533.03,-516 533.03,-528 533.03,-528 533.03,-534 527.03,-540 521.03,-540"/>
<text text-anchor="middle" x="488.48" y="-517.8" font-family="Helvetica,Arial,sans-serif" font-size="14.00">f:tempdbinfo</text>
</g>
<!-- tempdbinfo&#45;&gt;loadtempdb -->
<g id="edge42" class="edge">
<title>tempdbinfo-&gt;loadtempdb</title>
<path fill="none" stroke="black" stroke-dasharray="1,5" d="M498.62,-540.3C503.19,-548.1 508.69,-557.49 513.77,-566.17"/>
<polygon fill="black" stroke="black" points="510.63,-567.73 518.7,-574.59 516.67,-564.19 510.63,-567.73"/>
</g>
<!-- updatedb -->
<g id="node27" class="node">
<title>updatedb</title>
<path fill="none" stroke="black" d="M576.59,-468C576.59,-468 522.38,-468 522.38,-468 516.38,-468 510.38,-462 510.38,-456 510.38,-456 510.38,-444 510.38,-444 510.38,-438 516.38,-432 522.38,-432 522.38,-432 576.59,-432 576.59,-432 582.59,-432 588.59,-438 588.59,-444 588.59,-444 588.59,-456 588.59,-456 588.59,-462 582.59,-468 576.59,-468"/>
<text text-anchor="middle" x="549.48" y="-445.8" font-family="Helvetica,Arial,sans-serif" font-size="14.00">o:updatedb</text>
</g>
<!-- updatedb&#45;&gt;taxtree -->
<g id="edge46" class="edge">
<title>updatedb-&gt;taxtree</title>
<path fill="none" stroke="black" stroke-dasharray="1,5" d="M509.93,-453.61C411.62,-460.44 162.04,-479.98 133.48,-504 24.93,-595.3 39.48,-667.15 39.48,-809 39.48,-809 39.48,-809 39.48,-1171 39.48,-1247.46 137.72,-1286.42 196.84,-1302.94"/>
<polygon fill="black" stroke="black" points="195.71,-1306.26 206.28,-1305.46 197.52,-1299.5 195.71,-1306.26"/>
</g>
<!-- updatedb&#45;&gt;taxnodes -->
<g id="edge47" class="edge">
<title>updatedb-&gt;taxnodes</title>
<path fill="none" stroke="black" stroke-dasharray="1,5" d="M510.09,-453.68C430.18,-459.65 252.05,-475.77 198.48,-504 150.63,-529.22 115.48,-538.91 115.48,-593 115.48,-593 115.48,-593 115.48,-1099 115.48,-1151.01 163.31,-1193.01 199.8,-1217.48"/>
<polygon fill="black" stroke="black" points="197.7,-1220.29 207.99,-1222.79 201.5,-1214.42 197.7,-1220.29"/>
</g>
<!-- updatedb&#45;&gt;categories -->
<g id="edge45" class="edge">
<title>updatedb-&gt;categories</title>
<path fill="none" stroke="black" stroke-dasharray="1,5" d="M588.88,-454.03C663.15,-462.12 816.48,-491.15 816.48,-593 816.48,-593 816.48,-593 816.48,-1243 816.48,-1287.97 786.49,-1332.48 764.19,-1359.36"/>
<polygon fill="black" stroke="black" points="761.81,-1356.75 757.96,-1366.62 767.12,-1361.31 761.81,-1356.75"/>
</g>
<!-- updatedb&#45;&gt;refseqfna -->
<g id="edge48" class="edge">
<title>updatedb-&gt;refseqfna</title>
<path fill="none" stroke="black" d="M570.81,-468.27C598.55,-492.82 643.48,-540.67 643.48,-593 643.48,-593 643.48,-593 643.48,-811 643.48,-850.34 640,-895.68 637.37,-924.34"/>
<polygon fill="black" stroke="black" points="633.91,-923.74 636.45,-934.03 640.88,-924.4 633.91,-923.74"/>
</g>
<!-- updatedb&#45;&gt;accmap -->
<g id="edge49" class="edge">
<title>updatedb-&gt;accmap</title>
<path fill="none" stroke="black" stroke-dasharray="1,5" d="M588.85,-457.02C654.32,-469.51 778.48,-504.82 778.48,-593 778.48,-593 778.48,-593 778.48,-1099 778.48,-1149.08 735,-1191.88 702.23,-1217.03"/>
<polygon fill="black" stroke="black" points="700.47,-1213.97 694.53,-1222.74 704.64,-1219.6 700.47,-1213.97"/>
</g>
<!-- updatedb&#45;&gt;addfastas -->
<g id="edge44" class="edge">
<title>updatedb-&gt;addfastas</title>
<path fill="none" stroke="black" stroke-dasharray="1,5" d="M510.07,-456.53C409.9,-471.67 153.48,-517.77 153.48,-593 153.48,-593 153.48,-593 153.48,-811 153.48,-885.54 246.37,-924.14 306.79,-941.37"/>
<polygon fill="black" stroke="black" points="305.64,-944.68 316.21,-943.94 307.48,-937.93 305.64,-944.68"/>
</g>
<!-- updatedb&#45;&gt;loadtempdb -->
<g id="edge50" class="edge">
<title>updatedb-&gt;loadtempdb</title>
<path fill="none" stroke="black" stroke-dasharray="1,5" d="M548.94,-468.49C548.19,-486.51 546.45,-515.36 542.48,-540 541.17,-548.17 539.24,-556.93 537.26,-564.94"/>
<polygon fill="black" stroke="black" points="533.91,-563.93 534.79,-574.49 540.68,-565.69 533.91,-563.93"/>
</g>
<!-- updatedb&#45;&gt;tempdbinfo -->
<g id="edge43" class="edge">
<title>updatedb-&gt;tempdbinfo</title>
<path fill="none" stroke="black" d="M534.4,-468.3C527.31,-476.44 518.71,-486.31 510.88,-495.3"/>
<polygon fill="black" stroke="black" points="508.31,-492.92 504.38,-502.75 513.59,-497.51 508.31,-492.92"/>
</g>
<!-- db -->
<g id="node28" class="node">
<title>db</title>
<polygon fill="none" stroke="black" stroke-width="2" points="553.48,-396 499.48,-396 499.48,-360 553.48,-360 553.48,-396"/>
<text text-anchor="middle" x="526.48" y="-373.8" font-family="Helvetica,Arial,sans-serif" font-size="14.00">f:db</text>
</g>
<!-- db&#45;&gt;updatedb -->
<g id="edge51" class="edge">
<title>db-&gt;updatedb</title>
<path fill="none" stroke="black" stroke-dasharray="1,5" d="M532.17,-396.3C534.62,-403.76 537.55,-412.68 540.29,-421.03"/>
<polygon fill="black" stroke="black" points="536.94,-422.05 543.39,-430.46 543.59,-419.86 536.94,-422.05"/>
</g>
<!-- loaddb -->
<g id="node29" class="node">
<title>loaddb</title>
<path fill="none" stroke="black" d="M590.98,-324C590.98,-324 549.99,-324 549.99,-324 543.99,-324 537.99,-318 537.99,-312 537.99,-312 537.99,-300 537.99,-300 537.99,-294 543.99,-288 549.99,-288 549.99,-288 590.98,-288 590.98,-288 596.98,-288 602.98,-294 602.98,-300 602.98,-300 602.98,-312 602.98,-312 602.98,-318 596.98,-324 590.98,-324"/>
<text text-anchor="middle" x="570.48" y="-301.8" font-family="Helvetica,Arial,sans-serif" font-size="14.00">o:loaddb</text>
</g>
<!-- loaddb&#45;&gt;updatedb -->
<g id="edge52" class="edge">
<title>loaddb-&gt;updatedb</title>
<path fill="none" stroke="black" stroke-dasharray="1,5" d="M569.69,-324.49C568.69,-342.51 566.59,-371.36 562.48,-396 561.12,-404.16 559.18,-412.92 557.2,-420.93"/>
<polygon fill="black" stroke="black" points="553.85,-419.93 554.74,-430.48 560.63,-421.68 553.85,-419.93"/>
</g>
<!-- loaddb&#45;&gt;db -->
<g id="edge53" class="edge">
<title>loaddb-&gt;db</title>
<path fill="none" stroke="black" d="M559.61,-324.3C554.7,-332.1 548.8,-341.49 543.35,-350.17"/>
<polygon fill="black" stroke="black" points="540.4,-348.29 538.04,-358.61 546.32,-352.01 540.4,-348.29"/>
</g>
<!-- fillindex -->
<g id="node30" class="node">
<title>fillindex</title>
<path fill="none" stroke="black" d="M788.65,-252C788.65,-252 738.32,-252 738.32,-252 732.32,-252 726.32,-246 726.32,-240 726.32,-240 726.32,-228 726.32,-228 726.32,-222 732.32,-216 738.32,-216 738.32,-216 788.65,-216 788.65,-216 794.65,-216 800.65,-222 800.65,-228 800.65,-228 800.65,-240 800.65,-240 800.65,-246 794.65,-252 788.65,-252"/>
<text text-anchor="middle" x="763.48" y="-229.8" font-family="Helvetica,Arial,sans-serif" font-size="14.00">o:fillindex</text>
</g>
<!-- fillindex&#45;&gt;loaddb -->
<g id="edge54" class="edge">
<title>fillindex-&gt;loaddb</title>
<path fill="none" stroke="black" stroke-dasharray="1,5" d="M726.27,-248.5C694.15,-260.15 647.71,-276.99 613.9,-289.25"/>
<polygon fill="black" stroke="black" points="613.03,-285.84 604.82,-292.54 615.42,-292.43 613.03,-285.84"/>
</g>
<!-- index -->
<g id="node31" class="node">
<title>index</title>
<polygon fill="none" stroke="black" stroke-width="2" points="780.31,-180 724.66,-180 724.66,-144 780.31,-144 780.31,-180"/>
<text text-anchor="middle" x="752.48" y="-157.8" font-family="Helvetica,Arial,sans-serif" font-size="14.00">f:index</text>
</g>
<!-- index&#45;&gt;fillindex -->
<g id="edge55" class="edge">
<title>index-&gt;fillindex</title>
<path fill="none" stroke="black" stroke-dasharray="1,5" d="M755.2,-180.3C756.36,-187.68 757.74,-196.48 759.04,-204.75"/>
<polygon fill="black" stroke="black" points="755.55,-205.07 760.56,-214.4 762.47,-203.98 755.55,-205.07"/>
</g>
<!-- loadindex -->
<g id="node32" class="node">
<title>loadindex</title>
<path fill="none" stroke="black" d="M791.53,-108C791.53,-108 733.43,-108 733.43,-108 727.43,-108 721.43,-102 721.43,-96 721.43,-96 721.43,-84 721.43,-84 721.43,-78 727.43,-72 733.43,-72 733.43,-72 791.53,-72 791.53,-72 797.53,-72 803.53,-78 803.53,-84 803.53,-84 803.53,-96 803.53,-96 803.53,-102 797.53,-108 791.53,-108"/>
<text text-anchor="middle" x="762.48" y="-85.8" font-family="Helvetica,Arial,sans-serif" font-size="14.00">o:loadindex</text>
</g>
<!-- loadindex&#45;&gt;fillindex -->
<g id="edge56" class="edge">
<title>loadindex-&gt;fillindex</title>
<path fill="none" stroke="black" stroke-dasharray="1,5" d="M773.95,-108.33C779.86,-118.31 786.45,-131.35 789.48,-144 793.22,-159.56 793.1,-164.41 789.48,-180 787.48,-188.65 783.85,-197.51 779.93,-205.46"/>
<polygon fill="black" stroke="black" points="776.85,-203.8 775.24,-214.27 783.03,-207.09 776.85,-203.8"/>
</g>
<!-- loadindex&#45;&gt;index -->
<g id="edge57" class="edge">
<title>loadindex-&gt;index</title>
<path fill="none" stroke="black" d="M760.01,-108.3C758.96,-115.68 757.7,-124.48 756.52,-132.75"/>
<polygon fill="black" stroke="black" points="753.09,-132 755.14,-142.4 760.02,-132.99 753.09,-132"/>
</g>
<!-- dbinfo -->
<g id="node33" class="node">
<title>dbinfo</title>
<polygon fill="none" stroke="black" stroke-width="2" points="707.03,-180 645.93,-180 645.93,-144 707.03,-144 707.03,-180"/>
<text text-anchor="middle" x="676.48" y="-157.8" font-family="Helvetica,Arial,sans-serif" font-size="14.00">f:dbinfo</text>
</g>
<!-- dbinfo&#45;&gt;loaddb -->
<g id="edge58" class="edge">
<title>dbinfo-&gt;loaddb</title>
<path fill="none" stroke="black" stroke-dasharray="1,5" d="M682.38,-180.2C687.79,-199.28 693.1,-230.24 679.48,-252 665.17,-274.87 637.86,-288.12 614.16,-295.66"/>
<polygon fill="black" stroke="black" points="613.32,-292.26 604.69,-298.4 615.27,-298.98 613.32,-292.26"/>
</g>
<!-- genall -->
<g id="node34" class="node">
<title>genall</title>
<polygon fill="none" stroke="black" stroke-width="2" points="703.48,-108 649.48,-108 649.48,-72 703.48,-72 703.48,-108"/>
<text text-anchor="middle" x="676.48" y="-85.8" font-family="Helvetica,Arial,sans-serif" font-size="14.00">genall</text>
</g>
<!-- genall&#45;&gt;index -->
<g id="edge60" class="edge">
<title>genall-&gt;index</title>
<path fill="none" stroke="black" d="M695.27,-108.3C704.31,-116.63 715.33,-126.78 725.27,-135.93"/>
<polygon fill="black" stroke="black" points="722.81,-138.43 732.54,-142.63 727.55,-133.28 722.81,-138.43"/>
</g>
<!-- genall&#45;&gt;dbinfo -->
<g id="edge59" class="edge">
<title>genall-&gt;dbinfo</title>
<path fill="none" stroke="black" d="M676.48,-108.3C676.48,-115.59 676.48,-124.27 676.48,-132.46"/>
<polygon fill="black" stroke="black" points="672.98,-132.38 676.48,-142.38 679.98,-132.38 672.98,-132.38"/>
</g>
<!-- db2fastqtaxids -->
<g id="node35" class="node">
<title>db2fastqtaxids</title>
<path fill="none" stroke="black" d="M658.76,-252C658.76,-252 574.21,-252 574.21,-252 568.21,-252 562.21,-246 562.21,-240 562.21,-240 562.21,-228 562.21,-228 562.21,-222 568.21,-216 574.21,-216 574.21,-216 658.76,-216 658.76,-216 664.76,-216 670.76,-222 670.76,-228 670.76,-228 670.76,-240 670.76,-240 670.76,-246 664.76,-252 658.76,-252"/>
<text text-anchor="middle" x="616.48" y="-229.8" font-family="Helvetica,Arial,sans-serif" font-size="14.00">o:db2fastqtaxids</text>
</g>
<!-- db2fastqtaxids&#45;&gt;loaddb -->
<g id="edge61" class="edge">
<title>db2fastqtaxids-&gt;loaddb</title>
<path fill="none" stroke="black" stroke-dasharray="1,5" d="M605.11,-252.3C599.93,-260.19 593.68,-269.7 587.93,-278.45"/>
<polygon fill="black" stroke="black" points="585.12,-276.35 582.55,-286.63 590.97,-280.2 585.12,-276.35"/>
</g>
<!-- db2fastq -->
<g id="node36" class="node">
<title>db2fastq</title>
<polygon fill="none" stroke="black" stroke-width="2" points="617.87,-180 545.1,-180 545.1,-144 617.87,-144 617.87,-180"/>
<text text-anchor="middle" x="581.48" y="-157.8" font-family="Helvetica,Arial,sans-serif" font-size="14.00">f:db2fastq</text>
</g>
<!-- db2fastq&#45;&gt;loaddb -->
<g id="edge63" class="edge">
<title>db2fastq-&gt;loaddb</title>
<path fill="none" stroke="black" stroke-dasharray="1,5" d="M569.6,-180.28C563.47,-190.24 556.64,-203.27 553.48,-216 548.45,-236.29 553.23,-259.5 558.98,-277.13"/>
<polygon fill="black" stroke="black" points="555.63,-278.16 562.3,-286.39 562.22,-275.8 555.63,-278.16"/>
</g>
<!-- db2fastq&#45;&gt;db2fastqtaxids -->
<g id="edge62" class="edge">
<title>db2fastq-&gt;db2fastqtaxids</title>
<path fill="none" stroke="black" stroke-dasharray="1,5" d="M590.13,-180.3C593.95,-187.93 598.52,-197.08 602.78,-205.6"/>
<polygon fill="black" stroke="black" points="599.65,-207.16 607.25,-214.54 605.91,-204.03 599.65,-207.16"/>
</g>
<!-- fastqmap -->
<g id="node37" class="node">
<title>fastqmap</title>
<path fill="none" stroke="black" d="M283.59,-468C283.59,-468 229.38,-468 229.38,-468 223.38,-468 217.38,-462 217.38,-456 217.38,-456 217.38,-444 217.38,-444 217.38,-438 223.38,-432 229.38,-432 229.38,-432 283.59,-432 283.59,-432 289.59,-432 295.59,-438 295.59,-444 295.59,-444 295.59,-456 295.59,-456 295.59,-462 289.59,-468 283.59,-468"/>
<text text-anchor="middle" x="256.48" y="-445.8" font-family="Helvetica,Arial,sans-serif" font-size="14.00">o:fastqmap</text>
</g>
<!-- fastqmaptransform -->
<g id="node38" class="node">
<title>fastqmaptransform</title>
<path fill="none" stroke="black" d="M369.8,-396C369.8,-396 261.17,-396 261.17,-396 255.17,-396 249.17,-390 249.17,-384 249.17,-384 249.17,-372 249.17,-372 249.17,-366 255.17,-360 261.17,-360 261.17,-360 369.8,-360 369.8,-360 375.8,-360 381.8,-366 381.8,-372 381.8,-372 381.8,-384 381.8,-384 381.8,-390 375.8,-396 369.8,-396"/>
<text text-anchor="middle" x="315.48" y="-373.8" font-family="Helvetica,Arial,sans-serif" font-size="14.00">o:fastqmaptransform</text>
</g>
<!-- fastqmaptransform&#45;&gt;fastqmap -->
<g id="edge64" class="edge">
<title>fastqmaptransform-&gt;fastqmap</title>
<path fill="none" stroke="black" stroke-dasharray="1,5" d="M300.9,-396.3C294.04,-404.44 285.72,-414.31 278.15,-423.3"/>
<polygon fill="black" stroke="black" points="275.64,-420.84 271.87,-430.74 281,-425.35 275.64,-420.84"/>
</g>
<!-- fastqdownload -->
<g id="node39" class="node">
<title>fastqdownload</title>
<path fill="none" stroke="black" d="M230.14,-324C230.14,-324 144.82,-324 144.82,-324 138.82,-324 132.82,-318 132.82,-312 132.82,-312 132.82,-300 132.82,-300 132.82,-294 138.82,-288 144.82,-288 144.82,-288 230.14,-288 230.14,-288 236.14,-288 242.14,-294 242.14,-300 242.14,-300 242.14,-312 242.14,-312 242.14,-318 236.14,-324 230.14,-324"/>
<text text-anchor="middle" x="187.48" y="-301.8" font-family="Helvetica,Arial,sans-serif" font-size="14.00">d:fastqdownload</text>
</g>
<!-- fastqdownload&#45;&gt;fastqmap -->
<g id="edge65" class="edge">
<title>fastqdownload-&gt;fastqmap</title>
<path fill="none" stroke="black" stroke-dasharray="1,5" d="M195.94,-324.41C207.75,-348.71 229.28,-393.03 243.23,-421.73"/>
<polygon fill="black" stroke="black" points="239.99,-423.06 247.51,-430.53 246.28,-420 239.99,-423.06"/>
</g>
<!-- fastqdownload&#45;&gt;fastqmaptransform -->
<g id="edge66" class="edge">
<title>fastqdownload-&gt;fastqmaptransform</title>
<path fill="none" stroke="black" stroke-dasharray="1,5" d="M219.45,-324.48C235.92,-333.49 256.19,-344.58 273.87,-354.24"/>
<polygon fill="black" stroke="black" points="272.14,-357.29 282.59,-359.01 275.5,-351.14 272.14,-357.29"/>
</g>
<!-- filter -->
<g id="node40" class="node">
<title>filter</title>
<polygon fill="none" stroke="black" stroke-width="2" points="523.48,-36 469.48,-36 469.48,0 523.48,0 523.48,-36"/>
<text text-anchor="middle" x="496.48" y="-13.8" font-family="Helvetica,Arial,sans-serif" font-size="14.00">f:filter</text>
</g>
<!-- filter&#45;&gt;loadindex -->
<g id="edge68" class="edge">
<title>filter-&gt;loadindex</title>
<path fill="none" stroke="black" stroke-dasharray="1,5" d="M523.72,-32.7C526.64,-33.92 529.6,-35.05 532.48,-36 606.62,-60.51 631.55,-51.68 710.21,-71.62"/>
<polygon fill="black" stroke="black" points="709.11,-74.95 719.68,-74.1 710.89,-68.17 709.11,-74.95"/>
</g>
<!-- filter&#45;&gt;fastqmaptransform -->
<g id="edge69" class="edge">
<title>filter-&gt;fastqmaptransform</title>
<path fill="none" stroke="black" stroke-dasharray="1,5" d="M496.48,-36.49C496.48,-63.29 496.48,-116.13 496.48,-161 496.48,-161 496.48,-161 496.48,-235 496.48,-295.35 433.43,-333.92 381.76,-355.41"/>
<polygon fill="black" stroke="black" points="380.66,-352.08 372.67,-359.04 383.26,-358.58 380.66,-352.08"/>
</g>
<!-- filter&#45;&gt;fastqdownload -->
<g id="edge67" class="edge">
<title>filter-&gt;fastqdownload</title>
<path fill="none" stroke="black" d="M469.01,-32.09C466.14,-33.42 463.25,-34.75 460.48,-36 350.19,-85.85 304.86,-68.22 210.48,-144 179.7,-168.71 170.63,-178.44 158.48,-216 153.56,-231.22 154.52,-236.5 158.48,-252 160.76,-260.9 164.87,-269.92 169.3,-277.93"/>
<polygon fill="black" stroke="black" points="166.27,-279.69 174.4,-286.48 172.29,-276.1 166.27,-279.69"/>
</g>
<!-- matchres -->
<g id="node41" class="node">
<title>matchres</title>
<path fill="none" stroke="black" d="M418.19,-252C418.19,-252 364.77,-252 364.77,-252 358.77,-252 352.77,-246 352.77,-240 352.77,-240 352.77,-228 352.77,-228 352.77,-222 358.77,-216 364.77,-216 364.77,-216 418.19,-216 418.19,-216 424.19,-216 430.19,-222 430.19,-228 430.19,-228 430.19,-240 430.19,-240 430.19,-246 424.19,-252 418.19,-252"/>
<text text-anchor="middle" x="391.48" y="-229.8" font-family="Helvetica,Arial,sans-serif" font-size="14.00">o:matchres</text>
</g>
<!-- matchres&#45;&gt;loaddb -->
<g id="edge72" class="edge">
<title>matchres-&gt;loaddb</title>
<path fill="none" stroke="black" stroke-dasharray="1,5" d="M430.32,-250.19C458.9,-261.36 497.74,-276.55 527.29,-288.11"/>
<polygon fill="black" stroke="black" points="525.72,-291.25 536.31,-291.64 528.27,-284.73 525.72,-291.25"/>
</g>
<!-- matchres&#45;&gt;fastqmaptransform -->
<g id="edge71" class="edge">
<title>matchres-&gt;fastqmaptransform</title>
<path fill="none" stroke="black" stroke-dasharray="1,5" d="M382.16,-252.41C369.1,-276.82 345.23,-321.42 329.88,-350.11"/>
<polygon fill="black" stroke="black" points="326.99,-348.09 325.36,-358.55 333.16,-351.39 326.99,-348.09"/>
</g>
<!-- matchres&#45;&gt;fastqdownload -->
<g id="edge70" class="edge">
<title>matchres-&gt;fastqdownload</title>
<path fill="none" stroke="black" d="M352.63,-248.33C323.32,-258.39 282.54,-272.38 248.83,-283.95"/>
<polygon fill="black" stroke="black" points="247.92,-280.56 239.59,-287.12 250.19,-287.18 247.92,-280.56"/>
</g>
<!-- match -->
<g id="node42" class="node">
<title>match</title>
<polygon fill="none" stroke="black" stroke-width="2" points="420.86,-180 362.1,-180 362.1,-144 420.86,-144 420.86,-180"/>
<text text-anchor="middle" x="391.48" y="-157.8" font-family="Helvetica,Arial,sans-serif" font-size="14.00">f:match</text>
</g>
<!-- match&#45;&gt;fastqmaptransform -->
<g id="edge74" class="edge">
<title>match-&gt;fastqmaptransform</title>
<path fill="none" stroke="black" stroke-dasharray="1,5" d="M413.44,-180.45C423.42,-189.79 434.17,-202.22 439.48,-216 445.24,-230.93 445.58,-237.21 439.48,-252 421.84,-294.85 381.61,-330.78 351.73,-352.97"/>
<polygon fill="black" stroke="black" points="349.72,-350.1 343.66,-358.79 353.82,-355.77 349.72,-350.1"/>
</g>
<!-- match&#45;&gt;fastqdownload -->
<g id="edge73" class="edge">
<title>match-&gt;fastqdownload</title>
<path fill="none" stroke="black" d="M361.86,-169.42C311.2,-180.66 212.27,-203.88 201.48,-216 187.08,-232.18 184.16,-256.89 184.52,-276.18"/>
<polygon fill="black" stroke="black" points="181.02,-276.32 185.04,-286.13 188.01,-275.96 181.02,-276.32"/>
</g>
<!-- match&#45;&gt;matchres -->
<g id="edge75" class="edge">
<title>match-&gt;matchres</title>
<path fill="none" stroke="black" stroke-dasharray="1,5" d="M391.48,-180.3C391.48,-187.59 391.48,-196.27 391.48,-204.46"/>
<polygon fill="black" stroke="black" points="387.98,-204.38 391.48,-214.38 394.98,-204.38 387.98,-204.38"/>
</g>
<!-- matchreslr -->
<g id="node43" class="node">
<title>matchreslr</title>
<path fill="none" stroke="black" d="M284.47,-252C284.47,-252 222.5,-252 222.5,-252 216.5,-252 210.5,-246 210.5,-240 210.5,-240 210.5,-228 210.5,-228 210.5,-222 216.5,-216 222.5,-216 222.5,-216 284.47,-216 284.47,-216 290.47,-216 296.47,-222 296.47,-228 296.47,-228 296.47,-240 296.47,-240 296.47,-246 290.47,-252 284.47,-252"/>
<text text-anchor="middle" x="253.48" y="-229.8" font-family="Helvetica,Arial,sans-serif" font-size="14.00">o:matchreslr</text>
</g>
<!-- matchreslr&#45;&gt;loaddb -->
<g id="edge78" class="edge">
<title>matchreslr-&gt;loaddb</title>
<path fill="none" stroke="black" stroke-dasharray="1,5" d="M296.9,-244.59C357.27,-257.92 465.98,-281.92 526.6,-295.31"/>
<polygon fill="black" stroke="black" points="525.7,-298.7 536.22,-297.43 527.21,-291.86 525.7,-298.7"/>
</g>
<!-- matchreslr&#45;&gt;fastqmaptransform -->
<g id="edge77" class="edge">
<title>matchreslr-&gt;fastqmaptransform</title>
<path fill="none" stroke="black" stroke-dasharray="1,5" d="M261.09,-252.41C271.65,-276.6 290.87,-320.64 303.41,-349.35"/>
<polygon fill="black" stroke="black" points="300.2,-350.74 307.41,-358.5 306.61,-347.94 300.2,-350.74"/>
</g>
<!-- matchreslr&#45;&gt;fastqdownload -->
<g id="edge76" class="edge">
<title>matchreslr-&gt;fastqdownload</title>
<path fill="none" stroke="black" d="M237.17,-252.3C229.42,-260.53 220,-270.52 211.45,-279.58"/>
<polygon fill="black" stroke="black" points="208.96,-277.12 204.65,-286.79 214.05,-281.92 208.96,-277.12"/>
</g>
<!-- matchlr -->
<g id="node44" class="node">
<title>matchlr</title>
<polygon fill="none" stroke="black" stroke-width="2" points="287.14,-180 219.83,-180 219.83,-144 287.14,-144 287.14,-180"/>
<text text-anchor="middle" x="253.48" y="-157.8" font-family="Helvetica,Arial,sans-serif" font-size="14.00">f:matchlr</text>
</g>
<!-- matchlr&#45;&gt;fastqmaptransform -->
<g id="edge80" class="edge">
<title>matchlr-&gt;fastqmaptransform</title>
<path fill="none" stroke="black" stroke-dasharray="1,5" d="M277.13,-180.49C287.76,-189.76 299.3,-202.1 305.48,-216 324.66,-259.06 322.94,-315.1 319.52,-348.44"/>
<polygon fill="black" stroke="black" points="316.07,-347.78 318.39,-358.12 323.02,-348.59 316.07,-347.78"/>
</g>
<!-- matchlr&#45;&gt;fastqdownload -->
<g id="edge79" class="edge">
<title>matchlr-&gt;fastqdownload</title>
<path fill="none" stroke="black" d="M219.52,-174.71C200.87,-183.08 179.37,-196.38 168.48,-216 158.02,-234.85 164.11,-258.89 172.08,-277.23"/>
<polygon fill="black" stroke="black" points="168.89,-278.68 176.36,-286.19 175.21,-275.66 168.89,-278.68"/>
</g>
<!-- matchlr&#45;&gt;matchreslr -->
<g id="edge81" class="edge">
<title>matchlr-&gt;matchreslr</title>
<path fill="none" stroke="black" stroke-dasharray="1,5" d="M253.48,-180.3C253.48,-187.59 253.48,-196.27 253.48,-204.46"/>
<polygon fill="black" stroke="black" points="249.98,-204.38 253.48,-214.38 256.98,-204.38 249.98,-204.38"/>
</g>
<!-- krakenres -->
<g id="node45" class="node">
<title>krakenres</title>
<path fill="none" stroke="black" d="M66.97,-252C66.97,-252 12,-252 12,-252 6,-252 0,-246 0,-240 0,-240 0,-228 0,-228 0,-222 6,-216 12,-216 12,-216 66.97,-216 66.97,-216 72.97,-216 78.97,-222 78.97,-228 78.97,-228 78.97,-240 78.97,-240 78.97,-246 72.97,-252 66.97,-252"/>
<text text-anchor="middle" x="39.48" y="-229.8" font-family="Helvetica,Arial,sans-serif" font-size="14.00">f:krakenres</text>
</g>
<!-- krakenres&#45;&gt;taxnodes -->
<g id="edge83" class="edge">
<title>krakenres-&gt;taxnodes</title>
<path fill="none" stroke="black" stroke-dasharray="1,5" d="M39.48,-252.49C39.48,-279.29 39.48,-332.13 39.48,-377 39.48,-377 39.48,-377 39.48,-595 39.48,-691.6 77.48,-712.4 77.48,-809 77.48,-809 77.48,-809 77.48,-1099 77.48,-1144.81 95.77,-1156.98 129.48,-1188 147.01,-1204.13 170.34,-1216.27 191.09,-1224.83"/>
<polygon fill="black" stroke="black" points="189.66,-1228.03 200.25,-1228.43 192.22,-1221.51 189.66,-1228.03"/>
</g>
<!-- krakenres&#45;&gt;fastqmaptransform -->
<g id="edge84" class="edge">
<title>krakenres-&gt;fastqmaptransform</title>
<path fill="none" stroke="black" stroke-dasharray="1,5" d="M51.33,-252.43C65.97,-272.63 92.72,-305.48 123.48,-324 158.12,-344.85 201.16,-357.71 237.71,-365.53"/>
<polygon fill="black" stroke="black" points="236.85,-368.92 247.34,-367.49 238.24,-362.06 236.85,-368.92"/>
</g>
<!-- krakenres&#45;&gt;fastqdownload -->
<g id="edge82" class="edge">
<title>krakenres-&gt;fastqdownload</title>
<path fill="none" stroke="black" d="M76.45,-252.48C95.86,-261.66 119.85,-273.01 140.56,-282.8"/>
<polygon fill="black" stroke="black" points="138.83,-285.86 149.36,-286.97 141.82,-279.53 138.83,-285.86"/>
</g>
</g>
</svg>