<svg width="669" height="697" viewBox="0 0 501.75 522.75" xmlns="http://www.w3.org/2000/svg" xmlns:xlink="http://www.w3.org/1999/xlink">
<g id="graph0" class="graph" transform="translate(88.35888181554016,521.4061696658098) scale(0.33595758354755784)">
<title>regexp</title>
<polygon fill="white" stroke="none" points="-4,4 -4,-1552 971.48,-1552 971.48,4 -4,4"/>
<!-- showall -->
<g id="node1" class="node">
<title>showall</title>
<polygon fill="none" stroke="black" stroke-width="2" points="303.26,-36 243.71,-36 243.71,0 303.26,0 303.26,-36"/>
<text text-anchor="middle" x="273.48" y="-13.8" font-family="Helvetica,Arial,sans-serif" font-size="14.00">showall</text>
</g>
<!-- show -->
<g id="node2" class="node">
<title>show</title>
<polygon fill="none" stroke="black" stroke-width="2" points="375.48,-36 321.48,-36 321.48,0 375.48,0 375.48,-36"/>
<text text-anchor="middle" x="348.48" y="-13.8" font-family="Helvetica,Arial,sans-serif" font-size="14.00">show</text>
</g>
<!-- commonsetup -->
<g id="node3" class="node">
<title>commonsetup</title>
<path fill="none" stroke="black" d="M570.03,-1548C570.03,-1548 490.93,-1548 490.93,-1548 484.93,-1548 478.93,-1542 478.93,-1536 478.93,-1536 478.93,-1524 478.93,-1524 478.93,-1518 484.93,-1512 490.93,-1512 490.93,-1512 570.03,-1512 570.03,-1512 576.03,-1512 582.03,-1518 582.03,-1524 582.03,-1524 582.03,-1536 582.03,-1536 582.03,-1542 576.03,-1548 570.03,-1548"/>
<text text-anchor="middle" x="530.48" y="-1525.8" font-family="Helvetica,Arial,sans-serif" font-size="14.00">f:commonsetup</text>
</g>
<!-- taxdownload -->
<g id="node4" class="node">
<title>taxdownload</title>
<path fill="none" stroke="black" d="M509.09,-1476C509.09,-1476 433.88,-1476 433.88,-1476 427.88,-1476 421.88,-1470 421.88,-1464 421.88,-1464 421.88,-1452 421.88,-1452 421.88,-1446 427.88,-1440 433.88,-1440 433.88,-1440 509.09,-1440 509.09,-1440 515.09,-1440 521.09,-1446 521.09,-1452 521.09,-1452 521.09,-1464 521.09,-1464 521.09,-1470 515.09,-1476 509.09,-1476"/>
<text text-anchor="middle" x="471.48" y="-1453.8" font-family="Helvetica,Arial,sans-serif" font-size="14.00">d:taxdownload</text>
</g>
<!-- taxdownload&#45;&gt;commonsetup -->
<g id="edge1" class="edge">
<title>taxdownload-&gt;commonsetup</title>
<path fill="none" stroke="black" d="M486.07,-1476.3C492.93,-1484.44 501.24,-1494.31 508.82,-1503.3"/>
<polygon fill="black" stroke="black" points="505.97,-1505.35 515.09,-1510.74 511.32,-1500.84 505.97,-1505.35"/>
</g>
<!-- taxtree -->
<g id="node5" class="node">
<title>taxtree</title>
<path fill="none" stroke="black" d="M491.97,-1332C491.97,-1332 451,-1332 451,-1332 445,-1332 439,-1326 439,-1320 439,-1320 439,-1308 439,-1308 439,-1302 445,-1296 451,-1296 451,-1296 491.97,-1296 491.97,-1296 497.97,-1296 503.97,-1302 503.97,-1308 503.97,-1308 503.97,-1320 503.97,-1320 503.97,-1326 497.97,-1332 491.97,-1332"/>
<text text-anchor="middle" x="471.48" y="-1309.8" font-family="Helvetica,Arial,sans-serif" font-size="14.00">o:taxtree</text>
</g>
<!-- taxtree&#45;&gt;taxdownload -->
<g id="edge2" class="edge">
<title>taxtree-&gt;taxdownload</title>
<path fill="none" stroke="black" d="M471.48,-1332.41C471.48,-1356.39 471.48,-1399.86 471.48,-1428.58"/>
<polygon fill="black" stroke="black" points="467.98,-1428.38 471.48,-1438.38 474.98,-1428.38 467.98,-1428.38"/>
</g>
<!-- taxnodes -->
<g id="node6" class="node">
<title>taxnodes</title>
<path fill="none" stroke="black" d="M179.81,-1260C179.81,-1260 127.16,-1260 127.16,-1260 121.16,-1260 115.16,-1254 115.16,-1248 115.16,-1248 115.16,-1236 115.16,-1236 115.16,-1230 121.16,-1224 127.16,-1224 127.16,-1224 179.81,-1224 179.81,-1224 185.81,-1224 191.81,-1230 191.81,-1236 191.81,-1236 191.81,-1248 191.81,-1248 191.81,-1254 185.81,-1260 179.81,-1260"/>
<text text-anchor="middle" x="153.48" y="-1237.8" font-family="Helvetica,Arial,sans-serif" font-size="14.00">o:taxnodes</text>
</g>
<!-- taxnodes&#45;&gt;taxtree -->
<g id="edge3" class="edge">
<title>taxnodes-&gt;taxtree</title>
<path fill="none" stroke="black" stroke-dasharray="1,5" d="M192.16,-1251.51C251.68,-1264.62 365.39,-1289.65 427.8,-1303.38"/>
<polygon fill="black" stroke="black" points="426.84,-1306.76 437.36,-1305.49 428.34,-1299.92 426.84,-1306.76"/>
</g>
<!-- refseqrelease -->
<g id="node7" class="node">
<title>refseqrelease</title>
<path fill="none" stroke="black" d="M627.46,-1476C627.46,-1476 551.51,-1476 551.51,-1476 545.51,-1476 539.51,-1470 539.51,-1464 539.51,-1464 539.51,-1452 539.51,-1452 539.51,-1446 545.51,-1440 551.51,-1440 551.51,-1440 627.46,-1440 627.46,-1440 633.46,-1440 639.46,-1446 639.46,-1452 639.46,-1452 639.46,-1464 639.46,-1464 639.46,-1470 633.46,-1476 627.46,-1476"/>
<text text-anchor="middle" x="589.48" y="-1453.8" font-family="Helvetica,Arial,sans-serif" font-size="14.00">d:refseqrelease</text>
</g>
<!-- refseqrelease&#45;&gt;commonsetup -->
<g id="edge4" class="edge">
<title>refseqrelease-&gt;commonsetup</title>
<path fill="none" stroke="black" d="M574.9,-1476.3C568.04,-1484.44 559.72,-1494.31 552.15,-1503.3"/>
<polygon fill="black" stroke="black" points="549.64,-1500.84 545.87,-1510.74 555,-1505.35 549.64,-1500.84"/>
</g>
<!-- refseqcat -->
<g id="node8" class="node">
<title>refseqcat</title>
<path fill="none" stroke="black" d="M694.19,-1404C694.19,-1404 640.78,-1404 640.78,-1404 634.78,-1404 628.78,-1398 628.78,-1392 628.78,-1392 628.78,-1380 628.78,-1380 628.78,-1374 634.78,-1368 640.78,-1368 640.78,-1368 694.19,-1368 694.19,-1368 700.19,-1368 706.19,-1374 706.19,-1380 706.19,-1380 706.19,-1392 706.19,-1392 706.19,-1398 700.19,-1404 694.19,-1404"/>
<text text-anchor="middle" x="667.48" y="-1381.8" font-family="Helvetica,Arial,sans-serif" font-size="14.00">d:refseqcat</text>
</g>
<!-- refseqcat&#45;&gt;commonsetup -->
<g id="edge5" class="edge">
<title>refseqcat-&gt;commonsetup</title>
<path fill="none" stroke="black" d="M668.2,-1404.35C668.1,-1423.85 665.06,-1455.48 648.48,-1476 634.42,-1493.41 613.43,-1505.29 593.04,-1513.32"/>
<polygon fill="black" stroke="black" points="592.08,-1509.94 583.89,-1516.65 594.48,-1516.51 592.08,-1509.94"/>
</g>
<!-- refseqcat&#45;&gt;refseqrelease -->
<g id="edge6" class="edge">
<title>refseqcat-&gt;refseqrelease</title>
<path fill="none" stroke="black" d="M648.2,-1404.3C638.83,-1412.72 627.39,-1422.98 617.11,-1432.21"/>
<polygon fill="black" stroke="black" points="615.04,-1429.36 609.94,-1438.64 619.72,-1434.57 615.04,-1429.36"/>
</g>
<!-- checksummap -->
<g id="node9" class="node">
<title>checksummap</title>
<path fill="none" stroke="black" d="M689.97,-1116C689.97,-1116 607,-1116 607,-1116 601,-1116 595,-1110 595,-1104 595,-1104 595,-1092 595,-1092 595,-1086 601,-1080 607,-1080 607,-1080 689.97,-1080 689.97,-1080 695.97,-1080 701.97,-1086 701.97,-1092 701.97,-1092 701.97,-1104 701.97,-1104 701.97,-1110 695.97,-1116 689.97,-1116"/>
<text text-anchor="middle" x="648.48" y="-1093.8" font-family="Helvetica,Arial,sans-serif" font-size="14.00">o:checksummap</text>
</g>
<!-- checksummap&#45;&gt;refseqcat -->
<g id="edge7" class="edge">
<title>checksummap-&gt;refseqcat</title>
<path fill="none" stroke="black" d="M647.46,-1116.36C645.48,-1155.22 642.23,-1252.07 653.48,-1332 654.62,-1340.1 656.58,-1348.75 658.67,-1356.65"/>
<polygon fill="black" stroke="black" points="655.25,-1357.42 661.34,-1366.09 661.99,-1355.52 655.25,-1357.42"/>
</g>
<!-- clear -->
<g id="node10" class="node">
<title>clear</title>
<polygon fill="none" stroke="black" stroke-width="2" points="519.48,-36 465.48,-36 465.48,0 519.48,0 519.48,-36"/>
<text text-anchor="middle" x="492.48" y="-13.8" font-family="Helvetica,Arial,sans-serif" font-size="14.00">f:clear</text>
</g>
<!-- categories -->
<g id="node11" class="node">
<title>categories</title>
<path fill="none" stroke="black" d="M921.3,-1404C921.3,-1404 861.67,-1404 861.67,-1404 855.67,-1404 849.67,-1398 849.67,-1392 849.67,-1392 849.67,-1380 849.67,-1380 849.67,-1374 855.67,-1368 861.67,-1368 861.67,-1368 921.3,-1368 921.3,-1368 927.3,-1368 933.3,-1374 933.3,-1380 933.3,-1380 933.3,-1392 933.3,-1392 933.3,-1398 927.3,-1404 921.3,-1404"/>
<text text-anchor="middle" x="891.48" y="-1381.8" font-family="Helvetica,Arial,sans-serif" font-size="14.00">o:categories</text>
</g>
<!-- refseqfna -->
<g id="node12" class="node">
<title>refseqfna</title>
<path fill="none" stroke="black" d="M661.97,-972C661.97,-972 607,-972 607,-972 601,-972 595,-966 595,-960 595,-960 595,-948 595,-948 595,-942 601,-936 607,-936 607,-936 661.97,-936 661.97,-936 667.97,-936 673.97,-942 673.97,-948 673.97,-948 673.97,-960 673.97,-960 673.97,-966 667.97,-972 661.97,-972"/>
<text text-anchor="middle" x="634.48" y="-949.8" font-family="Helvetica,Arial,sans-serif" font-size="14.00">d:refseqfna</text>
</g>
<!-- refseqfna&#45;&gt;refseqcat -->
<g id="edge9" class="edge">
<title>refseqfna-&gt;refseqcat</title>
<path fill="none" stroke="black" d="M649.21,-972.16C667.74,-994.99 698.56,-1037.45 710.48,-1080 725.01,-1131.87 690.04,-1290.99 674.48,-1356.43"/>
<polygon fill="black" stroke="black" points="671.11,-1355.5 672.18,-1366.04 677.91,-1357.14 671.11,-1355.5"/>
</g>
<!-- refseqfna&#45;&gt;checksummap -->
<g id="edge10" class="edge">
<title>refseqfna-&gt;checksummap</title>
<path fill="none" stroke="black" stroke-dasharray="1,5" d="M636.2,-972.41C638.56,-996.39 642.85,-1039.86 645.68,-1068.58"/>
<polygon fill="black" stroke="black" points="642.18,-1068.77 646.65,-1078.38 649.15,-1068.09 642.18,-1068.77"/>
</g>
<!-- refseqfna&#45;&gt;categories -->
<g id="edge8" class="edge">
<title>refseqfna-&gt;categories</title>
<path fill="none" stroke="black" stroke-dasharray="1,5" d="M674.27,-956.31C754.79,-961.3 929.48,-985.03 929.48,-1097 929.48,-1097 929.48,-1097 929.48,-1243 929.48,-1283.82 914.65,-1329.07 903.51,-1357.28"/>
<polygon fill="black" stroke="black" points="900.29,-1355.92 899.75,-1366.51 906.77,-1358.57 900.29,-1355.92"/>
</g>
<!-- accmapsize -->
<g id="node13" class="node">
<title>accmapsize</title>
<path fill="none" stroke="black" d="M813.18,-1332C813.18,-1332 745.78,-1332 745.78,-1332 739.78,-1332 733.78,-1326 733.78,-1320 733.78,-1320 733.78,-1308 733.78,-1308 733.78,-1302 739.78,-1296 745.78,-1296 745.78,-1296 813.18,-1296 813.18,-1296 819.18,-1296 825.18,-1302 825.18,-1308 825.18,-1308 825.18,-1320 825.18,-1320 825.18,-1326 819.18,-1332 813.18,-1332"/>
<text text-anchor="middle" x="779.48" y="-1309.8" font-family="Helvetica,Arial,sans-serif" font-size="14.00">o:accmapsize</text>
</g>
<!-- accmapsize&#45;&gt;refseqcat -->
<g id="edge12" class="edge">
<title>accmapsize-&gt;refseqcat</title>
<path fill="none" stroke="black" d="M751.51,-1332.48C737.37,-1341.32 720.02,-1352.16 704.77,-1361.7"/>
<polygon fill="black" stroke="black" points="703.01,-1358.67 696.38,-1366.94 706.72,-1364.61 703.01,-1358.67"/>
</g>
<!-- accmapsize&#45;&gt;categories -->
<g id="edge11" class="edge">
<title>accmapsize-&gt;categories</title>
<path fill="none" stroke="black" stroke-dasharray="1,5" d="M807.46,-1332.48C821.59,-1341.32 838.94,-1352.16 854.2,-1361.7"/>
<polygon fill="black" stroke="black" points="852.25,-1364.61 862.58,-1366.94 855.96,-1358.67 852.25,-1364.61"/>
</g>
<!-- accmap -->
<g id="node14" class="node">
<title>accmap</title>
<path fill="none" stroke="black" d="M790.3,-1260C790.3,-1260 744.67,-1260 744.67,-1260 738.67,-1260 732.67,-1254 732.67,-1248 732.67,-1248 732.67,-1236 732.67,-1236 732.67,-1230 738.67,-1224 744.67,-1224 744.67,-1224 790.3,-1224 790.3,-1224 796.3,-1224 802.3,-1230 802.3,-1236 802.3,-1236 802.3,-1248 802.3,-1248 802.3,-1254 796.3,-1260 790.3,-1260"/>
<text text-anchor="middle" x="767.48" y="-1237.8" font-family="Helvetica,Arial,sans-serif" font-size="14.00">o:accmap</text>
</g>
<!-- accmap&#45;&gt;refseqcat -->
<g id="edge14" class="edge">
<title>accmap-&gt;refseqcat</title>
<path fill="none" stroke="black" d="M752.64,-1260.28C744.11,-1270.46 733.36,-1283.71 724.48,-1296 709.93,-1316.14 694.83,-1339.88 683.82,-1357.77"/>
<polygon fill="black" stroke="black" points="680.86,-1355.91 678.64,-1366.27 686.84,-1359.55 680.86,-1355.91"/>
</g>
<!-- accmap&#45;&gt;categories -->
<g id="edge13" class="edge">
<title>accmap-&gt;categories</title>
<path fill="none" stroke="black" stroke-dasharray="1,5" d="M793.36,-1260.33C806.56,-1269.92 822.34,-1282.58 834.48,-1296 851.54,-1314.85 866.84,-1339.37 877.28,-1357.9"/>
<polygon fill="black" stroke="black" points="874.08,-1359.36 881.97,-1366.44 880.22,-1355.99 874.08,-1359.36"/>
</g>
<!-- accmap&#45;&gt;accmapsize -->
<g id="edge15" class="edge">
<title>accmap-&gt;accmapsize</title>
<path fill="none" stroke="black" stroke-dasharray="1,5" d="M770.45,-1260.3C771.71,-1267.68 773.22,-1276.48 774.64,-1284.75"/>
<polygon fill="black" stroke="black" points="771.16,-1285.14 776.29,-1294.4 778.05,-1283.96 771.16,-1285.14"/>
</g>
<!-- taxfromgenbank -->
<g id="node15" class="node">
<title>taxfromgenbank</title>
<path fill="none" stroke="black" d="M489.8,-1188C489.8,-1188 395.17,-1188 395.17,-1188 389.17,-1188 383.17,-1182 383.17,-1176 383.17,-1176 383.17,-1164 383.17,-1164 383.17,-1158 389.17,-1152 395.17,-1152 395.17,-1152 489.8,-1152 489.8,-1152 495.8,-1152 501.8,-1158 501.8,-1164 501.8,-1164 501.8,-1176 501.8,-1176 501.8,-1182 495.8,-1188 489.8,-1188"/>
<text text-anchor="middle" x="442.48" y="-1165.8" font-family="Helvetica,Arial,sans-serif" font-size="14.00">o:taxfromgenbank</text>
</g>
<!-- taxfromgenbank&#45;&gt;taxnodes -->
<g id="edge17" class="edge">
<title>taxfromgenbank-&gt;taxnodes</title>
<path fill="none" stroke="black" stroke-dasharray="1,5" d="M382.95,-1185.42C329.91,-1198.27 253.18,-1216.85 203.32,-1228.93"/>
<polygon fill="black" stroke="black" points="202.54,-1225.52 193.65,-1231.27 204.19,-1232.32 202.54,-1225.52"/>
</g>
<!-- taxfromgenbank&#45;&gt;categories -->
<g id="edge16" class="edge">
<title>taxfromgenbank-&gt;categories</title>
<path fill="none" stroke="black" stroke-dasharray="1,5" d="M501.98,-1173.82C592.82,-1179.06 760.89,-1192.76 811.48,-1224 858.33,-1252.93 878.6,-1318.44 886.68,-1356.38"/>
<polygon fill="black" stroke="black" points="883.24,-1357.02 888.6,-1366.16 890.11,-1355.67 883.24,-1357.02"/>
</g>
<!-- taxfromgenbank&#45;&gt;accmap -->
<g id="edge18" class="edge">
<title>taxfromgenbank-&gt;accmap</title>
<path fill="none" stroke="black" stroke-dasharray="1,5" d="M502.09,-1183.84C565.31,-1197.46 663.83,-1218.68 721.38,-1231.07"/>
<polygon fill="black" stroke="black" points="720.32,-1234.42 730.84,-1233.11 721.8,-1227.58 720.32,-1234.42"/>
</g>
<!-- assemblydownload -->
<g id="node16" class="node">
<title>assemblydownload</title>
<path fill="none" stroke="black" d="M388.59,-1476C388.59,-1476 278.38,-1476 278.38,-1476 272.38,-1476 266.38,-1470 266.38,-1464 266.38,-1464 266.38,-1452 266.38,-1452 266.38,-1446 272.38,-1440 278.38,-1440 278.38,-1440 388.59,-1440 388.59,-1440 394.59,-1440 400.59,-1446 400.59,-1452 400.59,-1452 400.59,-1464 400.59,-1464 400.59,-1470 394.59,-1476 388.59,-1476"/>
<text text-anchor="middle" x="333.48" y="-1453.8" font-family="Helvetica,Arial,sans-serif" font-size="14.00">d:assemblydownload</text>
</g>
<!-- assemblydownload&#45;&gt;commonsetup -->
<g id="edge19" class="edge">
<title>assemblydownload-&gt;commonsetup</title>
<path fill="none" stroke="black" d="M382.69,-1476.48C409.47,-1486 442.8,-1497.84 471.02,-1507.87"/>
<polygon fill="black" stroke="black" points="469.54,-1511.06 480.14,-1511.11 471.89,-1504.47 469.54,-1511.06"/>
</g>
<!-- fastasgenbank -->
<g id="node17" class="node">
<title>fastasgenbank</title>
<path fill="none" stroke="black" d="M396.58,-1116C396.58,-1116 314.39,-1116 314.39,-1116 308.39,-1116 302.39,-1110 302.39,-1104 302.39,-1104 302.39,-1092 302.39,-1092 302.39,-1086 308.39,-1080 314.39,-1080 314.39,-1080 396.58,-1080 396.58,-1080 402.58,-1080 408.58,-1086 408.58,-1092 408.58,-1092 408.58,-1104 408.58,-1104 408.58,-1110 402.58,-1116 396.58,-1116"/>
<text text-anchor="middle" x="355.48" y="-1093.8" font-family="Helvetica,Arial,sans-serif" font-size="14.00">o:fastasgenbank</text>
</g>
<!-- fastasgenbank&#45;&gt;taxtree -->
<g id="edge20" class="edge">
<title>fastasgenbank-&gt;taxtree</title>
<path fill="none" stroke="black" stroke-dasharray="1,5" d="M356.89,-1116.46C358.89,-1134.95 363.63,-1164.65 374.48,-1188 392.32,-1226.38 423.83,-1263.84 446.08,-1287.59"/>
<polygon fill="black" stroke="black" points="443.34,-1289.78 452.78,-1294.6 448.4,-1284.95 443.34,-1289.78"/>
</g>
<!-- fastasgenbank&#45;&gt;taxfromgenbank -->
<g id="edge21" class="edge">
<title>fastasgenbank-&gt;taxfromgenbank</title>
<path fill="none" stroke="black" stroke-dasharray="1,5" d="M376.99,-1116.3C387.55,-1124.8 400.46,-1135.19 412.02,-1144.49"/>
<polygon fill="black" stroke="black" points="409.76,-1147.16 419.74,-1150.7 414.15,-1141.71 409.76,-1147.16"/>
</g>
<!-- fastasgenbank&#45;&gt;assemblydownload -->
<g id="edge22" class="edge">
<title>fastasgenbank-&gt;assemblydownload</title>
<path fill="none" stroke="black" d="M347.79,-1116.09C336.69,-1142.38 317.48,-1194.55 317.48,-1241 317.48,-1241 317.48,-1241 317.48,-1315 317.48,-1354.51 323.67,-1399.81 328.35,-1428.41"/>
<polygon fill="black" stroke="black" points="324.87,-1428.81 329.99,-1438.09 331.77,-1427.65 324.87,-1428.81"/>
</g>
<!-- fastasgenbankdl -->
<g id="node18" class="node">
<title>fastasgenbankdl</title>
<path fill="none" stroke="black" d="M489.02,-1044C489.02,-1044 395.94,-1044 395.94,-1044 389.94,-1044 383.94,-1038 383.94,-1032 383.94,-1032 383.94,-1020 383.94,-1020 383.94,-1014 389.94,-1008 395.94,-1008 395.94,-1008 489.02,-1008 489.02,-1008 495.02,-1008 501.02,-1014 501.02,-1020 501.02,-1020 501.02,-1032 501.02,-1032 501.02,-1038 495.02,-1044 489.02,-1044"/>
<text text-anchor="middle" x="442.48" y="-1021.8" font-family="Helvetica,Arial,sans-serif" font-size="14.00">d:fastasgenbankdl</text>
</g>
<!-- fastasgenbankdl&#45;&gt;fastasgenbank -->
<g id="edge23" class="edge">
<title>fastasgenbankdl-&gt;fastasgenbank</title>
<path fill="none" stroke="black" stroke-dasharray="1,5" d="M420.98,-1044.3C410.42,-1052.8 397.51,-1063.19 385.95,-1072.49"/>
<polygon fill="black" stroke="black" points="383.82,-1069.71 378.22,-1078.7 388.21,-1075.16 383.82,-1069.71"/>
</g>
<!-- adddownloads -->
<g id="node19" class="node">
<title>adddownloads</title>
<path fill="none" stroke="black" d="M315.37,-1044C315.37,-1044 231.6,-1044 231.6,-1044 225.6,-1044 219.6,-1038 219.6,-1032 219.6,-1032 219.6,-1020 219.6,-1020 219.6,-1014 225.6,-1008 231.6,-1008 231.6,-1008 315.37,-1008 315.37,-1008 321.37,-1008 327.37,-1014 327.37,-1020 327.37,-1020 327.37,-1032 327.37,-1032 327.37,-1038 321.37,-1044 315.37,-1044"/>
<text text-anchor="middle" x="273.48" y="-1021.8" font-family="Helvetica,Arial,sans-serif" font-size="14.00">d:adddownloads</text>
</g>
<!-- addfastas -->
<g id="node20" class="node">
<title>addfastas</title>
<path fill="none" stroke="black" d="M412.97,-972C412.97,-972 357.99,-972 357.99,-972 351.99,-972 345.99,-966 345.99,-960 345.99,-960 345.99,-948 345.99,-948 345.99,-942 351.99,-936 357.99,-936 357.99,-936 412.97,-936 412.97,-936 418.97,-936 424.97,-942 424.97,-948 424.97,-948 424.97,-960 424.97,-960 424.97,-966 418.97,-972 412.97,-972"/>
<text text-anchor="middle" x="385.48" y="-949.8" font-family="Helvetica,Arial,sans-serif" font-size="14.00">o:addfastas</text>
</g>
<!-- addfastas&#45;&gt;taxtree -->
<g id="edge25" class="edge">
<title>addfastas-&gt;taxtree</title>
<path fill="none" stroke="black" stroke-dasharray="1,5" d="M425.39,-961.89C453.3,-968.8 489.25,-982.28 510.48,-1008 536.23,-1039.19 529.48,-1056.55 529.48,-1097 529.48,-1097 529.48,-1097 529.48,-1171 529.48,-1213.5 506.94,-1258.21 489.96,-1285.84"/>
<polygon fill="black" stroke="black" points="487.01,-1283.97 484.6,-1294.28 492.91,-1287.72 487.01,-1283.97"/>
</g>
<!-- addfastas&#45;&gt;fastasgenbank -->
<g id="edge26" class="edge">
<title>addfastas-&gt;fastasgenbank</title>
<path fill="none" stroke="black" stroke-dasharray="1,5" d="M381.8,-972.41C376.72,-996.5 367.47,-1040.25 361.41,-1068.97"/>
<polygon fill="black" stroke="black" points="358.05,-1067.9 359.41,-1078.41 364.9,-1069.35 358.05,-1067.9"/>
</g>
<!-- addfastas&#45;&gt;fastasgenbankdl -->
<g id="edge27" class="edge">
<title>addfastas-&gt;fastasgenbankdl</title>
<path fill="none" stroke="black" d="M399.57,-972.3C406.13,-980.36 414.07,-990.11 421.33,-999.02"/>
<polygon fill="black" stroke="black" points="418.57,-1001.18 427.6,-1006.72 424,-996.76 418.57,-1001.18"/>
</g>
<!-- addfastas&#45;&gt;adddownloads -->
<g id="edge24" class="edge">
<title>addfastas-&gt;adddownloads</title>
<path fill="none" stroke="black" d="M357.51,-972.48C343.37,-981.32 326.02,-992.16 310.77,-1001.7"/>
<polygon fill="black" stroke="black" points="309.01,-998.67 302.38,-1006.94 312.72,-1004.61 309.01,-998.67"/>
</g>
<!-- fillsize -->
<g id="node21" class="node">
<title>fillsize</title>
<path fill="none" stroke="black" d="M375.98,-900C375.98,-900 334.99,-900 334.99,-900 328.99,-900 322.99,-894 322.99,-888 322.99,-888 322.99,-876 322.99,-876 322.99,-870 328.99,-864 334.99,-864 334.99,-864 375.98,-864 375.98,-864 381.98,-864 387.98,-870 387.98,-876 387.98,-876 387.98,-888 387.98,-888 387.98,-894 381.98,-900 375.98,-900"/>
<text text-anchor="middle" x="355.48" y="-877.8" font-family="Helvetica,Arial,sans-serif" font-size="14.00">o:fillsize</text>
</g>
<!-- fillsize&#45;&gt;taxnodes -->
<g id="edge28" class="edge">
<title>fillsize-&gt;taxnodes</title>
<path fill="none" stroke="black" stroke-dasharray="1,5" d="M322.69,-894.4C274.83,-913.37 191.48,-956.27 191.48,-1025 191.48,-1025 191.48,-1025 191.48,-1099 191.48,-1139.82 176.65,-1185.07 165.51,-1213.28"/>
<polygon fill="black" stroke="black" points="162.29,-1211.92 161.75,-1222.51 168.77,-1214.57 162.29,-1211.92"/>
</g>
<!-- fillsize&#45;&gt;refseqfna -->
<g id="edge29" class="edge">
<title>fillsize-&gt;refseqfna</title>
<path fill="none" stroke="black" stroke-dasharray="1,5" d="M388.31,-891.24C436.52,-903.33 526.89,-926.01 583.7,-940.26"/>
<polygon fill="black" stroke="black" points="582.58,-943.59 593.13,-942.62 584.28,-936.8 582.58,-943.59"/>
</g>
<!-- fillsize&#45;&gt;addfastas -->
<g id="edge30" class="edge">
<title>fillsize-&gt;addfastas</title>
<path fill="none" stroke="black" stroke-dasharray="1,5" d="M362.9,-900.3C366.13,-907.85 370,-916.88 373.62,-925.32"/>
<polygon fill="black" stroke="black" points="370.4,-926.69 377.56,-934.5 376.83,-923.93 370.4,-926.69"/>
</g>
<!-- tempindex -->
<g id="node22" class="node">
<title>tempindex</title>
<path fill="none" stroke="black" d="M413.48,-828C413.48,-828 351.49,-828 351.49,-828 345.49,-828 339.49,-822 339.49,-816 339.49,-816 339.49,-804 339.49,-804 339.49,-798 345.49,-792 351.49,-792 351.49,-792 413.48,-792 413.48,-792 419.48,-792 425.48,-798 425.48,-804 425.48,-804 425.48,-816 425.48,-816 425.48,-822 419.48,-828 413.48,-828"/>
<text text-anchor="middle" x="382.48" y="-805.8" font-family="Helvetica,Arial,sans-serif" font-size="14.00">o:tempindex</text>
</g>
<!-- tempindex&#45;&gt;taxnodes -->
<g id="edge32" class="edge">
<title>tempindex-&gt;taxnodes</title>
<path fill="none" stroke="black" stroke-dasharray="1,5" d="M339.14,-817.79C272.75,-830.94 153.48,-866.57 153.48,-953 153.48,-953 153.48,-953 153.48,-1099 153.48,-1138.26 153.48,-1183.62 153.48,-1212.31"/>
<polygon fill="black" stroke="black" points="149.98,-1212 153.48,-1222 156.98,-1212 149.98,-1212"/>
</g>
<!-- tempindex&#45;&gt;refseqfna -->
<g id="edge33" class="edge">
<title>tempindex-&gt;refseqfna</title>
<path fill="none" stroke="black" stroke-dasharray="1,5" d="M405.74,-828.34C431.7,-847.28 475.35,-877.85 515.48,-900 537.33,-912.06 562.46,-923.57 583.98,-932.77"/>
<polygon fill="black" stroke="black" points="582.57,-935.97 593.14,-936.63 585.29,-929.52 582.57,-935.97"/>
</g>
<!-- tempindex&#45;&gt;addfastas -->
<g id="edge34" class="edge">
<title>tempindex-&gt;addfastas</title>
<path fill="none" stroke="black" stroke-dasharray="1,5" d="M388.31,-828.44C391.41,-838.67 394.91,-851.92 396.48,-864 398.54,-879.87 398.12,-884.08 396.48,-900 395.64,-908.17 394.1,-916.93 392.42,-924.93"/>
<polygon fill="black" stroke="black" points="389.06,-923.95 390.28,-934.48 395.89,-925.49 389.06,-923.95"/>
</g>
<!-- tempindex&#45;&gt;fillsize -->
<g id="edge31" class="edge">
<title>tempindex-&gt;fillsize</title>
<path fill="none" stroke="black" stroke-dasharray="1,5" d="M375.81,-828.3C372.9,-835.85 369.41,-844.88 366.16,-853.32"/>
<polygon fill="black" stroke="black" points="362.96,-851.89 362.62,-862.48 369.49,-854.41 362.96,-851.89"/>
</g>
<!-- filldb -->
<g id="node23" class="node">
<title>filldb</title>
<path fill="none" stroke="black" d="M458.09,-756C458.09,-756 424.87,-756 424.87,-756 418.87,-756 412.87,-750 412.87,-744 412.87,-744 412.87,-732 412.87,-732 412.87,-726 418.87,-720 424.87,-720 424.87,-720 458.09,-720 458.09,-720 464.09,-720 470.09,-726 470.09,-732 470.09,-732 470.09,-744 470.09,-744 470.09,-750 464.09,-756 458.09,-756"/>
<text text-anchor="middle" x="441.48" y="-733.8" font-family="Helvetica,Arial,sans-serif" font-size="14.00">o:filldb</text>
</g>
<!-- filldb&#45;&gt;taxnodes -->
<g id="edge36" class="edge">
<title>filldb-&gt;taxnodes</title>
<path fill="none" stroke="black" stroke-dasharray="1,5" d="M412.55,-738.55C332.77,-738.98 115.48,-751.98 115.48,-881 115.48,-881 115.48,-881 115.48,-1099 115.48,-1139.82 130.32,-1185.07 141.45,-1213.28"/>
<polygon fill="black" stroke="black" points="138.2,-1214.57 145.22,-1222.51 144.68,-1211.92 138.2,-1214.57"/>
</g>
<!-- filldb&#45;&gt;refseqfna -->
<g id="edge37" class="edge">
<title>filldb-&gt;refseqfna</title>
<path fill="none" stroke="black" stroke-dasharray="1,5" d="M456.95,-756.15C490.76,-793.64 571.4,-883.05 611.3,-927.3"/>
<polygon fill="black" stroke="black" points="608.63,-929.56 617.93,-934.64 613.83,-924.87 608.63,-929.56"/>
</g>
<!-- filldb&#45;&gt;addfastas -->
<g id="edge38" class="edge">
<title>filldb-&gt;addfastas</title>
<path fill="none" stroke="black" stroke-dasharray="1,5" d="M441.3,-756.22C440.84,-774.27 439.32,-803.36 434.48,-828 428.01,-860.96 424.03,-868.84 411.48,-900 408.08,-908.46 403.9,-917.45 399.89,-925.57"/>
<polygon fill="black" stroke="black" points="396.88,-923.77 395.49,-934.28 403.13,-926.93 396.88,-923.77"/>
</g>
<!-- filldb&#45;&gt;tempindex -->
<g id="edge35" class="edge">
<title>filldb-&gt;tempindex</title>
<path fill="none" stroke="black" stroke-dasharray="1,5" d="M426.9,-756.3C420.04,-764.44 411.72,-774.31 404.15,-783.3"/>
<polygon fill="black" stroke="black" points="401.64,-780.84 397.87,-790.74 407,-785.35 401.64,-780.84"/>
</g>
<!-- tempdb -->
<g id="node24" class="node">
<title>tempdb</title>
<path fill="none" stroke="black" d="M510.76,-684C510.76,-684 468.21,-684 468.21,-684 462.21,-684 456.21,-678 456.21,-672 456.21,-672 456.21,-660 456.21,-660 456.21,-654 462.21,-648 468.21,-648 468.21,-648 510.76,-648 510.76,-648 516.76,-648 522.76,-654 522.76,-660 522.76,-660 522.76,-672 522.76,-672 522.76,-678 516.76,-684 510.76,-684"/>
<text text-anchor="middle" x="489.48" y="-661.8" font-family="Helvetica,Arial,sans-serif" font-size="14.00">f:tempdb</text>
</g>
<!-- tempdb&#45;&gt;filldb -->
<g id="edge39" class="edge">
<title>tempdb-&gt;filldb</title>
<path fill="none" stroke="black" stroke-dasharray="1,5" d="M477.62,-684.3C472.21,-692.19 465.69,-701.7 459.69,-710.45"/>
<polygon fill="black" stroke="black" points="456.84,-708.42 454.07,-718.65 462.61,-712.38 456.84,-708.42"/>
</g>
<!-- loadtempdb -->
<g id="node25" class="node">
<title>loadtempdb</title>
<path fill="none" stroke="black" d="M507.98,-612C507.98,-612 438.99,-612 438.99,-612 432.99,-612 426.99,-606 426.99,-600 426.99,-600 426.99,-588 426.99,-588 426.99,-582 432.99,-576 438.99,-576 438.99,-576 507.98,-576 507.98,-576 513.98,-576 519.98,-582 519.98,-588 519.98,-588 519.98,-600 519.98,-600 519.98,-606 513.98,-612 507.98,-612"/>
<text text-anchor="middle" x="473.48" y="-589.8" font-family="Helvetica,Arial,sans-serif" font-size="14.00">o:loadtempdb</text>
</g>
<!-- loadtempdb&#45;&gt;filldb -->
<g id="edge41" class="edge">
<title>loadtempdb-&gt;filldb</title>
<path fill="none" stroke="black" stroke-dasharray="1,5" d="M462.76,-612.47C457.17,-622.49 450.82,-635.53 447.48,-648 442.21,-667.69 440.77,-690.66 440.62,-708.33"/>
<polygon fill="black" stroke="black" points="437.12,-708.12 440.68,-718.1 444.12,-708.08 437.12,-708.12"/>
</g>
<!-- loadtempdb&#45;&gt;tempdb -->
<g id="edge40" class="edge">
<title>loadtempdb-&gt;tempdb</title>
<path fill="none" stroke="black" d="M477.44,-612.3C479.12,-619.68 481.13,-628.48 483.03,-636.75"/>
<polygon fill="black" stroke="black" points="479.6,-637.45 485.24,-646.42 486.42,-635.89 479.6,-637.45"/>
</g>
<!-- tempdbinfo -->
<g id="node26" class="node">
<title>tempdbinfo</title>
<path fill="none" stroke="black" d="M527.03,-540C527.03,-540 461.93,-540 461.93,-540 455.93,-540 449.93,-534 449.93,-528 449.93,-528 449.93,-516 449.93,-516 449.93,-510 455.93,-504 461.93,-504 461.93,-504 527.03,-504 527.03,-504 533.03,-504 539.03,-510 539.03,-516 539.03,-516 539.03,-528 539.03,-528 539.03,-534 533.03,-540 527.03,-540"/>
<text text-anchor="middle" x="494.48" y="-517.8" font-family="Helvetica,Arial,sans-serif" font-size="14.00">f:tempdbinfo</text>
</g>
<!-- tempdbinfo&#45;&gt;loadtempdb -->
<g id="edge42" class="edge">
<title>tempdbinfo-&gt;loadtempdb</title>
<path fill="none" stroke="black" stroke-dasharray="1,5" d="M489.29,-540.3C487.05,-547.76 484.38,-556.68 481.87,-565.03"/>
<polygon fill="black" stroke="black" points="478.57,-563.86 479.05,-574.45 485.28,-565.87 478.57,-563.86"/>
</g>
<!-- updatedb -->
<g id="node27" class="node">
<title>updatedb</title>
<path fill="none" stroke="black" d="M544.59,-468C544.59,-468 490.38,-468 490.38,-468 484.38,-468 478.38,-462 478.38,-456 478.38,-456 478.38,-444 478.38,-444 478.38,-438 484.38,-432 490.38,-432 490.38,-432 544.59,-432 544.59,-432 550.59,-432 556.59,-438 556.59,-444 556.59,-444 556.59,-456 556.59,-456 556.59,-462 550.59,-468 544.59,-468"/>
<text text-anchor="middle" x="517.48" y="-445.8" font-family="Helvetica,Arial,sans-serif" font-size="14.00">o:updatedb</text>
</g>
<!-- updatedb&#45;&gt;taxtree -->
<g id="edge46" class="edge">
<title>updatedb-&gt;taxtree</title>
<path fill="none" stroke="black" stroke-dasharray="1,5" d="M529.59,-468.43C536.04,-478.44 543.63,-491.48 548.48,-504 563.1,-541.71 567.48,-552.55 567.48,-593 567.48,-593 567.48,-593 567.48,-1171 567.48,-1218.73 529.79,-1262.4 501.64,-1288.35"/>
<polygon fill="black" stroke="black" points="499.53,-1285.55 494.4,-1294.82 504.19,-1290.77 499.53,-1285.55"/>
</g>
<!-- updatedb&#45;&gt;taxnodes -->
<g id="edge47" class="edge">
<title>updatedb-&gt;taxnodes</title>
<path fill="none" stroke="black" stroke-dasharray="1,5" d="M478.05,-455.16C370.05,-467.65 77.48,-509.22 77.48,-593 77.48,-593 77.48,-593 77.48,-1099 77.48,-1143.97 107.48,-1188.48 129.78,-1215.36"/>
<polygon fill="black" stroke="black" points="126.84,-1217.31 136.01,-1222.62 132.16,-1212.75 126.84,-1217.31"/>
</g>
<!-- updatedb&#45;&gt;categories -->
<g id="edge45" class="edge">
<title>updatedb-&gt;categories</title>
<path fill="none" stroke="black" stroke-dasharray="1,5" d="M557.02,-454.9C666.83,-466.82 967.48,-507.29 967.48,-593 967.48,-593 967.48,-593 967.48,-1243 967.48,-1287.97 937.49,-1332.48 915.19,-1359.36"/>
<polygon fill="black" stroke="black" points="912.81,-1356.75 908.96,-1366.62 918.12,-1361.31 912.81,-1356.75"/>
</g>
<!-- updatedb&#45;&gt;refseqfna -->
<g id="edge48" class="edge">
<title>updatedb-&gt;refseqfna</title>
<path fill="none" stroke="black" d="M543.65,-468.28C556.35,-477.67 571.06,-490.18 581.48,-504 607.48,-538.48 620.48,-549.81 620.48,-593 620.48,-593 620.48,-593 620.48,-811 620.48,-850.45 625.9,-895.77 630,-924.39"/>
<polygon fill="black" stroke="black" points="626.5,-924.69 631.43,-934.07 633.43,-923.66 626.5,-924.69"/>
</g>
<!-- updatedb&#45;&gt;accmap -->
<g id="edge49" class="edge">
<title>updatedb-&gt;accmap</title>
<path fill="none" stroke="black" stroke-dasharray="1,5" d="M556.82,-455.26C627.22,-465.29 767.48,-497.29 767.48,-593 767.48,-593 767.48,-593 767.48,-1099 767.48,-1138.26 767.48,-1183.62 767.48,-1212.31"/>
<polygon fill="black" stroke="black" points="763.98,-1212 767.48,-1222 770.98,-1212 763.98,-1212"/>
</g>
<!-- updatedb&#45;&gt;addfastas -->
<g id="edge44" class="edge">
<title>updatedb-&gt;addfastas</title>
<path fill="none" stroke="black" stroke-dasharray="1,5" d="M478.05,-457.69C414.26,-471.01 295.48,-507.33 295.48,-593 295.48,-593 295.48,-593 295.48,-811 295.48,-851.45 292.66,-865.95 314.48,-900 321.74,-911.32 332.31,-921.09 343.1,-929.04"/>
<polygon fill="black" stroke="black" points="341.09,-931.91 351.3,-934.7 345.06,-926.14 341.09,-931.91"/>
</g>
<!-- updatedb&#45;&gt;loadtempdb -->
<g id="edge50" class="edge">
<title>updatedb-&gt;loadtempdb</title>
<path fill="none" stroke="black" stroke-dasharray="1,5" d="M478.21,-468.1C463.62,-476.63 448.64,-488.49 440.48,-504 429.94,-524.06 440.25,-548.25 452.05,-566.35"/>
<polygon fill="black" stroke="black" points="449.15,-568.31 457.76,-574.47 454.87,-564.28 449.15,-568.31"/>
</g>
<!-- updatedb&#45;&gt;tempdbinfo -->
<g id="edge43" class="edge">
<title>updatedb-&gt;tempdbinfo</title>
<path fill="none" stroke="black" d="M511.8,-468.3C509.35,-475.76 506.42,-484.68 503.67,-493.03"/>
<polygon fill="black" stroke="black" points="500.37,-491.86 500.58,-502.46 507.02,-494.05 500.37,-491.86"/>
</g>
<!-- db -->
<g id="node28" class="node">
<title>db</title>
<polygon fill="none" stroke="black" stroke-width="2" points="500.48,-396 446.48,-396 446.48,-360 500.48,-360 500.48,-396"/>
<text text-anchor="middle" x="473.48" y="-373.8" font-family="Helvetica,Arial,sans-serif" font-size="14.00">f:db</text>
</g>
<!-- db&#45;&gt;updatedb -->
<g id="edge51" class="edge">
<title>db-&gt;updatedb</title>
<path fill="none" stroke="black" stroke-dasharray="1,5" d="M484.36,-396.3C489.26,-404.1 495.16,-413.49 500.62,-422.17"/>
<polygon fill="black" stroke="black" points="497.64,-424.01 505.93,-430.61 503.57,-420.29 497.64,-424.01"/>
</g>
<!-- loaddb -->
<g id="node29" class="node">
<title>loaddb</title>
<path fill="none" stroke="black" d="M526.98,-324C526.98,-324 485.99,-324 485.99,-324 479.99,-324 473.99,-318 473.99,-312 473.99,-312 473.99,-300 473.99,-300 473.99,-294 479.99,-288 485.99,-288 485.99,-288 526.98,-288 526.98,-288 532.98,-288 538.98,-294 538.98,-300 538.98,-300 538.98,-312 538.98,-312 538.98,-318 532.98,-324 526.98,-324"/>
<text text-anchor="middle" x="506.48" y="-301.8" font-family="Helvetica,Arial,sans-serif" font-size="14.00">o:loaddb</text>
</g>
<!-- loaddb&#45;&gt;updatedb -->
<g id="edge52" class="edge">
<title>loaddb-&gt;updatedb</title>
<path fill="none" stroke="black" stroke-dasharray="1,5" d="M507.83,-324.41C509.69,-348.39 513.06,-391.86 515.28,-420.58"/>
<polygon fill="black" stroke="black" points="511.78,-420.68 516.04,-430.38 518.76,-420.14 511.78,-420.68"/>
</g>
<!-- loaddb&#45;&gt;db -->
<g id="edge53" class="edge">
<title>loaddb-&gt;db</title>
<path fill="none" stroke="black" d="M498.33,-324.3C494.73,-331.93 490.41,-341.08 486.4,-349.6"/>
<polygon fill="black" stroke="black" points="483.29,-347.99 482.19,-358.53 489.62,-350.97 483.29,-347.99"/>
</g>
<!-- fillindex -->
<g id="node30" class="node">
<title>fillindex</title>
<path fill="none" stroke="black" d="M510.65,-252C510.65,-252 460.32,-252 460.32,-252 454.32,-252 448.32,-246 448.32,-240 448.32,-240 448.32,-228 448.32,-228 448.32,-222 454.32,-216 460.32,-216 460.32,-216 510.65,-216 510.65,-216 516.65,-216 522.65,-222 522.65,-228 522.65,-228 522.65,-240 522.65,-240 522.65,-246 516.65,-252 510.65,-252"/>
<text text-anchor="middle" x="485.48" y="-229.8" font-family="Helvetica,Arial,sans-serif" font-size="14.00">o:fillindex</text>
</g>
<!-- fillindex&#45;&gt;loaddb -->
<g id="edge54" class="edge">
<title>fillindex-&gt;loaddb</title>
<path fill="none" stroke="black" stroke-dasharray="1,5" d="M490.67,-252.3C492.91,-259.76 495.59,-268.68 498.09,-277.03"/>
<polygon fill="black" stroke="black" points="494.69,-277.87 500.92,-286.45 501.4,-275.86 494.69,-277.87"/>
</g>
<!-- index -->
<g id="node31" class="node">
<title>index</title>
<polygon fill="none" stroke="black" stroke-width="2" points="542.31,-180 486.66,-180 486.66,-144 542.31,-144 542.31,-180"/>
<text text-anchor="middle" x="514.48" y="-157.8" font-family="Helvetica,Arial,sans-serif" font-size="14.00">f:index</text>
</g>
<!-- index&#45;&gt;fillindex -->
<g id="edge55" class="edge">
<title>index-&gt;fillindex</title>
<path fill="none" stroke="black" stroke-dasharray="1,5" d="M507.31,-180.3C504.19,-187.85 500.45,-196.88 496.95,-205.32"/>
<polygon fill="black" stroke="black" points="493.74,-203.92 493.15,-214.5 500.21,-206.6 493.74,-203.92"/>
</g>
<!-- loadindex -->
<g id="node32" class="node">
<title>loadindex</title>
<path fill="none" stroke="black" d="M518.53,-108C518.53,-108 460.43,-108 460.43,-108 454.43,-108 448.43,-102 448.43,-96 448.43,-96 448.43,-84 448.43,-84 448.43,-78 454.43,-72 460.43,-72 460.43,-72 518.53,-72 518.53,-72 524.53,-72 530.53,-78 530.53,-84 530.53,-84 530.53,-96 530.53,-96 530.53,-102 524.53,-108 518.53,-108"/>
<text text-anchor="middle" x="489.48" y="-85.8" font-family="Helvetica,Arial,sans-serif" font-size="14.00">o:loadindex</text>
</g>
<!-- loadindex&#45;&gt;fillindex -->
<g id="edge56" class="edge">
<title>loadindex-&gt;fillindex</title>
<path fill="none" stroke="black" stroke-dasharray="1,5" d="M484.49,-108.5C481.82,-118.75 478.82,-132 477.48,-144 475.23,-164.17 477.37,-186.96 480,-204.44"/>
<polygon fill="black" stroke="black" points="476.51,-204.8 481.6,-214.09 483.41,-203.65 476.51,-204.8"/>
</g>
<!-- loadindex&#45;&gt;index -->
<g id="edge57" class="edge">
<title>loadindex-&gt;index</title>
<path fill="none" stroke="black" d="M495.66,-108.3C498.36,-115.85 501.58,-124.88 504.6,-133.32"/>
<polygon fill="black" stroke="black" points="501.21,-134.23 507.87,-142.47 507.8,-131.88 501.21,-134.23"/>
</g>
<!-- dbinfo -->
<g id="node33" class="node">
<title>dbinfo</title>
<polygon fill="none" stroke="black" stroke-width="2" points="621.03,-180 559.93,-180 559.93,-144 621.03,-144 621.03,-180"/>
<text text-anchor="middle" x="590.48" y="-157.8" font-family="Helvetica,Arial,sans-serif" font-size="14.00">f:dbinfo</text>
</g>
<!-- dbinfo&#45;&gt;loaddb -->
<g id="edge58" class="edge">
<title>dbinfo-&gt;loaddb</title>
<path fill="none" stroke="black" stroke-dasharray="1,5" d="M580.18,-180.41C565.75,-204.82 539.36,-249.42 522.39,-278.11"/>
<polygon fill="black" stroke="black" points="519.45,-276.2 517.38,-286.59 525.48,-279.76 519.45,-276.2"/>
</g>
<!-- genall -->
<g id="node34" class="node">
<title>genall</title>
<polygon fill="none" stroke="black" stroke-width="2" points="609.48,-108 555.48,-108 555.48,-72 609.48,-72 609.48,-108"/>
<text text-anchor="middle" x="582.48" y="-85.8" font-family="Helvetica,Arial,sans-serif" font-size="14.00">genall</text>
</g>
<!-- genall&#45;&gt;index -->
<g id="edge60" class="edge">
<title>genall-&gt;index</title>
<path fill="none" stroke="black" d="M565.67,-108.3C557.6,-116.61 547.78,-126.72 538.91,-135.86"/>
<polygon fill="black" stroke="black" points="536.61,-133.2 532.15,-142.81 541.63,-138.08 536.61,-133.2"/>
</g>
<!-- genall&#45;&gt;dbinfo -->
<g id="edge59" class="edge">
<title>genall-&gt;dbinfo</title>
<path fill="none" stroke="black" d="M584.46,-108.3C585.29,-115.59 586.29,-124.27 587.22,-132.46"/>
<polygon fill="black" stroke="black" points="583.74,-132.85 588.36,-142.39 590.7,-132.06 583.74,-132.85"/>
</g>
<!-- db2fastqtaxids -->
<g id="node35" class="node">
<title>db2fastqtaxids</title>
<path fill="none" stroke="black" d="M674.76,-252C674.76,-252 590.21,-252 590.21,-252 584.21,-252 578.21,-246 578.21,-240 578.21,-240 578.21,-228 578.21,-228 578.21,-222 584.21,-216 590.21,-216 590.21,-216 674.76,-216 674.76,-216 680.76,-216 686.76,-222 686.76,-228 686.76,-228 686.76,-240 686.76,-240 686.76,-246 680.76,-252 674.76,-252"/>
<text text-anchor="middle" x="632.48" y="-229.8" font-family="Helvetica,Arial,sans-serif" font-size="14.00">o:db2fastqtaxids</text>
</g>
<!-- db2fastqtaxids&#45;&gt;loaddb -->
<g id="edge61" class="edge">
<title>db2fastqtaxids-&gt;loaddb</title>
<path fill="none" stroke="black" stroke-dasharray="1,5" d="M601.01,-252.48C584.8,-261.49 564.85,-272.58 547.45,-282.24"/>
<polygon fill="black" stroke="black" points="545.92,-279.09 538.87,-287 549.32,-285.21 545.92,-279.09"/>
</g>
<!-- db2fastq -->
<g id="node36" class="node">
<title>db2fastq</title>
<polygon fill="none" stroke="black" stroke-width="2" points="730.87,-180 658.1,-180 658.1,-144 730.87,-144 730.87,-180"/>
<text text-anchor="middle" x="694.48" y="-157.8" font-family="Helvetica,Arial,sans-serif" font-size="14.00">f:db2fastq</text>
</g>
<!-- db2fastq&#45;&gt;loaddb -->
<g id="edge63" class="edge">
<title>db2fastq-&gt;loaddb</title>
<path fill="none" stroke="black" stroke-dasharray="1,5" d="M700.41,-180.34C705.9,-199.83 711.07,-231.44 695.48,-252 678.01,-275.05 600.58,-290.84 550.41,-298.86"/>
<polygon fill="black" stroke="black" points="550.07,-295.37 540.72,-300.36 551.14,-302.29 550.07,-295.37"/>
</g>
<!-- db2fastq&#45;&gt;db2fastqtaxids -->
<g id="edge62" class="edge">
<title>db2fastq-&gt;db2fastqtaxids</title>
<path fill="none" stroke="black" stroke-dasharray="1,5" d="M679.16,-180.3C671.95,-188.44 663.21,-198.31 655.25,-207.3"/>
<polygon fill="black" stroke="black" points="652.65,-204.96 648.64,-214.76 657.89,-209.6 652.65,-204.96"/>
</g>
<!-- fastqmap -->
<g id="node37" class="node">
<title>fastqmap</title>
<path fill="none" stroke="black" d="M248.59,-468C248.59,-468 194.38,-468 194.38,-468 188.38,-468 182.38,-462 182.38,-456 182.38,-456 182.38,-444 182.38,-444 182.38,-438 188.38,-432 194.38,-432 194.38,-432 248.59,-432 248.59,-432 254.59,-432 260.59,-438 260.59,-444 260.59,-444 260.59,-456 260.59,-456 260.59,-462 254.59,-468 248.59,-468"/>
<text text-anchor="middle" x="221.48" y="-445.8" font-family="Helvetica,Arial,sans-serif" font-size="14.00">o:fastqmap</text>
</g>
<!-- fastqmaptransform -->
<g id="node38" class="node">
<title>fastqmaptransform</title>
<path fill="none" stroke="black" d="M322.8,-396C322.8,-396 214.17,-396 214.17,-396 208.17,-396 202.17,-390 202.17,-384 202.17,-384 202.17,-372 202.17,-372 202.17,-366 208.17,-360 214.17,-360 214.17,-360 322.8,-360 322.8,-360 328.8,-360 334.8,-366 334.8,-372 334.8,-372 334.8,-384 334.8,-384 334.8,-390 328.8,-396 322.8,-396"/>
<text text-anchor="middle" x="268.48" y="-373.8" font-family="Helvetica,Arial,sans-serif" font-size="14.00">o:fastqmaptransform</text>
</g>
<!-- fastqmaptransform&#45;&gt;fastqmap -->
<g id="edge64" class="edge">
<title>fastqmaptransform-&gt;fastqmap</title>
<path fill="none" stroke="black" stroke-dasharray="1,5" d="M256.86,-396.3C251.57,-404.19 245.19,-413.7 239.31,-422.45"/>
<polygon fill="black" stroke="black" points="236.48,-420.39 233.81,-430.64 242.29,-424.29 236.48,-420.39"/>
</g>
<!-- fastqdownload -->
<g id="node39" class="node">
<title>fastqdownload</title>
<path fill="none" stroke="black" d="M220.14,-324C220.14,-324 134.82,-324 134.82,-324 128.82,-324 122.82,-318 122.82,-312 122.82,-312 122.82,-300 122.82,-300 122.82,-294 128.82,-288 134.82,-288 134.82,-288 220.14,-288 220.14,-288 226.14,-288 232.14,-294 232.14,-300 232.14,-300 232.14,-312 232.14,-312 232.14,-318 226.14,-324 220.14,-324"/>
<text text-anchor="middle" x="177.48" y="-301.8" font-family="Helvetica,Arial,sans-serif" font-size="14.00">d:fastqdownload</text>
</g>
<!-- fastqdownload&#45;&gt;fastqmap -->
<g id="edge65" class="edge">
<title>fastqdownload-&gt;fastqmap</title>
<path fill="none" stroke="black" stroke-dasharray="1,5" d="M179.02,-324.46C180.99,-342.7 185.19,-371.96 193.48,-396 196.5,-404.76 200.81,-413.83 205.14,-421.94"/>
<polygon fill="black" stroke="black" points="202.06,-423.61 210,-430.62 208.17,-420.19 202.06,-423.61"/>
</g>
<!-- fastqdownload&#45;&gt;fastqmaptransform -->
<g id="edge66" class="edge">
<title>fastqdownload-&gt;fastqmaptransform</title>
<path fill="none" stroke="black" stroke-dasharray="1,5" d="M199.98,-324.3C211.13,-332.89 224.79,-343.39 236.97,-352.76"/>
<polygon fill="black" stroke="black" points="234.67,-355.41 244.73,-358.73 238.94,-349.86 234.67,-355.41"/>
</g>
<!-- filter -->
<g id="node40" class="node">
<title>filter</title>
<polygon fill="none" stroke="black" stroke-width="2" points="447.48,-36 393.48,-36 393.48,0 447.48,0 447.48,-36"/>
<text text-anchor="middle" x="420.48" y="-13.8" font-family="Helvetica,Arial,sans-serif" font-size="14.00">f:filter</text>
</g>
<!-- filter&#45;&gt;loadindex -->
<g id="edge68" class="edge">
<title>filter-&gt;loadindex</title>
<path fill="none" stroke="black" stroke-dasharray="1,5" d="M437.54,-36.3C445.73,-44.61 455.7,-54.72 464.7,-63.86"/>
<polygon fill="black" stroke="black" points="462.05,-66.15 471.56,-70.82 467.03,-61.24 462.05,-66.15"/>
</g>
<!-- filter&#45;&gt;fastqmaptransform -->
<g id="edge69" class="edge">
<title>filter-&gt;fastqmaptransform</title>
<path fill="none" stroke="black" stroke-dasharray="1,5" d="M420.48,-36.49C420.48,-63.29 420.48,-116.13 420.48,-161 420.48,-161 420.48,-161 420.48,-235 420.48,-291.12 364.48,-331.43 320.46,-354.45"/>
<polygon fill="black" stroke="black" points="319.12,-351.2 311.77,-358.83 322.28,-357.45 319.12,-351.2"/>
</g>
<!-- filter&#45;&gt;fastqdownload -->
<g id="edge67" class="edge">
<title>filter-&gt;fastqdownload</title>
<path fill="none" stroke="black" d="M393.01,-32.2C328.41,-63.3 172.03,-138.92 168.48,-144 140.94,-183.36 154.37,-242.3 166.21,-276.88"/>
<polygon fill="black" stroke="black" points="162.89,-277.98 169.59,-286.18 169.47,-275.59 162.89,-277.98"/>
</g>
<!-- matchres -->
<g id="node41" class="node">
<title>matchres</title>
<path fill="none" stroke="black" d="M276.19,-252C276.19,-252 222.77,-252 222.77,-252 216.77,-252 210.77,-246 210.77,-240 210.77,-240 210.77,-228 210.77,-228 210.77,-222 216.77,-216 222.77,-216 222.77,-216 276.19,-216 276.19,-216 282.19,-216 288.19,-222 288.19,-228 288.19,-228 288.19,-240 288.19,-240 288.19,-246 282.19,-252 276.19,-252"/>
<text text-anchor="middle" x="249.48" y="-229.8" font-family="Helvetica,Arial,sans-serif" font-size="14.00">o:matchres</text>
</g>
<!-- matchres&#45;&gt;loaddb -->
<g id="edge72" class="edge">
<title>matchres-&gt;loaddb</title>
<path fill="none" stroke="black" stroke-dasharray="1,5" d="M288.68,-249.21C291.65,-250.19 294.61,-251.13 297.48,-252 353.92,-269.11 420.06,-285.24 462.57,-295.11"/>
<polygon fill="black" stroke="black" points="461.64,-298.48 472.17,-297.32 463.21,-291.66 461.64,-298.48"/>
</g>
<!-- matchres&#45;&gt;fastqmaptransform -->
<g id="edge71" class="edge">
<title>matchres-&gt;fastqmaptransform</title>
<path fill="none" stroke="black" stroke-dasharray="1,5" d="M251.81,-252.41C255.02,-276.39 260.84,-319.86 264.68,-348.58"/>
<polygon fill="black" stroke="black" points="261.2,-348.94 265.99,-358.39 268.14,-348.01 261.2,-348.94"/>
</g>
<!-- matchres&#45;&gt;fastqdownload -->
<g id="edge70" class="edge">
<title>matchres-&gt;fastqdownload</title>
<path fill="none" stroke="black" d="M231.69,-252.3C223.2,-260.55 212.89,-270.57 203.55,-279.65"/>
<polygon fill="black" stroke="black" points="201.14,-277.12 196.41,-286.6 206.02,-282.14 201.14,-277.12"/>
</g>
<!-- match -->
<g id="node42" class="node">
<title>match</title>
<polygon fill="none" stroke="black" stroke-width="2" points="235.86,-180 177.1,-180 177.1,-144 235.86,-144 235.86,-180"/>
<text text-anchor="middle" x="206.48" y="-157.8" font-family="Helvetica,Arial,sans-serif" font-size="14.00">f:match</text>
</g>
<!-- match&#45;&gt;fastqdownload -->
<g id="edge73" class="edge">
<title>match-&gt;fastqdownload</title>
<path fill="none" stroke="black" d="M190.02,-180.08C181.83,-189.78 172.78,-202.63 168.48,-216 162.2,-235.55 164.81,-258.66 168.8,-276.43"/>
<polygon fill="black" stroke="black" points="165.39,-277.21 171.25,-286.03 172.17,-275.48 165.39,-277.21"/>
</g>
<!-- match&#45;&gt;matchres -->
<g id="edge74" class="edge">
<title>match-&gt;matchres</title>
<path fill="none" stroke="black" stroke-dasharray="1,5" d="M217.11,-180.3C221.9,-188.1 227.67,-197.49 233,-206.17"/>
<polygon fill="black" stroke="black" points="229.97,-207.92 238.18,-214.61 235.93,-204.25 229.97,-207.92"/>
</g>
<!-- matchreslr -->
<g id="node43" class="node">
<title>matchreslr</title>
<path fill="none" stroke="black" d="M380.47,-252C380.47,-252 318.5,-252 318.5,-252 312.5,-252 306.5,-246 306.5,-240 306.5,-240 306.5,-228 306.5,-228 306.5,-222 312.5,-216 318.5,-216 318.5,-216 380.47,-216 380.47,-216 386.47,-216 392.47,-222 392.47,-228 392.47,-228 392.47,-240 392.47,-240 392.47,-246 386.47,-252 380.47,-252"/>
<text text-anchor="middle" x="349.48" y="-229.8" font-family="Helvetica,Arial,sans-serif" font-size="14.00">o:matchreslr</text>
</g>
<!-- matchreslr&#45;&gt;loaddb -->
<g id="edge77" class="edge">
<title>matchreslr-&gt;loaddb</title>
<path fill="none" stroke="black" stroke-dasharray="1,5" d="M388.7,-252.48C411.38,-262.6 439.96,-275.34 463.29,-285.74"/>
<polygon fill="black" stroke="black" points="461.65,-288.84 472.21,-289.72 464.5,-282.45 461.65,-288.84"/>
</g>
<!-- matchreslr&#45;&gt;fastqmaptransform -->
<g id="edge76" class="edge">
<title>matchreslr-&gt;fastqmaptransform</title>
<path fill="none" stroke="black" stroke-dasharray="1,5" d="M339.55,-252.41C325.63,-276.82 300.19,-321.42 283.82,-350.11"/>
<polygon fill="black" stroke="black" points="280.91,-348.15 278.99,-358.57 286.99,-351.62 280.91,-348.15"/>
</g>
<!-- matchreslr&#45;&gt;fastqdownload -->
<g id="edge75" class="edge">
<title>matchreslr-&gt;fastqdownload</title>
<path fill="none" stroke="black" d="M306.52,-252.48C283.55,-261.83 255.07,-273.43 230.71,-283.34"/>
<polygon fill="black" stroke="black" points="229.54,-280.04 221.59,-287.05 232.18,-286.52 229.54,-280.04"/>
</g>
<!-- matchlr -->
<g id="node44" class="node">
<title>matchlr</title>
<polygon fill="none" stroke="black" stroke-width="2" points="374.14,-180 306.83,-180 306.83,-144 374.14,-144 374.14,-180"/>
<text text-anchor="middle" x="340.48" y="-157.8" font-family="Helvetica,Arial,sans-serif" font-size="14.00">f:matchlr</text>
</g>
<!-- matchlr&#45;&gt;fastqdownload -->
<g id="edge78" class="edge">
<title>matchlr-&gt;fastqdownload</title>
<path fill="none" stroke="black" d="M306.4,-167.15C274.79,-172.8 228.67,-185.92 201.48,-216 186.62,-232.44 180.82,-257.13 178.62,-276.34"/>
<polygon fill="black" stroke="black" points="175.14,-275.98 177.78,-286.24 182.11,-276.57 175.14,-275.98"/>
</g>
<!-- matchlr&#45;&gt;matchreslr -->
<g id="edge79" class="edge">
<title>matchlr-&gt;matchreslr</title>
<path fill="none" stroke="black" stroke-dasharray="1,5" d="M342.71,-180.3C343.66,-187.68 344.79,-196.48 345.85,-204.75"/>
<polygon fill="black" stroke="black" points="342.34,-204.92 347.09,-214.39 349.29,-204.03 342.34,-204.92"/>
</g>
<!-- krakenres -->
<g id="node45" class="node">
<title>krakenres</title>
<path fill="none" stroke="black" d="M66.97,-252C66.97,-252 12,-252 12,-252 6,-252 0,-246 0,-240 0,-240 0,-228 0,-228 0,-222 6,-216 12,-216 12,-216 66.97,-216 66.97,-216 72.97,-216 78.97,-222 78.97,-228 78.97,-228 78.97,-240 78.97,-240 78.97,-246 72.97,-252 66.97,-252"/>
<text text-anchor="middle" x="39.48" y="-229.8" font-family="Helvetica,Arial,sans-serif" font-size="14.00">f:krakenres</text>
</g>
<!-- krakenres&#45;&gt;taxnodes -->
<g id="edge81" class="edge">
<title>krakenres-&gt;taxnodes</title>
<path fill="none" stroke="black" stroke-dasharray="1,5" d="M39.48,-252.49C39.48,-279.29 39.48,-332.13 39.48,-377 39.48,-377 39.48,-377 39.48,-1099 39.48,-1149.28 83.49,-1191.9 116.81,-1216.96"/>
<polygon fill="black" stroke="black" points="114.52,-1219.62 124.66,-1222.67 118.63,-1213.96 114.52,-1219.62"/>
</g>
<!-- krakenres&#45;&gt;fastqmaptransform -->
<g id="edge82" class="edge">
<title>krakenres-&gt;fastqmaptransform</title>
<path fill="none" stroke="black" stroke-dasharray="1,5" d="M49.62,-252.17C62.23,-272.12 85.52,-304.73 113.48,-324 136.54,-339.88 164.78,-351.39 190.81,-359.53"/>
<polygon fill="black" stroke="black" points="189.78,-362.88 200.36,-362.39 191.78,-356.17 189.78,-362.88"/>
</g>
<!-- krakenres&#45;&gt;fastqdownload -->
<g id="edge80" class="edge">
<title>krakenres-&gt;fastqdownload</title>
<path fill="none" stroke="black" d="M73.95,-252.48C91.95,-261.61 114.18,-272.89 133.41,-282.65"/>
<polygon fill="black" stroke="black" points="131.6,-285.65 142.11,-287.05 134.77,-279.41 131.6,-285.65"/>
</g>
</g>
</svg>