<svg width="611" height="541" viewBox="0 0 458.25 405.75" xmlns="http://www.w3.org/2000/svg" xmlns:xlink="http://www.w3.org/1999/xlink">
<g id="graph0" class="graph" transform="translate(106.80433294404051,404.75307125307125) scale(0.24923218673218672)">
<title>regexp</title>
<polygon fill="white" stroke="none" points="-4,4 -4,-1624 985.58,-1624 985.58,4 -4,4"/>
<!-- showall -->
<g id="node1" class="node">
<title>showall</title>
<polygon fill="none" stroke="black" stroke-width="2" points="59.55,-36 0,-36 0,0 59.55,0 59.55,-36"/>
<text text-anchor="middle" x="29.78" y="-13.8" font-family="Helvetica,Arial,sans-serif" font-size="14.00">showall</text>
</g>
<!-- show -->
<g id="node2" class="node">
<title>show</title>
<polygon fill="none" stroke="black" stroke-width="2" points="131.78,-36 77.78,-36 77.78,0 131.78,0 131.78,-36"/>
<text text-anchor="middle" x="104.78" y="-13.8" font-family="Helvetica,Arial,sans-serif" font-size="14.00">show</text>
</g>
<!-- commonsetup -->
<g id="node3" class="node">
<title>commonsetup</title>
<path fill="none" stroke="black" d="M560.32,-1620C560.32,-1620 481.23,-1620 481.23,-1620 475.23,-1620 469.23,-1614 469.23,-1608 469.23,-1608 469.23,-1596 469.23,-1596 469.23,-1590 475.23,-1584 481.23,-1584 481.23,-1584 560.32,-1584 560.32,-1584 566.32,-1584 572.32,-1590 572.32,-1596 572.32,-1596 572.32,-1608 572.32,-1608 572.32,-1614 566.32,-1620 560.32,-1620"/>
<text text-anchor="middle" x="520.78" y="-1597.8" font-family="Helvetica,Arial,sans-serif" font-size="14.00">f:commonsetup</text>
</g>
<!-- taxdownload -->
<g id="node4" class="node">
<title>taxdownload</title>
<path fill="none" stroke="black" d="M407.38,-1548C407.38,-1548 332.17,-1548 332.17,-1548 326.17,-1548 320.17,-1542 320.17,-1536 320.17,-1536 320.17,-1524 320.17,-1524 320.17,-1518 326.17,-1512 332.17,-1512 332.17,-1512 407.38,-1512 407.38,-1512 413.38,-1512 419.38,-1518 419.38,-1524 419.38,-1524 419.38,-1536 419.38,-1536 419.38,-1542 413.38,-1548 407.38,-1548"/>
<text text-anchor="middle" x="369.78" y="-1525.8" font-family="Helvetica,Arial,sans-serif" font-size="14.00">d:taxdownload</text>
</g>
<!-- taxdownload&#45;&gt;commonsetup -->
<g id="edge1" class="edge">
<title>taxdownload-&gt;commonsetup</title>
<path fill="none" stroke="black" d="M407.49,-1548.48C427.29,-1557.66 451.77,-1569.01 472.9,-1578.8"/>
<polygon fill="black" stroke="black" points="471.36,-1581.95 481.91,-1582.98 474.31,-1575.6 471.36,-1581.95"/>
</g>
<!-- taxtree -->
<g id="node5" class="node">
<title>taxtree</title>
<path fill="none" stroke="black" d="M205.26,-1260C205.26,-1260 164.29,-1260 164.29,-1260 158.29,-1260 152.29,-1254 152.29,-1248 152.29,-1248 152.29,-1236 152.29,-1236 152.29,-1230 158.29,-1224 164.29,-1224 164.29,-1224 205.26,-1224 205.26,-1224 211.26,-1224 217.26,-1230 217.26,-1236 217.26,-1236 217.26,-1248 217.26,-1248 217.26,-1254 211.26,-1260 205.26,-1260"/>
<text text-anchor="middle" x="184.78" y="-1237.8" font-family="Helvetica,Arial,sans-serif" font-size="14.00">o:taxtree</text>
</g>
<!-- taxtree&#45;&gt;taxdownload -->
<g id="edge2" class="edge">
<title>taxtree-&gt;taxdownload</title>
<path fill="none" stroke="black" d="M196.07,-1260.46C227.3,-1308.74 314.98,-1444.29 352.45,-1502.21"/>
<polygon fill="black" stroke="black" points="349.44,-1504 357.81,-1510.5 355.31,-1500.2 349.44,-1504"/>
</g>
<!-- taxnodes -->
<g id="node6" class="node">
<title>taxnodes</title>
<path fill="none" stroke="black" d="M246.1,-1188C246.1,-1188 193.45,-1188 193.45,-1188 187.45,-1188 181.45,-1182 181.45,-1176 181.45,-1176 181.45,-1164 181.45,-1164 181.45,-1158 187.45,-1152 193.45,-1152 193.45,-1152 246.1,-1152 246.1,-1152 252.1,-1152 258.1,-1158 258.1,-1164 258.1,-1164 258.1,-1176 258.1,-1176 258.1,-1182 252.1,-1188 246.1,-1188"/>
<text text-anchor="middle" x="219.78" y="-1165.8" font-family="Helvetica,Arial,sans-serif" font-size="14.00">o:taxnodes</text>
</g>
<!-- taxnodes&#45;&gt;taxtree -->
<g id="edge3" class="edge">
<title>taxnodes-&gt;taxtree</title>
<path fill="none" stroke="black" d="M211.12,-1188.3C207.31,-1195.93 202.73,-1205.08 198.47,-1213.6"/>
<polygon fill="black" stroke="black" points="195.35,-1212.03 194,-1222.54 201.61,-1215.16 195.35,-1212.03"/>
</g>
<!-- refseqrelease -->
<g id="node7" class="node">
<title>refseqrelease</title>
<path fill="none" stroke="black" d="M578.75,-1548C578.75,-1548 502.8,-1548 502.8,-1548 496.8,-1548 490.8,-1542 490.8,-1536 490.8,-1536 490.8,-1524 490.8,-1524 490.8,-1518 496.8,-1512 502.8,-1512 502.8,-1512 578.75,-1512 578.75,-1512 584.75,-1512 590.75,-1518 590.75,-1524 590.75,-1524 590.75,-1536 590.75,-1536 590.75,-1542 584.75,-1548 578.75,-1548"/>
<text text-anchor="middle" x="540.78" y="-1525.8" font-family="Helvetica,Arial,sans-serif" font-size="14.00">d:refseqrelease</text>
</g>
<!-- refseqrelease&#45;&gt;commonsetup -->
<g id="edge4" class="edge">
<title>refseqrelease-&gt;commonsetup</title>
<path fill="none" stroke="black" d="M535.83,-1548.3C533.7,-1555.76 531.15,-1564.68 528.77,-1573.03"/>
<polygon fill="black" stroke="black" points="525.46,-1571.86 526.08,-1582.44 532.19,-1573.79 525.46,-1571.86"/>
</g>
<!-- refseqcat -->
<g id="node8" class="node">
<title>refseqcat</title>
<path fill="none" stroke="black" d="M695.48,-1476C695.48,-1476 642.07,-1476 642.07,-1476 636.07,-1476 630.07,-1470 630.07,-1464 630.07,-1464 630.07,-1452 630.07,-1452 630.07,-1446 636.07,-1440 642.07,-1440 642.07,-1440 695.48,-1440 695.48,-1440 701.48,-1440 707.48,-1446 707.48,-1452 707.48,-1452 707.48,-1464 707.48,-1464 707.48,-1470 701.48,-1476 695.48,-1476"/>
<text text-anchor="middle" x="668.78" y="-1453.8" font-family="Helvetica,Arial,sans-serif" font-size="14.00">d:refseqcat</text>
</g>
<!-- refseqcat&#45;&gt;commonsetup -->
<g id="edge5" class="edge">
<title>refseqcat-&gt;commonsetup</title>
<path fill="none" stroke="black" d="M657.76,-1476.4C645.2,-1495.38 623.36,-1525.98 599.78,-1548 588.14,-1558.87 574.06,-1569.07 561.03,-1577.56"/>
<polygon fill="black" stroke="black" points="559.18,-1574.59 552.61,-1582.9 562.93,-1580.5 559.18,-1574.59"/>
</g>
<!-- refseqcat&#45;&gt;refseqrelease -->
<g id="edge6" class="edge">
<title>refseqcat-&gt;refseqrelease</title>
<path fill="none" stroke="black" d="M636.81,-1476.48C620.34,-1485.49 600.06,-1496.58 582.39,-1506.24"/>
<polygon fill="black" stroke="black" points="580.76,-1503.14 573.67,-1511.01 584.12,-1509.29 580.76,-1503.14"/>
</g>
<!-- checksummap -->
<g id="node9" class="node">
<title>checksummap</title>
<path fill="none" stroke="black" d="M841.26,-1404C841.26,-1404 758.29,-1404 758.29,-1404 752.29,-1404 746.29,-1398 746.29,-1392 746.29,-1392 746.29,-1380 746.29,-1380 746.29,-1374 752.29,-1368 758.29,-1368 758.29,-1368 841.26,-1368 841.26,-1368 847.26,-1368 853.26,-1374 853.26,-1380 853.26,-1380 853.26,-1392 853.26,-1392 853.26,-1398 847.26,-1404 841.26,-1404"/>
<text text-anchor="middle" x="799.78" y="-1381.8" font-family="Helvetica,Arial,sans-serif" font-size="14.00">o:checksummap</text>
</g>
<!-- checksummap&#45;&gt;refseqcat -->
<g id="edge7" class="edge">
<title>checksummap-&gt;refseqcat</title>
<path fill="none" stroke="black" d="M767.06,-1404.48C750.13,-1413.53 729.26,-1424.68 711.12,-1434.38"/>
<polygon fill="black" stroke="black" points="709.58,-1431.23 702.41,-1439.03 712.88,-1437.4 709.58,-1431.23"/>
</g>
<!-- clear -->
<g id="node10" class="node">
<title>clear</title>
<polygon fill="none" stroke="black" stroke-width="2" points="275.78,-36 221.78,-36 221.78,0 275.78,0 275.78,-36"/>
<text text-anchor="middle" x="248.78" y="-13.8" font-family="Helvetica,Arial,sans-serif" font-size="14.00">f:clear</text>
</g>
<!-- categories -->
<g id="node11" class="node">
<title>categories</title>
<path fill="none" stroke="black" d="M634.59,-1404C634.59,-1404 574.96,-1404 574.96,-1404 568.96,-1404 562.96,-1398 562.96,-1392 562.96,-1392 562.96,-1380 562.96,-1380 562.96,-1374 568.96,-1368 574.96,-1368 574.96,-1368 634.59,-1368 634.59,-1368 640.59,-1368 646.59,-1374 646.59,-1380 646.59,-1380 646.59,-1392 646.59,-1392 646.59,-1398 640.59,-1404 634.59,-1404"/>
<text text-anchor="middle" x="604.78" y="-1381.8" font-family="Helvetica,Arial,sans-serif" font-size="14.00">o:categories</text>
</g>
<!-- refseqfna -->
<g id="node12" class="node">
<title>refseqfna</title>
<path fill="none" stroke="black" d="M823.26,-1332C823.26,-1332 768.29,-1332 768.29,-1332 762.29,-1332 756.29,-1326 756.29,-1320 756.29,-1320 756.29,-1308 756.29,-1308 756.29,-1302 762.29,-1296 768.29,-1296 768.29,-1296 823.26,-1296 823.26,-1296 829.26,-1296 835.26,-1302 835.26,-1308 835.26,-1308 835.26,-1320 835.26,-1320 835.26,-1326 829.26,-1332 823.26,-1332"/>
<text text-anchor="middle" x="795.78" y="-1309.8" font-family="Helvetica,Arial,sans-serif" font-size="14.00">d:refseqfna</text>
</g>
<!-- refseqfna&#45;&gt;refseqcat -->
<g id="edge9" class="edge">
<title>refseqfna-&gt;refseqcat</title>
<path fill="none" stroke="black" d="M775.11,-1332.35C763.66,-1342.33 749.43,-1355.37 737.78,-1368 719.46,-1387.86 700.82,-1412.21 687.53,-1430.41"/>
<polygon fill="black" stroke="black" points="684.82,-1428.19 681.81,-1438.34 690.5,-1432.28 684.82,-1428.19"/>
</g>
<!-- refseqfna&#45;&gt;checksummap -->
<g id="edge10" class="edge">
<title>refseqfna-&gt;checksummap</title>
<path fill="none" stroke="black" d="M796.76,-1332.3C797.18,-1339.59 797.68,-1348.27 798.15,-1356.46"/>
<polygon fill="black" stroke="black" points="794.65,-1356.6 798.71,-1366.38 801.64,-1356.2 794.65,-1356.6"/>
</g>
<!-- refseqfna&#45;&gt;categories -->
<g id="edge8" class="edge">
<title>refseqfna-&gt;categories</title>
<path fill="none" stroke="black" d="M756.2,-1329.5C727.66,-1339.96 688.83,-1354.2 657.64,-1365.63"/>
<polygon fill="black" stroke="black" points="656.56,-1362.3 648.37,-1369.02 658.97,-1368.87 656.56,-1362.3"/>
</g>
<!-- accmapsize -->
<g id="node13" class="node">
<title>accmapsize</title>
<path fill="none" stroke="black" d="M712.48,-1260C712.48,-1260 645.08,-1260 645.08,-1260 639.08,-1260 633.08,-1254 633.08,-1248 633.08,-1248 633.08,-1236 633.08,-1236 633.08,-1230 639.08,-1224 645.08,-1224 645.08,-1224 712.48,-1224 712.48,-1224 718.48,-1224 724.48,-1230 724.48,-1236 724.48,-1236 724.48,-1248 724.48,-1248 724.48,-1254 718.48,-1260 712.48,-1260"/>
<text text-anchor="middle" x="678.78" y="-1237.8" font-family="Helvetica,Arial,sans-serif" font-size="14.00">o:accmapsize</text>
</g>
<!-- accmapsize&#45;&gt;refseqcat -->
<g id="edge12" class="edge">
<title>accmapsize-&gt;refseqcat</title>
<path fill="none" stroke="black" d="M677.97,-1260.15C676.26,-1296.86 672.22,-1383.34 670.11,-1428.47"/>
<polygon fill="black" stroke="black" points="666.62,-1428.1 669.65,-1438.26 673.61,-1428.43 666.62,-1428.1"/>
</g>
<!-- accmapsize&#45;&gt;categories -->
<g id="edge11" class="edge">
<title>accmapsize-&gt;categories</title>
<path fill="none" stroke="black" d="M669.7,-1260.41C657.04,-1284.71 633.95,-1329.03 618.99,-1357.73"/>
<polygon fill="black" stroke="black" points="615.91,-1356.06 614.39,-1366.55 622.12,-1359.3 615.91,-1356.06"/>
</g>
<!-- accmapsize&#45;&gt;refseqfna -->
<g id="edge13" class="edge">
<title>accmapsize-&gt;refseqfna</title>
<path fill="none" stroke="black" d="M708,-1260.48C722.91,-1269.4 741.24,-1280.37 757.28,-1289.97"/>
<polygon fill="black" stroke="black" points="755.25,-1292.83 765.63,-1294.96 758.84,-1286.82 755.25,-1292.83"/>
</g>
<!-- accmap -->
<g id="node14" class="node">
<title>accmap</title>
<path fill="none" stroke="black" d="M724.59,-1188C724.59,-1188 678.96,-1188 678.96,-1188 672.96,-1188 666.96,-1182 666.96,-1176 666.96,-1176 666.96,-1164 666.96,-1164 666.96,-1158 672.96,-1152 678.96,-1152 678.96,-1152 724.59,-1152 724.59,-1152 730.59,-1152 736.59,-1158 736.59,-1164 736.59,-1164 736.59,-1176 736.59,-1176 736.59,-1182 730.59,-1188 724.59,-1188"/>
<text text-anchor="middle" x="701.78" y="-1165.8" font-family="Helvetica,Arial,sans-serif" font-size="14.00">o:accmap</text>
</g>
<!-- accmap&#45;&gt;refseqcat -->
<g id="edge15" class="edge">
<title>accmap-&gt;refseqcat</title>
<path fill="none" stroke="black" d="M666.64,-1182.88C646.1,-1191.43 621.08,-1204.86 604.78,-1224 560.75,-1275.69 565.28,-1301.09 553.78,-1368 551.07,-1383.77 545.15,-1390.53 553.78,-1404 568.22,-1426.56 594.96,-1439.65 619.03,-1447.17"/>
<polygon fill="black" stroke="black" points="617.81,-1450.47 628.39,-1449.84 619.73,-1443.73 617.81,-1450.47"/>
</g>
<!-- accmap&#45;&gt;categories -->
<g id="edge14" class="edge">
<title>accmap-&gt;categories</title>
<path fill="none" stroke="black" d="M666.55,-1186.43C650.86,-1195.15 633.72,-1207.63 623.78,-1224 599.06,-1264.71 598.71,-1321.95 601.32,-1356.07"/>
<polygon fill="black" stroke="black" points="597.84,-1356.38 602.24,-1366.02 604.81,-1355.74 597.84,-1356.38"/>
</g>
<!-- accmap&#45;&gt;refseqfna -->
<g id="edge16" class="edge">
<title>accmap-&gt;refseqfna</title>
<path fill="none" stroke="black" d="M729.94,-1188.48C742.74,-1197.67 757.14,-1209.95 766.78,-1224 779.21,-1242.14 786.6,-1265.98 790.81,-1284.42"/>
<polygon fill="black" stroke="black" points="787.37,-1285.08 792.83,-1294.16 794.23,-1283.66 787.37,-1285.08"/>
</g>
<!-- accmap&#45;&gt;accmapsize -->
<g id="edge17" class="edge">
<title>accmap-&gt;accmapsize</title>
<path fill="none" stroke="black" d="M696.09,-1188.3C693.64,-1195.76 690.71,-1204.68 687.96,-1213.03"/>
<polygon fill="black" stroke="black" points="684.66,-1211.86 684.87,-1222.46 691.32,-1214.05 684.66,-1211.86"/>
</g>
<!-- taxfromgenbank -->
<g id="node15" class="node">
<title>taxfromgenbank</title>
<path fill="none" stroke="black" d="M587.09,-1116C587.09,-1116 492.46,-1116 492.46,-1116 486.46,-1116 480.46,-1110 480.46,-1104 480.46,-1104 480.46,-1092 480.46,-1092 480.46,-1086 486.46,-1080 492.46,-1080 492.46,-1080 587.09,-1080 587.09,-1080 593.09,-1080 599.09,-1086 599.09,-1092 599.09,-1092 599.09,-1104 599.09,-1104 599.09,-1110 593.09,-1116 587.09,-1116"/>
<text text-anchor="middle" x="539.78" y="-1093.8" font-family="Helvetica,Arial,sans-serif" font-size="14.00">o:taxfromgenbank</text>
</g>
<!-- taxfromgenbank&#45;&gt;taxnodes -->
<g id="edge19" class="edge">
<title>taxfromgenbank-&gt;taxnodes</title>
<path fill="none" stroke="black" d="M479.96,-1112.08C419.21,-1125.37 326.2,-1145.72 269.4,-1158.15"/>
<polygon fill="black" stroke="black" points="268.69,-1154.72 259.67,-1160.27 270.19,-1161.55 268.69,-1154.72"/>
</g>
<!-- taxfromgenbank&#45;&gt;categories -->
<g id="edge18" class="edge">
<title>taxfromgenbank-&gt;categories</title>
<path fill="none" stroke="black" d="M536.76,-1116.33C530.63,-1156.35 519.88,-1257.51 552.78,-1332 557.34,-1342.33 564.86,-1351.79 572.79,-1359.77"/>
<polygon fill="black" stroke="black" points="570.29,-1362.23 579.99,-1366.5 575.07,-1357.11 570.29,-1362.23"/>
</g>
<!-- taxfromgenbank&#45;&gt;refseqfna -->
<g id="edge20" class="edge">
<title>taxfromgenbank-&gt;refseqfna</title>
<path fill="none" stroke="black" d="M560.18,-1116.43C583.01,-1135.44 621.56,-1166.08 657.78,-1188 689.75,-1207.35 705.25,-1199.85 733.78,-1224 754.03,-1241.14 770.77,-1266.38 781.73,-1285.6"/>
<polygon fill="black" stroke="black" points="778.6,-1287.17 786.48,-1294.25 784.73,-1283.8 778.6,-1287.17"/>
</g>
<!-- taxfromgenbank&#45;&gt;accmap -->
<g id="edge21" class="edge">
<title>taxfromgenbank-&gt;accmap</title>
<path fill="none" stroke="black" d="M580.24,-1116.48C603.24,-1126.42 632.11,-1138.9 655.95,-1149.2"/>
<polygon fill="black" stroke="black" points="654.54,-1152.4 665.11,-1153.16 657.32,-1145.98 654.54,-1152.4"/>
</g>
<!-- assemblydownload -->
<g id="node16" class="node">
<title>assemblydownload</title>
<path fill="none" stroke="black" d="M504.88,-1476C504.88,-1476 394.67,-1476 394.67,-1476 388.67,-1476 382.67,-1470 382.67,-1464 382.67,-1464 382.67,-1452 382.67,-1452 382.67,-1446 388.67,-1440 394.67,-1440 394.67,-1440 504.88,-1440 504.88,-1440 510.88,-1440 516.88,-1446 516.88,-1452 516.88,-1452 516.88,-1464 516.88,-1464 516.88,-1470 510.88,-1476 504.88,-1476"/>
<text text-anchor="middle" x="449.78" y="-1453.8" font-family="Helvetica,Arial,sans-serif" font-size="14.00">d:assemblydownload</text>
</g>
<!-- assemblydownload&#45;&gt;commonsetup -->
<g id="edge22" class="edge">
<title>assemblydownload-&gt;commonsetup</title>
<path fill="none" stroke="black" d="M454.39,-1476.35C459.65,-1494.76 469.19,-1524.38 481.78,-1548 486.64,-1557.13 492.95,-1566.43 499.06,-1574.64"/>
<polygon fill="black" stroke="black" points="496.25,-1576.73 505.13,-1582.51 501.79,-1572.45 496.25,-1576.73"/>
</g>
<!-- fastasgenbank -->
<g id="node17" class="node">
<title>fastasgenbank</title>
<path fill="none" stroke="black" d="M455.87,-1044C455.87,-1044 373.68,-1044 373.68,-1044 367.68,-1044 361.68,-1038 361.68,-1032 361.68,-1032 361.68,-1020 361.68,-1020 361.68,-1014 367.68,-1008 373.68,-1008 373.68,-1008 455.87,-1008 455.87,-1008 461.87,-1008 467.87,-1014 467.87,-1020 467.87,-1020 467.87,-1032 467.87,-1032 467.87,-1038 461.87,-1044 455.87,-1044"/>
<text text-anchor="middle" x="414.78" y="-1021.8" font-family="Helvetica,Arial,sans-serif" font-size="14.00">o:fastasgenbank</text>
</g>
<!-- fastasgenbank&#45;&gt;taxtree -->
<g id="edge23" class="edge">
<title>fastasgenbank-&gt;taxtree</title>
<path fill="none" stroke="black" d="M401.33,-1044.31C376.73,-1075.33 321.92,-1141.49 266.78,-1188 254.05,-1198.73 239.03,-1209.02 225.34,-1217.64"/>
<polygon fill="black" stroke="black" points="223.63,-1214.58 216.95,-1222.8 227.3,-1220.54 223.63,-1214.58"/>
</g>
<!-- fastasgenbank&#45;&gt;taxfromgenbank -->
<g id="edge24" class="edge">
<title>fastasgenbank-&gt;taxfromgenbank</title>
<path fill="none" stroke="black" d="M446,-1044.48C462.08,-1053.49 481.88,-1064.58 499.13,-1074.24"/>
<polygon fill="black" stroke="black" points="497.2,-1077.17 507.63,-1079 500.62,-1071.06 497.2,-1077.17"/>
</g>
<!-- fastasgenbank&#45;&gt;assemblydownload -->
<g id="edge25" class="edge">
<title>fastasgenbank-&gt;assemblydownload</title>
<path fill="none" stroke="black" d="M414.78,-1044.49C414.78,-1071.29 414.78,-1124.13 414.78,-1169 414.78,-1169 414.78,-1169 414.78,-1315 414.78,-1355.62 428.44,-1400.92 438.69,-1429.19"/>
<polygon fill="black" stroke="black" points="435.37,-1430.3 442.16,-1438.43 441.93,-1427.84 435.37,-1430.3"/>
</g>
<!-- fastasgenbankdl -->
<g id="node18" class="node">
<title>fastasgenbankdl</title>
<path fill="none" stroke="black" d="M522.32,-972C522.32,-972 429.23,-972 429.23,-972 423.23,-972 417.23,-966 417.23,-960 417.23,-960 417.23,-948 417.23,-948 417.23,-942 423.23,-936 429.23,-936 429.23,-936 522.32,-936 522.32,-936 528.32,-936 534.32,-942 534.32,-948 534.32,-948 534.32,-960 534.32,-960 534.32,-966 528.32,-972 522.32,-972"/>
<text text-anchor="middle" x="475.78" y="-949.8" font-family="Helvetica,Arial,sans-serif" font-size="14.00">d:fastasgenbankdl</text>
</g>
<!-- fastasgenbankdl&#45;&gt;fastasgenbank -->
<g id="edge26" class="edge">
<title>fastasgenbankdl-&gt;fastasgenbank</title>
<path fill="none" stroke="black" d="M460.7,-972.3C453.61,-980.44 445,-990.31 437.17,-999.3"/>
<polygon fill="black" stroke="black" points="434.61,-996.92 430.68,-1006.75 439.88,-1001.51 434.61,-996.92"/>
</g>
<!-- adddownloads -->
<g id="node19" class="node">
<title>adddownloads</title>
<path fill="none" stroke="black" d="M348.66,-972C348.66,-972 264.89,-972 264.89,-972 258.89,-972 252.89,-966 252.89,-960 252.89,-960 252.89,-948 252.89,-948 252.89,-942 258.89,-936 264.89,-936 264.89,-936 348.66,-936 348.66,-936 354.66,-936 360.66,-942 360.66,-948 360.66,-948 360.66,-960 360.66,-960 360.66,-966 354.66,-972 348.66,-972"/>
<text text-anchor="middle" x="306.78" y="-949.8" font-family="Helvetica,Arial,sans-serif" font-size="14.00">d:adddownloads</text>
</g>
<!-- addfastas -->
<g id="node20" class="node">
<title>addfastas</title>
<path fill="none" stroke="black" d="M443.27,-900C443.27,-900 388.29,-900 388.29,-900 382.29,-900 376.29,-894 376.29,-888 376.29,-888 376.29,-876 376.29,-876 376.29,-870 382.29,-864 388.29,-864 388.29,-864 443.27,-864 443.27,-864 449.27,-864 455.27,-870 455.27,-876 455.27,-876 455.27,-888 455.27,-888 455.27,-894 449.27,-900 443.27,-900"/>
<text text-anchor="middle" x="415.78" y="-877.8" font-family="Helvetica,Arial,sans-serif" font-size="14.00">o:addfastas</text>
</g>
<!-- addfastas&#45;&gt;taxtree -->
<g id="edge28" class="edge">
<title>addfastas-&gt;taxtree</title>
<path fill="none" stroke="black" d="M376.04,-885.03C337.36,-889.11 279.34,-901.09 243.78,-936 171.66,-1006.79 188.75,-1052.22 172.78,-1152 169.55,-1172.14 172.76,-1194.93 176.66,-1212.41"/>
<polygon fill="black" stroke="black" points="173.25,-1213.22 179.04,-1222.1 180.05,-1211.55 173.25,-1213.22"/>
</g>
<!-- addfastas&#45;&gt;fastasgenbank -->
<g id="edge29" class="edge">
<title>addfastas-&gt;fastasgenbank</title>
<path fill="none" stroke="black" d="M412.53,-900.11C410.73,-910.46 408.68,-923.94 407.78,-936 406.58,-951.96 406.73,-956.03 407.78,-972 408.3,-980 409.27,-988.62 410.32,-996.55"/>
<polygon fill="black" stroke="black" points="406.84,-996.97 411.72,-1006.37 413.77,-995.98 406.84,-996.97"/>
</g>
<!-- addfastas&#45;&gt;fastasgenbankdl -->
<g id="edge30" class="edge">
<title>addfastas-&gt;fastasgenbankdl</title>
<path fill="none" stroke="black" d="M430.61,-900.3C437.58,-908.44 446.04,-918.31 453.75,-927.3"/>
<polygon fill="black" stroke="black" points="450.96,-929.43 460.13,-934.75 456.28,-924.88 450.96,-929.43"/>
</g>
<!-- addfastas&#45;&gt;adddownloads -->
<g id="edge27" class="edge">
<title>addfastas-&gt;adddownloads</title>
<path fill="none" stroke="black" d="M388.55,-900.48C374.79,-909.32 357.91,-920.16 343.06,-929.7"/>
<polygon fill="black" stroke="black" points="341.45,-926.57 334.93,-934.92 345.23,-932.46 341.45,-926.57"/>
</g>
<!-- fillsize -->
<g id="node21" class="node">
<title>fillsize</title>
<path fill="none" stroke="black" d="M675.27,-828C675.27,-828 634.28,-828 634.28,-828 628.28,-828 622.28,-822 622.28,-816 622.28,-816 622.28,-804 622.28,-804 622.28,-798 628.28,-792 634.28,-792 634.28,-792 675.27,-792 675.27,-792 681.27,-792 687.27,-798 687.27,-804 687.27,-804 687.27,-816 687.27,-816 687.27,-822 681.27,-828 675.27,-828"/>
<text text-anchor="middle" x="654.78" y="-805.8" font-family="Helvetica,Arial,sans-serif" font-size="14.00">o:fillsize</text>
</g>
<!-- fillsize&#45;&gt;taxnodes -->
<g id="edge32" class="edge">
<title>fillsize-&gt;taxnodes</title>
<path fill="none" stroke="black" d="M644.2,-828.03C625.31,-858.06 583.95,-921.97 543.78,-972 516.41,-1006.08 511.91,-1018 476.78,-1044 410.92,-1092.73 323.09,-1130.6 269.04,-1151.35"/>
<polygon fill="black" stroke="black" points="267.9,-1148.04 259.79,-1154.86 270.38,-1154.59 267.9,-1148.04"/>
</g>
<!-- fillsize&#45;&gt;categories -->
<g id="edge31" class="edge">
<title>fillsize-&gt;categories</title>
<path fill="none" stroke="black" d="M651.54,-828.42C646.86,-855.13 638.78,-907.85 638.78,-953 638.78,-953 638.78,-953 638.78,-1099 638.78,-1156.57 615.93,-1167.52 604.78,-1224 598.53,-1255.64 597.78,-1263.81 595.78,-1296 594.78,-1311.97 594.43,-1316.06 595.78,-1332 596.45,-1340.03 597.7,-1348.67 599.05,-1356.6"/>
<polygon fill="black" stroke="black" points="595.6,-1357.21 600.85,-1366.42 602.49,-1355.95 595.6,-1357.21"/>
</g>
<!-- fillsize&#45;&gt;refseqfna -->
<g id="edge33" class="edge">
<title>fillsize-&gt;refseqfna</title>
<path fill="none" stroke="black" d="M677.51,-828.49C706.46,-852.93 752.78,-900.28 752.78,-953 752.78,-953 752.78,-953 752.78,-1027 752.78,-1116.01 777.27,-1135.74 788.78,-1224 791.38,-1244.01 793.15,-1266.68 794.26,-1284.14"/>
<polygon fill="black" stroke="black" points="790.76,-1284.26 794.84,-1294.04 797.74,-1283.85 790.76,-1284.26"/>
</g>
<!-- fillsize&#45;&gt;accmap -->
<g id="edge34" class="edge">
<title>fillsize-&gt;accmap</title>
<path fill="none" stroke="black" d="M659.23,-828.35C665.66,-854.98 676.78,-907.6 676.78,-953 676.78,-953 676.78,-953 676.78,-1027 676.78,-1066.86 686.45,-1112.08 693.76,-1140.57"/>
<polygon fill="black" stroke="black" points="690.38,-1141.46 696.33,-1150.22 697.14,-1139.66 690.38,-1141.46"/>
</g>
<!-- fillsize&#45;&gt;addfastas -->
<g id="edge35" class="edge">
<title>fillsize-&gt;addfastas</title>
<path fill="none" stroke="black" d="M621.98,-823.51C617.56,-825.08 613.07,-826.62 608.78,-828 561.05,-843.34 505.83,-858.22 466.71,-868.29"/>
<polygon fill="black" stroke="black" points="465.91,-864.88 457.09,-870.75 467.64,-871.66 465.91,-864.88"/>
</g>
<!-- tempindex -->
<g id="node22" class="node">
<title>tempindex</title>
<path fill="none" stroke="black" d="M672.77,-756C672.77,-756 610.78,-756 610.78,-756 604.78,-756 598.78,-750 598.78,-744 598.78,-744 598.78,-732 598.78,-732 598.78,-726 604.78,-720 610.78,-720 610.78,-720 672.77,-720 672.77,-720 678.77,-720 684.77,-726 684.77,-732 684.77,-732 684.77,-744 684.77,-744 684.77,-750 678.77,-756 672.77,-756"/>
<text text-anchor="middle" x="641.78" y="-733.8" font-family="Helvetica,Arial,sans-serif" font-size="14.00">o:tempindex</text>
</g>
<!-- tempindex&#45;&gt;taxnodes -->
<g id="edge36" class="edge">
<title>tempindex-&gt;taxnodes</title>
<path fill="none" stroke="black" d="M598.33,-744.38C491.53,-758.82 224.78,-802.71 224.78,-881 224.78,-881 224.78,-881 224.78,-1027 224.78,-1066.28 222.84,-1111.64 221.38,-1140.32"/>
<polygon fill="black" stroke="black" points="217.9,-1139.84 220.87,-1150.01 224.89,-1140.21 217.9,-1139.84"/>
</g>
<!-- tempindex&#45;&gt;refseqfna -->
<g id="edge37" class="edge">
<title>tempindex-&gt;refseqfna</title>
<path fill="none" stroke="black" d="M682.1,-756.32C726.22,-778.32 790.78,-820.79 790.78,-881 790.78,-881 790.78,-881 790.78,-1027 790.78,-1130.74 813.49,-1156.62 804.78,-1260 804.1,-1268.03 802.86,-1276.67 801.5,-1284.6"/>
<polygon fill="black" stroke="black" points="798.06,-1283.95 799.7,-1294.42 804.95,-1285.21 798.06,-1283.95"/>
</g>
<!-- tempindex&#45;&gt;accmap -->
<g id="edge38" class="edge">
<title>tempindex-&gt;accmap</title>
<path fill="none" stroke="black" d="M664.88,-756.28C675.84,-765.68 688.18,-778.19 695.78,-792 715.26,-827.45 714.78,-840.55 714.78,-881 714.78,-881 714.78,-881 714.78,-1027 714.78,-1066.42 709.75,-1111.75 705.94,-1140.38"/>
<polygon fill="black" stroke="black" points="702.51,-1139.68 704.61,-1150.06 709.44,-1140.63 702.51,-1139.68"/>
</g>
<!-- tempindex&#45;&gt;addfastas -->
<g id="edge40" class="edge">
<title>tempindex-&gt;addfastas</title>
<path fill="none" stroke="black" d="M614.06,-756.41C573.63,-781.82 498.36,-829.11 453.09,-857.56"/>
<polygon fill="black" stroke="black" points="451.25,-854.58 444.64,-862.86 454.97,-860.51 451.25,-854.58"/>
</g>
<!-- tempindex&#45;&gt;fillsize -->
<g id="edge39" class="edge">
<title>tempindex-&gt;fillsize</title>
<path fill="none" stroke="black" d="M644.99,-756.3C646.36,-763.68 647.99,-772.48 649.53,-780.75"/>
<polygon fill="black" stroke="black" points="646.06,-781.21 651.32,-790.41 652.94,-779.94 646.06,-781.21"/>
</g>
<!-- filldb -->
<g id="node23" class="node">
<title>filldb</title>
<path fill="none" stroke="black" d="M530.39,-684C530.39,-684 497.17,-684 497.17,-684 491.17,-684 485.17,-678 485.17,-672 485.17,-672 485.17,-660 485.17,-660 485.17,-654 491.17,-648 497.17,-648 497.17,-648 530.39,-648 530.39,-648 536.39,-648 542.39,-654 542.39,-660 542.39,-660 542.39,-672 542.39,-672 542.39,-678 536.39,-684 530.39,-684"/>
<text text-anchor="middle" x="513.78" y="-661.8" font-family="Helvetica,Arial,sans-serif" font-size="14.00">o:filldb</text>
</g>
<!-- filldb&#45;&gt;taxtree -->
<g id="edge46" class="edge">
<title>filldb-&gt;taxtree</title>
<path fill="none" stroke="black" d="M484.84,-667.58C386.73,-671.21 72.78,-697.18 72.78,-881 72.78,-881 72.78,-881 72.78,-1099 72.78,-1149.08 116.25,-1191.88 149.03,-1217.03"/>
<polygon fill="black" stroke="black" points="146.62,-1219.6 156.73,-1222.74 150.79,-1213.97 146.62,-1219.6"/>
</g>
<!-- filldb&#45;&gt;taxnodes -->
<g id="edge42" class="edge">
<title>filldb-&gt;taxnodes</title>
<path fill="none" stroke="black" d="M484.89,-674.68C420.36,-693.71 266.56,-749.95 220.78,-864 182.55,-959.22 201.62,-1085.05 213.15,-1140.58"/>
<polygon fill="black" stroke="black" points="209.69,-1141.12 215.22,-1150.15 216.53,-1139.64 209.69,-1141.12"/>
</g>
<!-- filldb&#45;&gt;categories -->
<g id="edge41" class="edge">
<title>filldb-&gt;categories</title>
<path fill="none" stroke="black" d="M520.04,-684.32C536.19,-731.58 575.77,-866.33 543.78,-972 527.06,-1027.21 488.49,-1024.79 471.78,-1080 467.14,-1095.31 469.41,-1100.18 471.78,-1116 486.61,-1215.28 481.18,-1249.1 537.78,-1332 545.28,-1342.99 555.75,-1352.79 566.19,-1360.88"/>
<polygon fill="black" stroke="black" points="563.93,-1363.55 574.06,-1366.64 568.06,-1357.91 563.93,-1363.55"/>
</g>
<!-- filldb&#45;&gt;refseqfna -->
<g id="edge43" class="edge">
<title>filldb-&gt;refseqfna</title>
<path fill="none" stroke="black" d="M542.59,-669.14C608.51,-674.5 767.98,-690.25 811.78,-720 850.24,-746.13 866.78,-762.5 866.78,-809 866.78,-809 866.78,-809 866.78,-955 866.78,-1092.16 858.87,-1128.53 819.78,-1260 817.24,-1268.52 813.61,-1277.45 809.94,-1285.49"/>
<polygon fill="black" stroke="black" points="806.83,-1283.9 805.67,-1294.43 813.14,-1286.92 806.83,-1283.9"/>
</g>
<!-- filldb&#45;&gt;accmap -->
<g id="edge44" class="edge">
<title>filldb-&gt;accmap</title>
<path fill="none" stroke="black" d="M542.85,-666.94C620.83,-668.47 828.78,-684.23 828.78,-809 828.78,-809 828.78,-809 828.78,-1027 828.78,-1079.22 780.47,-1121.04 743.44,-1145.43"/>
<polygon fill="black" stroke="black" points="741.66,-1142.41 735.1,-1150.73 745.42,-1148.32 741.66,-1142.41"/>
</g>
<!-- filldb&#45;&gt;addfastas -->
<g id="edge47" class="edge">
<title>filldb-&gt;addfastas</title>
<path fill="none" stroke="black" d="M505.92,-684.15C489.01,-721.09 449,-808.45 428.45,-853.33"/>
<polygon fill="black" stroke="black" points="425.28,-851.84 424.3,-862.39 431.64,-854.76 425.28,-851.84"/>
</g>
<!-- filldb&#45;&gt;tempindex -->
<g id="edge45" class="edge">
<title>filldb-&gt;tempindex</title>
<path fill="none" stroke="black" d="M542.82,-682.88C559.75,-692.14 581.38,-703.97 600.1,-714.21"/>
<polygon fill="black" stroke="black" points="598.37,-717.25 608.83,-718.98 601.73,-711.11 598.37,-717.25"/>
</g>
<!-- tempdb -->
<g id="node24" class="node">
<title>tempdb</title>
<path fill="none" stroke="black" d="M474.05,-612C474.05,-612 431.5,-612 431.5,-612 425.5,-612 419.5,-606 419.5,-600 419.5,-600 419.5,-588 419.5,-588 419.5,-582 425.5,-576 431.5,-576 431.5,-576 474.05,-576 474.05,-576 480.05,-576 486.05,-582 486.05,-588 486.05,-588 486.05,-600 486.05,-600 486.05,-606 480.05,-612 474.05,-612"/>
<text text-anchor="middle" x="452.78" y="-589.8" font-family="Helvetica,Arial,sans-serif" font-size="14.00">f:tempdb</text>
</g>
<!-- tempdb&#45;&gt;filldb -->
<g id="edge48" class="edge">
<title>tempdb-&gt;filldb</title>
<path fill="none" stroke="black" d="M467.85,-612.3C474.95,-620.44 483.55,-630.31 491.38,-639.3"/>
<polygon fill="black" stroke="black" points="488.67,-641.51 497.88,-646.75 493.95,-636.92 488.67,-641.51"/>
</g>
<!-- loadtempdb -->
<g id="node25" class="node">
<title>loadtempdb</title>
<path fill="none" stroke="black" d="M518.27,-540C518.27,-540 449.28,-540 449.28,-540 443.28,-540 437.28,-534 437.28,-528 437.28,-528 437.28,-516 437.28,-516 437.28,-510 443.28,-504 449.28,-504 449.28,-504 518.27,-504 518.27,-504 524.27,-504 530.27,-510 530.27,-516 530.27,-516 530.27,-528 530.27,-528 530.27,-534 524.27,-540 518.27,-540"/>
<text text-anchor="middle" x="483.78" y="-517.8" font-family="Helvetica,Arial,sans-serif" font-size="14.00">o:loadtempdb</text>
</g>
<!-- loadtempdb&#45;&gt;filldb -->
<g id="edge50" class="edge">
<title>loadtempdb-&gt;filldb</title>
<path fill="none" stroke="black" stroke-dasharray="1,5" d="M487.45,-540.41C492.54,-564.5 501.79,-608.25 507.85,-636.97"/>
<polygon fill="black" stroke="black" points="504.36,-637.35 509.85,-646.41 511.21,-635.9 504.36,-637.35"/>
</g>
<!-- loadtempdb&#45;&gt;tempdb -->
<g id="edge49" class="edge">
<title>loadtempdb-&gt;tempdb</title>
<path fill="none" stroke="black" d="M476.11,-540.3C472.73,-547.93 468.68,-557.08 464.91,-565.6"/>
<polygon fill="black" stroke="black" points="461.81,-563.95 460.96,-574.51 468.21,-566.79 461.81,-563.95"/>
</g>
<!-- updatedb -->
<g id="node26" class="node">
<title>updatedb</title>
<path fill="none" stroke="black" d="M510.88,-468C510.88,-468 456.67,-468 456.67,-468 450.67,-468 444.67,-462 444.67,-456 444.67,-456 444.67,-444 444.67,-444 444.67,-438 450.67,-432 456.67,-432 456.67,-432 510.88,-432 510.88,-432 516.88,-432 522.88,-438 522.88,-444 522.88,-444 522.88,-456 522.88,-456 522.88,-462 516.88,-468 510.88,-468"/>
<text text-anchor="middle" x="483.78" y="-445.8" font-family="Helvetica,Arial,sans-serif" font-size="14.00">o:updatedb</text>
</g>
<!-- updatedb&#45;&gt;taxtree -->
<g id="edge53" class="edge">
<title>updatedb-&gt;taxtree</title>
<path fill="none" stroke="black" d="M444.32,-451.73C334.76,-456.03 34.78,-484.31 34.78,-665 34.78,-665 34.78,-665 34.78,-1099 34.78,-1144.37 52.3,-1156.31 84.78,-1188 100.91,-1203.75 122.68,-1216.03 141.78,-1224.78"/>
<polygon fill="black" stroke="black" points="140.11,-1227.87 150.68,-1228.68 142.92,-1221.46 140.11,-1227.87"/>
</g>
<!-- updatedb&#45;&gt;categories -->
<g id="edge52" class="edge">
<title>updatedb-&gt;categories</title>
<path fill="none" stroke="black" d="M523.32,-450.54C589.68,-451.17 726.47,-458.48 830.78,-504 889.05,-529.43 942.78,-529.42 942.78,-593 942.78,-593 942.78,-593 942.78,-1027 942.78,-1169.52 949.25,-1236.16 843.78,-1332 816.98,-1356.35 719.97,-1371.77 658.09,-1379.35"/>
<polygon fill="black" stroke="black" points="657.99,-1375.84 648.47,-1380.5 658.81,-1382.79 657.99,-1375.84"/>
</g>
<!-- updatedb&#45;&gt;refseqfna -->
<g id="edge54" class="edge">
<title>updatedb-&gt;refseqfna</title>
<path fill="none" stroke="black" d="M523.21,-452.9C630.89,-458.43 924.1,-475.94 956.78,-504 987.86,-530.69 980.78,-552.03 980.78,-593 980.78,-593 980.78,-593 980.78,-1027 980.78,-1139.36 878.86,-1242.48 826.32,-1288.18"/>
<polygon fill="black" stroke="black" points="824.2,-1285.39 818.87,-1294.54 828.75,-1290.71 824.2,-1285.39"/>
</g>
<!-- updatedb&#45;&gt;accmap -->
<g id="edge55" class="edge">
<title>updatedb-&gt;accmap</title>
<path fill="none" stroke="black" d="M523,-455.69C627.52,-469.28 904.78,-512.88 904.78,-593 904.78,-593 904.78,-593 904.78,-955 904.78,-1037.86 871.55,-1059.67 810.78,-1116 792.84,-1132.63 768.72,-1145.08 747.73,-1153.72"/>
<polygon fill="black" stroke="black" points="746.52,-1150.44 738.49,-1157.35 749.08,-1156.95 746.52,-1150.44"/>
</g>
<!-- updatedb&#45;&gt;addfastas -->
<g id="edge51" class="edge">
<title>updatedb-&gt;addfastas</title>
<path fill="none" stroke="black" d="M444.54,-459.85C386.05,-475.63 282.78,-514.6 282.78,-593 282.78,-593 282.78,-593 282.78,-739 282.78,-792.25 333.21,-833.76 371.96,-857.8"/>
<polygon fill="black" stroke="black" points="369.85,-860.62 380.23,-862.76 373.45,-854.61 369.85,-860.62"/>
</g>
<!-- updatedb&#45;&gt;loadtempdb -->
<g id="edge56" class="edge">
<title>updatedb-&gt;loadtempdb</title>
<path fill="none" stroke="black" d="M483.78,-468.3C483.78,-475.59 483.78,-484.27 483.78,-492.46"/>
<polygon fill="black" stroke="black" points="480.28,-492.38 483.78,-502.38 487.28,-492.38 480.28,-492.38"/>
</g>
<!-- db -->
<g id="node27" class="node">
<title>db</title>
<polygon fill="none" stroke="black" stroke-width="2" points="455.78,-396 401.78,-396 401.78,-360 455.78,-360 455.78,-396"/>
<text text-anchor="middle" x="428.78" y="-373.8" font-family="Helvetica,Arial,sans-serif" font-size="14.00">f:db</text>
</g>
<!-- db&#45;&gt;tempdb -->
<g id="edge57" class="edge">
<title>db-&gt;tempdb</title>
<path fill="none" stroke="black" d="M426.43,-396.17C422.89,-425.88 417.69,-488.63 428.78,-540 430.62,-548.55 433.97,-557.39 437.58,-565.33"/>
<polygon fill="black" stroke="black" points="434.36,-566.71 441.91,-574.14 440.65,-563.62 434.36,-566.71"/>
</g>
<!-- db&#45;&gt;updatedb -->
<g id="edge58" class="edge">
<title>db-&gt;updatedb</title>
<path fill="none" stroke="black" d="M442.37,-396.3C448.7,-404.36 456.36,-414.11 463.36,-423.02"/>
<polygon fill="black" stroke="black" points="460.47,-425 469.4,-430.71 465.98,-420.68 460.47,-425"/>
</g>
<!-- loaddb -->
<g id="node28" class="node">
<title>loaddb</title>
<path fill="none" stroke="black" d="M476.27,-324C476.27,-324 435.28,-324 435.28,-324 429.28,-324 423.28,-318 423.28,-312 423.28,-312 423.28,-300 423.28,-300 423.28,-294 429.28,-288 435.28,-288 435.28,-288 476.27,-288 476.27,-288 482.27,-288 488.27,-294 488.27,-300 488.27,-300 488.27,-312 488.27,-312 488.27,-318 482.27,-324 476.27,-324"/>
<text text-anchor="middle" x="455.78" y="-301.8" font-family="Helvetica,Arial,sans-serif" font-size="14.00">o:loaddb</text>
</g>
<!-- loaddb&#45;&gt;updatedb -->
<g id="edge59" class="edge">
<title>loaddb-&gt;updatedb</title>
<path fill="none" stroke="black" stroke-dasharray="1,5" d="M459.21,-324.41C463.96,-348.5 472.58,-392.25 478.25,-420.97"/>
<polygon fill="black" stroke="black" points="474.74,-421.27 480.11,-430.4 481.61,-419.92 474.74,-421.27"/>
</g>
<!-- loaddb&#45;&gt;db -->
<g id="edge60" class="edge">
<title>loaddb-&gt;db</title>
<path fill="none" stroke="black" d="M449.1,-324.3C446.19,-331.85 442.71,-340.88 439.45,-349.32"/>
<polygon fill="black" stroke="black" points="436.25,-347.89 435.92,-358.48 442.78,-350.41 436.25,-347.89"/>
</g>
<!-- fillindex -->
<g id="node29" class="node">
<title>fillindex</title>
<path fill="none" stroke="black" d="M428.94,-252C428.94,-252 378.61,-252 378.61,-252 372.61,-252 366.61,-246 366.61,-240 366.61,-240 366.61,-228 366.61,-228 366.61,-222 372.61,-216 378.61,-216 378.61,-216 428.94,-216 428.94,-216 434.94,-216 440.94,-222 440.94,-228 440.94,-228 440.94,-240 440.94,-240 440.94,-246 434.94,-252 428.94,-252"/>
<text text-anchor="middle" x="403.78" y="-229.8" font-family="Helvetica,Arial,sans-serif" font-size="14.00">o:fillindex</text>
</g>
<!-- fillindex&#45;&gt;loaddb -->
<g id="edge61" class="edge">
<title>fillindex-&gt;loaddb</title>
<path fill="none" stroke="black" d="M416.63,-252.3C422.55,-260.27 429.7,-269.9 436.27,-278.74"/>
<polygon fill="black" stroke="black" points="433.39,-280.74 442.17,-286.68 439.01,-276.57 433.39,-280.74"/>
</g>
<!-- index -->
<g id="node30" class="node">
<title>index</title>
<polygon fill="none" stroke="black" stroke-width="2" points="439.6,-180 383.95,-180 383.95,-144 439.6,-144 439.6,-180"/>
<text text-anchor="middle" x="411.78" y="-157.8" font-family="Helvetica,Arial,sans-serif" font-size="14.00">f:index</text>
</g>
<!-- index&#45;&gt;fillindex -->
<g id="edge62" class="edge">
<title>index-&gt;fillindex</title>
<path fill="none" stroke="black" d="M409.8,-180.3C408.97,-187.59 407.97,-196.27 407.04,-204.46"/>
<polygon fill="black" stroke="black" points="403.56,-204.06 405.9,-214.39 410.52,-204.85 403.56,-204.06"/>
</g>
<!-- loadindex -->
<g id="node31" class="node">
<title>loadindex</title>
<path fill="none" stroke="black" d="M384.82,-108C384.82,-108 326.73,-108 326.73,-108 320.73,-108 314.73,-102 314.73,-96 314.73,-96 314.73,-84 314.73,-84 314.73,-78 320.73,-72 326.73,-72 326.73,-72 384.82,-72 384.82,-72 390.82,-72 396.82,-78 396.82,-84 396.82,-84 396.82,-96 396.82,-96 396.82,-102 390.82,-108 384.82,-108"/>
<text text-anchor="middle" x="355.78" y="-85.8" font-family="Helvetica,Arial,sans-serif" font-size="14.00">o:loadindex</text>
</g>
<!-- loadindex&#45;&gt;fillindex -->
<g id="edge63" class="edge">
<title>loadindex-&gt;fillindex</title>
<path fill="none" stroke="black" stroke-dasharray="1,5" d="M357.98,-108.48C360.63,-126.74 365.87,-156.01 374.78,-180 378.06,-188.85 382.62,-198.03 387.15,-206.21"/>
<polygon fill="black" stroke="black" points="383.99,-207.73 392.02,-214.63 390.05,-204.22 383.99,-207.73"/>
</g>
<!-- loadindex&#45;&gt;index -->
<g id="edge64" class="edge">
<title>loadindex-&gt;index</title>
<path fill="none" stroke="black" d="M369.62,-108.3C376.06,-116.36 383.86,-126.11 390.99,-135.02"/>
<polygon fill="black" stroke="black" points="388.17,-137.09 397.15,-142.71 393.63,-132.72 388.17,-137.09"/>
</g>
<!-- dbinfo -->
<g id="node32" class="node">
<title>dbinfo</title>
<polygon fill="none" stroke="black" stroke-width="2" points="655.33,-180 594.22,-180 594.22,-144 655.33,-144 655.33,-180"/>
<text text-anchor="middle" x="624.78" y="-157.8" font-family="Helvetica,Arial,sans-serif" font-size="14.00">f:dbinfo</text>
</g>
<!-- dbinfo&#45;&gt;loaddb -->
<g id="edge65" class="edge">
<title>dbinfo-&gt;loaddb</title>
<path fill="none" stroke="black" d="M627.68,-180.49C629.9,-200.13 630.23,-231.87 613.78,-252 586.19,-285.76 536.33,-298.14 499.98,-302.61"/>
<polygon fill="black" stroke="black" points="499.79,-299.11 490.21,-303.64 500.52,-306.08 499.79,-299.11"/>
</g>
<!-- genall -->
<g id="node33" class="node">
<title>genall</title>
<polygon fill="none" stroke="black" stroke-width="2" points="536.78,-108 482.78,-108 482.78,-72 536.78,-72 536.78,-108"/>
<text text-anchor="middle" x="509.78" y="-85.8" font-family="Helvetica,Arial,sans-serif" font-size="14.00">genall</text>
</g>
<!-- genall&#45;&gt;index -->
<g id="edge67" class="edge">
<title>genall-&gt;index</title>
<path fill="none" stroke="black" d="M485.3,-108.48C473.16,-117.15 458.33,-127.75 445.16,-137.15"/>
<polygon fill="black" stroke="black" points="443.28,-134.2 437.17,-142.86 447.34,-139.9 443.28,-134.2"/>
</g>
<!-- genall&#45;&gt;dbinfo -->
<g id="edge66" class="edge">
<title>genall-&gt;dbinfo</title>
<path fill="none" stroke="black" d="M537.03,-107.59C551.77,-116.56 570.22,-127.79 586.39,-137.64"/>
<polygon fill="black" stroke="black" points="584.46,-140.56 594.82,-142.77 588.1,-134.58 584.46,-140.56"/>
</g>
<!-- db2fastqtaxids -->
<g id="node34" class="node">
<title>db2fastqtaxids</title>
<path fill="none" stroke="black" d="M593.05,-252C593.05,-252 508.5,-252 508.5,-252 502.5,-252 496.5,-246 496.5,-240 496.5,-240 496.5,-228 496.5,-228 496.5,-222 502.5,-216 508.5,-216 508.5,-216 593.05,-216 593.05,-216 599.05,-216 605.05,-222 605.05,-228 605.05,-228 605.05,-240 605.05,-240 605.05,-246 599.05,-252 593.05,-252"/>
<text text-anchor="middle" x="550.78" y="-229.8" font-family="Helvetica,Arial,sans-serif" font-size="14.00">o:db2fastqtaxids</text>
</g>
<!-- db2fastqtaxids&#45;&gt;loaddb -->
<g id="edge68" class="edge">
<title>db2fastqtaxids-&gt;loaddb</title>
<path fill="none" stroke="black" d="M527.29,-252.3C515.53,-260.97 501.11,-271.6 488.3,-281.04"/>
<polygon fill="black" stroke="black" points="486.51,-278.01 480.54,-286.76 490.66,-283.64 486.51,-278.01"/>
</g>
<!-- db2fastq -->
<g id="node35" class="node">
<title>db2fastq</title>
<polygon fill="none" stroke="black" stroke-width="2" points="561.16,-180 488.39,-180 488.39,-144 561.16,-144 561.16,-180"/>
<text text-anchor="middle" x="524.78" y="-157.8" font-family="Helvetica,Arial,sans-serif" font-size="14.00">f:db2fastq</text>
</g>
<!-- db2fastq&#45;&gt;loaddb -->
<g id="edge70" class="edge">
<title>db2fastq-&gt;loaddb</title>
<path fill="none" stroke="black" d="M510.87,-180.41C503.34,-190.41 494.27,-203.44 487.78,-216 477.69,-235.5 469.41,-258.91 463.8,-276.83"/>
<polygon fill="black" stroke="black" points="460.49,-275.68 460.95,-286.26 467.19,-277.7 460.49,-275.68"/>
</g>
<!-- db2fastq&#45;&gt;db2fastqtaxids -->
<g id="edge69" class="edge">
<title>db2fastq-&gt;db2fastqtaxids</title>
<path fill="none" stroke="black" d="M531.2,-180.3C534.01,-187.85 537.36,-196.88 540.49,-205.32"/>
<polygon fill="black" stroke="black" points="537.13,-206.32 543.9,-214.48 543.69,-203.88 537.13,-206.32"/>
</g>
<!-- fastqmap -->
<g id="node36" class="node">
<title>fastqmap</title>
<path fill="none" stroke="black" d="M166.88,-468C166.88,-468 112.67,-468 112.67,-468 106.67,-468 100.67,-462 100.67,-456 100.67,-456 100.67,-444 100.67,-444 100.67,-438 106.67,-432 112.67,-432 112.67,-432 166.88,-432 166.88,-432 172.88,-432 178.88,-438 178.88,-444 178.88,-444 178.88,-456 178.88,-456 178.88,-462 172.88,-468 166.88,-468"/>
<text text-anchor="middle" x="139.78" y="-445.8" font-family="Helvetica,Arial,sans-serif" font-size="14.00">o:fastqmap</text>
</g>
<!-- fastqmaptransform -->
<g id="node37" class="node">
<title>fastqmaptransform</title>
<path fill="none" stroke="black" d="M273.09,-396C273.09,-396 164.46,-396 164.46,-396 158.46,-396 152.46,-390 152.46,-384 152.46,-384 152.46,-372 152.46,-372 152.46,-366 158.46,-360 164.46,-360 164.46,-360 273.09,-360 273.09,-360 279.09,-360 285.09,-366 285.09,-372 285.09,-372 285.09,-384 285.09,-384 285.09,-390 279.09,-396 273.09,-396"/>
<text text-anchor="middle" x="218.78" y="-373.8" font-family="Helvetica,Arial,sans-serif" font-size="14.00">o:fastqmaptransform</text>
</g>
<!-- fastqmaptransform&#45;&gt;fastqmap -->
<g id="edge71" class="edge">
<title>fastqmaptransform-&gt;fastqmap</title>
<path fill="none" stroke="black" d="M199.25,-396.3C189.75,-404.72 178.17,-414.98 167.75,-424.21"/>
<polygon fill="black" stroke="black" points="165.65,-421.4 160.49,-430.65 170.29,-426.64 165.65,-421.4"/>
</g>
<!-- fastqdownload -->
<g id="node38" class="node">
<title>fastqdownload</title>
<path fill="none" stroke="black" d="M236.43,-324C236.43,-324 151.12,-324 151.12,-324 145.12,-324 139.12,-318 139.12,-312 139.12,-312 139.12,-300 139.12,-300 139.12,-294 145.12,-288 151.12,-288 151.12,-288 236.43,-288 236.43,-288 242.43,-288 248.43,-294 248.43,-300 248.43,-300 248.43,-312 248.43,-312 248.43,-318 242.43,-324 236.43,-324"/>
<text text-anchor="middle" x="193.78" y="-301.8" font-family="Helvetica,Arial,sans-serif" font-size="14.00">d:fastqdownload</text>
</g>
<!-- fastqdownload&#45;&gt;fastqmap -->
<g id="edge72" class="edge">
<title>fastqdownload-&gt;fastqmap</title>
<path fill="none" stroke="black" d="M171.19,-324.38C160.86,-333.71 149.65,-346.14 143.78,-360 135.7,-379.07 134.98,-402.54 136.13,-420.59"/>
<polygon fill="black" stroke="black" points="132.62,-420.67 136.99,-430.32 139.59,-420.05 132.62,-420.67"/>
</g>
<!-- fastqdownload&#45;&gt;fastqmaptransform -->
<g id="edge73" class="edge">
<title>fastqdownload-&gt;fastqmaptransform</title>
<path fill="none" stroke="black" d="M199.96,-324.3C202.65,-331.85 205.88,-340.88 208.89,-349.32"/>
<polygon fill="black" stroke="black" points="205.5,-350.23 212.16,-358.47 212.09,-347.88 205.5,-350.23"/>
</g>
<!-- filter -->
<g id="node39" class="node">
<title>filter</title>
<polygon fill="none" stroke="black" stroke-width="2" points="203.78,-36 149.78,-36 149.78,0 203.78,0 203.78,-36"/>
<text text-anchor="middle" x="176.78" y="-13.8" font-family="Helvetica,Arial,sans-serif" font-size="14.00">f:filter</text>
</g>
<!-- filter&#45;&gt;loadindex -->
<g id="edge75" class="edge">
<title>filter-&gt;loadindex</title>
<path fill="none" stroke="black" d="M204.18,-32.24C207.07,-33.55 209.97,-34.82 212.78,-36 242.62,-48.55 276.57,-61.2 303.91,-70.99"/>
<polygon fill="black" stroke="black" points="302.4,-74.17 312.99,-74.23 304.75,-67.58 302.4,-74.17"/>
</g>
<!-- filter&#45;&gt;fastqmaptransform -->
<g id="edge76" class="edge">
<title>filter-&gt;fastqmaptransform</title>
<path fill="none" stroke="black" d="M152.69,-36.32C112.17,-66.36 34.78,-128.05 34.78,-161 34.78,-161 34.78,-161 34.78,-235 34.78,-295.68 98.28,-334.07 150.67,-355.42"/>
<polygon fill="black" stroke="black" points="149.32,-358.65 159.9,-359.04 151.87,-352.13 149.32,-358.65"/>
</g>
<!-- filter&#45;&gt;fastqdownload -->
<g id="edge74" class="edge">
<title>filter-&gt;fastqdownload</title>
<path fill="none" stroke="black" d="M177.81,-36.46C180.65,-84.24 188.57,-217.49 192.08,-276.39"/>
<polygon fill="black" stroke="black" points="188.57,-276.48 192.66,-286.26 195.56,-276.07 188.57,-276.48"/>
</g>
<!-- match -->
<g id="node40" class="node">
<title>match</title>
<polygon fill="none" stroke="black" stroke-width="2" points="263.16,-252 204.4,-252 204.4,-216 263.16,-216 263.16,-252"/>
<text text-anchor="middle" x="233.78" y="-229.8" font-family="Helvetica,Arial,sans-serif" font-size="14.00">f:match</text>
</g>
<!-- match&#45;&gt;loaddb -->
<g id="edge78" class="edge">
<title>match-&gt;loaddb</title>
<path fill="none" stroke="black" d="M263.48,-248.76C266.27,-249.91 269.06,-251.01 271.78,-252 318.89,-269.23 374.39,-284.56 412.02,-294.24"/>
<polygon fill="black" stroke="black" points="411.07,-297.62 421.63,-296.69 412.8,-290.83 411.07,-297.62"/>
</g>
<!-- match&#45;&gt;fastqmaptransform -->
<g id="edge79" class="edge">
<title>match-&gt;fastqmaptransform</title>
<path fill="none" stroke="black" d="M244.38,-252.22C254.1,-270.27 265.86,-299.37 257.78,-324 254.65,-333.52 249.09,-342.73 243.13,-350.74"/>
<polygon fill="black" stroke="black" points="240.56,-348.36 237.02,-358.34 246.01,-352.74 240.56,-348.36"/>
</g>
<!-- match&#45;&gt;fastqdownload -->
<g id="edge77" class="edge">
<title>match-&gt;fastqdownload</title>
<path fill="none" stroke="black" d="M223.89,-252.3C219.43,-260.1 214.07,-269.49 209.11,-278.17"/>
<polygon fill="black" stroke="black" points="206.22,-276.16 204.3,-286.58 212.3,-279.64 206.22,-276.16"/>
</g>
<!-- matchlr -->
<g id="node41" class="node">
<title>matchlr</title>
<polygon fill="none" stroke="black" stroke-width="2" points="348.43,-252 281.12,-252 281.12,-216 348.43,-216 348.43,-252"/>
<text text-anchor="middle" x="314.78" y="-229.8" font-family="Helvetica,Arial,sans-serif" font-size="14.00">f:matchlr</text>
</g>
<!-- matchlr&#45;&gt;loaddb -->
<g id="edge81" class="edge">
<title>matchlr-&gt;loaddb</title>
<path fill="none" stroke="black" d="M348.91,-251.95C368.15,-261.5 392.37,-273.52 412.89,-283.71"/>
<polygon fill="black" stroke="black" points="411.06,-286.71 421.57,-288.02 414.17,-280.44 411.06,-286.71"/>
</g>
<!-- matchlr&#45;&gt;fastqmaptransform -->
<g id="edge82" class="edge">
<title>matchlr-&gt;fastqmaptransform</title>
<path fill="none" stroke="black" d="M308.69,-252.37C301.68,-271.06 289.01,-301.16 272.78,-324 265.76,-333.88 256.78,-343.52 248.18,-351.81"/>
<polygon fill="black" stroke="black" points="245.83,-349.21 240.89,-358.58 250.6,-354.34 245.83,-349.21"/>
</g>
<!-- matchlr&#45;&gt;fastqdownload -->
<g id="edge80" class="edge">
<title>matchlr-&gt;fastqdownload</title>
<path fill="none" stroke="black" d="M284.55,-252.48C268.99,-261.49 249.82,-272.58 233.12,-282.24"/>
<polygon fill="black" stroke="black" points="231.83,-278.94 224.92,-286.98 235.33,-285 231.83,-278.94"/>
</g>
<!-- krakenres -->
<g id="node42" class="node">
<title>krakenres</title>
<path fill="none" stroke="black" d="M137.26,-252C137.26,-252 82.29,-252 82.29,-252 76.29,-252 70.29,-246 70.29,-240 70.29,-240 70.29,-228 70.29,-228 70.29,-222 76.29,-216 82.29,-216 82.29,-216 137.26,-216 137.26,-216 143.26,-216 149.26,-222 149.26,-228 149.26,-228 149.26,-240 149.26,-240 149.26,-246 143.26,-252 137.26,-252"/>
<text text-anchor="middle" x="109.78" y="-229.8" font-family="Helvetica,Arial,sans-serif" font-size="14.00">f:krakenres</text>
</g>
<!-- krakenres&#45;&gt;taxnodes -->
<g id="edge84" class="edge">
<title>krakenres-&gt;taxnodes</title>
<path fill="none" stroke="black" d="M102.29,-252.11C91.48,-278.42 72.78,-330.63 72.78,-377 72.78,-377 72.78,-377 72.78,-667 72.78,-763.6 110.78,-784.4 110.78,-881 110.78,-881 110.78,-881 110.78,-1027 110.78,-1076.5 152.97,-1119.37 184.85,-1144.7"/>
<polygon fill="black" stroke="black" points="182.68,-1147.45 192.74,-1150.76 186.94,-1141.9 182.68,-1147.45"/>
</g>
<!-- krakenres&#45;&gt;fastqmaptransform -->
<g id="edge85" class="edge">
<title>krakenres-&gt;fastqmaptransform</title>
<path fill="none" stroke="black" d="M109.73,-252.37C110.52,-271.61 114.34,-302.72 129.78,-324 138.69,-336.3 151.42,-346.25 164.46,-354.07"/>
<polygon fill="black" stroke="black" points="162.68,-357.08 173.12,-358.89 166.09,-350.97 162.68,-357.08"/>
</g>
<!-- krakenres&#45;&gt;fastqdownload -->
<g id="edge83" class="edge">
<title>krakenres-&gt;fastqdownload</title>
<path fill="none" stroke="black" d="M130.54,-252.3C140.74,-260.8 153.2,-271.19 164.36,-280.49"/>
<polygon fill="black" stroke="black" points="161.87,-282.97 171.8,-286.68 166.36,-277.59 161.87,-282.97"/>
</g>
</g>
</svg>