<svg width="769" height="684" viewBox="0 0 576.75 513" xmlns="http://www.w3.org/2000/svg" xmlns:xlink="http://www.w3.org/1999/xlink">
<g id="graph0" class="graph" transform="translate(147.68244537902675,511.681233933162) scale(0.3296915167095116)">
<title>regexp</title>
<polygon fill="white" stroke="none" points="-4,4 -4,-1552 857.48,-1552 857.48,4 -4,4"/>
<!-- showall -->
<g id="node1" class="node">
<title>showall</title>
<polygon fill="none" stroke="black" stroke-width="2" points="126.26,-36 66.71,-36 66.71,0 126.26,0 126.26,-36"/>
<text text-anchor="middle" x="96.48" y="-13.8" font-family="Helvetica,Arial,sans-serif" font-size="14.00">showall</text>
</g>
<!-- show -->
<g id="node2" class="node">
<title>show</title>
<polygon fill="none" stroke="black" stroke-width="2" points="198.48,-36 144.48,-36 144.48,0 198.48,0 198.48,-36"/>
<text text-anchor="middle" x="171.48" y="-13.8" font-family="Helvetica,Arial,sans-serif" font-size="14.00">show</text>
</g>
<!-- commonsetup -->
<g id="node3" class="node">
<title>commonsetup</title>
<path fill="none" stroke="black" d="M546.03,-1548C546.03,-1548 466.93,-1548 466.93,-1548 460.93,-1548 454.93,-1542 454.93,-1536 454.93,-1536 454.93,-1524 454.93,-1524 454.93,-1518 460.93,-1512 466.93,-1512 466.93,-1512 546.03,-1512 546.03,-1512 552.03,-1512 558.03,-1518 558.03,-1524 558.03,-1524 558.03,-1536 558.03,-1536 558.03,-1542 552.03,-1548 546.03,-1548"/>
<text text-anchor="middle" x="506.48" y="-1525.8" font-family="Helvetica,Arial,sans-serif" font-size="14.00">f:commonsetup</text>
</g>
<!-- taxdownload -->
<g id="node4" class="node">
<title>taxdownload</title>
<path fill="none" stroke="black" d="M342.09,-1476C342.09,-1476 266.88,-1476 266.88,-1476 260.88,-1476 254.88,-1470 254.88,-1464 254.88,-1464 254.88,-1452 254.88,-1452 254.88,-1446 260.88,-1440 266.88,-1440 266.88,-1440 342.09,-1440 342.09,-1440 348.09,-1440 354.09,-1446 354.09,-1452 354.09,-1452 354.09,-1464 354.09,-1464 354.09,-1470 348.09,-1476 342.09,-1476"/>
<text text-anchor="middle" x="304.48" y="-1453.8" font-family="Helvetica,Arial,sans-serif" font-size="14.00">d:taxdownload</text>
</g>
<!-- taxdownload&#45;&gt;commonsetup -->
<g id="edge1" class="edge">
<title>taxdownload-&gt;commonsetup</title>
<path fill="none" stroke="black" d="M354.42,-1476.3C381.87,-1485.82 416.15,-1497.7 445.22,-1507.77"/>
<polygon fill="black" stroke="black" points="444.05,-1511.07 454.64,-1511.04 446.34,-1504.45 444.05,-1511.07"/>
</g>
<!-- taxtree -->
<g id="node5" class="node">
<title>taxtree</title>
<path fill="none" stroke="black" d="M324.97,-1332C324.97,-1332 284,-1332 284,-1332 278,-1332 272,-1326 272,-1320 272,-1320 272,-1308 272,-1308 272,-1302 278,-1296 284,-1296 284,-1296 324.97,-1296 324.97,-1296 330.97,-1296 336.97,-1302 336.97,-1308 336.97,-1308 336.97,-1320 336.97,-1320 336.97,-1326 330.97,-1332 324.97,-1332"/>
<text text-anchor="middle" x="304.48" y="-1309.8" font-family="Helvetica,Arial,sans-serif" font-size="14.00">o:taxtree</text>
</g>
<!-- taxtree&#45;&gt;taxdownload -->
<g id="edge2" class="edge">
<title>taxtree-&gt;taxdownload</title>
<path fill="none" stroke="black" d="M304.48,-1332.41C304.48,-1356.39 304.48,-1399.86 304.48,-1428.58"/>
<polygon fill="black" stroke="black" points="300.98,-1428.38 304.48,-1438.38 307.98,-1428.38 300.98,-1428.38"/>
</g>
<!-- taxnodes -->
<g id="node6" class="node">
<title>taxnodes</title>
<path fill="none" stroke="black" d="M179.81,-1260C179.81,-1260 127.16,-1260 127.16,-1260 121.16,-1260 115.16,-1254 115.16,-1248 115.16,-1248 115.16,-1236 115.16,-1236 115.16,-1230 121.16,-1224 127.16,-1224 127.16,-1224 179.81,-1224 179.81,-1224 185.81,-1224 191.81,-1230 191.81,-1236 191.81,-1236 191.81,-1248 191.81,-1248 191.81,-1254 185.81,-1260 179.81,-1260"/>
<text text-anchor="middle" x="153.48" y="-1237.8" font-family="Helvetica,Arial,sans-serif" font-size="14.00">o:taxnodes</text>
</g>
<!-- taxnodes&#45;&gt;taxtree -->
<g id="edge3" class="edge">
<title>taxnodes-&gt;taxtree</title>
<path fill="none" stroke="black" stroke-dasharray="1,5" d="M191.2,-1260.48C212.44,-1270.33 239.06,-1282.67 261.16,-1292.92"/>
<polygon fill="black" stroke="black" points="259.69,-1296.09 270.23,-1297.12 262.63,-1289.74 259.69,-1296.09"/>
</g>
<!-- refseqrelease -->
<g id="node7" class="node">
<title>refseqrelease</title>
<path fill="none" stroke="black" d="M612.46,-1476C612.46,-1476 536.51,-1476 536.51,-1476 530.51,-1476 524.51,-1470 524.51,-1464 524.51,-1464 524.51,-1452 524.51,-1452 524.51,-1446 530.51,-1440 536.51,-1440 536.51,-1440 612.46,-1440 612.46,-1440 618.46,-1440 624.46,-1446 624.46,-1452 624.46,-1452 624.46,-1464 624.46,-1464 624.46,-1470 618.46,-1476 612.46,-1476"/>
<text text-anchor="middle" x="574.48" y="-1453.8" font-family="Helvetica,Arial,sans-serif" font-size="14.00">d:refseqrelease</text>
</g>
<!-- refseqrelease&#45;&gt;commonsetup -->
<g id="edge4" class="edge">
<title>refseqrelease-&gt;commonsetup</title>
<path fill="none" stroke="black" d="M557.67,-1476.3C549.6,-1484.61 539.78,-1494.72 530.91,-1503.86"/>
<polygon fill="black" stroke="black" points="528.61,-1501.2 524.15,-1510.81 533.63,-1506.08 528.61,-1501.2"/>
</g>
<!-- refseqcat -->
<g id="node8" class="node">
<title>refseqcat</title>
<path fill="none" stroke="black" d="M613.19,-1404C613.19,-1404 559.78,-1404 559.78,-1404 553.78,-1404 547.78,-1398 547.78,-1392 547.78,-1392 547.78,-1380 547.78,-1380 547.78,-1374 553.78,-1368 559.78,-1368 559.78,-1368 613.19,-1368 613.19,-1368 619.19,-1368 625.19,-1374 625.19,-1380 625.19,-1380 625.19,-1392 625.19,-1392 625.19,-1398 619.19,-1404 613.19,-1404"/>
<text text-anchor="middle" x="586.48" y="-1381.8" font-family="Helvetica,Arial,sans-serif" font-size="14.00">d:refseqcat</text>
</g>
<!-- refseqcat&#45;&gt;commonsetup -->
<g id="edge5" class="edge">
<title>refseqcat-&gt;commonsetup</title>
<path fill="none" stroke="black" d="M606.84,-1404.32C625.9,-1422.7 649.28,-1452.3 633.48,-1476 618.95,-1497.81 593.55,-1510.66 569.27,-1518.23"/>
<polygon fill="black" stroke="black" points="568.36,-1514.84 559.69,-1520.93 570.27,-1521.58 568.36,-1514.84"/>
</g>
<!-- refseqcat&#45;&gt;refseqrelease -->
<g id="edge6" class="edge">
<title>refseqcat-&gt;refseqrelease</title>
<path fill="none" stroke="black" d="M583.52,-1404.3C582.25,-1411.68 580.74,-1420.48 579.33,-1428.75"/>
<polygon fill="black" stroke="black" points="575.91,-1427.96 577.67,-1438.4 582.81,-1429.14 575.91,-1427.96"/>
</g>
<!-- checksummap -->
<g id="node9" class="node">
<title>checksummap</title>
<path fill="none" stroke="black" d="M645.97,-1116C645.97,-1116 563,-1116 563,-1116 557,-1116 551,-1110 551,-1104 551,-1104 551,-1092 551,-1092 551,-1086 557,-1080 563,-1080 563,-1080 645.97,-1080 645.97,-1080 651.97,-1080 657.97,-1086 657.97,-1092 657.97,-1092 657.97,-1104 657.97,-1104 657.97,-1110 651.97,-1116 645.97,-1116"/>
<text text-anchor="middle" x="604.48" y="-1093.8" font-family="Helvetica,Arial,sans-serif" font-size="14.00">o:checksummap</text>
</g>
<!-- checksummap&#45;&gt;refseqcat -->
<g id="edge7" class="edge">
<title>checksummap-&gt;refseqcat</title>
<path fill="none" stroke="black" d="M590.92,-1116.03C583.92,-1125.91 576.12,-1138.95 572.48,-1152 552.57,-1223.52 568.33,-1312 578.9,-1356.54"/>
<polygon fill="black" stroke="black" points="575.48,-1357.3 581.28,-1366.17 582.28,-1355.62 575.48,-1357.3"/>
</g>
<!-- clear -->
<g id="node10" class="node">
<title>clear</title>
<polygon fill="none" stroke="black" stroke-width="2" points="342.48,-36 288.48,-36 288.48,0 342.48,0 342.48,-36"/>
<text text-anchor="middle" x="315.48" y="-13.8" font-family="Helvetica,Arial,sans-serif" font-size="14.00">f:clear</text>
</g>
<!-- categories -->
<g id="node11" class="node">
<title>categories</title>
<path fill="none" stroke="black" d="M807.3,-1404C807.3,-1404 747.67,-1404 747.67,-1404 741.67,-1404 735.67,-1398 735.67,-1392 735.67,-1392 735.67,-1380 735.67,-1380 735.67,-1374 741.67,-1368 747.67,-1368 747.67,-1368 807.3,-1368 807.3,-1368 813.3,-1368 819.3,-1374 819.3,-1380 819.3,-1380 819.3,-1392 819.3,-1392 819.3,-1398 813.3,-1404 807.3,-1404"/>
<text text-anchor="middle" x="777.48" y="-1381.8" font-family="Helvetica,Arial,sans-serif" font-size="14.00">o:categories</text>
</g>
<!-- refseqfna -->
<g id="node12" class="node">
<title>refseqfna</title>
<path fill="none" stroke="black" d="M520.97,-972C520.97,-972 466,-972 466,-972 460,-972 454,-966 454,-960 454,-960 454,-948 454,-948 454,-942 460,-936 466,-936 466,-936 520.97,-936 520.97,-936 526.97,-936 532.97,-942 532.97,-948 532.97,-948 532.97,-960 532.97,-960 532.97,-966 526.97,-972 520.97,-972"/>
<text text-anchor="middle" x="493.48" y="-949.8" font-family="Helvetica,Arial,sans-serif" font-size="14.00">d:refseqfna</text>
</g>
<!-- refseqfna&#45;&gt;refseqcat -->
<g id="edge9" class="edge">
<title>refseqfna-&gt;refseqcat</title>
<path fill="none" stroke="black" d="M519.15,-972.28C530.4,-981.42 542.41,-993.72 548.48,-1008 561.05,-1037.55 545.13,-1048 542.48,-1080 535.4,-1165.6 550.32,-1281.14 563.48,-1332 565.69,-1340.55 569.1,-1349.48 572.62,-1357.52"/>
<polygon fill="black" stroke="black" points="569.38,-1358.85 576.76,-1366.45 575.73,-1355.9 569.38,-1358.85"/>
</g>
<!-- refseqfna&#45;&gt;checksummap -->
<g id="edge10" class="edge">
<title>refseqfna-&gt;checksummap</title>
<path fill="none" stroke="black" stroke-dasharray="1,5" d="M533.45,-970.79C550.55,-979.41 569.33,-991.7 581.48,-1008 594.47,-1025.42 600.15,-1049.49 602.62,-1068.21"/>
<polygon fill="black" stroke="black" points="599.14,-1068.53 603.67,-1078.1 606.1,-1067.79 599.14,-1068.53"/>
</g>
<!-- refseqfna&#45;&gt;categories -->
<g id="edge8" class="edge">
<title>refseqfna-&gt;categories</title>
<path fill="none" stroke="black" stroke-dasharray="1,5" d="M533.29,-954.88C619.44,-956.91 815.48,-974.96 815.48,-1097 815.48,-1097 815.48,-1097 815.48,-1243 815.48,-1283.82 800.65,-1329.07 789.51,-1357.28"/>
<polygon fill="black" stroke="black" points="786.29,-1355.92 785.75,-1366.51 792.77,-1358.57 786.29,-1355.92"/>
</g>
<!-- accmapsize -->
<g id="node13" class="node">
<title>accmapsize</title>
<path fill="none" stroke="black" d="M699.18,-1332C699.18,-1332 631.78,-1332 631.78,-1332 625.78,-1332 619.78,-1326 619.78,-1320 619.78,-1320 619.78,-1308 619.78,-1308 619.78,-1302 625.78,-1296 631.78,-1296 631.78,-1296 699.18,-1296 699.18,-1296 705.18,-1296 711.18,-1302 711.18,-1308 711.18,-1308 711.18,-1320 711.18,-1320 711.18,-1326 705.18,-1332 699.18,-1332"/>
<text text-anchor="middle" x="665.48" y="-1309.8" font-family="Helvetica,Arial,sans-serif" font-size="14.00">o:accmapsize</text>
</g>
<!-- accmapsize&#45;&gt;refseqcat -->
<g id="edge12" class="edge">
<title>accmapsize-&gt;refseqcat</title>
<path fill="none" stroke="black" d="M645.95,-1332.3C636.46,-1340.72 624.87,-1350.98 614.46,-1360.21"/>
<polygon fill="black" stroke="black" points="612.36,-1357.4 607.19,-1366.65 617,-1362.64 612.36,-1357.4"/>
</g>
<!-- accmapsize&#45;&gt;categories -->
<g id="edge11" class="edge">
<title>accmapsize-&gt;categories</title>
<path fill="none" stroke="black" stroke-dasharray="1,5" d="M693.46,-1332.48C707.59,-1341.32 724.94,-1352.16 740.2,-1361.7"/>
<polygon fill="black" stroke="black" points="738.25,-1364.61 748.58,-1366.94 741.96,-1358.67 738.25,-1364.61"/>
</g>
<!-- accmap -->
<g id="node14" class="node">
<title>accmap</title>
<path fill="none" stroke="black" d="M688.3,-1260C688.3,-1260 642.67,-1260 642.67,-1260 636.67,-1260 630.67,-1254 630.67,-1248 630.67,-1248 630.67,-1236 630.67,-1236 630.67,-1230 636.67,-1224 642.67,-1224 642.67,-1224 688.3,-1224 688.3,-1224 694.3,-1224 700.3,-1230 700.3,-1236 700.3,-1236 700.3,-1248 700.3,-1248 700.3,-1254 694.3,-1260 688.3,-1260"/>
<text text-anchor="middle" x="665.48" y="-1237.8" font-family="Helvetica,Arial,sans-serif" font-size="14.00">o:accmap</text>
</g>
<!-- accmap&#45;&gt;refseqcat -->
<g id="edge14" class="edge">
<title>accmap-&gt;refseqcat</title>
<path fill="none" stroke="black" d="M642.26,-1260.38C631.17,-1269.8 618.58,-1282.3 610.48,-1296 599.53,-1314.54 593.46,-1338.17 590.17,-1356.42"/>
<polygon fill="black" stroke="black" points="586.75,-1355.61 588.62,-1366.04 593.67,-1356.72 586.75,-1355.61"/>
</g>
<!-- accmap&#45;&gt;categories -->
<g id="edge13" class="edge">
<title>accmap-&gt;categories</title>
<path fill="none" stroke="black" stroke-dasharray="1,5" d="M685.69,-1260.36C696.61,-1270.25 709.97,-1283.18 720.48,-1296 736.43,-1315.45 751.65,-1339.59 762.34,-1357.82"/>
<polygon fill="black" stroke="black" points="759.3,-1359.57 767.33,-1366.48 765.37,-1356.07 759.3,-1359.57"/>
</g>
<!-- accmap&#45;&gt;accmapsize -->
<g id="edge15" class="edge">
<title>accmap-&gt;accmapsize</title>
<path fill="none" stroke="black" stroke-dasharray="1,5" d="M665.48,-1260.3C665.48,-1267.59 665.48,-1276.27 665.48,-1284.46"/>
<polygon fill="black" stroke="black" points="661.98,-1284.38 665.48,-1294.38 668.98,-1284.38 661.98,-1284.38"/>
</g>
<!-- taxfromgenbank -->
<g id="node15" class="node">
<title>taxfromgenbank</title>
<path fill="none" stroke="black" d="M687.8,-1188C687.8,-1188 593.17,-1188 593.17,-1188 587.17,-1188 581.17,-1182 581.17,-1176 581.17,-1176 581.17,-1164 581.17,-1164 581.17,-1158 587.17,-1152 593.17,-1152 593.17,-1152 687.8,-1152 687.8,-1152 693.8,-1152 699.8,-1158 699.8,-1164 699.8,-1164 699.8,-1176 699.8,-1176 699.8,-1182 693.8,-1188 687.8,-1188"/>
<text text-anchor="middle" x="640.48" y="-1165.8" font-family="Helvetica,Arial,sans-serif" font-size="14.00">o:taxfromgenbank</text>
</g>
<!-- taxfromgenbank&#45;&gt;taxnodes -->
<g id="edge17" class="edge">
<title>taxfromgenbank-&gt;taxnodes</title>
<path fill="none" stroke="black" stroke-dasharray="1,5" d="M580.77,-1179.58C483.8,-1193.52 293.88,-1220.82 203.53,-1233.81"/>
<polygon fill="black" stroke="black" points="203.14,-1230.33 193.74,-1235.21 204.14,-1237.25 203.14,-1230.33"/>
</g>
<!-- taxfromgenbank&#45;&gt;categories -->
<g id="edge16" class="edge">
<title>taxfromgenbank-&gt;categories</title>
<path fill="none" stroke="black" stroke-dasharray="1,5" d="M668.66,-1188.49C682.17,-1197.84 697.89,-1210.26 709.48,-1224 742.91,-1263.63 762.01,-1322.07 771.01,-1356.57"/>
<polygon fill="black" stroke="black" points="767.61,-1357.37 773.42,-1366.23 774.4,-1355.68 767.61,-1357.37"/>
</g>
<!-- taxfromgenbank&#45;&gt;accmap -->
<g id="edge18" class="edge">
<title>taxfromgenbank-&gt;accmap</title>
<path fill="none" stroke="black" stroke-dasharray="1,5" d="M646.66,-1188.3C649.36,-1195.85 652.58,-1204.88 655.6,-1213.32"/>
<polygon fill="black" stroke="black" points="652.21,-1214.23 658.87,-1222.47 658.8,-1211.88 652.21,-1214.23"/>
</g>
<!-- assemblydownload -->
<g id="node16" class="node">
<title>assemblydownload</title>
<path fill="none" stroke="black" d="M494.59,-1476C494.59,-1476 384.38,-1476 384.38,-1476 378.38,-1476 372.38,-1470 372.38,-1464 372.38,-1464 372.38,-1452 372.38,-1452 372.38,-1446 378.38,-1440 384.38,-1440 384.38,-1440 494.59,-1440 494.59,-1440 500.59,-1440 506.59,-1446 506.59,-1452 506.59,-1452 506.59,-1464 506.59,-1464 506.59,-1470 500.59,-1476 494.59,-1476"/>
<text text-anchor="middle" x="439.48" y="-1453.8" font-family="Helvetica,Arial,sans-serif" font-size="14.00">d:assemblydownload</text>
</g>
<!-- assemblydownload&#45;&gt;commonsetup -->
<g id="edge19" class="edge">
<title>assemblydownload-&gt;commonsetup</title>
<path fill="none" stroke="black" d="M456.04,-1476.3C463.91,-1484.53 473.48,-1494.52 482.15,-1503.58"/>
<polygon fill="black" stroke="black" points="479.62,-1506 489.07,-1510.8 484.68,-1501.16 479.62,-1506"/>
</g>
<!-- fastasgenbank -->
<g id="node17" class="node">
<title>fastasgenbank</title>
<path fill="none" stroke="black" d="M480.58,-1116C480.58,-1116 398.39,-1116 398.39,-1116 392.39,-1116 386.39,-1110 386.39,-1104 386.39,-1104 386.39,-1092 386.39,-1092 386.39,-1086 392.39,-1080 398.39,-1080 398.39,-1080 480.58,-1080 480.58,-1080 486.58,-1080 492.58,-1086 492.58,-1092 492.58,-1092 492.58,-1104 492.58,-1104 492.58,-1110 486.58,-1116 480.58,-1116"/>
<text text-anchor="middle" x="439.48" y="-1093.8" font-family="Helvetica,Arial,sans-serif" font-size="14.00">o:fastasgenbank</text>
</g>
<!-- fastasgenbank&#45;&gt;taxtree -->
<g id="edge20" class="edge">
<title>fastasgenbank-&gt;taxtree</title>
<path fill="none" stroke="black" stroke-dasharray="1,5" d="M434.9,-1116.38C426.08,-1147.52 404.46,-1213.84 369.48,-1260 361.39,-1270.68 350.71,-1280.53 340.36,-1288.77"/>
<polygon fill="black" stroke="black" points="338.46,-1285.82 332.62,-1294.66 342.7,-1291.39 338.46,-1285.82"/>
</g>
<!-- fastasgenbank&#45;&gt;taxfromgenbank -->
<g id="edge21" class="edge">
<title>fastasgenbank-&gt;taxfromgenbank</title>
<path fill="none" stroke="black" stroke-dasharray="1,5" d="M489.69,-1116.48C517.01,-1126 551.01,-1137.84 579.81,-1147.87"/>
<polygon fill="black" stroke="black" points="578.55,-1151.14 589.14,-1151.12 580.85,-1144.53 578.55,-1151.14"/>
</g>
<!-- fastasgenbank&#45;&gt;assemblydownload -->
<g id="edge22" class="edge">
<title>fastasgenbank-&gt;assemblydownload</title>
<path fill="none" stroke="black" d="M439.48,-1116.49C439.48,-1143.29 439.48,-1196.13 439.48,-1241 439.48,-1241 439.48,-1241 439.48,-1315 439.48,-1354.26 439.48,-1399.62 439.48,-1428.31"/>
<polygon fill="black" stroke="black" points="435.98,-1428 439.48,-1438 442.98,-1428 435.98,-1428"/>
</g>
<!-- fastasgenbankdl -->
<g id="node18" class="node">
<title>fastasgenbankdl</title>
<path fill="none" stroke="black" d="M527.02,-1044C527.02,-1044 433.94,-1044 433.94,-1044 427.94,-1044 421.94,-1038 421.94,-1032 421.94,-1032 421.94,-1020 421.94,-1020 421.94,-1014 427.94,-1008 433.94,-1008 433.94,-1008 527.02,-1008 527.02,-1008 533.02,-1008 539.02,-1014 539.02,-1020 539.02,-1020 539.02,-1032 539.02,-1032 539.02,-1038 533.02,-1044 527.02,-1044"/>
<text text-anchor="middle" x="480.48" y="-1021.8" font-family="Helvetica,Arial,sans-serif" font-size="14.00">d:fastasgenbankdl</text>
</g>
<!-- fastasgenbankdl&#45;&gt;fastasgenbank -->
<g id="edge23" class="edge">
<title>fastasgenbankdl-&gt;fastasgenbank</title>
<path fill="none" stroke="black" stroke-dasharray="1,5" d="M470.35,-1044.3C465.78,-1052.1 460.28,-1061.49 455.2,-1070.17"/>
<polygon fill="black" stroke="black" points="452.3,-1068.19 450.27,-1078.59 458.34,-1071.73 452.3,-1068.19"/>
</g>
<!-- adddownloads -->
<g id="node19" class="node">
<title>adddownloads</title>
<path fill="none" stroke="black" d="M315.37,-1044C315.37,-1044 231.6,-1044 231.6,-1044 225.6,-1044 219.6,-1038 219.6,-1032 219.6,-1032 219.6,-1020 219.6,-1020 219.6,-1014 225.6,-1008 231.6,-1008 231.6,-1008 315.37,-1008 315.37,-1008 321.37,-1008 327.37,-1014 327.37,-1020 327.37,-1020 327.37,-1032 327.37,-1032 327.37,-1038 321.37,-1044 315.37,-1044"/>
<text text-anchor="middle" x="273.48" y="-1021.8" font-family="Helvetica,Arial,sans-serif" font-size="14.00">d:adddownloads</text>
</g>
<!-- addfastas -->
<g id="node20" class="node">
<title>addfastas</title>
<path fill="none" stroke="black" d="M364.97,-972C364.97,-972 309.99,-972 309.99,-972 303.99,-972 297.99,-966 297.99,-960 297.99,-960 297.99,-948 297.99,-948 297.99,-942 303.99,-936 309.99,-936 309.99,-936 364.97,-936 364.97,-936 370.97,-936 376.97,-942 376.97,-948 376.97,-948 376.97,-960 376.97,-960 376.97,-966 370.97,-972 364.97,-972"/>
<text text-anchor="middle" x="337.48" y="-949.8" font-family="Helvetica,Arial,sans-serif" font-size="14.00">o:addfastas</text>
</g>
<!-- addfastas&#45;&gt;taxtree -->
<g id="edge25" class="edge">
<title>addfastas-&gt;taxtree</title>
<path fill="none" stroke="black" stroke-dasharray="1,5" d="M341.13,-972.4C346.39,-999.08 355.48,-1051.77 355.48,-1097 355.48,-1097 355.48,-1097 355.48,-1171 355.48,-1213.04 335.44,-1258.18 320.48,-1286.01"/>
<polygon fill="black" stroke="black" points="317.58,-1284.02 315.79,-1294.46 323.7,-1287.42 317.58,-1284.02"/>
</g>
<!-- addfastas&#45;&gt;fastasgenbank -->
<g id="edge26" class="edge">
<title>addfastas-&gt;fastasgenbank</title>
<path fill="none" stroke="black" stroke-dasharray="1,5" d="M349.99,-972.41C367.67,-997.03 400.12,-1042.2 420.7,-1070.86"/>
<polygon fill="black" stroke="black" points="417.63,-1072.58 426.31,-1078.66 423.32,-1068.5 417.63,-1072.58"/>
</g>
<!-- addfastas&#45;&gt;fastasgenbankdl -->
<g id="edge27" class="edge">
<title>addfastas-&gt;fastasgenbankdl</title>
<path fill="none" stroke="black" d="M373.2,-972.48C391.94,-981.66 415.09,-992.99 435.09,-1002.78"/>
<polygon fill="black" stroke="black" points="433.34,-1005.82 443.86,-1007.07 436.42,-999.53 433.34,-1005.82"/>
</g>
<!-- addfastas&#45;&gt;adddownloads -->
<g id="edge24" class="edge">
<title>addfastas-&gt;adddownloads</title>
<path fill="none" stroke="black" d="M321.66,-972.3C314.14,-980.53 305.01,-990.52 296.72,-999.58"/>
<polygon fill="black" stroke="black" points="294.31,-997.04 290.14,-1006.78 299.47,-1001.76 294.31,-997.04"/>
</g>
<!-- fillsize -->
<g id="node21" class="node">
<title>fillsize</title>
<path fill="none" stroke="black" d="M339.98,-900C339.98,-900 298.99,-900 298.99,-900 292.99,-900 286.99,-894 286.99,-888 286.99,-888 286.99,-876 286.99,-876 286.99,-870 292.99,-864 298.99,-864 298.99,-864 339.98,-864 339.98,-864 345.98,-864 351.98,-870 351.98,-876 351.98,-876 351.98,-888 351.98,-888 351.98,-894 345.98,-900 339.98,-900"/>
<text text-anchor="middle" x="319.48" y="-877.8" font-family="Helvetica,Arial,sans-serif" font-size="14.00">o:fillsize</text>
</g>
<!-- fillsize&#45;&gt;taxnodes -->
<g id="edge28" class="edge">
<title>fillsize-&gt;taxnodes</title>
<path fill="none" stroke="black" stroke-dasharray="1,5" d="M287.18,-900.39C249.26,-923.44 191.48,-967.91 191.48,-1025 191.48,-1025 191.48,-1025 191.48,-1099 191.48,-1139.82 176.65,-1185.07 165.51,-1213.28"/>
<polygon fill="black" stroke="black" points="162.29,-1211.92 161.75,-1222.51 168.77,-1214.57 162.29,-1211.92"/>
</g>
<!-- fillsize&#45;&gt;refseqfna -->
<g id="edge29" class="edge">
<title>fillsize-&gt;refseqfna</title>
<path fill="none" stroke="black" stroke-dasharray="1,5" d="M352.21,-896.17C377.81,-906.47 413.85,-920.97 443.12,-932.74"/>
<polygon fill="black" stroke="black" points="441.58,-935.89 452.17,-936.38 444.2,-929.4 441.58,-935.89"/>
</g>
<!-- fillsize&#45;&gt;addfastas -->
<g id="edge30" class="edge">
<title>fillsize-&gt;addfastas</title>
<path fill="none" stroke="black" stroke-dasharray="1,5" d="M323.93,-900.3C325.83,-907.68 328.09,-916.48 330.22,-924.75"/>
<polygon fill="black" stroke="black" points="326.83,-925.62 332.71,-934.43 333.61,-923.87 326.83,-925.62"/>
</g>
<!-- tempindex -->
<g id="node22" class="node">
<title>tempindex</title>
<path fill="none" stroke="black" d="M339.48,-828C339.48,-828 277.49,-828 277.49,-828 271.49,-828 265.49,-822 265.49,-816 265.49,-816 265.49,-804 265.49,-804 265.49,-798 271.49,-792 277.49,-792 277.49,-792 339.48,-792 339.48,-792 345.48,-792 351.48,-798 351.48,-804 351.48,-804 351.48,-816 351.48,-816 351.48,-822 345.48,-828 339.48,-828"/>
<text text-anchor="middle" x="308.48" y="-805.8" font-family="Helvetica,Arial,sans-serif" font-size="14.00">o:tempindex</text>
</g>
<!-- tempindex&#45;&gt;taxnodes -->
<g id="edge32" class="edge">
<title>tempindex-&gt;taxnodes</title>
<path fill="none" stroke="black" stroke-dasharray="1,5" d="M283.58,-828.44C239.76,-861.38 153.48,-937.38 153.48,-1025 153.48,-1025 153.48,-1025 153.48,-1099 153.48,-1138.26 153.48,-1183.62 153.48,-1212.31"/>
<polygon fill="black" stroke="black" points="149.98,-1212 153.48,-1222 156.98,-1212 149.98,-1212"/>
</g>
<!-- tempindex&#45;&gt;refseqfna -->
<g id="edge33" class="edge">
<title>tempindex-&gt;refseqfna</title>
<path fill="none" stroke="black" stroke-dasharray="1,5" d="M331.17,-828.41C363.99,-853.6 424.85,-900.32 462,-928.83"/>
<polygon fill="black" stroke="black" points="459.64,-931.43 469.7,-934.75 463.9,-925.88 459.64,-931.43"/>
</g>
<!-- tempindex&#45;&gt;addfastas -->
<g id="edge34" class="edge">
<title>tempindex-&gt;addfastas</title>
<path fill="none" stroke="black" stroke-dasharray="1,5" d="M294.97,-828.43C282.6,-846.64 267.72,-875.87 278.48,-900 283.37,-910.96 291.77,-920.6 300.72,-928.55"/>
<polygon fill="black" stroke="black" points="298.25,-931.05 308.2,-934.68 302.68,-925.63 298.25,-931.05"/>
</g>
<!-- tempindex&#45;&gt;fillsize -->
<g id="edge31" class="edge">
<title>tempindex-&gt;fillsize</title>
<path fill="none" stroke="black" stroke-dasharray="1,5" d="M311.2,-828.3C312.36,-835.68 313.74,-844.48 315.04,-852.75"/>
<polygon fill="black" stroke="black" points="311.55,-853.07 316.56,-862.4 318.47,-851.98 311.55,-853.07"/>
</g>
<!-- filldb -->
<g id="node23" class="node">
<title>filldb</title>
<path fill="none" stroke="black" d="M395.09,-756C395.09,-756 361.87,-756 361.87,-756 355.87,-756 349.87,-750 349.87,-744 349.87,-744 349.87,-732 349.87,-732 349.87,-726 355.87,-720 361.87,-720 361.87,-720 395.09,-720 395.09,-720 401.09,-720 407.09,-726 407.09,-732 407.09,-732 407.09,-744 407.09,-744 407.09,-750 401.09,-756 395.09,-756"/>
<text text-anchor="middle" x="378.48" y="-733.8" font-family="Helvetica,Arial,sans-serif" font-size="14.00">o:filldb</text>
</g>
<!-- filldb&#45;&gt;taxnodes -->
<g id="edge36" class="edge">
<title>filldb-&gt;taxnodes</title>
<path fill="none" stroke="black" stroke-dasharray="1,5" d="M349.52,-746.76C323.21,-754.86 284.37,-769.56 256.48,-792 162.18,-867.88 115.48,-903.96 115.48,-1025 115.48,-1025 115.48,-1025 115.48,-1099 115.48,-1139.82 130.32,-1185.07 141.45,-1213.28"/>
<polygon fill="black" stroke="black" points="138.2,-1214.57 145.22,-1222.51 144.68,-1211.92 138.2,-1214.57"/>
</g>
<!-- filldb&#45;&gt;refseqfna -->
<g id="edge37" class="edge">
<title>filldb-&gt;refseqfna</title>
<path fill="none" stroke="black" stroke-dasharray="1,5" d="M387.7,-756.15C407.63,-793.25 454.89,-881.19 478.92,-925.9"/>
<polygon fill="black" stroke="black" points="475.69,-927.28 483.51,-934.43 481.86,-923.97 475.69,-927.28"/>
</g>
<!-- filldb&#45;&gt;addfastas -->
<g id="edge38" class="edge">
<title>filldb-&gt;addfastas</title>
<path fill="none" stroke="black" stroke-dasharray="1,5" d="M378.23,-756.23C377.42,-786.03 374.1,-848.91 360.48,-900 358.21,-908.53 354.78,-917.46 351.26,-925.5"/>
<polygon fill="black" stroke="black" points="348.15,-923.88 347.14,-934.43 354.51,-926.82 348.15,-923.88"/>
</g>
<!-- filldb&#45;&gt;tempindex -->
<g id="edge35" class="edge">
<title>filldb-&gt;tempindex</title>
<path fill="none" stroke="black" stroke-dasharray="1,5" d="M361.18,-756.3C352.87,-764.61 342.76,-774.72 333.62,-783.86"/>
<polygon fill="black" stroke="black" points="331.25,-781.28 326.66,-790.83 336.2,-786.23 331.25,-781.28"/>
</g>
<!-- tempdb -->
<g id="node24" class="node">
<title>tempdb</title>
<path fill="none" stroke="black" d="M349.76,-684C349.76,-684 307.21,-684 307.21,-684 301.21,-684 295.21,-678 295.21,-672 295.21,-672 295.21,-660 295.21,-660 295.21,-654 301.21,-648 307.21,-648 307.21,-648 349.76,-648 349.76,-648 355.76,-648 361.76,-654 361.76,-660 361.76,-660 361.76,-672 361.76,-672 361.76,-678 355.76,-684 349.76,-684"/>
<text text-anchor="middle" x="328.48" y="-661.8" font-family="Helvetica,Arial,sans-serif" font-size="14.00">f:tempdb</text>
</g>
<!-- tempdb&#45;&gt;filldb -->
<g id="edge39" class="edge">
<title>tempdb-&gt;filldb</title>
<path fill="none" stroke="black" stroke-dasharray="1,5" d="M340.84,-684.3C346.53,-692.27 353.41,-701.9 359.72,-710.74"/>
<polygon fill="black" stroke="black" points="356.73,-712.56 365.39,-718.66 362.42,-708.49 356.73,-712.56"/>
</g>
<!-- loadtempdb -->
<g id="node25" class="node">
<title>loadtempdb</title>
<path fill="none" stroke="black" d="M405.98,-612C405.98,-612 336.99,-612 336.99,-612 330.99,-612 324.99,-606 324.99,-600 324.99,-600 324.99,-588 324.99,-588 324.99,-582 330.99,-576 336.99,-576 336.99,-576 405.98,-576 405.98,-576 411.98,-576 417.98,-582 417.98,-588 417.98,-588 417.98,-600 417.98,-600 417.98,-606 411.98,-612 405.98,-612"/>
<text text-anchor="middle" x="371.48" y="-589.8" font-family="Helvetica,Arial,sans-serif" font-size="14.00">o:loadtempdb</text>
</g>
<!-- loadtempdb&#45;&gt;filldb -->
<g id="edge41" class="edge">
<title>loadtempdb-&gt;filldb</title>
<path fill="none" stroke="black" stroke-dasharray="1,5" d="M372.34,-612.41C373.52,-636.39 375.67,-679.86 377.08,-708.58"/>
<polygon fill="black" stroke="black" points="373.58,-708.56 377.56,-718.38 380.57,-708.22 373.58,-708.56"/>
</g>
<!-- loadtempdb&#45;&gt;tempdb -->
<g id="edge40" class="edge">
<title>loadtempdb-&gt;tempdb</title>
<path fill="none" stroke="black" d="M360.85,-612.3C356.06,-620.1 350.3,-629.49 344.96,-638.17"/>
<polygon fill="black" stroke="black" points="342.03,-636.25 339.78,-646.61 348,-639.92 342.03,-636.25"/>
</g>
<!-- tempdbinfo -->
<g id="node26" class="node">
<title>tempdbinfo</title>
<path fill="none" stroke="black" d="M404.03,-540C404.03,-540 338.93,-540 338.93,-540 332.93,-540 326.93,-534 326.93,-528 326.93,-528 326.93,-516 326.93,-516 326.93,-510 332.93,-504 338.93,-504 338.93,-504 404.03,-504 404.03,-504 410.03,-504 416.03,-510 416.03,-516 416.03,-516 416.03,-528 416.03,-528 416.03,-534 410.03,-540 404.03,-540"/>
<text text-anchor="middle" x="371.48" y="-517.8" font-family="Helvetica,Arial,sans-serif" font-size="14.00">f:tempdbinfo</text>
</g>
<!-- tempdbinfo&#45;&gt;loadtempdb -->
<g id="edge42" class="edge">
<title>tempdbinfo-&gt;loadtempdb</title>
<path fill="none" stroke="black" stroke-dasharray="1,5" d="M371.48,-540.3C371.48,-547.59 371.48,-556.27 371.48,-564.46"/>
<polygon fill="black" stroke="black" points="367.98,-564.38 371.48,-574.38 374.98,-564.38 367.98,-564.38"/>
</g>
<!-- updatedb -->
<g id="node27" class="node">
<title>updatedb</title>
<path fill="none" stroke="black" d="M420.59,-468C420.59,-468 366.38,-468 366.38,-468 360.38,-468 354.38,-462 354.38,-456 354.38,-456 354.38,-444 354.38,-444 354.38,-438 360.38,-432 366.38,-432 366.38,-432 420.59,-432 420.59,-432 426.59,-432 432.59,-438 432.59,-444 432.59,-444 432.59,-456 432.59,-456 432.59,-462 426.59,-468 420.59,-468"/>
<text text-anchor="middle" x="393.48" y="-445.8" font-family="Helvetica,Arial,sans-serif" font-size="14.00">o:updatedb</text>
</g>
<!-- updatedb&#45;&gt;taxtree -->
<g id="edge46" class="edge">
<title>updatedb-&gt;taxtree</title>
<path fill="none" stroke="black" stroke-dasharray="1,5" d="M354.1,-451.16C269.39,-453.8 77.48,-473.01 77.48,-593 77.48,-593 77.48,-593 77.48,-883 77.48,-1051.05 -3.05,-1132.55 106.48,-1260 126.38,-1283.15 208.5,-1299.07 260.53,-1307.06"/>
<polygon fill="black" stroke="black" points="259.88,-1310.5 270.28,-1308.51 260.91,-1303.57 259.88,-1310.5"/>
</g>
<!-- updatedb&#45;&gt;taxnodes -->
<g id="edge47" class="edge">
<title>updatedb-&gt;taxnodes</title>
<path fill="none" stroke="black" stroke-dasharray="1,5" d="M353.94,-454.94C271.03,-463.53 84.85,-484.75 63.48,-504 33.05,-531.42 39.48,-552.03 39.48,-593 39.48,-593 39.48,-593 39.48,-883 39.48,-1023.03 61.57,-1060.06 118.48,-1188 122.5,-1197.02 127.99,-1206.22 133.43,-1214.37"/>
<polygon fill="black" stroke="black" points="130.48,-1216.26 139.08,-1222.46 136.22,-1212.25 130.48,-1216.26"/>
</g>
<!-- updatedb&#45;&gt;categories -->
<g id="edge45" class="edge">
<title>updatedb-&gt;categories</title>
<path fill="none" stroke="black" stroke-dasharray="1,5" d="M432.7,-454.61C543.94,-465.91 853.48,-505.24 853.48,-593 853.48,-593 853.48,-593 853.48,-1243 853.48,-1287.97 823.49,-1332.48 801.19,-1359.36"/>
<polygon fill="black" stroke="black" points="798.81,-1356.75 794.96,-1366.62 804.12,-1361.31 798.81,-1356.75"/>
</g>
<!-- updatedb&#45;&gt;refseqfna -->
<g id="edge48" class="edge">
<title>updatedb-&gt;refseqfna</title>
<path fill="none" stroke="black" d="M416.68,-468.39C446.22,-492.72 493.48,-539.93 493.48,-593 493.48,-593 493.48,-593 493.48,-811 493.48,-850.26 493.48,-895.62 493.48,-924.31"/>
<polygon fill="black" stroke="black" points="489.98,-924 493.48,-934 496.98,-924 489.98,-924"/>
</g>
<!-- updatedb&#45;&gt;accmap -->
<g id="edge49" class="edge">
<title>updatedb-&gt;accmap</title>
<path fill="none" stroke="black" stroke-dasharray="1,5" d="M432.78,-450.31C521.07,-451 727.48,-466.19 727.48,-593 727.48,-593 727.48,-593 727.48,-1099 727.48,-1139.45 725.93,-1151.51 708.48,-1188 703.88,-1197.63 697.19,-1207.05 690.45,-1215.21"/>
<polygon fill="black" stroke="black" points="687.86,-1212.85 683.93,-1222.69 693.14,-1217.45 687.86,-1212.85"/>
</g>
<!-- updatedb&#45;&gt;addfastas -->
<g id="edge44" class="edge">
<title>updatedb-&gt;addfastas</title>
<path fill="none" stroke="black" stroke-dasharray="1,5" d="M353.95,-453.32C277.2,-460.18 115.48,-487.18 115.48,-593 115.48,-593 115.48,-593 115.48,-811 115.48,-891.77 221.05,-928.67 286.59,-943.79"/>
<polygon fill="black" stroke="black" points="285.54,-947.15 296.06,-945.88 287.05,-940.31 285.54,-947.15"/>
</g>
<!-- updatedb&#45;&gt;loadtempdb -->
<g id="edge50" class="edge">
<title>updatedb-&gt;loadtempdb</title>
<path fill="none" stroke="black" stroke-dasharray="1,5" d="M407.42,-468.27C420.23,-486.35 435.78,-515.47 425.48,-540 421.02,-550.63 413.27,-560.2 405.02,-568.19"/>
<polygon fill="black" stroke="black" points="402.95,-565.34 397.82,-574.62 407.61,-570.56 402.95,-565.34"/>
</g>
<!-- updatedb&#45;&gt;tempdbinfo -->
<g id="edge43" class="edge">
<title>updatedb-&gt;tempdbinfo</title>
<path fill="none" stroke="black" d="M388.04,-468.3C385.7,-475.76 382.9,-484.68 380.27,-493.03"/>
<polygon fill="black" stroke="black" points="376.97,-491.86 377.31,-502.45 383.65,-493.96 376.97,-491.86"/>
</g>
<!-- db -->
<g id="node28" class="node">
<title>db</title>
<polygon fill="none" stroke="black" stroke-width="2" points="399.48,-396 345.48,-396 345.48,-360 399.48,-360 399.48,-396"/>
<text text-anchor="middle" x="372.48" y="-373.8" font-family="Helvetica,Arial,sans-serif" font-size="14.00">f:db</text>
</g>
<!-- db&#45;&gt;updatedb -->
<g id="edge51" class="edge">
<title>db-&gt;updatedb</title>
<path fill="none" stroke="black" stroke-dasharray="1,5" d="M377.67,-396.3C379.91,-403.76 382.59,-412.68 385.09,-421.03"/>
<polygon fill="black" stroke="black" points="381.69,-421.87 387.92,-430.45 388.4,-419.86 381.69,-421.87"/>
</g>
<!-- loaddb -->
<g id="node29" class="node">
<title>loaddb</title>
<path fill="none" stroke="black" d="M437.98,-324C437.98,-324 396.99,-324 396.99,-324 390.99,-324 384.99,-318 384.99,-312 384.99,-312 384.99,-300 384.99,-300 384.99,-294 390.99,-288 396.99,-288 396.99,-288 437.98,-288 437.98,-288 443.98,-288 449.98,-294 449.98,-300 449.98,-300 449.98,-312 449.98,-312 449.98,-318 443.98,-324 437.98,-324"/>
<text text-anchor="middle" x="417.48" y="-301.8" font-family="Helvetica,Arial,sans-serif" font-size="14.00">o:loaddb</text>
</g>
<!-- loaddb&#45;&gt;updatedb -->
<g id="edge52" class="edge">
<title>loaddb-&gt;updatedb</title>
<path fill="none" stroke="black" stroke-dasharray="1,5" d="M416.64,-324.19C415.55,-342.21 413.19,-371.29 408.48,-396 406.94,-404.08 404.75,-412.71 402.51,-420.61"/>
<polygon fill="black" stroke="black" points="399.19,-419.48 399.7,-430.07 405.9,-421.48 399.19,-419.48"/>
</g>
<!-- loaddb&#45;&gt;db -->
<g id="edge53" class="edge">
<title>loaddb-&gt;db</title>
<path fill="none" stroke="black" d="M406.36,-324.3C401.29,-332.19 395.18,-341.7 389.55,-350.45"/>
<polygon fill="black" stroke="black" points="386.76,-348.32 384.3,-358.62 392.65,-352.1 386.76,-348.32"/>
</g>
<!-- fillindex -->
<g id="node30" class="node">
<title>fillindex</title>
<path fill="none" stroke="black" d="M612.65,-252C612.65,-252 562.32,-252 562.32,-252 556.32,-252 550.32,-246 550.32,-240 550.32,-240 550.32,-228 550.32,-228 550.32,-222 556.32,-216 562.32,-216 562.32,-216 612.65,-216 612.65,-216 618.65,-216 624.65,-222 624.65,-228 624.65,-228 624.65,-240 624.65,-240 624.65,-246 618.65,-252 612.65,-252"/>
<text text-anchor="middle" x="587.48" y="-229.8" font-family="Helvetica,Arial,sans-serif" font-size="14.00">o:fillindex</text>
</g>
<!-- fillindex&#45;&gt;loaddb -->
<g id="edge54" class="edge">
<title>fillindex-&gt;loaddb</title>
<path fill="none" stroke="black" stroke-dasharray="1,5" d="M550.18,-250.36C523.86,-261.2 488.52,-275.75 460.93,-287.11"/>
<polygon fill="black" stroke="black" points="459.71,-283.83 451.79,-290.87 462.37,-290.3 459.71,-283.83"/>
</g>
<!-- index -->
<g id="node31" class="node">
<title>index</title>
<polygon fill="none" stroke="black" stroke-width="2" points="609.31,-180 553.66,-180 553.66,-144 609.31,-144 609.31,-180"/>
<text text-anchor="middle" x="581.48" y="-157.8" font-family="Helvetica,Arial,sans-serif" font-size="14.00">f:index</text>
</g>
<!-- index&#45;&gt;fillindex -->
<g id="edge55" class="edge">
<title>index-&gt;fillindex</title>
<path fill="none" stroke="black" stroke-dasharray="1,5" d="M582.97,-180.3C583.59,-187.59 584.33,-196.27 585.04,-204.46"/>
<polygon fill="black" stroke="black" points="581.55,-204.72 585.89,-214.39 588.52,-204.13 581.55,-204.72"/>
</g>
<!-- loadindex -->
<g id="node32" class="node">
<title>loadindex</title>
<path fill="none" stroke="black" d="M620.53,-108C620.53,-108 562.43,-108 562.43,-108 556.43,-108 550.43,-102 550.43,-96 550.43,-96 550.43,-84 550.43,-84 550.43,-78 556.43,-72 562.43,-72 562.43,-72 620.53,-72 620.53,-72 626.53,-72 632.53,-78 632.53,-84 632.53,-84 632.53,-96 632.53,-96 632.53,-102 626.53,-108 620.53,-108"/>
<text text-anchor="middle" x="591.48" y="-85.8" font-family="Helvetica,Arial,sans-serif" font-size="14.00">o:loadindex</text>
</g>
<!-- loadindex&#45;&gt;fillindex -->
<g id="edge56" class="edge">
<title>loadindex-&gt;fillindex</title>
<path fill="none" stroke="black" stroke-dasharray="1,5" d="M602.95,-108.33C608.86,-118.31 615.45,-131.35 618.48,-144 622.22,-159.56 622.67,-164.56 618.48,-180 616.01,-189.12 611.54,-198.27 606.75,-206.34"/>
<polygon fill="black" stroke="black" points="603.88,-204.32 601.44,-214.63 609.78,-208.09 603.88,-204.32"/>
</g>
<!-- loadindex&#45;&gt;index -->
<g id="edge57" class="edge">
<title>loadindex-&gt;index</title>
<path fill="none" stroke="black" d="M589.01,-108.3C587.96,-115.68 586.7,-124.48 585.52,-132.75"/>
<polygon fill="black" stroke="black" points="582.09,-132 584.14,-142.4 589.02,-132.99 582.09,-132"/>
</g>
<!-- dbinfo -->
<g id="node33" class="node">
<title>dbinfo</title>
<polygon fill="none" stroke="black" stroke-width="2" points="536.03,-180 474.93,-180 474.93,-144 536.03,-144 536.03,-180"/>
<text text-anchor="middle" x="505.48" y="-157.8" font-family="Helvetica,Arial,sans-serif" font-size="14.00">f:dbinfo</text>
</g>
<!-- dbinfo&#45;&gt;loaddb -->
<g id="edge58" class="edge">
<title>dbinfo-&gt;loaddb</title>
<path fill="none" stroke="black" stroke-dasharray="1,5" d="M503.95,-180.32C501.6,-199.24 495.76,-229.79 481.48,-252 474.5,-262.87 464.56,-272.62 454.6,-280.71"/>
<polygon fill="black" stroke="black" points="452.54,-277.87 446.73,-286.73 456.8,-283.43 452.54,-277.87"/>
</g>
<!-- genall -->
<g id="node34" class="node">
<title>genall</title>
<polygon fill="none" stroke="black" stroke-width="2" points="532.48,-108 478.48,-108 478.48,-72 532.48,-72 532.48,-108"/>
<text text-anchor="middle" x="505.48" y="-85.8" font-family="Helvetica,Arial,sans-serif" font-size="14.00">genall</text>
</g>
<!-- genall&#45;&gt;index -->
<g id="edge60" class="edge">
<title>genall-&gt;index</title>
<path fill="none" stroke="black" d="M524.27,-108.3C533.31,-116.63 544.33,-126.78 554.27,-135.93"/>
<polygon fill="black" stroke="black" points="551.81,-138.43 561.54,-142.63 556.55,-133.28 551.81,-138.43"/>
</g>
<!-- genall&#45;&gt;dbinfo -->
<g id="edge59" class="edge">
<title>genall-&gt;dbinfo</title>
<path fill="none" stroke="black" d="M505.48,-108.3C505.48,-115.59 505.48,-124.27 505.48,-132.46"/>
<polygon fill="black" stroke="black" points="501.98,-132.38 505.48,-142.38 508.98,-132.38 501.98,-132.38"/>
</g>
<!-- db2fastqtaxids -->
<g id="node35" class="node">
<title>db2fastqtaxids</title>
<path fill="none" stroke="black" d="M444.76,-252C444.76,-252 360.21,-252 360.21,-252 354.21,-252 348.21,-246 348.21,-240 348.21,-240 348.21,-228 348.21,-228 348.21,-222 354.21,-216 360.21,-216 360.21,-216 444.76,-216 444.76,-216 450.76,-216 456.76,-222 456.76,-228 456.76,-228 456.76,-240 456.76,-240 456.76,-246 450.76,-252 444.76,-252"/>
<text text-anchor="middle" x="402.48" y="-229.8" font-family="Helvetica,Arial,sans-serif" font-size="14.00">o:db2fastqtaxids</text>
</g>
<!-- db2fastqtaxids&#45;&gt;loaddb -->
<g id="edge61" class="edge">
<title>db2fastqtaxids-&gt;loaddb</title>
<path fill="none" stroke="black" stroke-dasharray="1,5" d="M406.19,-252.3C407.77,-259.68 409.66,-268.48 411.43,-276.75"/>
<polygon fill="black" stroke="black" points="407.98,-277.37 413.5,-286.42 414.83,-275.9 407.98,-277.37"/>
</g>
<!-- db2fastq -->
<g id="node36" class="node">
<title>db2fastq</title>
<polygon fill="none" stroke="black" stroke-width="2" points="444.87,-180 372.1,-180 372.1,-144 444.87,-144 444.87,-180"/>
<text text-anchor="middle" x="408.48" y="-157.8" font-family="Helvetica,Arial,sans-serif" font-size="14.00">f:db2fastq</text>
</g>
<!-- db2fastq&#45;&gt;loaddb -->
<g id="edge63" class="edge">
<title>db2fastq-&gt;loaddb</title>
<path fill="none" stroke="black" stroke-dasharray="1,5" d="M435.36,-180.32C446.93,-189.4 459.22,-201.63 465.48,-216 471.87,-230.67 471.24,-237.07 465.48,-252 461.58,-262.12 454.75,-271.51 447.44,-279.49"/>
<polygon fill="black" stroke="black" points="445.07,-276.91 440.51,-286.48 450.04,-281.84 445.07,-276.91"/>
</g>
<!-- db2fastq&#45;&gt;db2fastqtaxids -->
<g id="edge62" class="edge">
<title>db2fastq-&gt;db2fastqtaxids</title>
<path fill="none" stroke="black" stroke-dasharray="1,5" d="M407,-180.3C406.37,-187.59 405.63,-196.27 404.93,-204.46"/>
<polygon fill="black" stroke="black" points="401.45,-204.13 404.08,-214.39 408.42,-204.72 401.45,-204.13"/>
</g>
<!-- fastqmap -->
<g id="node37" class="node">
<title>fastqmap</title>
<path fill="none" stroke="black" d="M190.59,-468C190.59,-468 136.38,-468 136.38,-468 130.38,-468 124.38,-462 124.38,-456 124.38,-456 124.38,-444 124.38,-444 124.38,-438 130.38,-432 136.38,-432 136.38,-432 190.59,-432 190.59,-432 196.59,-432 202.59,-438 202.59,-444 202.59,-444 202.59,-456 202.59,-456 202.59,-462 196.59,-468 190.59,-468"/>
<text text-anchor="middle" x="163.48" y="-445.8" font-family="Helvetica,Arial,sans-serif" font-size="14.00">o:fastqmap</text>
</g>
<!-- fastqmaptransform -->
<g id="node38" class="node">
<title>fastqmaptransform</title>
<path fill="none" stroke="black" d="M264.8,-396C264.8,-396 156.17,-396 156.17,-396 150.17,-396 144.17,-390 144.17,-384 144.17,-384 144.17,-372 144.17,-372 144.17,-366 150.17,-360 156.17,-360 156.17,-360 264.8,-360 264.8,-360 270.8,-360 276.8,-366 276.8,-372 276.8,-372 276.8,-384 276.8,-384 276.8,-390 270.8,-396 264.8,-396"/>
<text text-anchor="middle" x="210.48" y="-373.8" font-family="Helvetica,Arial,sans-serif" font-size="14.00">o:fastqmaptransform</text>
</g>
<!-- fastqmaptransform&#45;&gt;fastqmap -->
<g id="edge64" class="edge">
<title>fastqmaptransform-&gt;fastqmap</title>
<path fill="none" stroke="black" stroke-dasharray="1,5" d="M198.86,-396.3C193.57,-404.19 187.19,-413.7 181.31,-422.45"/>
<polygon fill="black" stroke="black" points="178.48,-420.39 175.81,-430.64 184.29,-424.29 178.48,-420.39"/>
</g>
<!-- fastqdownload -->
<g id="node39" class="node">
<title>fastqdownload</title>
<path fill="none" stroke="black" d="M165.14,-324C165.14,-324 79.82,-324 79.82,-324 73.82,-324 67.82,-318 67.82,-312 67.82,-312 67.82,-300 67.82,-300 67.82,-294 73.82,-288 79.82,-288 79.82,-288 165.14,-288 165.14,-288 171.14,-288 177.14,-294 177.14,-300 177.14,-300 177.14,-312 177.14,-312 177.14,-318 171.14,-324 165.14,-324"/>
<text text-anchor="middle" x="122.48" y="-301.8" font-family="Helvetica,Arial,sans-serif" font-size="14.00">d:fastqdownload</text>
</g>
<!-- fastqdownload&#45;&gt;fastqmap -->
<g id="edge65" class="edge">
<title>fastqdownload-&gt;fastqmap</title>
<path fill="none" stroke="black" stroke-dasharray="1,5" d="M123.28,-324.46C124.51,-342.7 127.63,-371.95 135.48,-396 138.31,-404.67 142.48,-413.61 146.75,-421.62"/>
<polygon fill="black" stroke="black" points="143.62,-423.19 151.56,-430.2 149.72,-419.77 143.62,-423.19"/>
</g>
<!-- fastqdownload&#45;&gt;fastqmaptransform -->
<g id="edge66" class="edge">
<title>fastqdownload-&gt;fastqmaptransform</title>
<path fill="none" stroke="black" stroke-dasharray="1,5" d="M144.24,-324.3C154.92,-332.8 167.98,-343.19 179.67,-352.49"/>
<polygon fill="black" stroke="black" points="177.49,-355.22 187.49,-358.71 181.84,-349.75 177.49,-355.22"/>
</g>
<!-- filter -->
<g id="node40" class="node">
<title>filter</title>
<polygon fill="none" stroke="black" stroke-width="2" points="270.48,-36 216.48,-36 216.48,0 270.48,0 270.48,-36"/>
<text text-anchor="middle" x="243.48" y="-13.8" font-family="Helvetica,Arial,sans-serif" font-size="14.00">f:filter</text>
</g>
<!-- filter&#45;&gt;loadindex -->
<g id="edge68" class="edge">
<title>filter-&gt;loadindex</title>
<path fill="none" stroke="black" stroke-dasharray="1,5" d="M270.66,-32.88C273.59,-34.06 276.57,-35.13 279.48,-36 388.74,-68.47 424.91,-46.39 539.25,-71.76"/>
<polygon fill="black" stroke="black" points="538.18,-75.11 548.71,-73.94 539.75,-68.29 538.18,-75.11"/>
</g>
<!-- filter&#45;&gt;fastqmaptransform -->
<g id="edge69" class="edge">
<title>filter-&gt;fastqmaptransform</title>
<path fill="none" stroke="black" stroke-dasharray="1,5" d="M243.48,-36.49C243.48,-63.29 243.48,-116.13 243.48,-161 243.48,-161 243.48,-161 243.48,-235 243.48,-275.49 230.6,-320.82 220.93,-349.13"/>
<polygon fill="black" stroke="black" points="217.69,-347.79 217.66,-358.38 224.3,-350.12 217.69,-347.79"/>
</g>
<!-- filter&#45;&gt;fastqdownload -->
<g id="edge67" class="edge">
<title>filter-&gt;fastqdownload</title>
<path fill="none" stroke="black" d="M231.82,-36.34C209.98,-69.64 162.93,-145.51 138.48,-216 131.71,-235.52 127.67,-258.5 125.35,-276.21"/>
<polygon fill="black" stroke="black" points="121.89,-275.69 124.18,-286.03 128.84,-276.51 121.89,-275.69"/>
</g>
<!-- match -->
<g id="node41" class="node">
<title>match</title>
<polygon fill="none" stroke="black" stroke-width="2" points="329.86,-252 271.1,-252 271.1,-216 329.86,-216 329.86,-252"/>
<text text-anchor="middle" x="300.48" y="-229.8" font-family="Helvetica,Arial,sans-serif" font-size="14.00">f:match</text>
</g>
<!-- match&#45;&gt;loaddb -->
<g id="edge71" class="edge">
<title>match-&gt;loaddb</title>
<path fill="none" stroke="black" stroke-dasharray="1,5" d="M329.71,-252.48C344.61,-261.4 362.94,-272.37 378.99,-281.97"/>
<polygon fill="black" stroke="black" points="376.96,-284.83 387.33,-286.96 380.55,-278.82 376.96,-284.83"/>
</g>
<!-- match&#45;&gt;fastqmaptransform -->
<g id="edge72" class="edge">
<title>match-&gt;fastqmaptransform</title>
<path fill="none" stroke="black" stroke-dasharray="1,5" d="M293.72,-252.49C286.18,-271.01 272.99,-300.72 257.48,-324 251.11,-333.57 243.12,-343.22 235.54,-351.62"/>
<polygon fill="black" stroke="black" points="233.16,-349.04 228.92,-358.75 238.29,-353.8 233.16,-349.04"/>
</g>
<!-- match&#45;&gt;fastqdownload -->
<g id="edge70" class="edge">
<title>match-&gt;fastqdownload</title>
<path fill="none" stroke="black" d="M270.69,-246.72C245.28,-256.71 208.09,-271.33 177.32,-283.43"/>
<polygon fill="black" stroke="black" points="176.17,-280.13 168.14,-287.04 178.73,-286.64 176.17,-280.13"/>
</g>
<!-- matchlr -->
<g id="node42" class="node">
<title>matchlr</title>
<polygon fill="none" stroke="black" stroke-width="2" points="215.14,-252 147.83,-252 147.83,-216 215.14,-216 215.14,-252"/>
<text text-anchor="middle" x="181.48" y="-229.8" font-family="Helvetica,Arial,sans-serif" font-size="14.00">f:matchlr</text>
</g>
<!-- matchlr&#45;&gt;loaddb -->
<g id="edge74" class="edge">
<title>matchlr-&gt;loaddb</title>
<path fill="none" stroke="black" stroke-dasharray="1,5" d="M215.55,-245.1C257.29,-257.49 328.1,-278.49 373.81,-292.04"/>
<polygon fill="black" stroke="black" points="372.54,-295.32 383.12,-294.81 374.53,-288.61 372.54,-295.32"/>
</g>
<!-- matchlr&#45;&gt;fastqmaptransform -->
<g id="edge75" class="edge">
<title>matchlr-&gt;fastqmaptransform</title>
<path fill="none" stroke="black" stroke-dasharray="1,5" d="M185.04,-252.41C189.96,-276.5 198.89,-320.25 204.76,-348.97"/>
<polygon fill="black" stroke="black" points="201.26,-349.31 206.69,-358.41 208.11,-347.91 201.26,-349.31"/>
</g>
<!-- matchlr&#45;&gt;fastqdownload -->
<g id="edge73" class="edge">
<title>matchlr-&gt;fastqdownload</title>
<path fill="none" stroke="black" d="M166.9,-252.3C160.04,-260.44 151.72,-270.31 144.15,-279.3"/>
<polygon fill="black" stroke="black" points="141.64,-276.84 137.87,-286.74 147,-281.35 141.64,-276.84"/>
</g>
<!-- krakenres -->
<g id="node43" class="node">
<title>krakenres</title>
<path fill="none" stroke="black" d="M66.97,-252C66.97,-252 12,-252 12,-252 6,-252 0,-246 0,-240 0,-240 0,-228 0,-228 0,-222 6,-216 12,-216 12,-216 66.97,-216 66.97,-216 72.97,-216 78.97,-222 78.97,-228 78.97,-228 78.97,-240 78.97,-240 78.97,-246 72.97,-252 66.97,-252"/>
<text text-anchor="middle" x="39.48" y="-229.8" font-family="Helvetica,Arial,sans-serif" font-size="14.00">f:krakenres</text>
</g>
<!-- krakenres&#45;&gt;taxnodes -->
<g id="edge77" class="edge">
<title>krakenres-&gt;taxnodes</title>
<path fill="none" stroke="black" stroke-dasharray="1,5" d="M31.79,-252.09C20.69,-278.38 1.48,-330.55 1.48,-377 1.48,-377 1.48,-377 1.48,-955 1.48,-1067.17 35.21,-1095.38 98.48,-1188 105.4,-1198.12 114.49,-1207.85 123.29,-1216.14"/>
<polygon fill="black" stroke="black" points="120.67,-1218.49 130.43,-1222.6 125.36,-1213.3 120.67,-1218.49"/>
</g>
<!-- krakenres&#45;&gt;fastqmaptransform -->
<g id="edge78" class="edge">
<title>krakenres-&gt;fastqmaptransform</title>
<path fill="none" stroke="black" stroke-dasharray="1,5" d="M38.45,-252.26C38.23,-271.99 40.92,-304.09 58.48,-324 77.49,-345.55 105.76,-358.34 132.77,-365.93"/>
<polygon fill="black" stroke="black" points="131.82,-369.3 142.37,-368.4 133.56,-362.52 131.82,-369.3"/>
</g>
<!-- krakenres&#45;&gt;fastqdownload -->
<g id="edge76" class="edge">
<title>krakenres-&gt;fastqdownload</title>
<path fill="none" stroke="black" d="M60,-252.3C70.08,-260.8 82.39,-271.19 93.42,-280.49"/>
<polygon fill="black" stroke="black" points="90.86,-282.91 100.76,-286.68 95.37,-277.55 90.86,-282.91"/>
</g>
</g>
</svg>