<svg width="619" height="855" viewBox="0 0 464.25 641.25" xmlns="http://www.w3.org/2000/svg" xmlns:xlink="http://www.w3.org/1999/xlink">
<g id="graph0" class="graph" transform="translate(1.4403499436643723,599.332714099056) scale(0.3600874859160931)">
<title>regexp</title>
<polygon fill="white" stroke="none" points="-4,4 -4,-1552 1285.27,-1552 1285.27,4 -4,4"/>
<!-- showall -->
<g id="node1" class="node">
<title>showall</title>
<polygon fill="none" stroke="black" stroke-width="2" points="390.78,-36 331.22,-36 331.22,0 390.78,0 390.78,-36"/>
<text text-anchor="middle" x="361" y="-13.8" font-family="Helvetica,Arial,sans-serif" font-size="14.00">showall</text>
</g>
<!-- show -->
<g id="node2" class="node">
<title>show</title>
<polygon fill="none" stroke="black" stroke-width="2" points="463,-36 409,-36 409,0 463,0 463,-36"/>
<text text-anchor="middle" x="436" y="-13.8" font-family="Helvetica,Arial,sans-serif" font-size="14.00">show</text>
</g>
<!-- commonsetup -->
<g id="node3" class="node">
<title>commonsetup</title>
<path fill="none" stroke="black" d="M615.55,-1548C615.55,-1548 536.45,-1548 536.45,-1548 530.45,-1548 524.45,-1542 524.45,-1536 524.45,-1536 524.45,-1524 524.45,-1524 524.45,-1518 530.45,-1512 536.45,-1512 536.45,-1512 615.55,-1512 615.55,-1512 621.55,-1512 627.55,-1518 627.55,-1524 627.55,-1524 627.55,-1536 627.55,-1536 627.55,-1542 621.55,-1548 615.55,-1548"/>
<text text-anchor="middle" x="576" y="-1525.8" font-family="Helvetica,Arial,sans-serif" font-size="14.00">f:commonsetup</text>
</g>
<!-- taxdownload -->
<g id="node4" class="node">
<title>taxdownload</title>
<path fill="none" stroke="black" d="M875.6,-1476C875.6,-1476 800.4,-1476 800.4,-1476 794.4,-1476 788.4,-1470 788.4,-1464 788.4,-1464 788.4,-1452 788.4,-1452 788.4,-1446 794.4,-1440 800.4,-1440 800.4,-1440 875.6,-1440 875.6,-1440 881.6,-1440 887.6,-1446 887.6,-1452 887.6,-1452 887.6,-1464 887.6,-1464 887.6,-1470 881.6,-1476 875.6,-1476"/>
<text text-anchor="middle" x="838" y="-1453.8" font-family="Helvetica,Arial,sans-serif" font-size="14.00">d:taxdownload</text>
</g>
<!-- taxdownload&#45;&gt;commonsetup -->
<g id="edge1" class="edge">
<title>taxdownload-&gt;commonsetup</title>
<path fill="none" stroke="black" d="M788.13,-1473.46C785.04,-1474.33 781.98,-1475.18 779,-1476 732.13,-1488.87 678.96,-1502.72 638.79,-1513.04"/>
<polygon fill="black" stroke="black" points="638.11,-1509.6 629.29,-1515.48 639.85,-1516.38 638.11,-1509.6"/>
</g>
<!-- taxtree -->
<g id="node5" class="node">
<title>taxtree</title>
<path fill="none" stroke="black" d="M858.49,-1332C858.49,-1332 817.51,-1332 817.51,-1332 811.51,-1332 805.51,-1326 805.51,-1320 805.51,-1320 805.51,-1308 805.51,-1308 805.51,-1302 811.51,-1296 817.51,-1296 817.51,-1296 858.49,-1296 858.49,-1296 864.49,-1296 870.49,-1302 870.49,-1308 870.49,-1308 870.49,-1320 870.49,-1320 870.49,-1326 864.49,-1332 858.49,-1332"/>
<text text-anchor="middle" x="838" y="-1309.8" font-family="Helvetica,Arial,sans-serif" font-size="14.00">o:taxtree</text>
</g>
<!-- taxtree&#45;&gt;taxdownload -->
<g id="edge2" class="edge">
<title>taxtree-&gt;taxdownload</title>
<path fill="none" stroke="black" d="M838,-1332.41C838,-1356.39 838,-1399.86 838,-1428.58"/>
<polygon fill="black" stroke="black" points="834.5,-1428.38 838,-1438.38 841.5,-1428.38 834.5,-1428.38"/>
</g>
<!-- taxnodes -->
<g id="node6" class="node">
<title>taxnodes</title>
<path fill="none" stroke="black" d="M914.33,-1260C914.33,-1260 861.67,-1260 861.67,-1260 855.67,-1260 849.67,-1254 849.67,-1248 849.67,-1248 849.67,-1236 849.67,-1236 849.67,-1230 855.67,-1224 861.67,-1224 861.67,-1224 914.33,-1224 914.33,-1224 920.33,-1224 926.33,-1230 926.33,-1236 926.33,-1236 926.33,-1248 926.33,-1248 926.33,-1254 920.33,-1260 914.33,-1260"/>
<text text-anchor="middle" x="888" y="-1237.8" font-family="Helvetica,Arial,sans-serif" font-size="14.00">o:taxnodes</text>
</g>
<!-- taxnodes&#45;&gt;taxtree -->
<g id="edge3" class="edge">
<title>taxnodes-&gt;taxtree</title>
<path fill="none" stroke="black" stroke-dasharray="1,5" d="M875.64,-1260.3C869.95,-1268.27 863.07,-1277.9 856.76,-1286.74"/>
<polygon fill="black" stroke="black" points="854.06,-1284.49 851.1,-1294.66 859.76,-1288.56 854.06,-1284.49"/>
</g>
<!-- refseqrelease -->
<g id="node7" class="node">
<title>refseqrelease</title>
<path fill="none" stroke="black" d="M465.97,-1476C465.97,-1476 390.03,-1476 390.03,-1476 384.03,-1476 378.03,-1470 378.03,-1464 378.03,-1464 378.03,-1452 378.03,-1452 378.03,-1446 384.03,-1440 390.03,-1440 390.03,-1440 465.97,-1440 465.97,-1440 471.97,-1440 477.97,-1446 477.97,-1452 477.97,-1452 477.97,-1464 477.97,-1464 477.97,-1470 471.97,-1476 465.97,-1476"/>
<text text-anchor="middle" x="428" y="-1453.8" font-family="Helvetica,Arial,sans-serif" font-size="14.00">d:refseqrelease</text>
</g>
<!-- refseqrelease&#45;&gt;commonsetup -->
<g id="edge4" class="edge">
<title>refseqrelease-&gt;commonsetup</title>
<path fill="none" stroke="black" d="M464.96,-1476.48C484.37,-1485.66 508.36,-1497.01 529.07,-1506.8"/>
<polygon fill="black" stroke="black" points="527.35,-1509.86 537.88,-1510.97 530.34,-1503.53 527.35,-1509.86"/>
</g>
<!-- checkrefseqrnum -->
<g id="node8" class="node">
<title>checkrefseqrnum</title>
<path fill="none" stroke="black" d="M385.64,-1404C385.64,-1404 286.36,-1404 286.36,-1404 280.36,-1404 274.36,-1398 274.36,-1392 274.36,-1392 274.36,-1380 274.36,-1380 274.36,-1374 280.36,-1368 286.36,-1368 286.36,-1368 385.64,-1368 385.64,-1368 391.64,-1368 397.64,-1374 397.64,-1380 397.64,-1380 397.64,-1392 397.64,-1392 397.64,-1398 391.64,-1404 385.64,-1404"/>
<text text-anchor="middle" x="336" y="-1381.8" font-family="Helvetica,Arial,sans-serif" font-size="14.00">o:checkrefseqrnum</text>
</g>
<!-- checkrefseqrnum&#45;&gt;refseqrelease -->
<g id="edge5" class="edge">
<title>checkrefseqrnum-&gt;refseqrelease</title>
<path fill="none" stroke="black" d="M358.74,-1404.3C370.02,-1412.89 383.83,-1423.39 396.14,-1432.76"/>
<polygon fill="black" stroke="black" points="393.92,-1435.47 404,-1438.74 398.16,-1429.9 393.92,-1435.47"/>
</g>
<!-- refseqprop -->
<g id="node9" class="node">
<title>refseqprop</title>
<path fill="none" stroke="black" d="M606.21,-1476C606.21,-1476 545.79,-1476 545.79,-1476 539.79,-1476 533.79,-1470 533.79,-1464 533.79,-1464 533.79,-1452 533.79,-1452 533.79,-1446 539.79,-1440 545.79,-1440 545.79,-1440 606.21,-1440 606.21,-1440 612.21,-1440 618.21,-1446 618.21,-1452 618.21,-1452 618.21,-1464 618.21,-1464 618.21,-1470 612.21,-1476 606.21,-1476"/>
<text text-anchor="middle" x="576" y="-1453.8" font-family="Helvetica,Arial,sans-serif" font-size="14.00">f:refseqprop</text>
</g>
<!-- refseqprop&#45;&gt;commonsetup -->
<g id="edge6" class="edge">
<title>refseqprop-&gt;commonsetup</title>
<path fill="none" stroke="black" d="M576,-1476.3C576,-1483.59 576,-1492.27 576,-1500.46"/>
<polygon fill="black" stroke="black" points="572.5,-1500.38 576,-1510.38 579.5,-1500.38 572.5,-1500.38"/>
</g>
<!-- refseqcat -->
<g id="node10" class="node">
<title>refseqcat</title>
<path fill="none" stroke="black" d="M506.7,-1404C506.7,-1404 453.3,-1404 453.3,-1404 447.3,-1404 441.3,-1398 441.3,-1392 441.3,-1392 441.3,-1380 441.3,-1380 441.3,-1374 447.3,-1368 453.3,-1368 453.3,-1368 506.7,-1368 506.7,-1368 512.7,-1368 518.7,-1374 518.7,-1380 518.7,-1380 518.7,-1392 518.7,-1392 518.7,-1398 512.7,-1404 506.7,-1404"/>
<text text-anchor="middle" x="480" y="-1381.8" font-family="Helvetica,Arial,sans-serif" font-size="14.00">d:refseqcat</text>
</g>
<!-- refseqcat&#45;&gt;commonsetup -->
<g id="edge7" class="edge">
<title>refseqcat-&gt;commonsetup</title>
<path fill="none" stroke="black" d="M486.89,-1404.25C494.72,-1422.83 508.57,-1452.84 525,-1476 531.87,-1485.68 540.48,-1495.33 548.66,-1503.68"/>
<polygon fill="black" stroke="black" points="545.97,-1505.94 555.54,-1510.49 550.9,-1500.97 545.97,-1505.94"/>
</g>
<!-- refseqcat&#45;&gt;refseqrelease -->
<g id="edge8" class="edge">
<title>refseqcat-&gt;refseqrelease</title>
<path fill="none" stroke="black" d="M467.15,-1404.3C461.23,-1412.27 454.07,-1421.9 447.51,-1430.74"/>
<polygon fill="black" stroke="black" points="444.76,-1428.57 441.61,-1438.68 450.38,-1432.74 444.76,-1428.57"/>
</g>
<!-- checksummap -->
<g id="node11" class="node">
<title>checksummap</title>
<path fill="none" stroke="black" d="M574.49,-1332C574.49,-1332 491.51,-1332 491.51,-1332 485.51,-1332 479.51,-1326 479.51,-1320 479.51,-1320 479.51,-1308 479.51,-1308 479.51,-1302 485.51,-1296 491.51,-1296 491.51,-1296 574.49,-1296 574.49,-1296 580.49,-1296 586.49,-1302 586.49,-1308 586.49,-1308 586.49,-1320 586.49,-1320 586.49,-1326 580.49,-1332 574.49,-1332"/>
<text text-anchor="middle" x="533" y="-1309.8" font-family="Helvetica,Arial,sans-serif" font-size="14.00">o:checksummap</text>
</g>
<!-- checksummap&#45;&gt;refseqcat -->
<g id="edge9" class="edge">
<title>checksummap-&gt;refseqcat</title>
<path fill="none" stroke="black" d="M519.9,-1332.3C513.87,-1340.27 506.58,-1349.9 499.89,-1358.74"/>
<polygon fill="black" stroke="black" points="497.11,-1356.6 493.86,-1366.69 502.69,-1360.83 497.11,-1356.6"/>
</g>
<!-- clear -->
<g id="node12" class="node">
<title>clear</title>
<polygon fill="none" stroke="black" stroke-width="2" points="855,-36 801,-36 801,0 855,0 855,-36"/>
<text text-anchor="middle" x="828" y="-13.8" font-family="Helvetica,Arial,sans-serif" font-size="14.00">f:clear</text>
</g>
<!-- categories -->
<g id="node13" class="node">
<title>categories</title>
<path fill="none" stroke="black" d="M219.82,-1404C219.82,-1404 160.18,-1404 160.18,-1404 154.18,-1404 148.18,-1398 148.18,-1392 148.18,-1392 148.18,-1380 148.18,-1380 148.18,-1374 154.18,-1368 160.18,-1368 160.18,-1368 219.82,-1368 219.82,-1368 225.82,-1368 231.82,-1374 231.82,-1380 231.82,-1380 231.82,-1392 231.82,-1392 231.82,-1398 225.82,-1404 219.82,-1404"/>
<text text-anchor="middle" x="190" y="-1381.8" font-family="Helvetica,Arial,sans-serif" font-size="14.00">o:categories</text>
</g>
<!-- refseqfna -->
<g id="node14" class="node">
<title>refseqfna</title>
<path fill="none" stroke="black" d="M255.48,-1260C255.48,-1260 200.52,-1260 200.52,-1260 194.52,-1260 188.52,-1254 188.52,-1248 188.52,-1248 188.52,-1236 188.52,-1236 188.52,-1230 194.52,-1224 200.52,-1224 200.52,-1224 255.48,-1224 255.48,-1224 261.48,-1224 267.48,-1230 267.48,-1236 267.48,-1236 267.48,-1248 267.48,-1248 267.48,-1254 261.48,-1260 255.48,-1260"/>
<text text-anchor="middle" x="228" y="-1237.8" font-family="Helvetica,Arial,sans-serif" font-size="14.00">d:refseqfna</text>
</g>
<!-- refseqfna&#45;&gt;checkrefseqrnum -->
<g id="edge13" class="edge">
<title>refseqfna-&gt;checkrefseqrnum</title>
<path fill="none" stroke="black" stroke-dasharray="1,5" d="M228.97,-1260.34C230.82,-1279.55 236.23,-1310.62 252,-1332 260.89,-1344.05 273.42,-1354.03 286.09,-1361.95"/>
<polygon fill="black" stroke="black" points="284.05,-1364.81 294.45,-1366.84 287.59,-1358.77 284.05,-1364.81"/>
</g>
<!-- refseqfna&#45;&gt;refseqcat -->
<g id="edge11" class="edge">
<title>refseqfna-&gt;refseqcat</title>
<path fill="none" stroke="black" d="M251.26,-1260.34C277.22,-1279.28 320.87,-1309.85 361,-1332 383.21,-1344.26 408.79,-1355.95 430.54,-1365.21"/>
<polygon fill="black" stroke="black" points="428.9,-1368.32 439.48,-1368.97 431.62,-1361.87 428.9,-1368.32"/>
</g>
<!-- refseqfna&#45;&gt;checksummap -->
<g id="edge12" class="edge">
<title>refseqfna-&gt;checksummap</title>
<path fill="none" stroke="black" stroke-dasharray="1,5" d="M267.71,-1250.99C313.78,-1260.41 392.27,-1276.9 468.53,-1295.45"/>
<polygon fill="black" stroke="black" points="467.26,-1298.74 477.81,-1297.72 468.93,-1291.94 467.26,-1298.74"/>
</g>
<!-- refseqfna&#45;&gt;categories -->
<g id="edge10" class="edge">
<title>refseqfna-&gt;categories</title>
<path fill="none" stroke="black" stroke-dasharray="1,5" d="M223.34,-1260.41C216.9,-1284.5 205.19,-1328.25 197.5,-1356.97"/>
<polygon fill="black" stroke="black" points="194.17,-1355.86 194.97,-1366.43 200.94,-1357.67 194.17,-1355.86"/>
</g>
<!-- accmapsize -->
<g id="node15" class="node">
<title>accmapsize</title>
<path fill="none" stroke="black" d="M449.7,-1332C449.7,-1332 382.3,-1332 382.3,-1332 376.3,-1332 370.3,-1326 370.3,-1320 370.3,-1320 370.3,-1308 370.3,-1308 370.3,-1302 376.3,-1296 382.3,-1296 382.3,-1296 449.7,-1296 449.7,-1296 455.7,-1296 461.7,-1302 461.7,-1308 461.7,-1308 461.7,-1320 461.7,-1320 461.7,-1326 455.7,-1332 449.7,-1332"/>
<text text-anchor="middle" x="416" y="-1309.8" font-family="Helvetica,Arial,sans-serif" font-size="14.00">o:accmapsize</text>
</g>
<!-- accmapsize&#45;&gt;refseqcat -->
<g id="edge15" class="edge">
<title>accmapsize-&gt;refseqcat</title>
<path fill="none" stroke="black" d="M431.82,-1332.3C439.34,-1340.53 448.47,-1350.52 456.76,-1359.58"/>
<polygon fill="black" stroke="black" points="454.01,-1361.76 463.34,-1366.78 459.18,-1357.04 454.01,-1361.76"/>
</g>
<!-- accmapsize&#45;&gt;categories -->
<g id="edge14" class="edge">
<title>accmapsize-&gt;categories</title>
<path fill="none" stroke="black" stroke-dasharray="1,5" d="M369.99,-1329.25C333.07,-1340.69 281.21,-1356.75 242.63,-1368.7"/>
<polygon fill="black" stroke="black" points="242.09,-1365.2 233.57,-1371.5 244.16,-1371.89 242.09,-1365.2"/>
</g>
<!-- accmap -->
<g id="node16" class="node">
<title>accmap</title>
<path fill="none" stroke="black" d="M527.82,-1260C527.82,-1260 482.18,-1260 482.18,-1260 476.18,-1260 470.18,-1254 470.18,-1248 470.18,-1248 470.18,-1236 470.18,-1236 470.18,-1230 476.18,-1224 482.18,-1224 482.18,-1224 527.82,-1224 527.82,-1224 533.82,-1224 539.82,-1230 539.82,-1236 539.82,-1236 539.82,-1248 539.82,-1248 539.82,-1254 533.82,-1260 527.82,-1260"/>
<text text-anchor="middle" x="505" y="-1237.8" font-family="Helvetica,Arial,sans-serif" font-size="14.00">o:accmap</text>
</g>
<!-- accmap&#45;&gt;taxtree -->
<g id="edge16" class="edge">
<title>accmap-&gt;taxtree</title>
<path fill="none" stroke="black" stroke-dasharray="1,5" d="M540.01,-1250.36C601.25,-1263.23 727.68,-1289.81 794.46,-1303.85"/>
<polygon fill="black" stroke="black" points="793.44,-1307.21 803.95,-1305.84 794.88,-1300.36 793.44,-1307.21"/>
</g>
<!-- accmap&#45;&gt;refseqcat -->
<g id="edge18" class="edge">
<title>accmap-&gt;refseqcat</title>
<path fill="none" stroke="black" d="M539.99,-1253.82C559.92,-1261.98 583.21,-1275.38 595,-1296 602.94,-1309.89 603.63,-1318.53 595,-1332 580.56,-1354.56 553.81,-1367.65 529.75,-1375.17"/>
<polygon fill="black" stroke="black" points="529.05,-1371.73 520.39,-1377.84 530.97,-1378.47 529.05,-1371.73"/>
</g>
<!-- accmap&#45;&gt;categories -->
<g id="edge17" class="edge">
<title>accmap-&gt;categories</title>
<path fill="none" stroke="black" stroke-dasharray="1,5" d="M469.77,-1252.26C439.66,-1261.03 395.81,-1275.84 361,-1296 339.43,-1308.49 339.32,-1319.08 318,-1332 294.54,-1346.21 266.59,-1358.28 242.79,-1367.29"/>
<polygon fill="black" stroke="black" points="241.77,-1363.94 233.6,-1370.69 244.2,-1370.51 241.77,-1363.94"/>
</g>
<!-- accmap&#45;&gt;accmapsize -->
<g id="edge19" class="edge">
<title>accmap-&gt;accmapsize</title>
<path fill="none" stroke="black" stroke-dasharray="1,5" d="M483,-1260.3C472.09,-1268.89 458.73,-1279.39 446.82,-1288.76"/>
<polygon fill="black" stroke="black" points="444.94,-1285.78 439.25,-1294.72 449.27,-1291.29 444.94,-1285.78"/>
</g>
<!-- taxfromgenbank -->
<g id="node17" class="node">
<title>taxfromgenbank</title>
<path fill="none" stroke="black" d="M696.32,-1188C696.32,-1188 601.68,-1188 601.68,-1188 595.68,-1188 589.68,-1182 589.68,-1176 589.68,-1176 589.68,-1164 589.68,-1164 589.68,-1158 595.68,-1152 601.68,-1152 601.68,-1152 696.32,-1152 696.32,-1152 702.32,-1152 708.32,-1158 708.32,-1164 708.32,-1164 708.32,-1176 708.32,-1176 708.32,-1182 702.32,-1188 696.32,-1188"/>
<text text-anchor="middle" x="649" y="-1165.8" font-family="Helvetica,Arial,sans-serif" font-size="14.00">o:taxfromgenbank</text>
</g>
<!-- taxfromgenbank&#45;&gt;taxnodes -->
<g id="edge21" class="edge">
<title>taxfromgenbank-&gt;taxnodes</title>
<path fill="none" stroke="black" stroke-dasharray="1,5" d="M708.69,-1188.48C748.71,-1200.2 800.78,-1215.46 838.49,-1226.5"/>
<polygon fill="black" stroke="black" points="837.18,-1229.76 847.76,-1229.22 839.15,-1223.05 837.18,-1229.76"/>
</g>
<!-- taxfromgenbank&#45;&gt;categories -->
<g id="edge20" class="edge">
<title>taxfromgenbank-&gt;categories</title>
<path fill="none" stroke="black" stroke-dasharray="1,5" d="M648.87,-1188.44C647.59,-1222.17 639.55,-1296.13 595,-1332 537.54,-1378.27 337.76,-1355.83 265,-1368 258,-1369.17 250.67,-1370.59 243.46,-1372.1"/>
<polygon fill="black" stroke="black" points="242.78,-1368.67 233.75,-1374.21 244.27,-1375.51 242.78,-1368.67"/>
</g>
<!-- taxfromgenbank&#45;&gt;accmap -->
<g id="edge22" class="edge">
<title>taxfromgenbank-&gt;accmap</title>
<path fill="none" stroke="black" stroke-dasharray="1,5" d="M613.03,-1188.48C594.02,-1197.73 570.49,-1209.16 550.25,-1219"/>
<polygon fill="black" stroke="black" points="548.84,-1215.8 541.37,-1223.32 551.9,-1222.1 548.84,-1215.8"/>
</g>
<!-- assemblydownload -->
<g id="node18" class="node">
<title>assemblydownload</title>
<path fill="none" stroke="black" d="M758.1,-1476C758.1,-1476 647.9,-1476 647.9,-1476 641.9,-1476 635.9,-1470 635.9,-1464 635.9,-1464 635.9,-1452 635.9,-1452 635.9,-1446 641.9,-1440 647.9,-1440 647.9,-1440 758.1,-1440 758.1,-1440 764.1,-1440 770.1,-1446 770.1,-1452 770.1,-1452 770.1,-1464 770.1,-1464 770.1,-1470 764.1,-1476 758.1,-1476"/>
<text text-anchor="middle" x="703" y="-1453.8" font-family="Helvetica,Arial,sans-serif" font-size="14.00">d:assemblydownload</text>
</g>
<!-- assemblydownload&#45;&gt;commonsetup -->
<g id="edge23" class="edge">
<title>assemblydownload-&gt;commonsetup</title>
<path fill="none" stroke="black" d="M671.28,-1476.48C654.94,-1485.49 634.83,-1496.58 617.29,-1506.24"/>
<polygon fill="black" stroke="black" points="615.71,-1503.12 608.64,-1511.01 619.09,-1509.25 615.71,-1503.12"/>
</g>
<!-- fastasgenbank -->
<g id="node19" class="node">
<title>fastasgenbank</title>
<path fill="none" stroke="black" d="M766.1,-1116C766.1,-1116 683.9,-1116 683.9,-1116 677.9,-1116 671.9,-1110 671.9,-1104 671.9,-1104 671.9,-1092 671.9,-1092 671.9,-1086 677.9,-1080 683.9,-1080 683.9,-1080 766.1,-1080 766.1,-1080 772.1,-1080 778.1,-1086 778.1,-1092 778.1,-1092 778.1,-1104 778.1,-1104 778.1,-1110 772.1,-1116 766.1,-1116"/>
<text text-anchor="middle" x="725" y="-1093.8" font-family="Helvetica,Arial,sans-serif" font-size="14.00">o:fastasgenbank</text>
</g>
<!-- fastasgenbank&#45;&gt;taxtree -->
<g id="edge24" class="edge">
<title>fastasgenbank-&gt;taxtree</title>
<path fill="none" stroke="black" stroke-dasharray="1,5" d="M733.2,-1116.14C738.13,-1126.5 744.49,-1139.98 750,-1152 771.87,-1199.76 771.34,-1214.74 798,-1260 803.36,-1269.09 810,-1278.46 816.32,-1286.74"/>
<polygon fill="black" stroke="black" points="813.38,-1288.66 822.3,-1294.37 818.88,-1284.34 813.38,-1288.66"/>
</g>
<!-- fastasgenbank&#45;&gt;taxfromgenbank -->
<g id="edge25" class="edge">
<title>fastasgenbank-&gt;taxfromgenbank</title>
<path fill="none" stroke="black" stroke-dasharray="1,5" d="M706.21,-1116.3C697.17,-1124.63 686.16,-1134.78 676.22,-1143.93"/>
<polygon fill="black" stroke="black" points="673.93,-1141.28 668.95,-1150.63 678.67,-1146.43 673.93,-1141.28"/>
</g>
<!-- fastasgenbank&#45;&gt;assemblydownload -->
<g id="edge26" class="edge">
<title>fastasgenbank-&gt;assemblydownload</title>
<path fill="none" stroke="black" stroke-dasharray="1,5" d="M727.23,-1116.45C730.44,-1143.21 736,-1196 736,-1241 736,-1241 736,-1241 736,-1315 736,-1355.49 723.12,-1400.82 713.45,-1429.13"/>
<polygon fill="black" stroke="black" points="710.21,-1427.79 710.18,-1438.38 716.81,-1430.12 710.21,-1427.79"/>
</g>
<!-- fastasgenbankdl -->
<g id="node20" class="node">
<title>fastasgenbankdl</title>
<path fill="none" stroke="black" d="M771.54,-1044C771.54,-1044 678.46,-1044 678.46,-1044 672.46,-1044 666.46,-1038 666.46,-1032 666.46,-1032 666.46,-1020 666.46,-1020 666.46,-1014 672.46,-1008 678.46,-1008 678.46,-1008 771.54,-1008 771.54,-1008 777.54,-1008 783.54,-1014 783.54,-1020 783.54,-1020 783.54,-1032 783.54,-1032 783.54,-1038 777.54,-1044 771.54,-1044"/>
<text text-anchor="middle" x="725" y="-1021.8" font-family="Helvetica,Arial,sans-serif" font-size="14.00">d:fastasgenbankdl</text>
</g>
<!-- fastasgenbankdl&#45;&gt;fastasgenbank -->
<g id="edge27" class="edge">
<title>fastasgenbankdl-&gt;fastasgenbank</title>
<path fill="none" stroke="black" stroke-dasharray="1,5" d="M725,-1044.3C725,-1051.59 725,-1060.27 725,-1068.46"/>
<polygon fill="black" stroke="black" points="721.5,-1068.38 725,-1078.38 728.5,-1068.38 721.5,-1068.38"/>
</g>
<!-- adddownloads -->
<g id="node21" class="node">
<title>adddownloads</title>
<path fill="none" stroke="black" d="M559.88,-1044C559.88,-1044 476.12,-1044 476.12,-1044 470.12,-1044 464.12,-1038 464.12,-1032 464.12,-1032 464.12,-1020 464.12,-1020 464.12,-1014 470.12,-1008 476.12,-1008 476.12,-1008 559.88,-1008 559.88,-1008 565.88,-1008 571.88,-1014 571.88,-1020 571.88,-1020 571.88,-1032 571.88,-1032 571.88,-1038 565.88,-1044 559.88,-1044"/>
<text text-anchor="middle" x="518" y="-1021.8" font-family="Helvetica,Arial,sans-serif" font-size="14.00">d:adddownloads</text>
</g>
<!-- addfastas -->
<g id="node22" class="node">
<title>addfastas</title>
<path fill="none" stroke="black" d="M651.49,-972C651.49,-972 596.51,-972 596.51,-972 590.51,-972 584.51,-966 584.51,-960 584.51,-960 584.51,-948 584.51,-948 584.51,-942 590.51,-936 596.51,-936 596.51,-936 651.49,-936 651.49,-936 657.49,-936 663.49,-942 663.49,-948 663.49,-948 663.49,-960 663.49,-960 663.49,-966 657.49,-972 651.49,-972"/>
<text text-anchor="middle" x="624" y="-949.8" font-family="Helvetica,Arial,sans-serif" font-size="14.00">o:addfastas</text>
</g>
<!-- addfastas&#45;&gt;taxtree -->
<g id="edge29" class="edge">
<title>addfastas-&gt;taxtree</title>
<path fill="none" stroke="black" stroke-dasharray="1,5" d="M663.86,-956.46C702.5,-960.09 759.98,-971.74 793,-1008 820.23,-1037.91 812,-1056.55 812,-1097 812,-1097 812,-1097 812,-1171 812,-1211.09 822.15,-1256.52 829.77,-1284.97"/>
<polygon fill="black" stroke="black" points="826.29,-1285.54 832.33,-1294.24 833.04,-1283.67 826.29,-1285.54"/>
</g>
<!-- addfastas&#45;&gt;fastasgenbank -->
<g id="edge30" class="edge">
<title>addfastas-&gt;fastasgenbank</title>
<path fill="none" stroke="black" stroke-dasharray="1,5" d="M627.46,-972.43C631.87,-991.43 640.94,-1022.06 657,-1044 665,-1054.93 675.84,-1064.75 686.52,-1072.89"/>
<polygon fill="black" stroke="black" points="684.4,-1075.68 694.55,-1078.7 688.5,-1070.01 684.4,-1075.68"/>
</g>
<!-- addfastas&#45;&gt;fastasgenbankdl -->
<g id="edge31" class="edge">
<title>addfastas-&gt;fastasgenbankdl</title>
<path fill="none" stroke="black" d="M649.23,-972.48C661.85,-981.24 677.32,-991.96 690.98,-1001.42"/>
<polygon fill="black" stroke="black" points="688.64,-1004.06 698.85,-1006.88 692.63,-998.3 688.64,-1004.06"/>
</g>
<!-- addfastas&#45;&gt;adddownloads -->
<g id="edge28" class="edge">
<title>addfastas-&gt;adddownloads</title>
<path fill="none" stroke="black" d="M597.53,-972.48C584.27,-981.24 568.04,-991.96 553.7,-1001.42"/>
<polygon fill="black" stroke="black" points="551.82,-998.47 545.4,-1006.91 555.67,-1004.32 551.82,-998.47"/>
</g>
<!-- extractrefseqfasta -->
<g id="node23" class="node">
<title>extractrefseqfasta</title>
<path fill="none" stroke="black" d="M407.8,-1188C407.8,-1188 306.2,-1188 306.2,-1188 300.2,-1188 294.2,-1182 294.2,-1176 294.2,-1176 294.2,-1164 294.2,-1164 294.2,-1158 300.2,-1152 306.2,-1152 306.2,-1152 407.8,-1152 407.8,-1152 413.8,-1152 419.8,-1158 419.8,-1164 419.8,-1164 419.8,-1176 419.8,-1176 419.8,-1182 413.8,-1188 407.8,-1188"/>
<text text-anchor="middle" x="357" y="-1165.8" font-family="Helvetica,Arial,sans-serif" font-size="14.00">o:extractrefseqfasta</text>
</g>
<!-- extractrefseqfasta&#45;&gt;taxnodes -->
<g id="edge34" class="edge">
<title>extractrefseqfasta-&gt;taxnodes</title>
<path fill="none" stroke="black" stroke-dasharray="1,5" d="M420.26,-1179.34C527.02,-1193.41 740.8,-1221.59 837.92,-1234.4"/>
<polygon fill="black" stroke="black" points="837.3,-1237.85 847.67,-1235.68 838.22,-1230.91 837.3,-1237.85"/>
</g>
<!-- extractrefseqfasta&#45;&gt;categories -->
<g id="edge33" class="edge">
<title>extractrefseqfasta-&gt;categories</title>
<path fill="none" stroke="black" stroke-dasharray="1,5" d="M343.62,-1188.15C314.48,-1225.48 245.17,-1314.31 210.49,-1358.74"/>
<polygon fill="black" stroke="black" points="207.77,-1356.54 204.38,-1366.57 213.29,-1360.84 207.77,-1356.54"/>
</g>
<!-- extractrefseqfasta&#45;&gt;refseqfna -->
<g id="edge35" class="edge">
<title>extractrefseqfasta-&gt;refseqfna</title>
<path fill="none" stroke="black" d="M324.78,-1188.48C308.11,-1197.53 287.56,-1208.68 269.69,-1218.38"/>
<polygon fill="black" stroke="black" points="268.26,-1215.17 261.14,-1223.02 271.6,-1221.32 268.26,-1215.17"/>
</g>
<!-- extractrefseqfasta&#45;&gt;accmap -->
<g id="edge32" class="edge">
<title>extractrefseqfasta-&gt;accmap</title>
<path fill="none" stroke="black" stroke-dasharray="1,5" d="M393.96,-1188.48C413.81,-1197.87 438.45,-1209.52 459.47,-1219.47"/>
<polygon fill="black" stroke="black" points="457.87,-1222.58 468.41,-1223.69 460.87,-1216.25 457.87,-1222.58"/>
</g>
<!-- extractrefseqcsv -->
<g id="node24" class="node">
<title>extractrefseqcsv</title>
<path fill="none" stroke="black" d="M402.75,-1116C402.75,-1116 311.25,-1116 311.25,-1116 305.25,-1116 299.25,-1110 299.25,-1104 299.25,-1104 299.25,-1092 299.25,-1092 299.25,-1086 305.25,-1080 311.25,-1080 311.25,-1080 402.75,-1080 402.75,-1080 408.75,-1080 414.75,-1086 414.75,-1092 414.75,-1092 414.75,-1104 414.75,-1104 414.75,-1110 408.75,-1116 402.75,-1116"/>
<text text-anchor="middle" x="357" y="-1093.8" font-family="Helvetica,Arial,sans-serif" font-size="14.00">f:extractrefseqcsv</text>
</g>
<!-- extractrefseqcsv&#45;&gt;extractrefseqfasta -->
<g id="edge36" class="edge">
<title>extractrefseqcsv-&gt;extractrefseqfasta</title>
<path fill="none" stroke="black" stroke-dasharray="1,5" d="M357,-1116.3C357,-1123.59 357,-1132.27 357,-1140.46"/>
<polygon fill="black" stroke="black" points="353.5,-1140.38 357,-1150.38 360.5,-1140.38 353.5,-1140.38"/>
</g>
<!-- fillsize -->
<g id="node25" class="node">
<title>fillsize</title>
<path fill="none" stroke="black" d="M448.49,-900C448.49,-900 407.51,-900 407.51,-900 401.51,-900 395.51,-894 395.51,-888 395.51,-888 395.51,-876 395.51,-876 395.51,-870 401.51,-864 407.51,-864 407.51,-864 448.49,-864 448.49,-864 454.49,-864 460.49,-870 460.49,-876 460.49,-876 460.49,-888 460.49,-888 460.49,-894 454.49,-900 448.49,-900"/>
<text text-anchor="middle" x="428" y="-877.8" font-family="Helvetica,Arial,sans-serif" font-size="14.00">o:fillsize</text>
</g>
<!-- fillsize&#45;&gt;taxnodes -->
<g id="edge39" class="edge">
<title>fillsize-&gt;taxnodes</title>
<path fill="none" stroke="black" stroke-dasharray="1,5" d="M460.76,-886.84C559.91,-899.35 850,-942.96 850,-1025 850,-1025 850,-1025 850,-1099 850,-1139.82 864.84,-1185.07 875.97,-1213.28"/>
<polygon fill="black" stroke="black" points="872.72,-1214.57 879.74,-1222.51 879.2,-1211.92 872.72,-1214.57"/>
</g>
<!-- fillsize&#45;&gt;categories -->
<g id="edge38" class="edge">
<title>fillsize-&gt;categories</title>
<path fill="none" stroke="black" stroke-dasharray="1,5" d="M395.26,-897.73C322.15,-933.09 152,-1030.3 152,-1169 152,-1169 152,-1169 152,-1243 152,-1283.82 166.84,-1329.07 177.97,-1357.28"/>
<polygon fill="black" stroke="black" points="174.72,-1358.57 181.74,-1366.51 181.2,-1355.92 174.72,-1358.57"/>
</g>
<!-- fillsize&#45;&gt;refseqfna -->
<g id="edge40" class="edge">
<title>fillsize-&gt;refseqfna</title>
<path fill="none" stroke="black" d="M413.71,-900.25C386.77,-933.41 327.78,-1009.05 290,-1080 266.2,-1124.7 246.79,-1180.58 236.36,-1213.37"/>
<polygon fill="black" stroke="black" points="233.15,-1211.92 233.5,-1222.51 239.83,-1214.01 233.15,-1211.92"/>
</g>
<!-- fillsize&#45;&gt;accmap -->
<g id="edge37" class="edge">
<title>fillsize-&gt;accmap</title>
<path fill="none" stroke="black" stroke-dasharray="1,5" d="M427.12,-900.27C426.33,-931.22 428.24,-997.27 455,-1044 467.38,-1065.63 486.97,-1057.65 498,-1080 518.96,-1122.45 515.27,-1179.13 510.36,-1212.67"/>
<polygon fill="black" stroke="black" points="506.92,-1211.99 508.78,-1222.42 513.83,-1213.11 506.92,-1211.99"/>
</g>
<!-- fillsize&#45;&gt;addfastas -->
<g id="edge41" class="edge">
<title>fillsize-&gt;addfastas</title>
<path fill="none" stroke="black" stroke-dasharray="1,5" d="M460.81,-894.72C491.62,-905.72 538.17,-922.35 573.68,-935.03"/>
<polygon fill="black" stroke="black" points="572.29,-938.25 582.89,-938.32 574.65,-931.66 572.29,-938.25"/>
</g>
<!-- tempindex -->
<g id="node26" class="node">
<title>tempindex</title>
<path fill="none" stroke="black" d="M390.99,-828C390.99,-828 329.01,-828 329.01,-828 323.01,-828 317.01,-822 317.01,-816 317.01,-816 317.01,-804 317.01,-804 317.01,-798 323.01,-792 329.01,-792 329.01,-792 390.99,-792 390.99,-792 396.99,-792 402.99,-798 402.99,-804 402.99,-804 402.99,-816 402.99,-816 402.99,-822 396.99,-828 390.99,-828"/>
<text text-anchor="middle" x="360" y="-805.8" font-family="Helvetica,Arial,sans-serif" font-size="14.00">o:tempindex</text>
</g>
<!-- tempindex&#45;&gt;taxnodes -->
<g id="edge45" class="edge">
<title>tempindex-&gt;taxnodes</title>
<path fill="none" stroke="black" stroke-dasharray="1,5" d="M403.21,-818.84C529.31,-842.94 888,-920.65 888,-1025 888,-1025 888,-1025 888,-1099 888,-1138.26 888,-1183.62 888,-1212.31"/>
<polygon fill="black" stroke="black" points="884.5,-1212 888,-1222 891.5,-1212 884.5,-1212"/>
</g>
<!-- tempindex&#45;&gt;categories -->
<g id="edge44" class="edge">
<title>tempindex-&gt;categories</title>
<path fill="none" stroke="black" stroke-dasharray="1,5" d="M339.97,-828.3C296.19,-867.63 193.03,-968.98 157,-1080 122.43,-1186.53 110.59,-1229.18 155,-1332 158.92,-1341.07 164.38,-1350.28 169.82,-1358.42"/>
<polygon fill="black" stroke="black" points="166.88,-1360.32 175.48,-1366.51 172.61,-1356.31 166.88,-1360.32"/>
</g>
<!-- tempindex&#45;&gt;refseqfna -->
<g id="edge46" class="edge">
<title>tempindex-&gt;refseqfna</title>
<path fill="none" stroke="black" d="M352.73,-828.42C332.29,-878.07 273.7,-1024.97 242,-1152 237.01,-1171.98 233.45,-1194.94 231.17,-1212.53"/>
<polygon fill="black" stroke="black" points="227.72,-1211.9 229.98,-1222.26 234.67,-1212.76 227.72,-1211.9"/>
</g>
<!-- tempindex&#45;&gt;accmap -->
<g id="edge42" class="edge">
<title>tempindex-&gt;accmap</title>
<path fill="none" stroke="black" stroke-dasharray="1,5" d="M365.11,-828.45C370.41,-846.43 379.04,-875.25 387,-900 407.7,-964.36 407.31,-982.79 436,-1044 443.96,-1060.98 450.42,-1062.85 458,-1080 477.71,-1124.59 491.75,-1179.73 499.1,-1212.54"/>
<polygon fill="black" stroke="black" points="495.63,-1213.05 501.18,-1222.07 502.46,-1211.56 495.63,-1213.05"/>
</g>
<!-- tempindex&#45;&gt;addfastas -->
<g id="edge47" class="edge">
<title>tempindex-&gt;addfastas</title>
<path fill="none" stroke="black" stroke-dasharray="1,5" d="M397.4,-828.4C418.58,-838.46 445.48,-851.55 469,-864 509.34,-885.35 554.49,-911.55 585.61,-929.97"/>
<polygon fill="black" stroke="black" points="583.51,-932.8 593.89,-934.89 587.08,-926.78 583.51,-932.8"/>
</g>
<!-- tempindex&#45;&gt;fillsize -->
<g id="edge43" class="edge">
<title>tempindex-&gt;fillsize</title>
<path fill="none" stroke="black" stroke-dasharray="1,5" d="M376.81,-828.3C384.88,-836.61 394.7,-846.72 403.58,-855.86"/>
<polygon fill="black" stroke="black" points="400.85,-858.08 410.33,-862.81 405.87,-853.2 400.85,-858.08"/>
</g>
<!-- filldb -->
<g id="node27" class="node">
<title>filldb</title>
<path fill="none" stroke="black" d="M353.61,-756C353.61,-756 320.39,-756 320.39,-756 314.39,-756 308.39,-750 308.39,-744 308.39,-744 308.39,-732 308.39,-732 308.39,-726 314.39,-720 320.39,-720 320.39,-720 353.61,-720 353.61,-720 359.61,-720 365.61,-726 365.61,-732 365.61,-732 365.61,-744 365.61,-744 365.61,-750 359.61,-756 353.61,-756"/>
<text text-anchor="middle" x="337" y="-733.8" font-family="Helvetica,Arial,sans-serif" font-size="14.00">o:filldb</text>
</g>
<!-- filldb&#45;&gt;taxtree -->
<g id="edge48" class="edge">
<title>filldb-&gt;taxtree</title>
<path fill="none" stroke="black" stroke-dasharray="1,5" d="M366.05,-738.63C435.39,-738.6 615.19,-743.6 755,-792 813.77,-812.35 829.38,-821.72 875,-864 1005.55,-985.01 1028.46,-1108.5 935,-1260 922.96,-1279.52 901.02,-1292.37 881.05,-1300.52"/>
<polygon fill="black" stroke="black" points="880.08,-1297.14 871.95,-1303.93 882.55,-1303.69 880.08,-1297.14"/>
</g>
<!-- filldb&#45;&gt;taxnodes -->
<g id="edge52" class="edge">
<title>filldb-&gt;taxnodes</title>
<path fill="none" stroke="black" stroke-dasharray="1,5" d="M365.81,-739.45C484.06,-742.96 926,-772.93 926,-1025 926,-1025 926,-1025 926,-1099 926,-1139.82 911.16,-1185.07 900.03,-1213.28"/>
<polygon fill="black" stroke="black" points="896.8,-1211.92 896.26,-1222.51 903.28,-1214.57 896.8,-1211.92"/>
</g>
<!-- filldb&#45;&gt;categories -->
<g id="edge51" class="edge">
<title>filldb-&gt;categories</title>
<path fill="none" stroke="black" stroke-dasharray="1,5" d="M308.05,-742.1C252.12,-748.63 131.99,-765.4 101,-792 42.7,-842.05 38,-876.16 38,-953 38,-953 38,-953 38,-1243 38,-1299.12 94.01,-1339.43 138.03,-1362.45"/>
<polygon fill="black" stroke="black" points="136.21,-1365.45 146.71,-1366.83 139.36,-1359.2 136.21,-1365.45"/>
</g>
<!-- filldb&#45;&gt;refseqfna -->
<g id="edge53" class="edge">
<title>filldb-&gt;refseqfna</title>
<path fill="none" stroke="black" d="M308.16,-738.85C265.69,-740.17 186.15,-748.76 138,-792 80.95,-843.23 76,-876.32 76,-953 76,-953 76,-953 76,-1027 76,-1108.64 150.44,-1180.82 195.14,-1216.8"/>
<polygon fill="black" stroke="black" points="192.7,-1219.34 202.73,-1222.77 197.03,-1213.84 192.7,-1219.34"/>
</g>
<!-- filldb&#45;&gt;accmap -->
<g id="edge49" class="edge">
<title>filldb-&gt;accmap</title>
<path fill="none" stroke="black" stroke-dasharray="1,5" d="M324.69,-756.22C318.35,-766.16 311.27,-779.2 308,-792 304.04,-807.5 304.47,-812.39 308,-828 317.34,-869.29 447.71,-1128.15 491.08,-1213.64"/>
<polygon fill="black" stroke="black" points="487.93,-1215.17 495.58,-1222.5 494.17,-1212 487.93,-1215.17"/>
</g>
<!-- filldb&#45;&gt;addfastas -->
<g id="edge54" class="edge">
<title>filldb-&gt;addfastas</title>
<path fill="none" stroke="black" stroke-dasharray="1,5" d="M363.06,-756.43C398.13,-780.08 462.18,-823.97 515,-864 542.77,-885.04 573.43,-910.27 595.14,-928.48"/>
<polygon fill="black" stroke="black" points="592.8,-931.08 602.7,-934.84 597.31,-925.73 592.8,-931.08"/>
</g>
<!-- filldb&#45;&gt;tempindex -->
<g id="edge50" class="edge">
<title>filldb-&gt;tempindex</title>
<path fill="none" stroke="black" stroke-dasharray="1,5" d="M342.69,-756.3C345.14,-763.76 348.07,-772.68 350.81,-781.03"/>
<polygon fill="black" stroke="black" points="347.46,-782.05 353.91,-790.46 354.11,-779.86 347.46,-782.05"/>
</g>
<!-- tempdb -->
<g id="node28" class="node">
<title>tempdb</title>
<path fill="none" stroke="black" d="M297.27,-684C297.27,-684 254.73,-684 254.73,-684 248.73,-684 242.73,-678 242.73,-672 242.73,-672 242.73,-660 242.73,-660 242.73,-654 248.73,-648 254.73,-648 254.73,-648 297.27,-648 297.27,-648 303.27,-648 309.27,-654 309.27,-660 309.27,-660 309.27,-672 309.27,-672 309.27,-678 303.27,-684 297.27,-684"/>
<text text-anchor="middle" x="276" y="-661.8" font-family="Helvetica,Arial,sans-serif" font-size="14.00">f:tempdb</text>
</g>
<!-- tempdb&#45;&gt;filldb -->
<g id="edge55" class="edge">
<title>tempdb-&gt;filldb</title>
<path fill="none" stroke="black" stroke-dasharray="1,5" d="M291.08,-684.3C298.17,-692.44 306.77,-702.31 314.6,-711.3"/>
<polygon fill="black" stroke="black" points="311.89,-713.51 321.1,-718.75 317.17,-708.92 311.89,-713.51"/>
</g>
<!-- loadtempdb -->
<g id="node29" class="node">
<title>loadtempdb</title>
<path fill="none" stroke="black" d="M347.49,-612C347.49,-612 278.51,-612 278.51,-612 272.51,-612 266.51,-606 266.51,-600 266.51,-600 266.51,-588 266.51,-588 266.51,-582 272.51,-576 278.51,-576 278.51,-576 347.49,-576 347.49,-576 353.49,-576 359.49,-582 359.49,-588 359.49,-588 359.49,-600 359.49,-600 359.49,-606 353.49,-612 347.49,-612"/>
<text text-anchor="middle" x="313" y="-589.8" font-family="Helvetica,Arial,sans-serif" font-size="14.00">o:loadtempdb</text>
</g>
<!-- loadtempdb&#45;&gt;filldb -->
<g id="edge57" class="edge">
<title>loadtempdb-&gt;filldb</title>
<path fill="none" stroke="black" stroke-dasharray="1,5" d="M315.94,-612.41C320,-636.39 327.34,-679.86 332.2,-708.58"/>
<polygon fill="black" stroke="black" points="328.74,-709.12 333.86,-718.4 335.64,-707.95 328.74,-709.12"/>
</g>
<!-- loadtempdb&#45;&gt;tempdb -->
<g id="edge56" class="edge">
<title>loadtempdb-&gt;tempdb</title>
<path fill="none" stroke="black" d="M303.85,-612.3C299.78,-620.02 294.88,-629.29 290.33,-637.89"/>
<polygon fill="black" stroke="black" points="287.33,-636.08 285.75,-646.56 293.52,-639.35 287.33,-636.08"/>
</g>
<!-- tempdbinfo -->
<g id="node30" class="node">
<title>tempdbinfo</title>
<path fill="none" stroke="black" d="M271.55,-540C271.55,-540 206.45,-540 206.45,-540 200.45,-540 194.45,-534 194.45,-528 194.45,-528 194.45,-516 194.45,-516 194.45,-510 200.45,-504 206.45,-504 206.45,-504 271.55,-504 271.55,-504 277.55,-504 283.55,-510 283.55,-516 283.55,-516 283.55,-528 283.55,-528 283.55,-534 277.55,-540 271.55,-540"/>
<text text-anchor="middle" x="239" y="-517.8" font-family="Helvetica,Arial,sans-serif" font-size="14.00">f:tempdbinfo</text>
</g>
<!-- tempdbinfo&#45;&gt;loadtempdb -->
<g id="edge58" class="edge">
<title>tempdbinfo-&gt;loadtempdb</title>
<path fill="none" stroke="black" stroke-dasharray="1,5" d="M257.29,-540.3C266.1,-548.63 276.82,-558.78 286.5,-567.93"/>
<polygon fill="black" stroke="black" points="283.89,-570.28 293.56,-574.61 288.7,-565.2 283.89,-570.28"/>
</g>
<!-- updatedb -->
<g id="node31" class="node">
<title>updatedb</title>
<path fill="none" stroke="black" d="M377.1,-468C377.1,-468 322.9,-468 322.9,-468 316.9,-468 310.9,-462 310.9,-456 310.9,-456 310.9,-444 310.9,-444 310.9,-438 316.9,-432 322.9,-432 322.9,-432 377.1,-432 377.1,-432 383.1,-432 389.1,-438 389.1,-444 389.1,-444 389.1,-456 389.1,-456 389.1,-462 383.1,-468 377.1,-468"/>
<text text-anchor="middle" x="350" y="-445.8" font-family="Helvetica,Arial,sans-serif" font-size="14.00">o:updatedb</text>
</g>
<!-- updatedb&#45;&gt;taxtree -->
<g id="edge60" class="edge">
<title>updatedb-&gt;taxtree</title>
<path fill="none" stroke="black" stroke-dasharray="1,5" d="M389.36,-451.22C505.38,-452.4 844.19,-459.63 944,-504 997.17,-527.63 1040,-534.82 1040,-593 1040,-593 1040,-593 1040,-883 1040,-983.93 1116,-996.07 1116,-1097 1116,-1097 1116,-1097 1116,-1171 1116,-1274.61 960.95,-1302.67 882.44,-1310.23"/>
<polygon fill="black" stroke="black" points="882.14,-1306.74 872.49,-1311.1 882.76,-1313.71 882.14,-1306.74"/>
</g>
<!-- updatedb&#45;&gt;taxnodes -->
<g id="edge64" class="edge">
<title>updatedb-&gt;taxnodes</title>
<path fill="none" stroke="black" stroke-dasharray="1,5" d="M389.32,-451.12C530.28,-452.57 1002,-466.87 1002,-593 1002,-593 1002,-593 1002,-955 1002,-1063.65 977.89,-1091.48 928,-1188 923.15,-1197.38 916.66,-1206.82 910.31,-1215.09"/>
<polygon fill="black" stroke="black" points="907.76,-1212.68 904.25,-1222.68 913.23,-1217.05 907.76,-1212.68"/>
</g>
<!-- updatedb&#45;&gt;categories -->
<g id="edge63" class="edge">
<title>updatedb-&gt;categories</title>
<path fill="none" stroke="black" stroke-dasharray="1,5" d="M310.53,-458.31C219,-476.4 0,-526.61 0,-593 0,-593 0,-593 0,-1243 0,-1289.04 17.83,-1302.29 53,-1332 76.97,-1352.25 109.55,-1365.28 136.92,-1373.35"/>
<polygon fill="black" stroke="black" points="135.87,-1376.69 146.45,-1376 137.75,-1369.95 135.87,-1376.69"/>
</g>
<!-- updatedb&#45;&gt;refseqfna -->
<g id="edge65" class="edge">
<title>updatedb-&gt;refseqfna</title>
<path fill="none" stroke="black" d="M340.26,-468.42C329.61,-486.89 311.58,-516.57 293,-540 279.13,-557.48 269.6,-556.94 258,-576 240.47,-604.82 239.57,-614.73 234,-648 198.1,-862.37 217.33,-1126.46 225.18,-1212.48"/>
<polygon fill="black" stroke="black" points="221.68,-1212.71 226.1,-1222.34 228.65,-1212.06 221.68,-1212.71"/>
</g>
<!-- updatedb&#45;&gt;accmap -->
<g id="edge61" class="edge">
<title>updatedb-&gt;accmap</title>
<path fill="none" stroke="black" stroke-dasharray="1,5" d="M389.34,-451.14C524.86,-453.88 964,-482.41 964,-737 964,-737 964,-737 964,-811 964,-880.29 894.14,-862.3 836,-900 758.04,-950.55 723.84,-943.46 657,-1008 591.86,-1070.89 540.61,-1166.62 517.84,-1213.37"/>
<polygon fill="black" stroke="black" points="514.75,-1211.73 513.58,-1222.26 521.06,-1214.76 514.75,-1211.73"/>
</g>
<!-- updatedb&#45;&gt;addfastas -->
<g id="edge66" class="edge">
<title>updatedb-&gt;addfastas</title>
<path fill="none" stroke="black" stroke-dasharray="1,5" d="M389.59,-452.24C519.73,-457.38 926,-482.28 926,-593 926,-593 926,-593 926,-739 926,-860.61 760.95,-919.37 674.88,-941.74"/>
<polygon fill="black" stroke="black" points="674.1,-938.33 665.26,-944.17 675.81,-945.12 674.1,-938.33"/>
</g>
<!-- updatedb&#45;&gt;loadtempdb -->
<g id="edge62" class="edge">
<title>updatedb-&gt;loadtempdb</title>
<path fill="none" stroke="black" stroke-dasharray="1,5" d="M345.46,-468.41C339.19,-492.5 327.79,-536.25 320.3,-564.97"/>
<polygon fill="black" stroke="black" points="316.97,-563.87 317.84,-574.42 323.75,-565.63 316.97,-563.87"/>
</g>
<!-- updatedb&#45;&gt;tempdbinfo -->
<g id="edge59" class="edge">
<title>updatedb-&gt;tempdbinfo</title>
<path fill="none" stroke="black" d="M322.28,-468.48C308.26,-477.32 291.07,-488.16 275.95,-497.7"/>
<polygon fill="black" stroke="black" points="274.24,-494.64 267.65,-502.93 277.98,-500.56 274.24,-494.64"/>
</g>
<!-- db -->
<g id="node32" class="node">
<title>db</title>
<polygon fill="none" stroke="black" stroke-width="2" points="266,-396 212,-396 212,-360 266,-360 266,-396"/>
<text text-anchor="middle" x="239" y="-373.8" font-family="Helvetica,Arial,sans-serif" font-size="14.00">f:db</text>
</g>
<!-- db&#45;&gt;tempdb -->
<g id="edge67" class="edge">
<title>db-&gt;tempdb</title>
<path fill="none" stroke="black" d="M225.63,-396.36C204.62,-425.83 167.94,-487.58 185,-540 197.73,-579.1 227.81,-616.17 249.91,-639.63"/>
<polygon fill="black" stroke="black" points="247.13,-641.79 256.6,-646.55 252.17,-636.93 247.13,-641.79"/>
</g>
<!-- db&#45;&gt;tempdbinfo -->
<g id="edge68" class="edge">
<title>db-&gt;tempdbinfo</title>
<path fill="none" stroke="black" d="M239,-396.41C239,-420.39 239,-463.86 239,-492.58"/>
<polygon fill="black" stroke="black" points="235.5,-492.38 239,-502.38 242.5,-492.38 235.5,-492.38"/>
</g>
<!-- db&#45;&gt;updatedb -->
<g id="edge69" class="edge">
<title>db-&gt;updatedb</title>
<path fill="none" stroke="black" stroke-dasharray="1,5" d="M266.44,-396.3C280.45,-405.14 297.69,-416.01 312.87,-425.59"/>
<polygon fill="black" stroke="black" points="310.89,-428.47 321.21,-430.85 314.62,-422.55 310.89,-428.47"/>
</g>
<!-- loaddb -->
<g id="node33" class="node">
<title>loaddb</title>
<path fill="none" stroke="black" d="M370.5,-324C370.5,-324 329.5,-324 329.5,-324 323.5,-324 317.5,-318 317.5,-312 317.5,-312 317.5,-300 317.5,-300 317.5,-294 323.5,-288 329.5,-288 329.5,-288 370.5,-288 370.5,-288 376.5,-288 382.5,-294 382.5,-300 382.5,-300 382.5,-312 382.5,-312 382.5,-318 376.5,-324 370.5,-324"/>
<text text-anchor="middle" x="350" y="-301.8" font-family="Helvetica,Arial,sans-serif" font-size="14.00">o:loaddb</text>
</g>
<!-- loaddb&#45;&gt;updatedb -->
<g id="edge70" class="edge">
<title>loaddb-&gt;updatedb</title>
<path fill="none" stroke="black" stroke-dasharray="1,5" d="M350,-324.41C350,-348.39 350,-391.86 350,-420.58"/>
<polygon fill="black" stroke="black" points="346.5,-420.38 350,-430.38 353.5,-420.38 346.5,-420.38"/>
</g>
<!-- loaddb&#45;&gt;db -->
<g id="edge71" class="edge">
<title>loaddb-&gt;db</title>
<path fill="none" stroke="black" d="M322.28,-324.48C308.26,-333.32 291.07,-344.16 275.95,-353.7"/>
<polygon fill="black" stroke="black" points="274.24,-350.64 267.65,-358.93 277.98,-356.56 274.24,-350.64"/>
</g>
<!-- dbconf -->
<g id="node34" class="node">
<title>dbconf</title>
<path fill="none" stroke="black" d="M73.88,-252C73.88,-252 32.12,-252 32.12,-252 26.12,-252 20.12,-246 20.12,-240 20.12,-240 20.12,-228 20.12,-228 20.12,-222 26.12,-216 32.12,-216 32.12,-216 73.88,-216 73.88,-216 79.88,-216 85.88,-222 85.88,-228 85.88,-228 85.88,-240 85.88,-240 85.88,-246 79.88,-252 73.88,-252"/>
<text text-anchor="middle" x="53" y="-229.8" font-family="Helvetica,Arial,sans-serif" font-size="14.00">o:dbconf</text>
</g>
<!-- dbconf&#45;&gt;db -->
<g id="edge73" class="edge">
<title>dbconf-&gt;db</title>
<path fill="none" stroke="black" d="M75.81,-252.41C108.81,-277.6 169.99,-324.32 207.35,-352.83"/>
<polygon fill="black" stroke="black" points="205.02,-355.46 215.09,-358.75 209.27,-349.9 205.02,-355.46"/>
</g>
<!-- dbconf&#45;&gt;loaddb -->
<g id="edge72" class="edge">
<title>dbconf-&gt;loaddb</title>
<path fill="none" stroke="black" stroke-dasharray="1,5" d="M86.28,-249.1C89.2,-250.15 92.14,-251.13 95,-252 167.65,-274.06 254.71,-289.98 306.01,-298.33"/>
<polygon fill="black" stroke="black" points="305.41,-301.78 315.83,-299.9 306.51,-294.86 305.41,-301.78"/>
</g>
<!-- showdbconf -->
<g id="node35" class="node">
<title>showdbconf</title>
<path fill="none" stroke="black" d="M83.22,-180C83.22,-180 22.78,-180 22.78,-180 16.78,-180 10.78,-174 10.78,-168 10.78,-168 10.78,-156 10.78,-156 10.78,-150 16.78,-144 22.78,-144 22.78,-144 83.22,-144 83.22,-144 89.22,-144 95.22,-150 95.22,-156 95.22,-156 95.22,-168 95.22,-168 95.22,-174 89.22,-180 83.22,-180"/>
<text text-anchor="middle" x="53" y="-157.8" font-family="Helvetica,Arial,sans-serif" font-size="14.00">showdbconf</text>
</g>
<!-- showdbconf&#45;&gt;dbconf -->
<g id="edge74" class="edge">
<title>showdbconf-&gt;dbconf</title>
<path fill="none" stroke="black" stroke-dasharray="1,5" d="M53,-180.3C53,-187.59 53,-196.27 53,-204.46"/>
<polygon fill="black" stroke="black" points="49.5,-204.38 53,-214.38 56.5,-204.38 49.5,-204.38"/>
</g>
<!-- fillindex -->
<g id="node36" class="node">
<title>fillindex</title>
<path fill="none" stroke="black" d="M166.16,-252C166.16,-252 115.84,-252 115.84,-252 109.84,-252 103.84,-246 103.84,-240 103.84,-240 103.84,-228 103.84,-228 103.84,-222 109.84,-216 115.84,-216 115.84,-216 166.16,-216 166.16,-216 172.16,-216 178.16,-222 178.16,-228 178.16,-228 178.16,-240 178.16,-240 178.16,-246 172.16,-252 166.16,-252"/>
<text text-anchor="middle" x="141" y="-229.8" font-family="Helvetica,Arial,sans-serif" font-size="14.00">o:fillindex</text>
</g>
<!-- fillindex&#45;&gt;loaddb -->
<g id="edge75" class="edge">
<title>fillindex-&gt;loaddb</title>
<path fill="none" stroke="black" stroke-dasharray="1,5" d="M178.61,-249.04C181.45,-250.05 184.27,-251.05 187,-252 227.28,-265.99 273.54,-280.92 306.46,-291.36"/>
<polygon fill="black" stroke="black" points="305.06,-294.59 315.65,-294.26 307.17,-287.91 305.06,-294.59"/>
</g>
<!-- index -->
<g id="node37" class="node">
<title>index</title>
<polygon fill="none" stroke="black" stroke-width="2" points="257.83,-180 202.17,-180 202.17,-144 257.83,-144 257.83,-180"/>
<text text-anchor="middle" x="230" y="-157.8" font-family="Helvetica,Arial,sans-serif" font-size="14.00">f:index</text>
</g>
<!-- index&#45;&gt;fillindex -->
<g id="edge76" class="edge">
<title>index-&gt;fillindex</title>
<path fill="none" stroke="black" stroke-dasharray="1,5" d="M208,-180.3C197.09,-188.89 183.73,-199.39 171.82,-208.76"/>
<polygon fill="black" stroke="black" points="169.94,-205.78 164.25,-214.72 174.27,-211.29 169.94,-205.78"/>
</g>
<!-- loadindex -->
<g id="node38" class="node">
<title>loadindex</title>
<path fill="none" stroke="black" d="M259.05,-108C259.05,-108 200.95,-108 200.95,-108 194.95,-108 188.95,-102 188.95,-96 188.95,-96 188.95,-84 188.95,-84 188.95,-78 194.95,-72 200.95,-72 200.95,-72 259.05,-72 259.05,-72 265.05,-72 271.05,-78 271.05,-84 271.05,-84 271.05,-96 271.05,-96 271.05,-102 265.05,-108 259.05,-108"/>
<text text-anchor="middle" x="230" y="-85.8" font-family="Helvetica,Arial,sans-serif" font-size="14.00">o:loadindex</text>
</g>
<!-- loadindex&#45;&gt;fillindex -->
<g id="edge77" class="edge">
<title>loadindex-&gt;fillindex</title>
<path fill="none" stroke="black" stroke-dasharray="1,5" d="M217.31,-108.43C209.99,-118.65 200.74,-131.9 193,-144 180,-164.32 166.28,-187.91 156.19,-205.7"/>
<polygon fill="black" stroke="black" points="153.17,-203.94 151.31,-214.37 159.27,-207.38 153.17,-203.94"/>
</g>
<!-- loadindex&#45;&gt;index -->
<g id="edge78" class="edge">
<title>loadindex-&gt;index</title>
<path fill="none" stroke="black" d="M230,-108.3C230,-115.59 230,-124.27 230,-132.46"/>
<polygon fill="black" stroke="black" points="226.5,-132.38 230,-142.38 233.5,-132.38 226.5,-132.38"/>
</g>
<!-- dbinfo -->
<g id="node39" class="node">
<title>dbinfo</title>
<polygon fill="none" stroke="black" stroke-width="2" points="476.55,-180 415.45,-180 415.45,-144 476.55,-144 476.55,-180"/>
<text text-anchor="middle" x="446" y="-157.8" font-family="Helvetica,Arial,sans-serif" font-size="14.00">f:dbinfo</text>
</g>
<!-- dbinfo&#45;&gt;loaddb -->
<g id="edge79" class="edge">
<title>dbinfo-&gt;loaddb</title>
<path fill="none" stroke="black" stroke-dasharray="1,5" d="M446.51,-180.19C446.28,-199.26 443.4,-230.22 429,-252 419.98,-265.63 406.13,-276.65 392.53,-285.03"/>
<polygon fill="black" stroke="black" points="390.97,-281.89 384.05,-289.91 394.46,-287.95 390.97,-281.89"/>
</g>
<!-- genall -->
<g id="node40" class="node">
<title>genall</title>
<polygon fill="none" stroke="black" stroke-width="2" points="408,-108 354,-108 354,-72 408,-72 408,-108"/>
<text text-anchor="middle" x="381" y="-85.8" font-family="Helvetica,Arial,sans-serif" font-size="14.00">genall</text>
</g>
<!-- genall&#45;&gt;index -->
<g id="edge81" class="edge">
<title>genall-&gt;index</title>
<path fill="none" stroke="black" d="M353.66,-103.68C329.8,-114.74 294.93,-130.9 268.29,-143.25"/>
<polygon fill="black" stroke="black" points="267.14,-139.93 259.54,-147.31 270.08,-146.28 267.14,-139.93"/>
</g>
<!-- genall&#45;&gt;dbinfo -->
<g id="edge80" class="edge">
<title>genall-&gt;dbinfo</title>
<path fill="none" stroke="black" d="M397.07,-108.3C404.7,-116.53 413.98,-126.52 422.4,-135.58"/>
<polygon fill="black" stroke="black" points="419.72,-137.84 429.09,-142.79 424.85,-133.08 419.72,-137.84"/>
</g>
<!-- db2fastqtaxids -->
<g id="node41" class="node">
<title>db2fastqtaxids</title>
<path fill="none" stroke="black" d="M392.27,-252C392.27,-252 307.73,-252 307.73,-252 301.73,-252 295.73,-246 295.73,-240 295.73,-240 295.73,-228 295.73,-228 295.73,-222 301.73,-216 307.73,-216 307.73,-216 392.27,-216 392.27,-216 398.27,-216 404.27,-222 404.27,-228 404.27,-228 404.27,-240 404.27,-240 404.27,-246 398.27,-252 392.27,-252"/>
<text text-anchor="middle" x="350" y="-229.8" font-family="Helvetica,Arial,sans-serif" font-size="14.00">o:db2fastqtaxids</text>
</g>
<!-- db2fastqtaxids&#45;&gt;loaddb -->
<g id="edge82" class="edge">
<title>db2fastqtaxids-&gt;loaddb</title>
<path fill="none" stroke="black" stroke-dasharray="1,5" d="M350,-252.3C350,-259.59 350,-268.27 350,-276.46"/>
<polygon fill="black" stroke="black" points="346.5,-276.38 350,-286.38 353.5,-276.38 346.5,-276.38"/>
</g>
<!-- db2fastq -->
<g id="node42" class="node">
<title>db2fastq</title>
<polygon fill="none" stroke="black" stroke-width="2" points="390.38,-180 317.62,-180 317.62,-144 390.38,-144 390.38,-180"/>
<text text-anchor="middle" x="354" y="-157.8" font-family="Helvetica,Arial,sans-serif" font-size="14.00">f:db2fastq</text>
</g>
<!-- db2fastq&#45;&gt;loaddb -->
<g id="edge84" class="edge">
<title>db2fastq-&gt;loaddb</title>
<path fill="none" stroke="black" stroke-dasharray="1,5" d="M382.11,-180.36C393.99,-189.37 406.55,-201.54 413,-216 419.52,-230.61 419.75,-237.49 413,-252 407.83,-263.1 399.08,-272.7 389.7,-280.57"/>
<polygon fill="black" stroke="black" points="387.61,-277.76 381.83,-286.64 391.88,-283.31 387.61,-277.76"/>
</g>
<!-- db2fastq&#45;&gt;db2fastqtaxids -->
<g id="edge83" class="edge">
<title>db2fastq-&gt;db2fastqtaxids</title>
<path fill="none" stroke="black" stroke-dasharray="1,5" d="M353.01,-180.3C352.59,-187.59 352.1,-196.27 351.63,-204.46"/>
<polygon fill="black" stroke="black" points="348.14,-204.2 351.06,-214.38 355.13,-204.6 348.14,-204.2"/>
</g>
<!-- svgtaxtree -->
<g id="node43" class="node">
<title>svgtaxtree</title>
<polygon fill="none" stroke="black" stroke-width="2" points="278.04,-252 195.96,-252 195.96,-216 278.04,-216 278.04,-252"/>
<text text-anchor="middle" x="237" y="-229.8" font-family="Helvetica,Arial,sans-serif" font-size="14.00">f:svgtaxtree</text>
</g>
<!-- svgtaxtree&#45;&gt;loaddb -->
<g id="edge85" class="edge">
<title>svgtaxtree-&gt;loaddb</title>
<path fill="none" stroke="black" stroke-dasharray="1,5" d="M265.22,-252.48C279.49,-261.32 296.99,-272.16 312.38,-281.7"/>
<polygon fill="black" stroke="black" points="310.51,-284.65 320.85,-286.94 314.19,-278.7 310.51,-284.65"/>
</g>
<!-- fastqmap -->
<g id="node44" class="node">
<title>fastqmap</title>
<path fill="none" stroke="black" d="M839.1,-468C839.1,-468 784.9,-468 784.9,-468 778.9,-468 772.9,-462 772.9,-456 772.9,-456 772.9,-444 772.9,-444 772.9,-438 778.9,-432 784.9,-432 784.9,-432 839.1,-432 839.1,-432 845.1,-432 851.1,-438 851.1,-444 851.1,-444 851.1,-456 851.1,-456 851.1,-462 845.1,-468 839.1,-468"/>
<text text-anchor="middle" x="812" y="-445.8" font-family="Helvetica,Arial,sans-serif" font-size="14.00">o:fastqmap</text>
</g>
<!-- fastqmaptransform -->
<g id="node45" class="node">
<title>fastqmaptransform</title>
<path fill="none" stroke="black" d="M808.32,-396C808.32,-396 699.68,-396 699.68,-396 693.68,-396 687.68,-390 687.68,-384 687.68,-384 687.68,-372 687.68,-372 687.68,-366 693.68,-360 699.68,-360 699.68,-360 808.32,-360 808.32,-360 814.32,-360 820.32,-366 820.32,-372 820.32,-372 820.32,-384 820.32,-384 820.32,-390 814.32,-396 808.32,-396"/>
<text text-anchor="middle" x="754" y="-373.8" font-family="Helvetica,Arial,sans-serif" font-size="14.00">o:fastqmaptransform</text>
</g>
<!-- fastqmaptransform&#45;&gt;fastqmap -->
<g id="edge86" class="edge">
<title>fastqmaptransform-&gt;fastqmap</title>
<path fill="none" stroke="black" stroke-dasharray="1,5" d="M768.34,-396.3C775.08,-404.44 783.26,-414.31 790.7,-423.3"/>
<polygon fill="black" stroke="black" points="787.79,-425.26 796.86,-430.73 793.18,-420.8 787.79,-425.26"/>
</g>
<!-- extract -->
<g id="node46" class="node">
<title>extract</title>
<polygon fill="none" stroke="black" stroke-width="2" points="770.04,-324 715.96,-324 715.96,-288 770.04,-288 770.04,-324"/>
<text text-anchor="middle" x="743" y="-301.8" font-family="Helvetica,Arial,sans-serif" font-size="14.00">extract</text>
</g>
<!-- extract&#45;&gt;fastqmaptransform -->
<g id="edge87" class="edge">
<title>extract-&gt;fastqmaptransform</title>
<path fill="none" stroke="black" stroke-dasharray="1,5" d="M745.72,-324.3C746.88,-331.68 748.26,-340.48 749.56,-348.75"/>
<polygon fill="black" stroke="black" points="746.07,-349.07 751.08,-358.4 752.98,-347.98 746.07,-349.07"/>
</g>
<!-- fastqdownload -->
<g id="node47" class="node">
<title>fastqdownload</title>
<path fill="none" stroke="black" d="M923.66,-324C923.66,-324 838.34,-324 838.34,-324 832.34,-324 826.34,-318 826.34,-312 826.34,-312 826.34,-300 826.34,-300 826.34,-294 832.34,-288 838.34,-288 838.34,-288 923.66,-288 923.66,-288 929.66,-288 935.66,-294 935.66,-300 935.66,-300 935.66,-312 935.66,-312 935.66,-318 929.66,-324 923.66,-324"/>
<text text-anchor="middle" x="881" y="-301.8" font-family="Helvetica,Arial,sans-serif" font-size="14.00">d:fastqdownload</text>
</g>
<!-- fastqdownload&#45;&gt;fastqmap -->
<g id="edge88" class="edge">
<title>fastqdownload-&gt;fastqmap</title>
<path fill="none" stroke="black" stroke-dasharray="1,5" d="M872.54,-324.41C860.73,-348.71 839.2,-393.03 825.25,-421.73"/>
<polygon fill="black" stroke="black" points="822.2,-420 820.98,-430.53 828.49,-423.06 822.2,-420"/>
</g>
<!-- fastqdownload&#45;&gt;fastqmaptransform -->
<g id="edge89" class="edge">
<title>fastqdownload-&gt;fastqmaptransform</title>
<path fill="none" stroke="black" stroke-dasharray="1,5" d="M849.28,-324.48C832.94,-333.49 812.83,-344.58 795.29,-354.24"/>
<polygon fill="black" stroke="black" points="793.71,-351.12 786.64,-359.01 797.09,-357.25 793.71,-351.12"/>
</g>
<!-- filter -->
<g id="node48" class="node">
<title>filter</title>
<polygon fill="none" stroke="black" stroke-width="2" points="535,-36 481,-36 481,0 535,0 535,-36"/>
<text text-anchor="middle" x="508" y="-13.8" font-family="Helvetica,Arial,sans-serif" font-size="14.00">f:filter</text>
</g>
<!-- filter&#45;&gt;loadindex -->
<g id="edge91" class="edge">
<title>filter-&gt;loadindex</title>
<path fill="none" stroke="black" stroke-dasharray="1,5" d="M480.75,-32.65C477.83,-33.87 474.88,-35.02 472,-36 408.36,-57.68 332.2,-72.65 282.55,-81.01"/>
<polygon fill="black" stroke="black" points="282.24,-77.52 272.94,-82.6 283.38,-84.43 282.24,-77.52"/>
</g>
<!-- filter&#45;&gt;fastqmaptransform -->
<g id="edge92" class="edge">
<title>filter-&gt;fastqmaptransform</title>
<path fill="none" stroke="black" stroke-dasharray="1,5" d="M508,-36.49C508,-63.29 508,-116.13 508,-161 508,-161 508,-161 508,-235 508,-314.03 604.42,-349.77 676.53,-365.44"/>
<polygon fill="black" stroke="black" points="675.44,-368.79 685.95,-367.39 676.86,-361.93 675.44,-368.79"/>
</g>
<!-- filter&#45;&gt;fastqdownload -->
<g id="edge90" class="edge">
<title>filter-&gt;fastqdownload</title>
<path fill="none" stroke="black" d="M535.38,-29.63C582.51,-48.62 680.93,-91.35 754,-144 790.97,-170.64 798.74,-180.25 827,-216 842.36,-235.44 856.76,-259.58 866.82,-277.82"/>
<polygon fill="black" stroke="black" points="863.65,-279.33 871.49,-286.46 869.81,-276 863.65,-279.33"/>
</g>
<!-- matchres -->
<g id="node49" class="node">
<title>matchres</title>
<path fill="none" stroke="black" d="M805.71,-252C805.71,-252 752.29,-252 752.29,-252 746.29,-252 740.29,-246 740.29,-240 740.29,-240 740.29,-228 740.29,-228 740.29,-222 746.29,-216 752.29,-216 752.29,-216 805.71,-216 805.71,-216 811.71,-216 817.71,-222 817.71,-228 817.71,-228 817.71,-240 817.71,-240 817.71,-246 811.71,-252 805.71,-252"/>
<text text-anchor="middle" x="779" y="-229.8" font-family="Helvetica,Arial,sans-serif" font-size="14.00">o:matchres</text>
</g>
<!-- matchres&#45;&gt;loaddb -->
<g id="edge95" class="edge">
<title>matchres-&gt;loaddb</title>
<path fill="none" stroke="black" stroke-dasharray="1,5" d="M739.79,-241.4C659.78,-254.45 478.19,-284.08 394.17,-297.79"/>
<polygon fill="black" stroke="black" points="393.78,-294.31 384.47,-299.37 394.91,-301.22 393.78,-294.31"/>
</g>
<!-- matchres&#45;&gt;fastqmaptransform -->
<g id="edge94" class="edge">
<title>matchres-&gt;fastqmaptransform</title>
<path fill="none" stroke="black" stroke-dasharray="1,5" d="M781.21,-252.31C783.02,-270.42 784.47,-299.57 779,-324 777.07,-332.6 773.59,-341.45 769.82,-349.39"/>
<polygon fill="black" stroke="black" points="766.75,-347.71 765.31,-358.21 772.98,-350.9 766.75,-347.71"/>
</g>
<!-- matchres&#45;&gt;fastqdownload -->
<g id="edge93" class="edge">
<title>matchres-&gt;fastqdownload</title>
<path fill="none" stroke="black" d="M804.48,-252.48C817.23,-261.24 832.85,-271.96 846.65,-281.42"/>
<polygon fill="black" stroke="black" points="844.38,-284.11 854.6,-286.88 848.34,-278.34 844.38,-284.11"/>
</g>
<!-- match -->
<g id="node50" class="node">
<title>match</title>
<polygon fill="none" stroke="black" stroke-width="2" points="745.38,-180 686.62,-180 686.62,-144 745.38,-144 745.38,-180"/>
<text text-anchor="middle" x="716" y="-157.8" font-family="Helvetica,Arial,sans-serif" font-size="14.00">f:match</text>
</g>
<!-- match&#45;&gt;fastqmaptransform -->
<g id="edge96" class="edge">
<title>match-&gt;fastqmaptransform</title>
<path fill="none" stroke="black" stroke-dasharray="1,5" d="M710.62,-180.15C702.08,-210.35 688.23,-274.53 707,-324 710.85,-334.13 717.61,-343.57 724.84,-351.59"/>
<polygon fill="black" stroke="black" points="722.19,-353.89 731.68,-358.62 727.21,-349.01 722.19,-353.89"/>
</g>
<!-- match&#45;&gt;matchres -->
<g id="edge97" class="edge">
<title>match-&gt;matchres</title>
<path fill="none" stroke="black" stroke-dasharray="1,5" d="M731.57,-180.3C738.97,-188.53 747.97,-198.52 756.12,-207.58"/>
<polygon fill="black" stroke="black" points="753.3,-209.68 762.59,-214.77 758.51,-205 753.3,-209.68"/>
</g>
<!-- matchreslr -->
<g id="node51" class="node">
<title>matchreslr</title>
<path fill="none" stroke="black" d="M609.99,-252C609.99,-252 548.01,-252 548.01,-252 542.01,-252 536.01,-246 536.01,-240 536.01,-240 536.01,-228 536.01,-228 536.01,-222 542.01,-216 548.01,-216 548.01,-216 609.99,-216 609.99,-216 615.99,-216 621.99,-222 621.99,-228 621.99,-228 621.99,-240 621.99,-240 621.99,-246 615.99,-252 609.99,-252"/>
<text text-anchor="middle" x="579" y="-229.8" font-family="Helvetica,Arial,sans-serif" font-size="14.00">o:matchreslr</text>
</g>
<!-- matchreslr&#45;&gt;loaddb -->
<g id="edge100" class="edge">
<title>matchreslr-&gt;loaddb</title>
<path fill="none" stroke="black" stroke-dasharray="1,5" d="M535.66,-248.25C495,-260.68 434.52,-279.16 393.74,-291.63"/>
<polygon fill="black" stroke="black" points="392.78,-288.26 384.24,-294.53 394.83,-294.96 392.78,-288.26"/>
</g>
<!-- matchreslr&#45;&gt;fastqmaptransform -->
<g id="edge99" class="edge">
<title>matchreslr-&gt;fastqmaptransform</title>
<path fill="none" stroke="black" stroke-dasharray="1,5" d="M586.3,-252.18C595.4,-271.83 612.66,-303.87 636,-324 650.93,-336.87 669.49,-347.15 687.44,-355.1"/>
<polygon fill="black" stroke="black" points="685.94,-358.26 696.51,-358.92 688.66,-351.81 685.94,-358.26"/>
</g>
<!-- matchreslr&#45;&gt;fastqdownload -->
<g id="edge98" class="edge">
<title>matchreslr-&gt;fastqdownload</title>
<path fill="none" stroke="black" d="M622.27,-245.03C672.68,-256.71 756.51,-276.15 815.05,-289.71"/>
<polygon fill="black" stroke="black" points="814.03,-293.07 824.56,-291.92 815.61,-286.25 814.03,-293.07"/>
</g>
<!-- matchlr -->
<g id="node52" class="node">
<title>matchlr</title>
<polygon fill="none" stroke="black" stroke-width="2" points="654.66,-180 587.34,-180 587.34,-144 654.66,-144 654.66,-180"/>
<text text-anchor="middle" x="621" y="-157.8" font-family="Helvetica,Arial,sans-serif" font-size="14.00">f:matchlr</text>
</g>
<!-- matchlr&#45;&gt;fastqmaptransform -->
<g id="edge101" class="edge">
<title>matchlr-&gt;fastqmaptransform</title>
<path fill="none" stroke="black" stroke-dasharray="1,5" d="M626.31,-180.2C636.36,-211.05 660.34,-276.94 695,-324 702.49,-334.17 712.18,-343.85 721.54,-352.09"/>
<polygon fill="black" stroke="black" points="719.27,-354.76 729.17,-358.54 723.79,-349.41 719.27,-354.76"/>
</g>
<!-- matchlr&#45;&gt;matchreslr -->
<g id="edge102" class="edge">
<title>matchlr-&gt;matchreslr</title>
<path fill="none" stroke="black" stroke-dasharray="1,5" d="M610.62,-180.3C605.94,-188.1 600.31,-197.49 595.1,-206.17"/>
<polygon fill="black" stroke="black" points="592.19,-204.22 590.04,-214.6 598.19,-207.82 592.19,-204.22"/>
</g>
<!-- fastamap -->
<g id="node53" class="node">
<title>fastamap</title>
<path fill="none" stroke="black" d="M1246.71,-252C1246.71,-252 1193.29,-252 1193.29,-252 1187.29,-252 1181.29,-246 1181.29,-240 1181.29,-240 1181.29,-228 1181.29,-228 1181.29,-222 1187.29,-216 1193.29,-216 1193.29,-216 1246.71,-216 1246.71,-216 1252.71,-216 1258.71,-222 1258.71,-228 1258.71,-228 1258.71,-240 1258.71,-240 1258.71,-246 1252.71,-252 1246.71,-252"/>
<text text-anchor="middle" x="1220" y="-229.8" font-family="Helvetica,Arial,sans-serif" font-size="14.00">o:fastamap</text>
</g>
<!-- fastamaptransform -->
<g id="node54" class="node">
<title>fastamaptransform</title>
<path fill="none" stroke="black" d="M1198.92,-180C1198.92,-180 1091.08,-180 1091.08,-180 1085.08,-180 1079.08,-174 1079.08,-168 1079.08,-168 1079.08,-156 1079.08,-156 1079.08,-150 1085.08,-144 1091.08,-144 1091.08,-144 1198.92,-144 1198.92,-144 1204.92,-144 1210.92,-150 1210.92,-156 1210.92,-156 1210.92,-168 1210.92,-168 1210.92,-174 1204.92,-180 1198.92,-180"/>
<text text-anchor="middle" x="1145" y="-157.8" font-family="Helvetica,Arial,sans-serif" font-size="14.00">o:fastamaptransform</text>
</g>
<!-- fastamaptransform&#45;&gt;fastamap -->
<g id="edge103" class="edge">
<title>fastamaptransform-&gt;fastamap</title>
<path fill="none" stroke="black" stroke-dasharray="1,5" d="M1163.54,-180.3C1172.46,-188.63 1183.33,-198.78 1193.14,-207.93"/>
<polygon fill="black" stroke="black" points="1190.61,-210.36 1200.31,-214.62 1195.39,-205.24 1190.61,-210.36"/>
</g>
<!-- fastadownload -->
<g id="node55" class="node">
<title>fastadownload</title>
<path fill="none" stroke="black" d="M1269.27,-108C1269.27,-108 1184.73,-108 1184.73,-108 1178.73,-108 1172.73,-102 1172.73,-96 1172.73,-96 1172.73,-84 1172.73,-84 1172.73,-78 1178.73,-72 1184.73,-72 1184.73,-72 1269.27,-72 1269.27,-72 1275.27,-72 1281.27,-78 1281.27,-84 1281.27,-84 1281.27,-96 1281.27,-96 1281.27,-102 1275.27,-108 1269.27,-108"/>
<text text-anchor="middle" x="1227" y="-85.8" font-family="Helvetica,Arial,sans-serif" font-size="14.00">d:fastadownload</text>
</g>
<!-- fastadownload&#45;&gt;fastamap -->
<g id="edge104" class="edge">
<title>fastadownload-&gt;fastamap</title>
<path fill="none" stroke="black" stroke-dasharray="1,5" d="M1226.14,-108.41C1224.96,-132.39 1222.82,-175.86 1221.4,-204.58"/>
<polygon fill="black" stroke="black" points="1217.91,-204.22 1220.92,-214.38 1224.91,-204.56 1217.91,-204.22"/>
</g>
<!-- fastadownload&#45;&gt;fastamaptransform -->
<g id="edge105" class="edge">
<title>fastadownload-&gt;fastamaptransform</title>
<path fill="none" stroke="black" stroke-dasharray="1,5" d="M1206.73,-108.3C1196.87,-116.72 1184.85,-126.98 1174.04,-136.21"/>
<polygon fill="black" stroke="black" points="1171.81,-133.52 1166.47,-142.67 1176.35,-138.84 1171.81,-133.52"/>
</g>
<!-- fasta2fastq -->
<g id="node56" class="node">
<title>fasta2fastq</title>
<path fill="none" stroke="black" d="M1216.6,-36C1216.6,-36 1155.4,-36 1155.4,-36 1149.4,-36 1143.4,-30 1143.4,-24 1143.4,-24 1143.4,-12 1143.4,-12 1143.4,-6 1149.4,0 1155.4,0 1155.4,0 1216.6,0 1216.6,0 1222.6,0 1228.6,-6 1228.6,-12 1228.6,-12 1228.6,-24 1228.6,-24 1228.6,-30 1222.6,-36 1216.6,-36"/>
<text text-anchor="middle" x="1186" y="-13.8" font-family="Helvetica,Arial,sans-serif" font-size="14.00">f:fasta2fastq</text>
</g>
<!-- fasta2fastq&#45;&gt;fastamaptransform -->
<g id="edge107" class="edge">
<title>fasta2fastq-&gt;fastamaptransform</title>
<path fill="none" stroke="black" stroke-dasharray="1,5" d="M1177.84,-36.37C1173.29,-46.57 1167.79,-59.82 1164,-72 1157.82,-91.86 1152.97,-114.82 1149.72,-132.45"/>
<polygon fill="black" stroke="black" points="1146.29,-131.75 1147.99,-142.21 1153.18,-132.97 1146.29,-131.75"/>
</g>
<!-- fasta2fastq&#45;&gt;fastadownload -->
<g id="edge106" class="edge">
<title>fasta2fastq-&gt;fastadownload</title>
<path fill="none" stroke="black" d="M1196.13,-36.3C1200.7,-44.1 1206.2,-53.49 1211.29,-62.17"/>
<polygon fill="black" stroke="black" points="1208.14,-63.73 1216.22,-70.59 1214.18,-60.19 1208.14,-63.73"/>
</g>
<!-- krakencount -->
<g id="node57" class="node">
<title>krakencount</title>
<path fill="none" stroke="black" d="M1076.04,-252C1076.04,-252 1003.96,-252 1003.96,-252 997.96,-252 991.96,-246 991.96,-240 991.96,-240 991.96,-228 991.96,-228 991.96,-222 997.96,-216 1003.96,-216 1003.96,-216 1076.04,-216 1076.04,-216 1082.04,-216 1088.04,-222 1088.04,-228 1088.04,-228 1088.04,-240 1088.04,-240 1088.04,-246 1082.04,-252 1076.04,-252"/>
<text text-anchor="middle" x="1040" y="-229.8" font-family="Helvetica,Arial,sans-serif" font-size="14.00">o:krakencount</text>
</g>
<!-- krakencount&#45;&gt;taxnodes -->
<g id="edge109" class="edge">
<title>krakencount-&gt;taxnodes</title>
<path fill="none" stroke="black" stroke-dasharray="1,5" d="M1047.69,-252.09C1058.79,-278.38 1078,-330.55 1078,-377 1078,-377 1078,-377 1078,-883 1078,-956.42 996.77,-1130.59 951,-1188 942.66,-1198.46 932,-1208.35 921.83,-1216.7"/>
<polygon fill="black" stroke="black" points="919.95,-1213.72 914.27,-1222.67 924.29,-1219.22 919.95,-1213.72"/>
</g>
<!-- krakencount&#45;&gt;fastqmaptransform -->
<g id="edge110" class="edge">
<title>krakencount-&gt;fastqmaptransform</title>
<path fill="none" stroke="black" stroke-dasharray="1,5" d="M1032.67,-252.29C1023.12,-272.66 1004.47,-305.99 978,-324 935.05,-353.22 877.97,-366.43 832.17,-372.35"/>
<polygon fill="black" stroke="black" points="831.81,-368.87 822.29,-373.53 832.64,-375.82 831.81,-368.87"/>
</g>
<!-- krakencount&#45;&gt;fastqdownload -->
<g id="edge108" class="edge">
<title>krakencount-&gt;fastqdownload</title>
<path fill="none" stroke="black" d="M1000.29,-252.48C979.25,-261.75 953.19,-273.22 930.81,-283.07"/>
<polygon fill="black" stroke="black" points="929.61,-279.78 921.87,-287.01 932.43,-286.18 929.61,-279.78"/>
</g>
<!-- krakenres -->
<g id="node58" class="node">
<title>krakenres</title>
<path fill="none" stroke="black" d="M1048.48,-180C1048.48,-180 993.52,-180 993.52,-180 987.52,-180 981.52,-174 981.52,-168 981.52,-168 981.52,-156 981.52,-156 981.52,-150 987.52,-144 993.52,-144 993.52,-144 1048.48,-144 1048.48,-144 1054.48,-144 1060.48,-150 1060.48,-156 1060.48,-156 1060.48,-168 1060.48,-168 1060.48,-174 1054.48,-180 1048.48,-180"/>
<text text-anchor="middle" x="1021" y="-157.8" font-family="Helvetica,Arial,sans-serif" font-size="14.00">f:krakenres</text>
</g>
<!-- krakenres&#45;&gt;taxnodes -->
<g id="edge112" class="edge">
<title>krakenres-&gt;taxnodes</title>
<path fill="none" stroke="black" stroke-dasharray="1,5" d="M1057.02,-180.43C1071.52,-189.18 1087.12,-201.12 1097,-216 1119.37,-249.7 1116,-264.55 1116,-305 1116,-305 1116,-305 1116,-883 1116,-1031.97 1082.4,-1082.73 977,-1188 965.21,-1199.77 950.31,-1209.96 936.08,-1218.18"/>
<polygon fill="black" stroke="black" points="934.76,-1214.9 927.71,-1222.81 938.15,-1221.03 934.76,-1214.9"/>
</g>
<!-- krakenres&#45;&gt;fastqmaptransform -->
<g id="edge114" class="edge">
<title>krakenres-&gt;fastqmaptransform</title>
<path fill="none" stroke="black" stroke-dasharray="1,5" d="M1006.65,-180.33C998.9,-190.31 989.59,-203.35 983,-216 959.49,-261.13 982.18,-289.26 945,-324 914.56,-352.44 870.21,-365.84 831.9,-372.06"/>
<polygon fill="black" stroke="black" points="831.63,-368.56 822.25,-373.47 832.65,-375.48 831.63,-368.56"/>
</g>
<!-- krakenres&#45;&gt;fastqdownload -->
<g id="edge111" class="edge">
<title>krakenres-&gt;fastqdownload</title>
<path fill="none" stroke="black" d="M994.35,-180.32C980.42,-189.99 963.5,-202.74 950,-216 930.49,-235.16 911.7,-259.95 898.67,-278.5"/>
<polygon fill="black" stroke="black" points="895.89,-276.36 893.09,-286.58 901.65,-280.34 895.89,-276.36"/>
</g>
<!-- krakenres&#45;&gt;krakencount -->
<g id="edge113" class="edge">
<title>krakenres-&gt;krakencount</title>
<path fill="none" stroke="black" stroke-dasharray="1,5" d="M1025.7,-180.3C1027.72,-187.76 1030.14,-196.68 1032.41,-205.03"/>
<polygon fill="black" stroke="black" points="1028.96,-205.7 1034.96,-214.43 1035.72,-203.87 1028.96,-205.7"/>
</g>
</g>
</svg>