<svg width="490" height="493" viewBox="0 0 367.5 369.75" xmlns="http://www.w3.org/2000/svg" xmlns:xlink="http://www.w3.org/1999/xlink">
<g id="graph0" class="graph" transform="translate(14.536950455850642,368.6462686567164) scale(0.2759328358208955)">
<title>regexp</title>
<polygon fill="white" stroke="none" points="-4,4 -4,-1336 1230.48,-1336 1230.48,4 -4,4"/>
<!-- showall -->
<g id="node1" class="node">
<title>showall</title>
<polygon fill="none" stroke="black" stroke-width="2" points="932.78,-36 873.22,-36 873.22,0 932.78,0 932.78,-36"/>
<text text-anchor="middle" x="903" y="-13.8" font-family="Helvetica,Arial,sans-serif" font-size="14.00">showall</text>
</g>
<!-- show -->
<g id="node2" class="node">
<title>show</title>
<polygon fill="none" stroke="black" stroke-width="2" points="1005,-36 951,-36 951,0 1005,0 1005,-36"/>
<text text-anchor="middle" x="978" y="-13.8" font-family="Helvetica,Arial,sans-serif" font-size="14.00">show</text>
</g>
<!-- commonsetup -->
<g id="node3" class="node">
<title>commonsetup</title>
<path fill="none" stroke="black" d="M589.55,-1332C589.55,-1332 510.45,-1332 510.45,-1332 504.45,-1332 498.45,-1326 498.45,-1320 498.45,-1320 498.45,-1308 498.45,-1308 498.45,-1302 504.45,-1296 510.45,-1296 510.45,-1296 589.55,-1296 589.55,-1296 595.55,-1296 601.55,-1302 601.55,-1308 601.55,-1308 601.55,-1320 601.55,-1320 601.55,-1326 595.55,-1332 589.55,-1332"/>
<text text-anchor="middle" x="550" y="-1309.8" font-family="Helvetica,Arial,sans-serif" font-size="14.00">f:commonsetup</text>
</g>
<!-- taxdownload -->
<g id="node4" class="node">
<title>taxdownload</title>
<path fill="none" stroke="black" d="M817.6,-1116C817.6,-1116 742.4,-1116 742.4,-1116 736.4,-1116 730.4,-1110 730.4,-1104 730.4,-1104 730.4,-1092 730.4,-1092 730.4,-1086 736.4,-1080 742.4,-1080 742.4,-1080 817.6,-1080 817.6,-1080 823.6,-1080 829.6,-1086 829.6,-1092 829.6,-1092 829.6,-1104 829.6,-1104 829.6,-1110 823.6,-1116 817.6,-1116"/>
<text text-anchor="middle" x="780" y="-1093.8" font-family="Helvetica,Arial,sans-serif" font-size="14.00">d:taxdownload</text>
</g>
<!-- taxdownload&#45;&gt;commonsetup -->
<g id="edge1" class="edge">
<title>taxdownload-&gt;commonsetup</title>
<path fill="none" stroke="black" d="M775.24,-1116.41C765.45,-1149.09 740,-1219.94 694,-1260 671.22,-1279.83 640.37,-1292.5 613.07,-1300.45"/>
<polygon fill="black" stroke="black" points="612.2,-1297.06 603.48,-1303.07 614.05,-1303.81 612.2,-1297.06"/>
</g>
<!-- taxtree -->
<g id="node5" class="node">
<title>taxtree</title>
<path fill="none" stroke="black" d="M810.49,-1044C810.49,-1044 769.51,-1044 769.51,-1044 763.51,-1044 757.51,-1038 757.51,-1032 757.51,-1032 757.51,-1020 757.51,-1020 757.51,-1014 763.51,-1008 769.51,-1008 769.51,-1008 810.49,-1008 810.49,-1008 816.49,-1008 822.49,-1014 822.49,-1020 822.49,-1020 822.49,-1032 822.49,-1032 822.49,-1038 816.49,-1044 810.49,-1044"/>
<text text-anchor="middle" x="790" y="-1021.8" font-family="Helvetica,Arial,sans-serif" font-size="14.00">o:taxtree</text>
</g>
<!-- taxtree&#45;&gt;taxdownload -->
<g id="edge2" class="edge">
<title>taxtree-&gt;taxdownload</title>
<path fill="none" stroke="black" d="M787.53,-1044.3C786.47,-1051.68 785.22,-1060.48 784.04,-1068.75"/>
<polygon fill="black" stroke="black" points="780.61,-1068 782.66,-1078.4 787.54,-1068.99 780.61,-1068"/>
</g>
<!-- taxnodes -->
<g id="node6" class="node">
<title>taxnodes</title>
<path fill="none" stroke="black" d="M816.33,-972C816.33,-972 763.67,-972 763.67,-972 757.67,-972 751.67,-966 751.67,-960 751.67,-960 751.67,-948 751.67,-948 751.67,-942 757.67,-936 763.67,-936 763.67,-936 816.33,-936 816.33,-936 822.33,-936 828.33,-942 828.33,-948 828.33,-948 828.33,-960 828.33,-960 828.33,-966 822.33,-972 816.33,-972"/>
<text text-anchor="middle" x="790" y="-949.8" font-family="Helvetica,Arial,sans-serif" font-size="14.00">o:taxnodes</text>
</g>
<!-- taxnodes&#45;&gt;taxtree -->
<g id="edge3" class="edge">
<title>taxnodes-&gt;taxtree</title>
<path fill="none" stroke="black" d="M790,-972.3C790,-979.59 790,-988.27 790,-996.46"/>
<polygon fill="black" stroke="black" points="786.5,-996.38 790,-1006.38 793.5,-996.38 786.5,-996.38"/>
</g>
<!-- refseqrelease -->
<g id="node7" class="node">
<title>refseqrelease</title>
<path fill="none" stroke="black" d="M520.97,-1260C520.97,-1260 445.03,-1260 445.03,-1260 439.03,-1260 433.03,-1254 433.03,-1248 433.03,-1248 433.03,-1236 433.03,-1236 433.03,-1230 439.03,-1224 445.03,-1224 445.03,-1224 520.97,-1224 520.97,-1224 526.97,-1224 532.97,-1230 532.97,-1236 532.97,-1236 532.97,-1248 532.97,-1248 532.97,-1254 526.97,-1260 520.97,-1260"/>
<text text-anchor="middle" x="483" y="-1237.8" font-family="Helvetica,Arial,sans-serif" font-size="14.00">d:refseqrelease</text>
</g>
<!-- refseqrelease&#45;&gt;commonsetup -->
<g id="edge4" class="edge">
<title>refseqrelease-&gt;commonsetup</title>
<path fill="none" stroke="black" d="M499.56,-1260.3C507.43,-1268.53 516.99,-1278.52 525.67,-1287.58"/>
<polygon fill="black" stroke="black" points="523.14,-1290 532.58,-1294.8 528.2,-1285.16 523.14,-1290"/>
</g>
<!-- refseqcat -->
<g id="node8" class="node">
<title>refseqcat</title>
<path fill="none" stroke="black" d="M495.7,-1188C495.7,-1188 442.3,-1188 442.3,-1188 436.3,-1188 430.3,-1182 430.3,-1176 430.3,-1176 430.3,-1164 430.3,-1164 430.3,-1158 436.3,-1152 442.3,-1152 442.3,-1152 495.7,-1152 495.7,-1152 501.7,-1152 507.7,-1158 507.7,-1164 507.7,-1164 507.7,-1176 507.7,-1176 507.7,-1182 501.7,-1188 495.7,-1188"/>
<text text-anchor="middle" x="469" y="-1165.8" font-family="Helvetica,Arial,sans-serif" font-size="14.00">d:refseqcat</text>
</g>
<!-- refseqcat&#45;&gt;commonsetup -->
<g id="edge5" class="edge">
<title>refseqcat-&gt;commonsetup</title>
<path fill="none" stroke="black" d="M449.32,-1188.4C430.9,-1206.84 408.38,-1236.49 424,-1260 438.29,-1281.51 463.2,-1294.31 487.12,-1301.92"/>
<polygon fill="black" stroke="black" points="485.97,-1305.23 496.55,-1304.64 487.91,-1298.51 485.97,-1305.23"/>
</g>
<!-- refseqcat&#45;&gt;refseqrelease -->
<g id="edge6" class="edge">
<title>refseqcat-&gt;refseqrelease</title>
<path fill="none" stroke="black" d="M472.46,-1188.3C473.94,-1195.68 475.7,-1204.48 477.35,-1212.75"/>
<polygon fill="black" stroke="black" points="473.89,-1213.29 479.28,-1222.41 480.75,-1211.92 473.89,-1213.29"/>
</g>
<!-- clear -->
<g id="node9" class="node">
<title>clear</title>
<polygon fill="none" stroke="black" stroke-width="2" points="1149,-36 1095,-36 1095,0 1149,0 1149,-36"/>
<text text-anchor="middle" x="1122" y="-13.8" font-family="Helvetica,Arial,sans-serif" font-size="14.00">f:clear</text>
</g>
<!-- categories -->
<g id="node10" class="node">
<title>categories</title>
<path fill="none" stroke="black" d="M293.82,-1188C293.82,-1188 234.18,-1188 234.18,-1188 228.18,-1188 222.18,-1182 222.18,-1176 222.18,-1176 222.18,-1164 222.18,-1164 222.18,-1158 228.18,-1152 234.18,-1152 234.18,-1152 293.82,-1152 293.82,-1152 299.82,-1152 305.82,-1158 305.82,-1164 305.82,-1164 305.82,-1176 305.82,-1176 305.82,-1182 299.82,-1188 293.82,-1188"/>
<text text-anchor="middle" x="264" y="-1165.8" font-family="Helvetica,Arial,sans-serif" font-size="14.00">o:categories</text>
</g>
<!-- refseqfna -->
<g id="node11" class="node">
<title>refseqfna</title>
<path fill="none" stroke="black" d="M291.48,-1116C291.48,-1116 236.52,-1116 236.52,-1116 230.52,-1116 224.52,-1110 224.52,-1104 224.52,-1104 224.52,-1092 224.52,-1092 224.52,-1086 230.52,-1080 236.52,-1080 236.52,-1080 291.48,-1080 291.48,-1080 297.48,-1080 303.48,-1086 303.48,-1092 303.48,-1092 303.48,-1104 303.48,-1104 303.48,-1110 297.48,-1116 291.48,-1116"/>
<text text-anchor="middle" x="264" y="-1093.8" font-family="Helvetica,Arial,sans-serif" font-size="14.00">d:refseqfna</text>
</g>
<!-- refseqfna&#45;&gt;refseqcat -->
<g id="edge8" class="edge">
<title>refseqfna-&gt;refseqcat</title>
<path fill="none" stroke="black" d="M303.53,-1112.5C336.53,-1123.77 383.75,-1139.89 419.31,-1152.03"/>
<polygon fill="black" stroke="black" points="417.92,-1155.26 428.51,-1155.17 420.18,-1148.63 417.92,-1155.26"/>
</g>
<!-- refseqfna&#45;&gt;categories -->
<g id="edge7" class="edge">
<title>refseqfna-&gt;categories</title>
<path fill="none" stroke="black" d="M264,-1116.3C264,-1123.59 264,-1132.27 264,-1140.46"/>
<polygon fill="black" stroke="black" points="260.5,-1140.38 264,-1150.38 267.5,-1140.38 260.5,-1140.38"/>
</g>
<!-- accmapsize -->
<g id="node12" class="node">
<title>accmapsize</title>
<path fill="none" stroke="black" d="M428.7,-1044C428.7,-1044 361.3,-1044 361.3,-1044 355.3,-1044 349.3,-1038 349.3,-1032 349.3,-1032 349.3,-1020 349.3,-1020 349.3,-1014 355.3,-1008 361.3,-1008 361.3,-1008 428.7,-1008 428.7,-1008 434.7,-1008 440.7,-1014 440.7,-1020 440.7,-1020 440.7,-1032 440.7,-1032 440.7,-1038 434.7,-1044 428.7,-1044"/>
<text text-anchor="middle" x="395" y="-1021.8" font-family="Helvetica,Arial,sans-serif" font-size="14.00">o:accmapsize</text>
</g>
<!-- accmapsize&#45;&gt;refseqcat -->
<g id="edge10" class="edge">
<title>accmapsize-&gt;refseqcat</title>
<path fill="none" stroke="black" d="M404.07,-1044.41C416.74,-1068.71 439.83,-1113.03 454.79,-1141.73"/>
<polygon fill="black" stroke="black" points="451.66,-1143.3 459.38,-1150.55 457.87,-1140.06 451.66,-1143.3"/>
</g>
<!-- accmapsize&#45;&gt;categories -->
<g id="edge9" class="edge">
<title>accmapsize-&gt;categories</title>
<path fill="none" stroke="black" d="M378.94,-1044.41C356.03,-1069.24 313.83,-1114.99 287.43,-1143.6"/>
<polygon fill="black" stroke="black" points="285.02,-1141.05 280.81,-1150.78 290.16,-1145.8 285.02,-1141.05"/>
</g>
<!-- accmapsize&#45;&gt;refseqfna -->
<g id="edge11" class="edge">
<title>accmapsize-&gt;refseqfna</title>
<path fill="none" stroke="black" d="M362.28,-1044.48C345.35,-1053.53 324.48,-1064.68 306.34,-1074.38"/>
<polygon fill="black" stroke="black" points="304.81,-1071.23 297.64,-1079.03 308.11,-1077.4 304.81,-1071.23"/>
</g>
<!-- accmap -->
<g id="node13" class="node">
<title>accmap</title>
<path fill="none" stroke="black" d="M292.82,-972C292.82,-972 247.18,-972 247.18,-972 241.18,-972 235.18,-966 235.18,-960 235.18,-960 235.18,-948 235.18,-948 235.18,-942 241.18,-936 247.18,-936 247.18,-936 292.82,-936 292.82,-936 298.82,-936 304.82,-942 304.82,-948 304.82,-948 304.82,-960 304.82,-960 304.82,-966 298.82,-972 292.82,-972"/>
<text text-anchor="middle" x="270" y="-949.8" font-family="Helvetica,Arial,sans-serif" font-size="14.00">o:accmap</text>
</g>
<!-- accmap&#45;&gt;refseqcat -->
<g id="edge13" class="edge">
<title>accmap-&gt;refseqcat</title>
<path fill="none" stroke="black" d="M305.2,-954.6C346.63,-956.19 414.28,-965.68 450,-1008 481.31,-1045.1 479.05,-1105.31 474.25,-1140.63"/>
<polygon fill="black" stroke="black" points="470.85,-1139.68 472.8,-1150.09 477.77,-1140.74 470.85,-1139.68"/>
</g>
<!-- accmap&#45;&gt;categories -->
<g id="edge12" class="edge">
<title>accmap-&gt;categories</title>
<path fill="none" stroke="black" d="M259.72,-972.46C246.54,-995.95 224.38,-1039.49 216,-1080 212.76,-1095.67 210.24,-1101.07 216,-1116 219.9,-1126.12 226.73,-1135.51 234.04,-1143.49"/>
<polygon fill="black" stroke="black" points="231.45,-1145.84 240.97,-1150.48 236.42,-1140.91 231.45,-1145.84"/>
</g>
<!-- accmap&#45;&gt;refseqfna -->
<g id="edge14" class="edge">
<title>accmap-&gt;refseqfna</title>
<path fill="none" stroke="black" d="M269.26,-972.41C268.25,-996.39 266.41,-1039.86 265.2,-1068.58"/>
<polygon fill="black" stroke="black" points="261.71,-1068.24 264.79,-1078.38 268.71,-1068.53 261.71,-1068.24"/>
</g>
<!-- accmap&#45;&gt;accmapsize -->
<g id="edge15" class="edge">
<title>accmap-&gt;accmapsize</title>
<path fill="none" stroke="black" d="M301.22,-972.48C317.3,-981.49 337.1,-992.58 354.36,-1002.24"/>
<polygon fill="black" stroke="black" points="352.42,-1005.17 362.86,-1007 355.84,-999.06 352.42,-1005.17"/>
</g>
<!-- taxfromgenbank -->
<g id="node14" class="node">
<title>taxfromgenbank</title>
<path fill="none" stroke="black" d="M561.32,-900C561.32,-900 466.68,-900 466.68,-900 460.68,-900 454.68,-894 454.68,-888 454.68,-888 454.68,-876 454.68,-876 454.68,-870 460.68,-864 466.68,-864 466.68,-864 561.32,-864 561.32,-864 567.32,-864 573.32,-870 573.32,-876 573.32,-876 573.32,-888 573.32,-888 573.32,-894 567.32,-900 561.32,-900"/>
<text text-anchor="middle" x="514" y="-877.8" font-family="Helvetica,Arial,sans-serif" font-size="14.00">o:taxfromgenbank</text>
</g>
<!-- taxfromgenbank&#45;&gt;taxnodes -->
<g id="edge17" class="edge">
<title>taxfromgenbank-&gt;taxnodes</title>
<path fill="none" stroke="black" d="M573.55,-898.1C623.32,-910.73 693.49,-928.52 740.29,-940.39"/>
<polygon fill="black" stroke="black" points="739.35,-943.76 749.9,-942.83 741.07,-936.98 739.35,-943.76"/>
</g>
<!-- taxfromgenbank&#45;&gt;categories -->
<g id="edge16" class="edge">
<title>taxfromgenbank-&gt;categories</title>
<path fill="none" stroke="black" d="M514.84,-900.22C515.95,-944.22 512.14,-1061.15 445,-1116 408.73,-1145.63 356.48,-1158.7 317.44,-1164.46"/>
<polygon fill="black" stroke="black" points="316.98,-1160.99 307.53,-1165.79 317.91,-1167.93 316.98,-1160.99"/>
</g>
<!-- taxfromgenbank&#45;&gt;refseqfna -->
<g id="edge18" class="edge">
<title>taxfromgenbank-&gt;refseqfna</title>
<path fill="none" stroke="black" d="M485.62,-900.36C449.81,-922.91 387.23,-964.57 340,-1008 319.11,-1027.21 298.4,-1051.94 283.88,-1070.46"/>
<polygon fill="black" stroke="black" points="281.16,-1068.27 277.81,-1078.32 286.7,-1072.54 281.16,-1068.27"/>
</g>
<!-- taxfromgenbank&#45;&gt;accmap -->
<g id="edge19" class="edge">
<title>taxfromgenbank-&gt;accmap</title>
<path fill="none" stroke="black" d="M454.31,-900.12C411.81,-912.32 355.51,-928.47 316.37,-939.7"/>
<polygon fill="black" stroke="black" points="315.41,-936.33 306.76,-942.45 317.34,-943.06 315.41,-936.33"/>
</g>
<!-- assemblydownload -->
<g id="node15" class="node">
<title>assemblydownload</title>
<path fill="none" stroke="black" d="M673.1,-1260C673.1,-1260 562.9,-1260 562.9,-1260 556.9,-1260 550.9,-1254 550.9,-1248 550.9,-1248 550.9,-1236 550.9,-1236 550.9,-1230 556.9,-1224 562.9,-1224 562.9,-1224 673.1,-1224 673.1,-1224 679.1,-1224 685.1,-1230 685.1,-1236 685.1,-1236 685.1,-1248 685.1,-1248 685.1,-1254 679.1,-1260 673.1,-1260"/>
<text text-anchor="middle" x="618" y="-1237.8" font-family="Helvetica,Arial,sans-serif" font-size="14.00">d:assemblydownload</text>
</g>
<!-- assemblydownload&#45;&gt;commonsetup -->
<g id="edge20" class="edge">
<title>assemblydownload-&gt;commonsetup</title>
<path fill="none" stroke="black" d="M601.19,-1260.3C593.12,-1268.61 583.3,-1278.72 574.42,-1287.86"/>
<polygon fill="black" stroke="black" points="572.13,-1285.2 567.67,-1294.81 577.15,-1290.08 572.13,-1285.2"/>
</g>
<!-- fastasgenbank -->
<g id="node16" class="node">
<title>fastasgenbank</title>
<path fill="none" stroke="black" d="M622.1,-828C622.1,-828 539.9,-828 539.9,-828 533.9,-828 527.9,-822 527.9,-816 527.9,-816 527.9,-804 527.9,-804 527.9,-798 533.9,-792 539.9,-792 539.9,-792 622.1,-792 622.1,-792 628.1,-792 634.1,-798 634.1,-804 634.1,-804 634.1,-816 634.1,-816 634.1,-822 628.1,-828 622.1,-828"/>
<text text-anchor="middle" x="581" y="-805.8" font-family="Helvetica,Arial,sans-serif" font-size="14.00">o:fastasgenbank</text>
</g>
<!-- fastasgenbank&#45;&gt;taxtree -->
<g id="edge21" class="edge">
<title>fastasgenbank-&gt;taxtree</title>
<path fill="none" stroke="black" d="M593.02,-828.26C599.86,-838.43 608.36,-851.68 615,-864 639.92,-910.24 625.44,-935.28 663,-972 685.8,-994.28 719.34,-1007.74 746.22,-1015.51"/>
<polygon fill="black" stroke="black" points="745.26,-1018.88 755.82,-1018.11 747.09,-1012.12 745.26,-1018.88"/>
</g>
<!-- fastasgenbank&#45;&gt;taxfromgenbank -->
<g id="edge22" class="edge">
<title>fastasgenbank-&gt;taxfromgenbank</title>
<path fill="none" stroke="black" d="M564.44,-828.3C556.57,-836.53 547.01,-846.52 538.33,-855.58"/>
<polygon fill="black" stroke="black" points="535.8,-853.16 531.42,-862.8 540.86,-858 535.8,-853.16"/>
</g>
<!-- fastasgenbank&#45;&gt;assemblydownload -->
<g id="edge23" class="edge">
<title>fastasgenbank-&gt;assemblydownload</title>
<path fill="none" stroke="black" d="M585.05,-828.38C590.89,-855.03 601,-907.69 601,-953 601,-953 601,-953 601,-1099 601,-1138.54 607.58,-1183.84 612.55,-1212.43"/>
<polygon fill="black" stroke="black" points="609.08,-1212.88 614.29,-1222.1 615.97,-1211.64 609.08,-1212.88"/>
</g>
<!-- fastasgenbankdl -->
<g id="node17" class="node">
<title>fastasgenbankdl</title>
<path fill="none" stroke="black" d="M627.54,-756C627.54,-756 534.46,-756 534.46,-756 528.46,-756 522.46,-750 522.46,-744 522.46,-744 522.46,-732 522.46,-732 522.46,-726 528.46,-720 534.46,-720 534.46,-720 627.54,-720 627.54,-720 633.54,-720 639.54,-726 639.54,-732 639.54,-732 639.54,-744 639.54,-744 639.54,-750 633.54,-756 627.54,-756"/>
<text text-anchor="middle" x="581" y="-733.8" font-family="Helvetica,Arial,sans-serif" font-size="14.00">d:fastasgenbankdl</text>
</g>
<!-- fastasgenbankdl&#45;&gt;fastasgenbank -->
<g id="edge24" class="edge">
<title>fastasgenbankdl-&gt;fastasgenbank</title>
<path fill="none" stroke="black" d="M581,-756.3C581,-763.59 581,-772.27 581,-780.46"/>
<polygon fill="black" stroke="black" points="577.5,-780.38 581,-790.38 584.5,-780.38 577.5,-780.38"/>
</g>
<!-- adddownloads -->
<g id="node18" class="node">
<title>adddownloads</title>
<path fill="none" stroke="black" d="M752.88,-756C752.88,-756 669.12,-756 669.12,-756 663.12,-756 657.12,-750 657.12,-744 657.12,-744 657.12,-732 657.12,-732 657.12,-726 663.12,-720 669.12,-720 669.12,-720 752.88,-720 752.88,-720 758.88,-720 764.88,-726 764.88,-732 764.88,-732 764.88,-744 764.88,-744 764.88,-750 758.88,-756 752.88,-756"/>
<text text-anchor="middle" x="711" y="-733.8" font-family="Helvetica,Arial,sans-serif" font-size="14.00">d:adddownloads</text>
</g>
<!-- addfastas -->
<g id="node19" class="node">
<title>addfastas</title>
<path fill="none" stroke="black" d="M595.49,-684C595.49,-684 540.51,-684 540.51,-684 534.51,-684 528.51,-678 528.51,-672 528.51,-672 528.51,-660 528.51,-660 528.51,-654 534.51,-648 540.51,-648 540.51,-648 595.49,-648 595.49,-648 601.49,-648 607.49,-654 607.49,-660 607.49,-660 607.49,-672 607.49,-672 607.49,-678 601.49,-684 595.49,-684"/>
<text text-anchor="middle" x="568" y="-661.8" font-family="Helvetica,Arial,sans-serif" font-size="14.00">o:addfastas</text>
</g>
<!-- addfastas&#45;&gt;taxtree -->
<g id="edge26" class="edge">
<title>addfastas-&gt;taxtree</title>
<path fill="none" stroke="black" d="M607.66,-671.47C661.62,-678.46 753.81,-693.95 774,-720 843.14,-809.18 702.96,-866.5 743,-972 746.85,-982.13 753.61,-991.57 760.84,-999.59"/>
<polygon fill="black" stroke="black" points="758.19,-1001.89 767.68,-1006.62 763.21,-997.01 758.19,-1001.89"/>
</g>
<!-- addfastas&#45;&gt;fastasgenbank -->
<g id="edge27" class="edge">
<title>addfastas-&gt;fastasgenbank</title>
<path fill="none" stroke="black" d="M542.33,-684.28C531.08,-693.42 519.07,-705.72 513,-720 506.74,-734.72 505.98,-741.62 513,-756 518.58,-767.43 527.95,-777.11 537.98,-784.95"/>
<polygon fill="black" stroke="black" points="535.89,-787.75 546.05,-790.74 539.97,-782.07 535.89,-787.75"/>
</g>
<!-- addfastas&#45;&gt;fastasgenbankdl -->
<g id="edge28" class="edge">
<title>addfastas-&gt;fastasgenbankdl</title>
<path fill="none" stroke="black" d="M571.21,-684.3C572.58,-691.68 574.22,-700.48 575.75,-708.75"/>
<polygon fill="black" stroke="black" points="572.28,-709.21 577.55,-718.41 579.16,-707.94 572.28,-709.21"/>
</g>
<!-- addfastas&#45;&gt;adddownloads -->
<g id="edge25" class="edge">
<title>addfastas-&gt;adddownloads</title>
<path fill="none" stroke="black" d="M603.72,-684.48C622.45,-693.66 645.61,-704.99 665.61,-714.78"/>
<polygon fill="black" stroke="black" points="663.86,-717.82 674.38,-719.07 666.94,-711.53 663.86,-717.82"/>
</g>
<!-- fillsize -->
<g id="node20" class="node">
<title>fillsize</title>
<path fill="none" stroke="black" d="M456.49,-612C456.49,-612 415.51,-612 415.51,-612 409.51,-612 403.51,-606 403.51,-600 403.51,-600 403.51,-588 403.51,-588 403.51,-582 409.51,-576 415.51,-576 415.51,-576 456.49,-576 456.49,-576 462.49,-576 468.49,-582 468.49,-588 468.49,-588 468.49,-600 468.49,-600 468.49,-606 462.49,-612 456.49,-612"/>
<text text-anchor="middle" x="436" y="-589.8" font-family="Helvetica,Arial,sans-serif" font-size="14.00">o:fillsize</text>
</g>
<!-- fillsize&#45;&gt;taxnodes -->
<g id="edge30" class="edge">
<title>fillsize-&gt;taxnodes</title>
<path fill="none" stroke="black" d="M438.91,-612.4C445.51,-646.04 464.96,-719.87 513,-756 590.78,-814.5 653.75,-730.28 729,-792 769.28,-825.04 782.99,-887.72 787.64,-924.37"/>
<polygon fill="black" stroke="black" points="784.15,-924.65 788.72,-934.21 791.1,-923.89 784.15,-924.65"/>
</g>
<!-- fillsize&#45;&gt;categories -->
<g id="edge29" class="edge">
<title>fillsize-&gt;categories</title>
<path fill="none" stroke="black" d="M428.21,-612.35C412.83,-648.27 380,-733.73 380,-809 380,-809 380,-809 380,-883 380,-961.03 486.67,-975.13 450,-1044 421.99,-1096.62 360.88,-1131.03 316.33,-1150.18"/>
<polygon fill="black" stroke="black" points="315.24,-1146.84 307.35,-1153.91 317.93,-1153.3 315.24,-1146.84"/>
</g>
<!-- fillsize&#45;&gt;refseqfna -->
<g id="edge31" class="edge">
<title>fillsize-&gt;refseqfna</title>
<path fill="none" stroke="black" d="M414.67,-612.27C386.94,-636.82 342,-684.67 342,-737 342,-737 342,-737 342,-811 342,-883.63 333.82,-902.13 314,-972 308.66,-990.83 288.92,-1038.5 275.89,-1069.23"/>
<polygon fill="black" stroke="black" points="272.73,-1067.74 272.03,-1078.31 279.17,-1070.48 272.73,-1067.74"/>
</g>
<!-- fillsize&#45;&gt;accmap -->
<g id="edge32" class="edge">
<title>fillsize-&gt;accmap</title>
<path fill="none" stroke="black" d="M403.05,-603.23C378.9,-610.92 347.12,-624.78 328,-648 301.95,-679.62 304,-696.03 304,-737 304,-737 304,-737 304,-811 304,-851.55 290.73,-896.87 280.77,-925.16"/>
<polygon fill="black" stroke="black" points="277.53,-923.81 277.4,-934.41 284.11,-926.21 277.53,-923.81"/>
</g>
<!-- fillsize&#45;&gt;addfastas -->
<g id="edge33" class="edge">
<title>fillsize-&gt;addfastas</title>
<path fill="none" stroke="black" d="M468.97,-612.48C486.03,-621.53 507.05,-632.68 525.34,-642.38"/>
<polygon fill="black" stroke="black" points="523.64,-645.44 534.11,-647.03 526.92,-639.25 523.64,-645.44"/>
</g>
<!-- fillindex -->
<g id="node21" class="node">
<title>fillindex</title>
<path fill="none" stroke="black" d="M398.16,-540C398.16,-540 347.84,-540 347.84,-540 341.84,-540 335.84,-534 335.84,-528 335.84,-528 335.84,-516 335.84,-516 335.84,-510 341.84,-504 347.84,-504 347.84,-504 398.16,-504 398.16,-504 404.16,-504 410.16,-510 410.16,-516 410.16,-516 410.16,-528 410.16,-528 410.16,-534 404.16,-540 398.16,-540"/>
<text text-anchor="middle" x="373" y="-517.8" font-family="Helvetica,Arial,sans-serif" font-size="14.00">o:fillindex</text>
</g>
<!-- fillindex&#45;&gt;taxnodes -->
<g id="edge34" class="edge">
<title>fillindex-&gt;taxnodes</title>
<path fill="none" stroke="black" d="M374.9,-540.33C380.77,-584.58 402.85,-702.06 476,-756 537.11,-801.06 577.17,-754.17 643,-792 701.19,-825.44 749.3,-889.8 773.37,-926.21"/>
<polygon fill="black" stroke="black" points="770.31,-927.92 778.69,-934.41 776.19,-924.12 770.31,-927.92"/>
</g>
<!-- fillindex&#45;&gt;refseqfna -->
<g id="edge35" class="edge">
<title>fillindex-&gt;refseqfna</title>
<path fill="none" stroke="black" d="M335.59,-537.64C316.36,-546.55 293.55,-559.43 277,-576 245.09,-607.95 228,-619.85 228,-665 228,-665 228,-665 228,-811 228,-882.56 215.48,-901.22 226,-972 231.09,-1006.24 243.62,-1044.09 252.91,-1069.06"/>
<polygon fill="black" stroke="black" points="249.54,-1070.06 256.37,-1078.16 256.08,-1067.57 249.54,-1070.06"/>
</g>
<!-- fillindex&#45;&gt;accmap -->
<g id="edge36" class="edge">
<title>fillindex-&gt;accmap</title>
<path fill="none" stroke="black" d="M347.64,-540.43C316,-564.46 266,-610.98 266,-665 266,-665 266,-665 266,-811 266,-850.28 267.55,-895.64 268.72,-924.31"/>
<polygon fill="black" stroke="black" points="265.21,-924.16 269.13,-934 272.2,-923.86 265.21,-924.16"/>
</g>
<!-- fillindex&#45;&gt;addfastas -->
<g id="edge38" class="edge">
<title>fillindex-&gt;addfastas</title>
<path fill="none" stroke="black" d="M410.17,-538.6C430.74,-548.03 456.26,-561.11 477,-576 502.72,-594.47 528.16,-620.15 545.58,-639.18"/>
<polygon fill="black" stroke="black" points="542.91,-641.45 552.2,-646.54 548.11,-636.77 542.91,-641.45"/>
</g>
<!-- fillindex&#45;&gt;fillsize -->
<g id="edge37" class="edge">
<title>fillindex-&gt;fillsize</title>
<path fill="none" stroke="black" d="M388.57,-540.3C395.97,-548.53 404.97,-558.52 413.12,-567.58"/>
<polygon fill="black" stroke="black" points="410.3,-569.68 419.59,-574.77 415.51,-565 410.3,-569.68"/>
</g>
<!-- tempdb -->
<g id="node22" class="node">
<title>tempdb</title>
<path fill="none" stroke="black" d="M427.27,-468C427.27,-468 384.73,-468 384.73,-468 378.73,-468 372.73,-462 372.73,-456 372.73,-456 372.73,-444 372.73,-444 372.73,-438 378.73,-432 384.73,-432 384.73,-432 427.27,-432 427.27,-432 433.27,-432 439.27,-438 439.27,-444 439.27,-444 439.27,-456 439.27,-456 439.27,-462 433.27,-468 427.27,-468"/>
<text text-anchor="middle" x="406" y="-445.8" font-family="Helvetica,Arial,sans-serif" font-size="14.00">f:tempdb</text>
</g>
<!-- tempdb&#45;&gt;taxtree -->
<g id="edge45" class="edge">
<title>tempdb-&gt;taxtree</title>
<path fill="none" stroke="black" d="M439.56,-453.65C516.44,-460.08 703.05,-477.98 760,-504 776.43,-511.51 945,-661.12 945,-665 945,-665 945,-665 945,-883 945,-943.94 879.05,-985.8 833.18,-1007.54"/>
<polygon fill="black" stroke="black" points="831.89,-1004.28 824.25,-1011.63 834.8,-1010.65 831.89,-1004.28"/>
</g>
<!-- tempdb&#45;&gt;taxnodes -->
<g id="edge40" class="edge">
<title>tempdb-&gt;taxnodes</title>
<path fill="none" stroke="black" d="M439.7,-454.88C540.23,-467.37 831,-510.64 831,-593 831,-593 831,-593 831,-811 831,-852 815.03,-897.14 803.02,-925.28"/>
<polygon fill="black" stroke="black" points="799.94,-923.59 799.11,-934.15 806.34,-926.42 799.94,-923.59"/>
</g>
<!-- tempdb&#45;&gt;categories -->
<g id="edge39" class="edge">
<title>tempdb-&gt;categories</title>
<path fill="none" stroke="black" d="M372.37,-454.49C281.52,-465.97 38,-511.09 38,-665 38,-665 38,-665 38,-1027 38,-1108.15 143.75,-1144.72 210.58,-1159.73"/>
<polygon fill="black" stroke="black" points="209.77,-1163.14 220.28,-1161.81 211.23,-1156.29 209.77,-1163.14"/>
</g>
<!-- tempdb&#45;&gt;refseqfna -->
<g id="edge41" class="edge">
<title>tempdb-&gt;refseqfna</title>
<path fill="none" stroke="black" d="M372.29,-456.46C338.1,-463.24 284.83,-477.32 246,-504 169.73,-556.4 114,-572.47 114,-665 114,-665 114,-665 114,-811 114,-917.66 196.83,-1023.74 239.39,-1071.19"/>
<polygon fill="black" stroke="black" points="236.74,-1073.48 246.06,-1078.51 241.91,-1068.76 236.74,-1073.48"/>
</g>
<!-- tempdb&#45;&gt;accmap -->
<g id="edge42" class="edge">
<title>tempdb-&gt;accmap</title>
<path fill="none" stroke="black" d="M372.42,-463.87C329.19,-482.17 254.81,-519.86 214,-576 189.91,-609.14 190,-624.03 190,-665 190,-665 190,-665 190,-811 190,-856.25 221.22,-900.38 244.65,-927.13"/>
<polygon fill="black" stroke="black" points="241.92,-929.33 251.23,-934.39 247.11,-924.63 241.92,-929.33"/>
</g>
<!-- tempdb&#45;&gt;addfastas -->
<g id="edge46" class="edge">
<title>tempdb-&gt;addfastas</title>
<path fill="none" stroke="black" d="M421.48,-468.28C442.4,-491.93 480.5,-536.02 510,-576 524.9,-596.19 540.34,-620.06 551.55,-637.99"/>
<polygon fill="black" stroke="black" points="548.42,-639.59 556.66,-646.25 554.37,-635.91 548.42,-639.59"/>
</g>
<!-- tempdb&#45;&gt;fillsize -->
<g id="edge43" class="edge">
<title>tempdb-&gt;fillsize</title>
<path fill="none" stroke="black" d="M410.44,-468.13C413.07,-478.49 416.38,-491.97 419,-504 423.38,-524.11 427.73,-546.9 430.92,-564.39"/>
<polygon fill="black" stroke="black" points="427.45,-564.84 432.67,-574.06 434.34,-563.6 427.45,-564.84"/>
</g>
<!-- tempdb&#45;&gt;fillindex -->
<g id="edge44" class="edge">
<title>tempdb-&gt;fillindex</title>
<path fill="none" stroke="black" d="M397.84,-468.3C394.25,-475.93 389.93,-485.08 385.92,-493.6"/>
<polygon fill="black" stroke="black" points="382.81,-491.99 381.71,-502.53 389.14,-494.97 382.81,-491.99"/>
</g>
<!-- loadtempdb -->
<g id="node23" class="node">
<title>loadtempdb</title>
<path fill="none" stroke="black" d="M440.49,-396C440.49,-396 371.51,-396 371.51,-396 365.51,-396 359.51,-390 359.51,-384 359.51,-384 359.51,-372 359.51,-372 359.51,-366 365.51,-360 371.51,-360 371.51,-360 440.49,-360 440.49,-360 446.49,-360 452.49,-366 452.49,-372 452.49,-372 452.49,-384 452.49,-384 452.49,-390 446.49,-396 440.49,-396"/>
<text text-anchor="middle" x="406" y="-373.8" font-family="Helvetica,Arial,sans-serif" font-size="14.00">o:loadtempdb</text>
</g>
<!-- loadtempdb&#45;&gt;tempdb -->
<g id="edge47" class="edge">
<title>loadtempdb-&gt;tempdb</title>
<path fill="none" stroke="black" d="M406,-396.3C406,-403.59 406,-412.27 406,-420.46"/>
<polygon fill="black" stroke="black" points="402.5,-420.38 406,-430.38 409.5,-420.38 402.5,-420.38"/>
</g>
<!-- db -->
<g id="node24" class="node">
<title>db</title>
<polygon fill="none" stroke="black" stroke-width="2" points="433,-324 379,-324 379,-288 433,-288 433,-324"/>
<text text-anchor="middle" x="406" y="-301.8" font-family="Helvetica,Arial,sans-serif" font-size="14.00">f:db</text>
</g>
<!-- db&#45;&gt;taxtree -->
<g id="edge49" class="edge">
<title>db-&gt;taxtree</title>
<path fill="none" stroke="black" d="M433.44,-307.65C548.11,-311.92 983,-344.52 983,-593 983,-593 983,-593 983,-883 983,-956.71 890.54,-996.41 833.61,-1013.87"/>
<polygon fill="black" stroke="black" points="832.8,-1010.46 824.19,-1016.64 834.77,-1017.18 832.8,-1010.46"/>
</g>
<!-- db&#45;&gt;categories -->
<g id="edge48" class="edge">
<title>db-&gt;categories</title>
<path fill="none" stroke="black" d="M378.82,-306.13C321.77,-305.42 186.73,-309.68 89,-360 39.27,-385.61 0,-393.06 0,-449 0,-449 0,-449 0,-1027 0,-1073.04 16.07,-1088.51 53,-1116 99.09,-1150.3 164.9,-1162.55 210.72,-1166.85"/>
<polygon fill="black" stroke="black" points="210.16,-1170.31 220.41,-1167.65 210.74,-1163.34 210.16,-1170.31"/>
</g>
<!-- db&#45;&gt;refseqfna -->
<g id="edge50" class="edge">
<title>db-&gt;refseqfna</title>
<path fill="none" stroke="black" d="M378.71,-306.42C299.65,-306.29 76,-317.55 76,-449 76,-449 76,-449 76,-811 76,-925.71 107.7,-961.12 187,-1044 197.64,-1055.12 210.96,-1065.27 223.52,-1073.65"/>
<polygon fill="black" stroke="black" points="221.34,-1076.41 231.64,-1078.88 225.13,-1070.53 221.34,-1076.41"/>
</g>
<!-- db&#45;&gt;accmap -->
<g id="edge51" class="edge">
<title>db-&gt;accmap</title>
<path fill="none" stroke="black" d="M378.82,-309.44C313.29,-316.96 152,-345.94 152,-449 152,-449 152,-449 152,-811 152,-861.83 197.28,-904.18 231.75,-929.05"/>
<polygon fill="black" stroke="black" points="229.69,-931.88 239.89,-934.72 233.69,-926.13 229.69,-931.88"/>
</g>
<!-- db&#45;&gt;addfastas -->
<g id="edge53" class="edge">
<title>db-&gt;addfastas</title>
<path fill="none" stroke="black" d="M433.41,-316.08C480.56,-333.63 572,-376.94 572,-449 572,-449 572,-449 572,-523 572,-562.28 570.45,-607.64 569.28,-636.31"/>
<polygon fill="black" stroke="black" points="565.8,-635.86 568.87,-646 572.79,-636.16 565.8,-635.86"/>
</g>
<!-- db&#45;&gt;loadtempdb -->
<g id="edge52" class="edge">
<title>db-&gt;loadtempdb</title>
<path fill="none" stroke="black" d="M406,-324.3C406,-331.59 406,-340.27 406,-348.46"/>
<polygon fill="black" stroke="black" points="402.5,-348.38 406,-358.38 409.5,-348.38 402.5,-348.38"/>
</g>
<!-- loaddb -->
<g id="node25" class="node">
<title>loaddb</title>
<path fill="none" stroke="black" d="M776.5,-252C776.5,-252 735.5,-252 735.5,-252 729.5,-252 723.5,-246 723.5,-240 723.5,-240 723.5,-228 723.5,-228 723.5,-222 729.5,-216 735.5,-216 735.5,-216 776.5,-216 776.5,-216 782.5,-216 788.5,-222 788.5,-228 788.5,-228 788.5,-240 788.5,-240 788.5,-246 782.5,-252 776.5,-252"/>
<text text-anchor="middle" x="756" y="-229.8" font-family="Helvetica,Arial,sans-serif" font-size="14.00">o:loaddb</text>
</g>
<!-- loaddb&#45;&gt;db -->
<g id="edge54" class="edge">
<title>loaddb-&gt;db</title>
<path fill="none" stroke="black" d="M723.07,-241.59C658.08,-254.58 513.63,-283.47 444.42,-297.32"/>
<polygon fill="black" stroke="black" points="443.8,-293.87 434.68,-299.26 445.17,-300.73 443.8,-293.87"/>
</g>
<!-- index -->
<g id="node26" class="node">
<title>index</title>
<polygon fill="none" stroke="black" stroke-width="2" points="859.83,-180 804.17,-180 804.17,-144 859.83,-144 859.83,-180"/>
<text text-anchor="middle" x="832" y="-157.8" font-family="Helvetica,Arial,sans-serif" font-size="14.00">f:index</text>
</g>
<!-- index&#45;&gt;taxtree -->
<g id="edge55" class="edge">
<title>index-&gt;taxtree</title>
<path fill="none" stroke="black" d="M841.9,-180.33C880.78,-249.05 1021,-503.1 1021,-593 1021,-593 1021,-593 1021,-883 1021,-970 900.61,-1005.39 833.66,-1018.35"/>
<polygon fill="black" stroke="black" points="833.3,-1014.85 824.1,-1020.1 834.56,-1021.74 833.3,-1014.85"/>
</g>
<!-- index&#45;&gt;taxnodes -->
<g id="edge56" class="edge">
<title>index-&gt;taxnodes</title>
<path fill="none" stroke="black" d="M853.24,-180.45C863.58,-189.98 875.39,-202.55 883,-216 903.17,-251.66 907,-264.03 907,-305 907,-305 907,-305 907,-451 907,-547.6 869,-568.4 869,-665 869,-665 869,-665 869,-811 869,-856.37 837.82,-900.78 814.64,-927.52"/>
<polygon fill="black" stroke="black" points="812.22,-924.98 808.15,-934.77 817.43,-929.65 812.22,-924.98"/>
</g>
<!-- index&#45;&gt;loaddb -->
<g id="edge57" class="edge">
<title>index-&gt;loaddb</title>
<path fill="none" stroke="black" d="M813.21,-180.3C804.17,-188.63 793.16,-198.78 783.22,-207.93"/>
<polygon fill="black" stroke="black" points="780.93,-205.28 775.95,-214.63 785.67,-210.43 780.93,-205.28"/>
</g>
<!-- loadindex -->
<g id="node27" class="node">
<title>loadindex</title>
<path fill="none" stroke="black" d="M979.05,-108C979.05,-108 920.95,-108 920.95,-108 914.95,-108 908.95,-102 908.95,-96 908.95,-96 908.95,-84 908.95,-84 908.95,-78 914.95,-72 920.95,-72 920.95,-72 979.05,-72 979.05,-72 985.05,-72 991.05,-78 991.05,-84 991.05,-84 991.05,-96 991.05,-96 991.05,-102 985.05,-108 979.05,-108"/>
<text text-anchor="middle" x="950" y="-85.8" font-family="Helvetica,Arial,sans-serif" font-size="14.00">o:loadindex</text>
</g>
<!-- loadindex&#45;&gt;index -->
<g id="edge58" class="edge">
<title>loadindex-&gt;index</title>
<path fill="none" stroke="black" d="M920.53,-108.48C905.26,-117.54 886.45,-128.7 870.09,-138.4"/>
<polygon fill="black" stroke="black" points="868.4,-135.34 861.59,-143.45 871.97,-141.36 868.4,-135.34"/>
</g>
<!-- dbinfo -->
<g id="node28" class="node">
<title>dbinfo</title>
<polygon fill="none" stroke="black" stroke-width="2" points="786.55,-180 725.45,-180 725.45,-144 786.55,-144 786.55,-180"/>
<text text-anchor="middle" x="756" y="-157.8" font-family="Helvetica,Arial,sans-serif" font-size="14.00">f:dbinfo</text>
</g>
<!-- dbinfo&#45;&gt;loaddb -->
<g id="edge59" class="edge">
<title>dbinfo-&gt;loaddb</title>
<path fill="none" stroke="black" d="M756,-180.3C756,-187.59 756,-196.27 756,-204.46"/>
<polygon fill="black" stroke="black" points="752.5,-204.38 756,-214.38 759.5,-204.38 752.5,-204.38"/>
</g>
<!-- genall -->
<g id="node29" class="node">
<title>genall</title>
<polygon fill="none" stroke="black" stroke-width="2" points="821,-108 767,-108 767,-72 821,-72 821,-108"/>
<text text-anchor="middle" x="794" y="-85.8" font-family="Helvetica,Arial,sans-serif" font-size="14.00">genall</text>
</g>
<!-- genall&#45;&gt;index -->
<g id="edge61" class="edge">
<title>genall-&gt;index</title>
<path fill="none" stroke="black" d="M803.39,-108.3C807.58,-116.02 812.61,-125.29 817.28,-133.89"/>
<polygon fill="black" stroke="black" points="814.15,-135.45 821.99,-142.57 820.3,-132.11 814.15,-135.45"/>
</g>
<!-- genall&#45;&gt;dbinfo -->
<g id="edge60" class="edge">
<title>genall-&gt;dbinfo</title>
<path fill="none" stroke="black" d="M784.61,-108.3C780.42,-116.02 775.39,-125.29 770.72,-133.89"/>
<polygon fill="black" stroke="black" points="767.7,-132.11 766.01,-142.57 773.85,-135.45 767.7,-132.11"/>
</g>
<!-- db2fastqtaxids -->
<g id="node30" class="node">
<title>db2fastqtaxids</title>
<path fill="none" stroke="black" d="M695.27,-180C695.27,-180 610.73,-180 610.73,-180 604.73,-180 598.73,-174 598.73,-168 598.73,-168 598.73,-156 598.73,-156 598.73,-150 604.73,-144 610.73,-144 610.73,-144 695.27,-144 695.27,-144 701.27,-144 707.27,-150 707.27,-156 707.27,-156 707.27,-168 707.27,-168 707.27,-174 701.27,-180 695.27,-180"/>
<text text-anchor="middle" x="653" y="-157.8" font-family="Helvetica,Arial,sans-serif" font-size="14.00">o:db2fastqtaxids</text>
</g>
<!-- db2fastqtaxids&#45;&gt;loaddb -->
<g id="edge62" class="edge">
<title>db2fastqtaxids-&gt;loaddb</title>
<path fill="none" stroke="black" d="M678.73,-180.48C691.6,-189.24 707.38,-199.96 721.31,-209.42"/>
<polygon fill="black" stroke="black" points="719.11,-212.16 729.35,-214.89 723.05,-206.37 719.11,-212.16"/>
</g>
<!-- db2fastq -->
<g id="node31" class="node">
<title>db2fastq</title>
<polygon fill="none" stroke="black" stroke-width="2" points="648.38,-108 575.62,-108 575.62,-72 648.38,-72 648.38,-108"/>
<text text-anchor="middle" x="612" y="-85.8" font-family="Helvetica,Arial,sans-serif" font-size="14.00">f:db2fastq</text>
</g>
<!-- db2fastq&#45;&gt;loaddb -->
<g id="edge64" class="edge">
<title>db2fastq-&gt;loaddb</title>
<path fill="none" stroke="black" d="M599.98,-108.35C588.29,-127.58 574.42,-158.66 590,-180 617.71,-217.94 672.89,-229.35 712.02,-232.46"/>
<polygon fill="black" stroke="black" points="711.63,-235.94 721.83,-233.07 712.07,-228.96 711.63,-235.94"/>
</g>
<!-- db2fastq&#45;&gt;db2fastqtaxids -->
<g id="edge63" class="edge">
<title>db2fastq-&gt;db2fastqtaxids</title>
<path fill="none" stroke="black" d="M622.13,-108.3C626.7,-116.1 632.2,-125.49 637.29,-134.17"/>
<polygon fill="black" stroke="black" points="634.14,-135.73 642.22,-142.59 640.18,-132.19 634.14,-135.73"/>
</g>
<!-- fastqmap -->
<g id="node32" class="node">
<title>fastqmap</title>
<path fill="none" stroke="black" d="M1074.1,-396C1074.1,-396 1019.9,-396 1019.9,-396 1013.9,-396 1007.9,-390 1007.9,-384 1007.9,-384 1007.9,-372 1007.9,-372 1007.9,-366 1013.9,-360 1019.9,-360 1019.9,-360 1074.1,-360 1074.1,-360 1080.1,-360 1086.1,-366 1086.1,-372 1086.1,-372 1086.1,-384 1086.1,-384 1086.1,-390 1080.1,-396 1074.1,-396"/>
<text text-anchor="middle" x="1047" y="-373.8" font-family="Helvetica,Arial,sans-serif" font-size="14.00">o:fastqmap</text>
</g>
<!-- fastqmaptransform -->
<g id="node33" class="node">
<title>fastqmaptransform</title>
<path fill="none" stroke="black" d="M1069.32,-324C1069.32,-324 960.68,-324 960.68,-324 954.68,-324 948.68,-318 948.68,-312 948.68,-312 948.68,-300 948.68,-300 948.68,-294 954.68,-288 960.68,-288 960.68,-288 1069.32,-288 1069.32,-288 1075.32,-288 1081.32,-294 1081.32,-300 1081.32,-300 1081.32,-312 1081.32,-312 1081.32,-318 1075.32,-324 1069.32,-324"/>
<text text-anchor="middle" x="1015" y="-301.8" font-family="Helvetica,Arial,sans-serif" font-size="14.00">o:fastqmaptransform</text>
</g>
<!-- fastqmaptransform&#45;&gt;fastqmap -->
<g id="edge65" class="edge">
<title>fastqmaptransform-&gt;fastqmap</title>
<path fill="none" stroke="black" d="M1022.91,-324.3C1026.4,-331.93 1030.58,-341.08 1034.48,-349.6"/>
<polygon fill="black" stroke="black" points="1031.21,-350.88 1038.55,-358.52 1037.58,-347.97 1031.21,-350.88"/>
</g>
<!-- fastqdownload -->
<g id="node34" class="node">
<title>fastqdownload</title>
<path fill="none" stroke="black" d="M1146.66,-252C1146.66,-252 1061.34,-252 1061.34,-252 1055.34,-252 1049.34,-246 1049.34,-240 1049.34,-240 1049.34,-228 1049.34,-228 1049.34,-222 1055.34,-216 1061.34,-216 1061.34,-216 1146.66,-216 1146.66,-216 1152.66,-216 1158.66,-222 1158.66,-228 1158.66,-228 1158.66,-240 1158.66,-240 1158.66,-246 1152.66,-252 1146.66,-252"/>
<text text-anchor="middle" x="1104" y="-229.8" font-family="Helvetica,Arial,sans-serif" font-size="14.00">d:fastqdownload</text>
</g>
<!-- fastqdownload&#45;&gt;fastqmap -->
<g id="edge66" class="edge">
<title>fastqdownload-&gt;fastqmap</title>
<path fill="none" stroke="black" d="M1103.9,-252.48C1103.21,-271 1100.37,-300.71 1090,-324 1085.66,-333.75 1079.05,-343.2 1072.3,-351.36"/>
<polygon fill="black" stroke="black" points="1069.71,-349 1065.74,-358.83 1074.97,-353.63 1069.71,-349"/>
</g>
<!-- fastqdownload&#45;&gt;fastqmaptransform -->
<g id="edge67" class="edge">
<title>fastqdownload-&gt;fastqmaptransform</title>
<path fill="none" stroke="black" d="M1082,-252.3C1071.09,-260.89 1057.73,-271.39 1045.82,-280.76"/>
<polygon fill="black" stroke="black" points="1043.94,-277.78 1038.25,-286.72 1048.27,-283.29 1043.94,-277.78"/>
</g>
<!-- filter -->
<g id="node35" class="node">
<title>filter</title>
<polygon fill="none" stroke="black" stroke-width="2" points="1077,-36 1023,-36 1023,0 1077,0 1077,-36"/>
<text text-anchor="middle" x="1050" y="-13.8" font-family="Helvetica,Arial,sans-serif" font-size="14.00">f:filter</text>
</g>
<!-- filter&#45;&gt;loadindex -->
<g id="edge69" class="edge">
<title>filter-&gt;loadindex</title>
<path fill="none" stroke="black" d="M1025.02,-36.48C1012.64,-45.15 997.5,-55.75 984.07,-65.15"/>
<polygon fill="black" stroke="black" points="982.08,-62.27 975.9,-70.87 986.1,-68 982.08,-62.27"/>
</g>
<!-- filter&#45;&gt;fastqmaptransform -->
<g id="edge70" class="edge">
<title>filter-&gt;fastqmaptransform</title>
<path fill="none" stroke="black" d="M1048,-36.4C1044.6,-65.93 1037.43,-127.76 1031,-180 1026.94,-213.03 1022.05,-250.94 1018.76,-276.27"/>
<polygon fill="black" stroke="black" points="1015.3,-275.75 1017.48,-286.12 1022.24,-276.65 1015.3,-275.75"/>
</g>
<!-- filter&#45;&gt;fastqdownload -->
<g id="edge68" class="edge">
<title>filter-&gt;fastqdownload</title>
<path fill="none" stroke="black" d="M1054.6,-36.17C1057.37,-46.54 1060.93,-60.02 1064,-72 1075.91,-118.47 1089.25,-172.62 1097.12,-204.78"/>
<polygon fill="black" stroke="black" points="1093.63,-205.23 1099.4,-214.12 1100.43,-203.57 1093.63,-205.23"/>
</g>
<!-- match -->
<g id="node36" class="node">
<title>match</title>
<polygon fill="none" stroke="black" stroke-width="2" points="936.38,-180 877.62,-180 877.62,-144 936.38,-144 936.38,-180"/>
<text text-anchor="middle" x="907" y="-157.8" font-family="Helvetica,Arial,sans-serif" font-size="14.00">f:match</text>
</g>
<!-- match&#45;&gt;loaddb -->
<g id="edge72" class="edge">
<title>match-&gt;loaddb</title>
<path fill="none" stroke="black" d="M877.17,-176.83C854.91,-187.15 824.16,-201.4 799.21,-212.97"/>
<polygon fill="black" stroke="black" points="797.89,-209.72 790.29,-217.1 800.83,-216.07 797.89,-209.72"/>
</g>
<!-- match&#45;&gt;fastqmaptransform -->
<g id="edge73" class="edge">
<title>match-&gt;fastqmaptransform</title>
<path fill="none" stroke="black" d="M920.24,-180.41C938.97,-205.03 973.32,-250.2 995.12,-278.86"/>
<polygon fill="black" stroke="black" points="992.23,-280.84 1001.07,-286.68 997.8,-276.61 992.23,-280.84"/>
</g>
<!-- match&#45;&gt;fastqdownload -->
<g id="edge71" class="edge">
<title>match-&gt;fastqdownload</title>
<path fill="none" stroke="black" d="M936.75,-176.64C939.53,-177.82 942.31,-178.95 945,-180 975.3,-191.79 1009.43,-203.39 1038.29,-212.71"/>
<polygon fill="black" stroke="black" points="1037.04,-215.98 1047.63,-215.71 1039.17,-209.32 1037.04,-215.98"/>
</g>
<!-- matchlr -->
<g id="node37" class="node">
<title>matchlr</title>
<polygon fill="none" stroke="black" stroke-width="2" points="1021.66,-180 954.34,-180 954.34,-144 1021.66,-144 1021.66,-180"/>
<text text-anchor="middle" x="988" y="-157.8" font-family="Helvetica,Arial,sans-serif" font-size="14.00">f:matchlr</text>
</g>
<!-- matchlr&#45;&gt;loaddb -->
<g id="edge75" class="edge">
<title>matchlr-&gt;loaddb</title>
<path fill="none" stroke="black" d="M953.85,-176.87C950.87,-177.97 947.89,-179.03 945,-180 895.77,-196.59 838.14,-212.21 799.59,-222.14"/>
<polygon fill="black" stroke="black" points="799.04,-218.67 790.22,-224.54 800.77,-225.45 799.04,-218.67"/>
</g>
<!-- matchlr&#45;&gt;fastqmaptransform -->
<g id="edge76" class="edge">
<title>matchlr-&gt;fastqmaptransform</title>
<path fill="none" stroke="black" d="M991.31,-180.41C995.87,-204.39 1004.13,-247.86 1009.6,-276.58"/>
<polygon fill="black" stroke="black" points="1006.16,-277.23 1011.46,-286.4 1013.03,-275.92 1006.16,-277.23"/>
</g>
<!-- matchlr&#45;&gt;fastqdownload -->
<g id="edge74" class="edge">
<title>matchlr-&gt;fastqdownload</title>
<path fill="none" stroke="black" d="M1016.97,-180.48C1031.75,-189.4 1049.93,-200.37 1065.83,-209.97"/>
<polygon fill="black" stroke="black" points="1063.73,-212.79 1074.1,-214.96 1067.35,-206.79 1063.73,-212.79"/>
</g>
<!-- krakenres -->
<g id="node38" class="node">
<title>krakenres</title>
<path fill="none" stroke="black" d="M1214.48,-180C1214.48,-180 1159.52,-180 1159.52,-180 1153.52,-180 1147.52,-174 1147.52,-168 1147.52,-168 1147.52,-156 1147.52,-156 1147.52,-150 1153.52,-144 1159.52,-144 1159.52,-144 1214.48,-144 1214.48,-144 1220.48,-144 1226.48,-150 1226.48,-156 1226.48,-156 1226.48,-168 1226.48,-168 1226.48,-174 1220.48,-180 1214.48,-180"/>
<text text-anchor="middle" x="1187" y="-157.8" font-family="Helvetica,Arial,sans-serif" font-size="14.00">f:krakenres</text>
</g>
<!-- krakenres&#45;&gt;taxnodes -->
<g id="edge78" class="edge">
<title>krakenres-&gt;taxnodes</title>
<path fill="none" stroke="black" d="M1190.83,-180.48C1194.09,-198.74 1197.2,-228.01 1190,-252 1126.03,-465.12 907,-442.49 907,-665 907,-665 907,-665 907,-811 907,-861.66 862.1,-904.05 827.93,-928.97"/>
<polygon fill="black" stroke="black" points="826.02,-926.04 819.86,-934.66 830.05,-931.76 826.02,-926.04"/>
</g>
<!-- krakenres&#45;&gt;fastqmaptransform -->
<g id="edge79" class="edge">
<title>krakenres-&gt;fastqmaptransform</title>
<path fill="none" stroke="black" d="M1188.04,-180.27C1188.27,-200 1185.58,-232.11 1168,-252 1148.69,-273.85 1119.91,-286.69 1092.5,-294.24"/>
<polygon fill="black" stroke="black" points="1091.99,-290.76 1083.15,-296.61 1093.7,-297.55 1091.99,-290.76"/>
</g>
<!-- krakenres&#45;&gt;fastqdownload -->
<g id="edge77" class="edge">
<title>krakenres-&gt;fastqdownload</title>
<path fill="none" stroke="black" d="M1166.48,-180.3C1156.41,-188.8 1144.09,-199.19 1133.07,-208.49"/>
<polygon fill="black" stroke="black" points="1131.11,-205.55 1125.73,-214.68 1135.63,-210.91 1131.11,-205.55"/>
</g>
</g>
</svg>