<svg width="840" height="880" viewBox="0 0 630 660" xmlns="http://www.w3.org/2000/svg" xmlns:xlink="http://www.w3.org/1999/xlink">
<g id="graph0" class="graph" transform="translate(14.074350357055664, 322.36505126953125) scale(0.4241645336151123,0.4241645336151123)">
<title>regexp</title>
<polygon fill="white" stroke="none" points="-4,4 -4,-760 1086.8,-760 1086.8,4 -4,4"/>
<!-- taxtree -->
<g id="node1" class="node">
<title>taxtree</title>
<path fill="none" stroke="black" stroke-dasharray="5,2" d="M52.97,-756C52.97,-756 12,-756 12,-756 6,-756 0,-750 0,-744 0,-744 0,-732 0,-732 0,-726 6,-720 12,-720 12,-720 52.97,-720 52.97,-720 58.97,-720 64.97,-726 64.97,-732 64.97,-732 64.97,-744 64.97,-744 64.97,-750 58.97,-756 52.97,-756"/>
<text text-anchor="middle" x="32.49" y="-733.8" font-family="Helvetica,Arial,sans-serif" font-size="14.00">o:taxtree</text>
</g>
<!-- taxnodes -->
<g id="node2" class="node">
<title>taxnodes</title>
<path fill="none" stroke="black" stroke-dasharray="5,2" d="M147.81,-756C147.81,-756 95.16,-756 95.16,-756 89.16,-756 83.16,-750 83.16,-744 83.16,-744 83.16,-732 83.16,-732 83.16,-726 89.16,-720 95.16,-720 95.16,-720 147.81,-720 147.81,-720 153.81,-720 159.81,-726 159.81,-732 159.81,-732 159.81,-744 159.81,-744 159.81,-750 153.81,-756 147.81,-756"/>
<text text-anchor="middle" x="121.49" y="-733.8" font-family="Helvetica,Arial,sans-serif" font-size="14.00">o:taxnodes</text>
</g>
<!-- clear -->
<g id="node3" class="node">
<title>clear</title>
<path fill="none" stroke="black" stroke-dasharray="5,2" d="M1054.49,-108C1054.49,-108 1024.49,-108 1024.49,-108 1018.49,-108 1012.49,-102 1012.49,-96 1012.49,-96 1012.49,-84 1012.49,-84 1012.49,-78 1018.49,-72 1024.49,-72 1024.49,-72 1054.49,-72 1054.49,-72 1060.49,-72 1066.49,-78 1066.49,-84 1066.49,-84 1066.49,-96 1066.49,-96 1066.49,-102 1060.49,-108 1054.49,-108"/>
<text text-anchor="middle" x="1039.49" y="-85.8" font-family="Helvetica,Arial,sans-serif" font-size="14.00">f:clear</text>
</g>
<!-- categories -->
<g id="node4" class="node">
<title>categories</title>
<path fill="none" stroke="black" stroke-dasharray="5,2" d="M249.3,-756C249.3,-756 189.67,-756 189.67,-756 183.67,-756 177.67,-750 177.67,-744 177.67,-744 177.67,-732 177.67,-732 177.67,-726 183.67,-720 189.67,-720 189.67,-720 249.3,-720 249.3,-720 255.3,-720 261.3,-726 261.3,-732 261.3,-732 261.3,-744 261.3,-744 261.3,-750 255.3,-756 249.3,-756"/>
<text text-anchor="middle" x="219.49" y="-733.8" font-family="Helvetica,Arial,sans-serif" font-size="14.00">o:categories</text>
</g>
<!-- refseqfna -->
<g id="node5" class="node">
<title>refseqfna</title>
<path fill="none" stroke="black" stroke-dasharray="5,2" d="M345.97,-756C345.97,-756 291,-756 291,-756 285,-756 279,-750 279,-744 279,-744 279,-732 279,-732 279,-726 285,-720 291,-720 291,-720 345.97,-720 345.97,-720 351.97,-720 357.97,-726 357.97,-732 357.97,-732 357.97,-744 357.97,-744 357.97,-750 351.97,-756 345.97,-756"/>
<text text-anchor="middle" x="318.49" y="-733.8" font-family="Helvetica,Arial,sans-serif" font-size="14.00">d:refseqfna</text>
</g>
<!-- accmap -->
<g id="node6" class="node">
<title>accmap</title>
<path fill="none" stroke="black" stroke-dasharray="5,2" d="M433.3,-756C433.3,-756 387.67,-756 387.67,-756 381.67,-756 375.67,-750 375.67,-744 375.67,-744 375.67,-732 375.67,-732 375.67,-726 381.67,-720 387.67,-720 387.67,-720 433.3,-720 433.3,-720 439.3,-720 445.3,-726 445.3,-732 445.3,-732 445.3,-744 445.3,-744 445.3,-750 439.3,-756 433.3,-756"/>
<text text-anchor="middle" x="410.49" y="-733.8" font-family="Helvetica,Arial,sans-serif" font-size="14.00">o:accmap</text>
</g>
<!-- addfastas -->
<g id="node7" class="node">
<title>addfastas</title>
<path fill="none" stroke="black" stroke-dasharray="5,2" d="M529.98,-756C529.98,-756 475,-756 475,-756 469,-756 463,-750 463,-744 463,-744 463,-732 463,-732 463,-726 469,-720 475,-720 475,-720 529.98,-720 529.98,-720 535.98,-720 541.98,-726 541.98,-732 541.98,-732 541.98,-744 541.98,-744 541.98,-750 535.98,-756 529.98,-756"/>
<text text-anchor="middle" x="502.49" y="-733.8" font-family="Helvetica,Arial,sans-serif" font-size="14.00">o:addfastas</text>
</g>
<!-- loaddb -->
<g id="node8" class="node">
<title>loaddb</title>
<path fill="none" stroke="black" stroke-dasharray="5,2" d="M612.98,-756C612.98,-756 571.99,-756 571.99,-756 565.99,-756 559.99,-750 559.99,-744 559.99,-744 559.99,-732 559.99,-732 559.99,-726 565.99,-720 571.99,-720 571.99,-720 612.98,-720 612.98,-720 618.98,-720 624.98,-726 624.98,-732 624.98,-732 624.98,-744 624.98,-744 624.98,-750 618.98,-756 612.98,-756"/>
<text text-anchor="middle" x="592.49" y="-733.8" font-family="Helvetica,Arial,sans-serif" font-size="14.00">o:loaddb</text>
</g>
<!-- db2fastqtaxids -->
<g id="node9" class="node">
<title>db2fastqtaxids</title>
<path fill="none" stroke="black" stroke-dasharray="5,2" d="M636.76,-180C636.76,-180 552.21,-180 552.21,-180 546.21,-180 540.21,-174 540.21,-168 540.21,-168 540.21,-156 540.21,-156 540.21,-150 546.21,-144 552.21,-144 552.21,-144 636.76,-144 636.76,-144 642.76,-144 648.76,-150 648.76,-156 648.76,-156 648.76,-168 648.76,-168 648.76,-174 642.76,-180 636.76,-180"/>
<text text-anchor="middle" x="594.49" y="-157.8" font-family="Helvetica,Arial,sans-serif" font-size="14.00">o:db2fastqtaxids</text>
</g>
<!-- fastqmaptransform -->
<g id="node10" class="node">
<title>fastqmaptransform</title>
<path fill="none" stroke="black" stroke-dasharray="5,2" d="M1070.8,-180C1070.8,-180 962.17,-180 962.17,-180 956.17,-180 950.17,-174 950.17,-168 950.17,-168 950.17,-156 950.17,-156 950.17,-150 956.17,-144 962.17,-144 962.17,-144 1070.8,-144 1070.8,-144 1076.8,-144 1082.8,-150 1082.8,-156 1082.8,-156 1082.8,-168 1082.8,-168 1082.8,-174 1076.8,-180 1070.8,-180"/>
<text text-anchor="middle" x="1016.49" y="-157.8" font-family="Helvetica,Arial,sans-serif" font-size="14.00">o:fastqmaptransform</text>
</g>
<!-- fastqdownload -->
<g id="node11" class="node">
<title>fastqdownload</title>
<path fill="none" stroke="black" stroke-dasharray="5,2" d="M920.15,-180C920.15,-180 834.83,-180 834.83,-180 828.83,-180 822.83,-174 822.83,-168 822.83,-168 822.83,-156 822.83,-156 822.83,-150 828.83,-144 834.83,-144 834.83,-144 920.15,-144 920.15,-144 926.15,-144 932.15,-150 932.15,-156 932.15,-156 932.15,-168 932.15,-168 932.15,-174 926.15,-180 920.15,-180"/>
<text text-anchor="middle" x="877.49" y="-157.8" font-family="Helvetica,Arial,sans-serif" font-size="14.00">d:fastqdownload</text>
</g>
<!-- ftsetup -->
<g id="node12" class="node">
<title>ftsetup</title>
<path fill="none" stroke="black" d="M792.81,-180C792.81,-180 754.16,-180 754.16,-180 748.16,-180 742.16,-174 742.16,-168 742.16,-168 742.16,-156 742.16,-156 742.16,-150 748.16,-144 754.16,-144 754.16,-144 792.81,-144 792.81,-144 798.81,-144 804.81,-150 804.81,-156 804.81,-156 804.81,-168 804.81,-168 804.81,-174 798.81,-180 792.81,-180"/>
<text text-anchor="middle" x="773.49" y="-157.8" font-family="Helvetica,Arial,sans-serif" font-size="14.00">f:ftsetup</text>
</g>
<!-- kmerindexbloom -->
<g id="node13" class="node">
<title>kmerindexbloom</title>
<path fill="none" stroke="black" d="M284.76,-684C284.76,-684 186.22,-684 186.22,-684 180.22,-684 174.22,-678 174.22,-672 174.22,-672 174.22,-660 174.22,-660 174.22,-654 180.22,-648 186.22,-648 186.22,-648 284.76,-648 284.76,-648 290.76,-648 296.76,-654 296.76,-660 296.76,-660 296.76,-672 296.76,-672 296.76,-678 290.76,-684 284.76,-684"/>
<text text-anchor="middle" x="235.49" y="-661.8" font-family="Helvetica,Arial,sans-serif" font-size="14.00">o:kmerindexbloom</text>
</g>
<!-- kmerindexbloom&#45;&gt;taxtree -->
<g id="edge1" class="edge">
<title>kmerindexbloom-&gt;taxtree</title>
<path fill="none" stroke="black" stroke-dasharray="1,5" d="M179.29,-684.49C150.77,-693.59 115.4,-705.24 76.06,-719.53"/>
<polygon fill="black" stroke="black" points="75.03,-716.18 66.84,-722.91 77.44,-722.76 75.03,-716.18"/>
</g>
<!-- kmerindexbloom&#45;&gt;taxnodes -->
<g id="edge5" class="edge">
<title>kmerindexbloom-&gt;taxnodes</title>
<path fill="none" stroke="black" stroke-dasharray="1,5" d="M207.01,-684.48C192.49,-693.4 174.63,-704.37 158.99,-713.97"/>
<polygon fill="black" stroke="black" points="157.58,-710.73 150.89,-718.95 161.24,-716.7 157.58,-710.73"/>
</g>
<!-- kmerindexbloom&#45;&gt;categories -->
<g id="edge4" class="edge">
<title>kmerindexbloom-&gt;categories</title>
<path fill="none" stroke="black" stroke-dasharray="1,5" d="M231.53,-684.3C229.85,-691.68 227.83,-700.48 225.94,-708.75"/>
<polygon fill="black" stroke="black" points="222.55,-707.89 223.73,-718.42 229.37,-709.45 222.55,-707.89"/>
</g>
<!-- kmerindexbloom&#45;&gt;refseqfna -->
<g id="edge6" class="edge">
<title>kmerindexbloom-&gt;refseqfna</title>
<path fill="none" stroke="black" d="M256,-684.3C266.08,-692.8 278.39,-703.19 289.42,-712.49"/>
<polygon fill="black" stroke="black" points="286.86,-714.91 296.76,-718.68 291.37,-709.55 286.86,-714.91"/>
</g>
<!-- kmerindexbloom&#45;&gt;accmap -->
<g id="edge2" class="edge">
<title>kmerindexbloom-&gt;accmap</title>
<path fill="none" stroke="black" stroke-dasharray="1,5" d="M279.19,-684.48C305.27,-694.91 338.32,-708.14 364.75,-718.7"/>
<polygon fill="black" stroke="black" points="363.26,-721.88 373.85,-722.35 365.86,-715.38 363.26,-721.88"/>
</g>
<!-- kmerindexbloom&#45;&gt;addfastas -->
<g id="edge7" class="edge">
<title>kmerindexbloom-&gt;addfastas</title>
<path fill="none" stroke="black" stroke-dasharray="1,5" d="M296.95,-681.93C299.83,-682.63 302.69,-683.32 305.49,-684 368.34,-699.22 387.28,-700.5 451.76,-719.32"/>
<polygon fill="black" stroke="black" points="450.48,-722.59 461.06,-722.07 452.46,-715.88 450.48,-722.59"/>
</g>
<!-- kmerindexbloom&#45;&gt;loaddb -->
<g id="edge3" class="edge">
<title>kmerindexbloom-&gt;loaddb</title>
<path fill="none" stroke="black" stroke-dasharray="1,5" d="M297.25,-682.33C300.03,-682.91 302.79,-683.47 305.49,-684 410.04,-704.33 442.21,-692.01 548.82,-719.95"/>
<polygon fill="black" stroke="black" points="547.7,-723.27 558.27,-722.48 549.52,-716.51 547.7,-723.27"/>
</g>
<!-- storekmerindex -->
<g id="node14" class="node">
<title>storekmerindex</title>
<path fill="none" stroke="black" d="M344.3,-612C344.3,-612 256.67,-612 256.67,-612 250.67,-612 244.67,-606 244.67,-600 244.67,-600 244.67,-588 244.67,-588 244.67,-582 250.67,-576 256.67,-576 256.67,-576 344.3,-576 344.3,-576 350.3,-576 356.3,-582 356.3,-588 356.3,-588 356.3,-600 356.3,-600 356.3,-606 350.3,-612 344.3,-612"/>
<text text-anchor="middle" x="300.49" y="-589.8" font-family="Helvetica,Arial,sans-serif" font-size="14.00">f:storekmerindex</text>
</g>
<!-- storekmerindex&#45;&gt;kmerindexbloom -->
<g id="edge8" class="edge">
<title>storekmerindex-&gt;kmerindexbloom</title>
<path fill="none" stroke="black" stroke-dasharray="1,5" d="M284.42,-612.3C276.78,-620.53 267.51,-630.52 259.09,-639.58"/>
<polygon fill="black" stroke="black" points="256.64,-637.08 252.4,-646.79 261.77,-641.84 256.64,-637.08"/>
</g>
<!-- loadkmerindex -->
<g id="node15" class="node">
<title>loadkmerindex</title>
<path fill="none" stroke="black" d="M464.92,-540C464.92,-540 378.06,-540 378.06,-540 372.06,-540 366.06,-534 366.06,-528 366.06,-528 366.06,-516 366.06,-516 366.06,-510 372.06,-504 378.06,-504 378.06,-504 464.92,-504 464.92,-504 470.92,-504 476.92,-510 476.92,-516 476.92,-516 476.92,-528 476.92,-528 476.92,-534 470.92,-540 464.92,-540"/>
<text text-anchor="middle" x="421.49" y="-517.8" font-family="Helvetica,Arial,sans-serif" font-size="14.00">o:loadkmerindex</text>
</g>
<!-- loadkmerindex&#45;&gt;kmerindexbloom -->
<g id="edge9" class="edge">
<title>loadkmerindex-&gt;kmerindexbloom</title>
<path fill="none" stroke="black" stroke-dasharray="1,5" d="M365.74,-531.37C316.88,-539.99 251.27,-555.1 235.49,-576 222.61,-593.06 223.65,-617.66 227.32,-636.67"/>
<polygon fill="black" stroke="black" points="223.86,-637.24 229.51,-646.2 230.68,-635.67 223.86,-637.24"/>
</g>
<!-- loadkmerindex&#45;&gt;storekmerindex -->
<g id="edge10" class="edge">
<title>loadkmerindex-&gt;storekmerindex</title>
<path fill="none" stroke="black" d="M391.27,-540.48C375.7,-549.49 356.53,-560.58 339.83,-570.24"/>
<polygon fill="black" stroke="black" points="338.54,-566.94 331.63,-574.98 342.04,-573 338.54,-566.94"/>
</g>
<!-- intersectcount -->
<g id="node16" class="node">
<title>intersectcount</title>
<path fill="none" stroke="black" d="M588.19,-468C588.19,-468 506.78,-468 506.78,-468 500.78,-468 494.78,-462 494.78,-456 494.78,-456 494.78,-444 494.78,-444 494.78,-438 500.78,-432 506.78,-432 506.78,-432 588.19,-432 588.19,-432 594.19,-432 600.19,-438 600.19,-444 600.19,-444 600.19,-456 600.19,-456 600.19,-462 594.19,-468 588.19,-468"/>
<text text-anchor="middle" x="547.49" y="-445.8" font-family="Helvetica,Arial,sans-serif" font-size="14.00">o:intersectcount</text>
</g>
<!-- intersectcount&#45;&gt;loaddb -->
<g id="edge11" class="edge">
<title>intersectcount-&gt;loaddb</title>
<path fill="none" stroke="black" stroke-dasharray="1,5" d="M550.23,-468.46C557.77,-516.34 578.81,-650.05 588.04,-708.76"/>
<polygon fill="black" stroke="black" points="584.53,-708.94 589.54,-718.27 591.44,-707.85 584.53,-708.94"/>
</g>
<!-- intersectcount&#45;&gt;loadkmerindex -->
<g id="edge12" class="edge">
<title>intersectcount-&gt;loadkmerindex</title>
<path fill="none" stroke="black" stroke-dasharray="1,5" d="M516.02,-468.48C499.81,-477.49 479.85,-488.58 462.45,-498.24"/>
<polygon fill="black" stroke="black" points="460.92,-495.09 453.88,-503 464.32,-501.21 460.92,-495.09"/>
</g>
<!-- intersectcsv -->
<g id="node17" class="node">
<title>intersectcsv</title>
<polygon fill="none" stroke="black" stroke-width="2" points="535.8,-396 445.17,-396 445.17,-360 535.8,-360 535.8,-396"/>
<text text-anchor="middle" x="490.49" y="-373.8" font-family="Helvetica,Arial,sans-serif" font-size="14.00">f:intersectcsv</text>
</g>
<!-- intersectcsv&#45;&gt;intersectcount -->
<g id="edge13" class="edge">
<title>intersectcsv-&gt;intersectcount</title>
<path fill="none" stroke="black" stroke-dasharray="1,5" d="M504.58,-396.3C511.13,-404.36 519.07,-414.11 526.33,-423.02"/>
<polygon fill="black" stroke="black" points="523.57,-425.18 532.6,-430.72 529,-420.76 523.57,-425.18"/>
</g>
<!-- dendrogram -->
<g id="node18" class="node">
<title>dendrogram</title>
<path fill="none" stroke="black" d="M636.75,-396C636.75,-396 566.22,-396 566.22,-396 560.22,-396 554.22,-390 554.22,-384 554.22,-384 554.22,-372 554.22,-372 554.22,-366 560.22,-360 566.22,-360 566.22,-360 636.75,-360 636.75,-360 642.75,-360 648.75,-366 648.75,-372 648.75,-372 648.75,-384 648.75,-384 648.75,-390 642.75,-396 636.75,-396"/>
<text text-anchor="middle" x="601.49" y="-373.8" font-family="Helvetica,Arial,sans-serif" font-size="14.00">o:dendrogram</text>
</g>
<!-- dendrogram&#45;&gt;intersectcount -->
<g id="edge14" class="edge">
<title>dendrogram-&gt;intersectcount</title>
<path fill="none" stroke="black" stroke-dasharray="1,5" d="M588.14,-396.3C581.93,-404.36 574.4,-414.11 567.53,-423.02"/>
<polygon fill="black" stroke="black" points="564.94,-420.64 561.61,-430.7 570.48,-424.92 564.94,-420.64"/>
</g>
<!-- dendrolatex -->
<g id="node19" class="node">
<title>dendrolatex</title>
<polygon fill="none" stroke="black" stroke-width="2" points="744.8,-108 654.17,-108 654.17,-72 744.8,-72 744.8,-108"/>
<text text-anchor="middle" x="699.49" y="-85.8" font-family="Helvetica,Arial,sans-serif" font-size="14.00">f:dendrolatex</text>
</g>
<!-- dendrolatex&#45;&gt;loaddb -->
<g id="edge16" class="edge">
<title>dendrolatex-&gt;loaddb</title>
<path fill="none" stroke="black" stroke-dasharray="1,5" d="M702.52,-108.43C706.9,-135.14 714.49,-187.88 714.49,-233 714.49,-233 714.49,-233 714.49,-595 714.49,-646.62 667.54,-688.84 631.89,-713.46"/>
<polygon fill="black" stroke="black" points="630.28,-710.33 623.9,-718.79 634.16,-716.15 630.28,-710.33"/>
</g>
<!-- dendrolatex&#45;&gt;ftsetup -->
<g id="edge15" class="edge">
<title>dendrolatex-&gt;ftsetup</title>
<path fill="none" stroke="black" d="M717.78,-108.3C726.58,-116.63 737.31,-126.78 746.99,-135.93"/>
<polygon fill="black" stroke="black" points="744.38,-138.28 754.05,-142.61 749.19,-133.2 744.38,-138.28"/>
</g>
<!-- dendrolatex&#45;&gt;dendrogram -->
<g id="edge17" class="edge">
<title>dendrolatex-&gt;dendrogram</title>
<path fill="none" stroke="black" stroke-dasharray="1,5" d="M693.5,-108.46C677.06,-156.44 631.09,-290.61 611.04,-349.12"/>
<polygon fill="black" stroke="black" points="607.81,-347.74 607.88,-358.34 614.43,-350.01 607.81,-347.74"/>
</g>
<!-- updatestore -->
<g id="node20" class="node">
<title>updatestore</title>
<path fill="none" stroke="black" d="M574.2,-324C574.2,-324 506.78,-324 506.78,-324 500.78,-324 494.78,-318 494.78,-312 494.78,-312 494.78,-300 494.78,-300 494.78,-294 500.78,-288 506.78,-288 506.78,-288 574.2,-288 574.2,-288 580.2,-288 586.2,-294 586.2,-300 586.2,-300 586.2,-312 586.2,-312 586.2,-318 580.2,-324 574.2,-324"/>
<text text-anchor="middle" x="540.49" y="-301.8" font-family="Helvetica,Arial,sans-serif" font-size="14.00">o:updatestore</text>
</g>
<!-- updatestore&#45;&gt;loaddb -->
<g id="edge19" class="edge">
<title>updatestore-&gt;loaddb</title>
<path fill="none" stroke="black" stroke-dasharray="1,5" d="M586.43,-317.1C611.02,-324.83 639.8,-338.03 657.49,-360 682.85,-391.5 676.49,-408.55 676.49,-449 676.49,-449 676.49,-449 676.49,-595 676.49,-641.01 643.42,-685.18 618.78,-711.71"/>
<polygon fill="black" stroke="black" points="616.57,-708.95 612.18,-718.59 621.63,-713.8 616.57,-708.95"/>
</g>
<!-- updatestore&#45;&gt;loadkmerindex -->
<g id="edge20" class="edge">
<title>updatestore-&gt;loadkmerindex</title>
<path fill="none" stroke="black" stroke-dasharray="1,5" d="M494.38,-319.25C473.25,-327.3 449.97,-340.13 436.49,-360 409.56,-399.69 411.89,-458.11 416.42,-492.59"/>
<polygon fill="black" stroke="black" points="412.92,-492.84 417.85,-502.22 419.85,-491.81 412.92,-492.84"/>
</g>
<!-- updatestore&#45;&gt;dendrogram -->
<g id="edge18" class="edge">
<title>updatestore-&gt;dendrogram</title>
<path fill="none" stroke="black" stroke-dasharray="1,5" d="M555.56,-324.3C562.66,-332.44 571.26,-342.31 579.09,-351.3"/>
<polygon fill="black" stroke="black" points="576.38,-353.51 585.59,-358.75 581.66,-348.92 576.38,-353.51"/>
</g>
<!-- ftdb -->
<g id="node21" class="node">
<title>ftdb</title>
<polygon fill="none" stroke="black" stroke-width="2" points="512.49,-252 458.49,-252 458.49,-216 512.49,-216 512.49,-252"/>
<text text-anchor="middle" x="485.49" y="-229.8" font-family="Helvetica,Arial,sans-serif" font-size="14.00">f:ftdb</text>
</g>
<!-- ftdb&#45;&gt;updatestore -->
<g id="edge21" class="edge">
<title>ftdb-&gt;updatestore</title>
<path fill="none" stroke="black" stroke-dasharray="1,5" d="M499.08,-252.3C505.41,-260.36 513.07,-270.11 520.07,-279.02"/>
<polygon fill="black" stroke="black" points="517.18,-281 526.11,-286.71 522.69,-276.68 517.18,-281"/>
</g>
<!-- loadftdb -->
<g id="node22" class="node">
<title>loadftdb</title>
<path fill="none" stroke="black" d="M510.26,-180C510.26,-180 460.71,-180 460.71,-180 454.71,-180 448.71,-174 448.71,-168 448.71,-168 448.71,-156 448.71,-156 448.71,-150 454.71,-144 460.71,-144 460.71,-144 510.26,-144 510.26,-144 516.26,-144 522.26,-150 522.26,-156 522.26,-156 522.26,-168 522.26,-168 522.26,-174 516.26,-180 510.26,-180"/>
<text text-anchor="middle" x="485.49" y="-157.8" font-family="Helvetica,Arial,sans-serif" font-size="14.00">o:loadftdb</text>
</g>
<!-- loadftdb&#45;&gt;updatestore -->
<g id="edge22" class="edge">
<title>loadftdb-&gt;updatestore</title>
<path fill="none" stroke="black" stroke-dasharray="1,5" d="M499.65,-180.15C507.18,-190.07 515.98,-203.11 521.49,-216 529.74,-235.34 534.55,-258.62 537.26,-276.52"/>
<polygon fill="black" stroke="black" points="533.76,-276.74 538.58,-286.17 540.69,-275.79 533.76,-276.74"/>
</g>
<!-- loadftdb&#45;&gt;ftdb -->
<g id="edge23" class="edge">
<title>loadftdb-&gt;ftdb</title>
<path fill="none" stroke="black" d="M485.49,-180.3C485.49,-187.59 485.49,-196.27 485.49,-204.46"/>
<polygon fill="black" stroke="black" points="481.99,-204.38 485.49,-214.38 488.99,-204.38 481.99,-204.38"/>
</g>
<!-- ftdbinfo -->
<g id="node23" class="node">
<title>ftdbinfo</title>
<polygon fill="none" stroke="black" stroke-width="2" points="427.31,-108 357.66,-108 357.66,-72 427.31,-72 427.31,-108"/>
<text text-anchor="middle" x="392.49" y="-85.8" font-family="Helvetica,Arial,sans-serif" font-size="14.00">f:ftdbinfo</text>
</g>
<!-- ftdbinfo&#45;&gt;loadftdb -->
<g id="edge24" class="edge">
<title>ftdbinfo-&gt;loadftdb</title>
<path fill="none" stroke="black" stroke-dasharray="1,5" d="M415.48,-108.3C426.88,-116.89 440.84,-127.39 453.28,-136.76"/>
<polygon fill="black" stroke="black" points="451.14,-139.53 461.23,-142.74 455.35,-133.93 451.14,-139.53"/>
</g>
<!-- allinonelatex -->
<g id="node24" class="node">
<title>allinonelatex</title>
<polygon fill="none" stroke="black" stroke-width="2" points="784.91,-36 688.06,-36 688.06,0 784.91,0 784.91,-36"/>
<text text-anchor="middle" x="736.49" y="-13.8" font-family="Helvetica,Arial,sans-serif" font-size="14.00">f:allinonelatex</text>
</g>
<!-- allinonelatex&#45;&gt;ftsetup -->
<g id="edge25" class="edge">
<title>allinonelatex-&gt;ftsetup</title>
<path fill="none" stroke="black" d="M742.39,-36.07C745.86,-46.4 750.19,-59.88 753.49,-72 758.96,-92.11 764.09,-115.07 767.79,-132.63"/>
<polygon fill="black" stroke="black" points="764.34,-133.26 769.8,-142.34 771.2,-131.84 764.34,-133.26"/>
</g>
<!-- allinonelatex&#45;&gt;dendrolatex -->
<g id="edge26" class="edge">
<title>allinonelatex-&gt;dendrolatex</title>
<path fill="none" stroke="black" d="M727.34,-36.3C723.26,-44.02 718.36,-53.29 713.82,-61.89"/>
<polygon fill="black" stroke="black" points="710.81,-60.08 709.23,-70.56 717,-63.35 710.81,-60.08"/>
</g>
<!-- ftmatchres -->
<g id="node25" class="node">
<title>ftmatchres</title>
<path fill="none" stroke="black" d="M912.47,-108C912.47,-108 850.5,-108 850.5,-108 844.5,-108 838.5,-102 838.5,-96 838.5,-96 838.5,-84 838.5,-84 838.5,-78 844.5,-72 850.5,-72 850.5,-72 912.47,-72 912.47,-72 918.47,-72 924.47,-78 924.47,-84 924.47,-84 924.47,-96 924.47,-96 924.47,-102 918.47,-108 912.47,-108"/>
<text text-anchor="middle" x="881.49" y="-85.8" font-family="Helvetica,Arial,sans-serif" font-size="14.00">o:ftmatchres</text>
</g>
<!-- ftmatchres&#45;&gt;fastqmaptransform -->
<g id="edge29" class="edge">
<title>ftmatchres-&gt;fastqmaptransform</title>
<path fill="none" stroke="black" stroke-dasharray="1,5" d="M915.2,-108.48C932.73,-117.57 954.36,-128.78 973.11,-138.51"/>
<polygon fill="black" stroke="black" points="971.37,-141.55 981.85,-143.04 974.59,-135.33 971.37,-141.55"/>
</g>
<!-- ftmatchres&#45;&gt;fastqdownload -->
<g id="edge28" class="edge">
<title>ftmatchres-&gt;fastqdownload</title>
<path fill="none" stroke="black" d="M880.5,-108.3C880.08,-115.59 879.58,-124.27 879.12,-132.46"/>
<polygon fill="black" stroke="black" points="875.63,-132.2 878.55,-142.38 882.61,-132.6 875.63,-132.2"/>
</g>
<!-- ftmatchres&#45;&gt;ftsetup -->
<g id="edge27" class="edge">
<title>ftmatchres-&gt;ftsetup</title>
<path fill="none" stroke="black" d="M854.51,-108.48C840.88,-117.32 824.15,-128.16 809.44,-137.7"/>
<polygon fill="black" stroke="black" points="807.87,-134.54 801.39,-142.92 811.68,-140.41 807.87,-134.54"/>
</g>
<!-- ftmatchres&#45;&gt;loadftdb -->
<g id="edge30" class="edge">
<title>ftmatchres-&gt;loadftdb</title>
<path fill="none" stroke="black" stroke-dasharray="1,5" d="M838.29,-97.04C757.75,-108.36 588.44,-132.51 533.57,-144.02"/>
<polygon fill="black" stroke="black" points="533.12,-140.53 524.17,-146.19 534.7,-147.35 533.12,-140.53"/>
</g>
<!-- ftmatch -->
<g id="node26" class="node">
<title>ftmatch</title>
<polygon fill="none" stroke="black" stroke-width="2" points="915.14,-36 847.83,-36 847.83,0 915.14,0 915.14,-36"/>
<text text-anchor="middle" x="881.49" y="-13.8" font-family="Helvetica,Arial,sans-serif" font-size="14.00">f:ftmatch</text>
</g>
<!-- ftmatch&#45;&gt;fastqmaptransform -->
<g id="edge32" class="edge">
<title>ftmatch-&gt;fastqmaptransform</title>
<path fill="none" stroke="black" stroke-dasharray="1,5" d="M898.46,-36.08C908.67,-46.41 921.9,-59.89 933.49,-72 953.82,-93.26 976.58,-117.71 993.12,-135.6"/>
<polygon fill="black" stroke="black" points="990.32,-137.73 999.68,-142.71 995.46,-132.98 990.32,-137.73"/>
</g>
<!-- ftmatch&#45;&gt;ftsetup -->
<g id="edge31" class="edge">
<title>ftmatch-&gt;ftsetup</title>
<path fill="none" stroke="black" d="M862.67,-36.26C852.31,-46.22 839.56,-59.26 829.49,-72 814.06,-91.52 799.19,-115.47 788.66,-133.61"/>
<polygon fill="black" stroke="black" points="785.66,-131.81 783.73,-142.23 791.73,-135.28 785.66,-131.81"/>
</g>
<!-- ftmatch&#45;&gt;ftmatchres -->
<g id="edge33" class="edge">
<title>ftmatch-&gt;ftmatchres</title>
<path fill="none" stroke="black" stroke-dasharray="1,5" d="M881.49,-36.3C881.49,-43.59 881.49,-52.27 881.49,-60.46"/>
<polygon fill="black" stroke="black" points="877.99,-60.38 881.49,-70.38 884.99,-60.38 877.99,-60.38"/>
</g>
<!-- ftdb2fastq -->
<g id="node27" class="node">
<title>ftdb2fastq</title>
<polygon fill="none" stroke="black" stroke-width="2" points="635.15,-108 553.83,-108 553.83,-72 635.15,-72 635.15,-108"/>
<text text-anchor="middle" x="594.49" y="-85.8" font-family="Helvetica,Arial,sans-serif" font-size="14.00">f:ftdb2fastq</text>
</g>
<!-- ftdb2fastq&#45;&gt;db2fastqtaxids -->
<g id="edge35" class="edge">
<title>ftdb2fastq-&gt;db2fastqtaxids</title>
<path fill="none" stroke="black" stroke-dasharray="1,5" d="M594.49,-108.3C594.49,-115.59 594.49,-124.27 594.49,-132.46"/>
<polygon fill="black" stroke="black" points="590.99,-132.38 594.49,-142.38 597.99,-132.38 590.99,-132.38"/>
</g>
<!-- ftdb2fastq&#45;&gt;ftsetup -->
<g id="edge34" class="edge">
<title>ftdb2fastq-&gt;ftsetup</title>
<path fill="none" stroke="black" d="M635.55,-107.06C664.2,-118.26 702.32,-133.17 731.23,-144.47"/>
<polygon fill="black" stroke="black" points="729.82,-147.68 740.4,-148.06 732.37,-141.16 729.82,-147.68"/>
</g>
<!-- ftdb2fastq&#45;&gt;loadftdb -->
<g id="edge36" class="edge">
<title>ftdb2fastq-&gt;loadftdb</title>
<path fill="none" stroke="black" stroke-dasharray="1,5" d="M567.26,-108.48C553.5,-117.32 536.62,-128.16 521.77,-137.7"/>
<polygon fill="black" stroke="black" points="520.16,-134.57 513.64,-142.92 523.94,-140.46 520.16,-134.57"/>
</g>
<!-- ftsvgtaxtree -->
<g id="node28" class="node">
<title>ftsvgtaxtree</title>
<polygon fill="none" stroke="black" stroke-width="2" points="535.8,-108 445.17,-108 445.17,-72 535.8,-72 535.8,-108"/>
<text text-anchor="middle" x="490.49" y="-85.8" font-family="Helvetica,Arial,sans-serif" font-size="14.00">f:ftsvgtaxtree</text>
</g>
<!-- ftsvgtaxtree&#45;&gt;ftsetup -->
<g id="edge37" class="edge">
<title>ftsvgtaxtree-&gt;ftsetup</title>
<path fill="none" stroke="black" d="M536.08,-105.63C538.92,-106.45 541.74,-107.25 544.49,-108 608.91,-125.57 684.54,-142.33 730.72,-152.14"/>
<polygon fill="black" stroke="black" points="729.82,-155.53 740.33,-154.17 731.27,-148.68 729.82,-155.53"/>
</g>
<!-- ftsvgtaxtree&#45;&gt;loadftdb -->
<g id="edge38" class="edge">
<title>ftsvgtaxtree-&gt;loadftdb</title>
<path fill="none" stroke="black" stroke-dasharray="1,5" d="M489.25,-108.3C488.73,-115.59 488.11,-124.27 487.52,-132.46"/>
<polygon fill="black" stroke="black" points="484.04,-132.16 486.82,-142.39 491.02,-132.66 484.04,-132.16"/>
</g>
<!-- fttax2kmers -->
<g id="node29" class="node">
<title>fttax2kmers</title>
<path fill="none" stroke="black" d="M208.37,-108C208.37,-108 138.61,-108 138.61,-108 132.61,-108 126.61,-102 126.61,-96 126.61,-96 126.61,-84 126.61,-84 126.61,-78 132.61,-72 138.61,-72 138.61,-72 208.37,-72 208.37,-72 214.37,-72 220.37,-78 220.37,-84 220.37,-84 220.37,-96 220.37,-96 220.37,-102 214.37,-108 208.37,-108"/>
<text text-anchor="middle" x="173.49" y="-85.8" font-family="Helvetica,Arial,sans-serif" font-size="14.00">o:fttax2kmers</text>
</g>
<!-- fttax2kmers&#45;&gt;taxtree -->
<g id="edge39" class="edge">
<title>fttax2kmers-&gt;taxtree</title>
<path fill="none" stroke="black" stroke-dasharray="1,5" d="M132.63,-108.45C115.36,-117.27 95.94,-129.26 81.49,-144 49.87,-176.24 32.49,-187.85 32.49,-233 32.49,-233 32.49,-233 32.49,-595 32.49,-634.26 32.49,-679.62 32.49,-708.31"/>
<polygon fill="black" stroke="black" points="28.99,-708 32.49,-718 35.99,-708 28.99,-708"/>
</g>
<!-- fttax2kmers&#45;&gt;taxnodes -->
<g id="edge43" class="edge">
<title>fttax2kmers-&gt;taxnodes</title>
<path fill="none" stroke="black" stroke-dasharray="1,5" d="M149.34,-108.44C118.89,-132.65 70.49,-179.55 70.49,-233 70.49,-233 70.49,-233 70.49,-595 70.49,-637.04 90.53,-682.18 105.49,-710.01"/>
<polygon fill="black" stroke="black" points="102.27,-711.42 110.18,-718.46 108.39,-708.02 102.27,-711.42"/>
</g>
<!-- fttax2kmers&#45;&gt;categories -->
<g id="edge42" class="edge">
<title>fttax2kmers-&gt;categories</title>
<path fill="none" stroke="black" stroke-dasharray="1,5" d="M157.14,-108.44C148.72,-118.24 138.9,-131.08 132.49,-144 114.26,-180.69 108.49,-192.03 108.49,-233 108.49,-233 108.49,-233 108.49,-595 108.49,-635.97 107.9,-651.23 132.49,-684 141.62,-696.18 154.44,-706.16 167.45,-714.04"/>
<polygon fill="black" stroke="black" points="165.62,-717.03 176.05,-718.92 169.07,-710.94 165.62,-717.03"/>
</g>
<!-- fttax2kmers&#45;&gt;refseqfna -->
<g id="edge44" class="edge">
<title>fttax2kmers-&gt;refseqfna</title>
<path fill="none" stroke="black" d="M168.02,-108.29C160.13,-134.82 146.49,-187.33 146.49,-233 146.49,-233 146.49,-233 146.49,-595 146.49,-635.45 138.65,-653.74 165.49,-684 195.98,-718.39 220.36,-705.86 267.85,-719.43"/>
<polygon fill="black" stroke="black" points="266.65,-722.72 277.24,-722.41 268.77,-716.05 266.65,-722.72"/>
</g>
<!-- fttax2kmers&#45;&gt;accmap -->
<g id="edge40" class="edge">
<title>fttax2kmers-&gt;accmap</title>
<path fill="none" stroke="black" stroke-dasharray="1,5" d="M220.77,-108.24C269.53,-129.43 338.49,-170.45 338.49,-233 338.49,-233 338.49,-233 338.49,-451 338.49,-491.45 331.42,-509.07 357.49,-540 385.25,-572.94 423.33,-540.33 447.49,-576 475.32,-617.11 448.6,-676.23 428.37,-710.21"/>
<polygon fill="black" stroke="black" points="425.46,-708.27 423.17,-718.62 431.41,-711.96 425.46,-708.27"/>
</g>
<!-- fttax2kmers&#45;&gt;addfastas -->
<g id="edge45" class="edge">
<title>fttax2kmers-&gt;addfastas</title>
<path fill="none" stroke="black" stroke-dasharray="1,5" d="M220.75,-101.4C281.57,-117.88 379.49,-156.33 379.49,-233 379.49,-233 379.49,-233 379.49,-379 379.49,-451.84 457.92,-436.58 485.49,-504 513.67,-572.95 510.17,-662.89 505.93,-708.22"/>
<polygon fill="black" stroke="black" points="502.47,-707.7 504.93,-718 509.43,-708.41 502.47,-707.7"/>
</g>
<!-- fttax2kmers&#45;&gt;loadftdb -->
<g id="edge41" class="edge">
<title>fttax2kmers-&gt;loadftdb</title>
<path fill="none" stroke="black" stroke-dasharray="1,5" d="M220.53,-101.56C279.07,-114.69 378.48,-136.99 437.46,-150.22"/>
<polygon fill="black" stroke="black" points="436.34,-153.56 446.86,-152.33 437.87,-146.73 436.34,-153.56"/>
</g>
<!-- ftcons -->
<g id="node30" class="node">
<title>ftcons</title>
<path fill="none" stroke="black" d="M282.87,-36C282.87,-36 248.1,-36 248.1,-36 242.1,-36 236.1,-30 236.1,-24 236.1,-24 236.1,-12 236.1,-12 236.1,-6 242.1,0 248.1,0 248.1,0 282.87,0 282.87,0 288.87,0 294.87,-6 294.87,-12 294.87,-12 294.87,-24 294.87,-24 294.87,-30 288.87,-36 282.87,-36"/>
<text text-anchor="middle" x="265.49" y="-13.8" font-family="Helvetica,Arial,sans-serif" font-size="14.00">f:ftcons</text>
</g>
<!-- ftcons&#45;&gt;loadftdb -->
<g id="edge46" class="edge">
<title>ftcons-&gt;loadftdb</title>
<path fill="none" stroke="black" stroke-dasharray="1,5" d="M277.74,-36.27C292.53,-56 319.09,-88.11 348.49,-108 375.59,-126.33 409.95,-139.6 437.47,-148.28"/>
<polygon fill="black" stroke="black" points="436.39,-151.61 446.97,-151.17 438.42,-144.91 436.39,-151.61"/>
</g>
<!-- ftcons&#45;&gt;fttax2kmers -->
<g id="edge47" class="edge">
<title>ftcons-&gt;fttax2kmers</title>
<path fill="none" stroke="black" stroke-dasharray="1,5" d="M242.74,-36.3C231.47,-44.89 217.66,-55.39 205.34,-64.76"/>
<polygon fill="black" stroke="black" points="203.33,-61.9 197.49,-70.74 207.57,-67.47 203.33,-61.9"/>
</g>
<!-- tax2kmers -->
<g id="node31" class="node">
<title>tax2kmers</title>
<path fill="none" stroke="black" d="M388.09,-684C388.09,-684 326.88,-684 326.88,-684 320.88,-684 314.88,-678 314.88,-672 314.88,-672 314.88,-660 314.88,-660 314.88,-654 320.88,-648 326.88,-648 326.88,-648 388.09,-648 388.09,-648 394.09,-648 400.09,-654 400.09,-660 400.09,-660 400.09,-672 400.09,-672 400.09,-678 394.09,-684 388.09,-684"/>
<text text-anchor="middle" x="357.49" y="-661.8" font-family="Helvetica,Arial,sans-serif" font-size="14.00">o:tax2kmers</text>
</g>
<!-- tax2kmers&#45;&gt;taxtree -->
<g id="edge48" class="edge">
<title>tax2kmers-&gt;taxtree</title>
<path fill="none" stroke="black" stroke-dasharray="1,5" d="M314.51,-681.64C311.47,-682.49 308.44,-683.29 305.49,-684 207.9,-707.39 176.76,-693.36 76.2,-719.93"/>
<polygon fill="black" stroke="black" points="75.44,-716.51 66.71,-722.51 77.28,-723.26 75.44,-716.51"/>
</g>
<!-- tax2kmers&#45;&gt;taxnodes -->
<g id="edge52" class="edge">
<title>tax2kmers-&gt;taxnodes</title>
<path fill="none" stroke="black" stroke-dasharray="1,5" d="M314.42,-681.3C311.4,-682.23 308.4,-683.14 305.49,-684 248.4,-700.82 230.53,-701.28 170.9,-719.39"/>
<polygon fill="black" stroke="black" points="170.09,-715.97 161.57,-722.27 172.16,-722.66 170.09,-715.97"/>
</g>
<!-- tax2kmers&#45;&gt;categories -->
<g id="edge51" class="edge">
<title>tax2kmers-&gt;categories</title>
<path fill="none" stroke="black" stroke-dasharray="1,5" d="M323.02,-684.48C305.02,-693.61 282.79,-704.89 263.56,-714.65"/>
<polygon fill="black" stroke="black" points="262.2,-711.41 254.86,-719.05 265.37,-717.65 262.2,-711.41"/>
</g>
<!-- tax2kmers&#45;&gt;refseqfna -->
<g id="edge53" class="edge">
<title>tax2kmers-&gt;refseqfna</title>
<path fill="none" stroke="black" d="M347.85,-684.3C343.55,-692.02 338.38,-701.29 333.59,-709.89"/>
<polygon fill="black" stroke="black" points="330.56,-708.13 328.75,-718.57 336.68,-711.54 330.56,-708.13"/>
</g>
<!-- tax2kmers&#45;&gt;accmap -->
<g id="edge49" class="edge">
<title>tax2kmers-&gt;accmap</title>
<path fill="none" stroke="black" stroke-dasharray="1,5" d="M370.59,-684.3C376.62,-692.27 383.91,-701.9 390.6,-710.74"/>
<polygon fill="black" stroke="black" points="387.8,-712.83 396.62,-718.69 393.38,-708.6 387.8,-712.83"/>
</g>
<!-- tax2kmers&#45;&gt;addfastas -->
<g id="edge54" class="edge">
<title>tax2kmers-&gt;addfastas</title>
<path fill="none" stroke="black" stroke-dasharray="1,5" d="M393.7,-684.48C412.63,-693.62 436.01,-704.91 456.23,-714.67"/>
<polygon fill="black" stroke="black" points="454.59,-717.76 465.12,-718.96 457.63,-711.46 454.59,-717.76"/>
</g>
<!-- tax2kmers&#45;&gt;loaddb -->
<g id="edge50" class="edge">
<title>tax2kmers-&gt;loaddb</title>
<path fill="none" stroke="black" stroke-dasharray="1,5" d="M400.4,-679.95C405.14,-681.34 409.91,-682.71 414.49,-684 471.38,-700.01 489.23,-700.26 548.84,-719.67"/>
<polygon fill="black" stroke="black" points="547.59,-722.94 558.18,-722.76 549.79,-716.3 547.59,-722.94"/>
</g>
<!-- dbcons -->
<g id="node32" class="node">
<title>dbcons</title>
<path fill="none" stroke="black" d="M426.59,-612C426.59,-612 386.38,-612 386.38,-612 380.38,-612 374.38,-606 374.38,-600 374.38,-600 374.38,-588 374.38,-588 374.38,-582 380.38,-576 386.38,-576 386.38,-576 426.59,-576 426.59,-576 432.59,-576 438.59,-582 438.59,-588 438.59,-588 438.59,-600 438.59,-600 438.59,-606 432.59,-612 426.59,-612"/>
<text text-anchor="middle" x="406.49" y="-589.8" font-family="Helvetica,Arial,sans-serif" font-size="14.00">f:dbcons</text>
</g>
<!-- dbcons&#45;&gt;loaddb -->
<g id="edge55" class="edge">
<title>dbcons-&gt;loaddb</title>
<path fill="none" stroke="black" stroke-dasharray="1,5" d="M429.29,-612.41C462.29,-637.6 523.48,-684.32 560.83,-712.83"/>
<polygon fill="black" stroke="black" points="558.51,-715.46 568.58,-718.75 562.76,-709.9 558.51,-715.46"/>
</g>
<!-- dbcons&#45;&gt;tax2kmers -->
<g id="edge56" class="edge">
<title>dbcons-&gt;tax2kmers</title>
<path fill="none" stroke="black" stroke-dasharray="1,5" d="M394.37,-612.3C388.8,-620.27 382.06,-629.9 375.87,-638.74"/>
<polygon fill="black" stroke="black" points="373.19,-636.46 370.33,-646.66 378.93,-640.47 373.19,-636.46"/>
</g>
<!-- ftclear -->
<g id="node33" class="node">
<title>ftclear</title>
<polygon fill="none" stroke="black" stroke-width="2" points="1069.63,-36 1009.34,-36 1009.34,0 1069.63,0 1069.63,-36"/>
<text text-anchor="middle" x="1039.49" y="-13.8" font-family="Helvetica,Arial,sans-serif" font-size="14.00">f:ftclear</text>
</g>
<!-- ftclear&#45;&gt;clear -->
<g id="edge57" class="edge">
<title>ftclear-&gt;clear</title>
<path fill="none" stroke="black" d="M1039.49,-36.3C1039.49,-43.59 1039.49,-52.27 1039.49,-60.46"/>
<polygon fill="black" stroke="black" points="1035.99,-60.38 1039.49,-70.38 1042.99,-60.38 1035.99,-60.38"/>
</g>
</g>
</svg>